<svg width="143" height="18" viewBox="0 0 143 18" fill="none" xmlns="http://www.w3.org/2000/svg">
<path fill-rule="evenodd" clip-rule="evenodd" d="M39.9743 6.44706C36.0515 10.4656 33.071 9.3665 28.1782 4.90393C24.1298 1.21661 20.8051 3.48101 20.0009 6.65805C19.1867 3.47611 15.8595 1.21661 11.8136 4.91129C6.93081 9.37876 3.95039 10.4828 0.025078 6.4716C-0.364437 10.5097 3.82976 14.2927 9.38601 14.9134C14.5351 15.4875 19.051 13.1495 20.0034 9.59465C20.9659 13.1544 25.4793 15.485 30.6309 14.9012C36.1821 14.2707 40.3688 10.4877 39.9743 6.44706Z" fill="#1D293F"/>
<path d="M50.4837 14.1573C50.3493 14.1573 50.2351 14.1101 50.1411 14.0157C50.047 13.9213 50 13.8067 50 13.6719V0.505619C50 0.357304 50.0403 0.235955 50.1209 0.141574C50.215 0.0471912 50.3359 0 50.4837 0H55.8844C57.51 0 58.7863 0.38427 59.7133 1.15281C60.6403 1.92135 61.1038 3.04045 61.1038 4.51011C61.1038 5.96629 60.6403 7.07191 59.7133 7.82697C58.7863 8.56854 57.51 8.93933 55.8844 8.93933H52.9221V13.6719C52.9221 13.8202 52.875 13.9416 52.781 14.036C52.6869 14.1169 52.566 14.1573 52.4183 14.1573H50.4837ZM55.7836 6.67416C56.5629 6.67416 57.154 6.49213 57.557 6.12809C57.9735 5.75056 58.1817 5.20449 58.1817 4.48989C58.1817 3.78876 57.9802 3.2427 57.5772 2.85169C57.1876 2.46067 56.5897 2.26517 55.7836 2.26517H52.8817V6.67416H55.7836Z" fill="#1D293F"/>
<path d="M65.8882 14.3595C65.203 14.3595 64.5716 14.2247 63.9939 13.9551C63.4296 13.6719 62.9796 13.2944 62.6437 12.8225C62.3213 12.3506 62.1601 11.8315 62.1601 11.2652C62.1601 10.3483 62.5295 9.60674 63.2684 9.04045C64.0073 8.47416 65.0217 8.08989 66.3114 7.88764L69.0722 7.48315V7.05843C69.0722 6.47865 68.9244 6.04045 68.6289 5.74382C68.3333 5.44719 67.8631 5.29888 67.2182 5.29888C66.7749 5.29888 66.4189 5.37978 66.1502 5.54157C65.8815 5.70337 65.6598 5.87191 65.4851 6.04719C65.3239 6.20899 65.2165 6.31685 65.1627 6.37079C65.109 6.53258 65.0082 6.61348 64.8604 6.61348H63.2886C63.1677 6.61348 63.0602 6.57303 62.9661 6.49213C62.8855 6.41124 62.8452 6.30337 62.8452 6.16854C62.8587 5.83146 63.0199 5.45393 63.3289 5.03595C63.6513 4.60449 64.1417 4.23371 64.8 3.92359C65.4583 3.6 66.2711 3.4382 67.2384 3.4382C68.8237 3.4382 69.9791 3.79551 70.7045 4.51011C71.43 5.22472 71.7928 6.1618 71.7928 7.32135V13.6719C71.7928 13.8067 71.7457 13.9213 71.6517 14.0157C71.5711 14.1101 71.4569 14.1573 71.3091 14.1573H69.6365C69.5021 14.1573 69.3879 14.1101 69.2939 14.0157C69.1999 13.9213 69.1528 13.8067 69.1528 13.6719V12.8831C68.8573 13.3146 68.4408 13.6719 67.9034 13.9551C67.366 14.2247 66.6943 14.3595 65.8882 14.3595ZM66.5734 12.418C67.3123 12.418 67.9168 12.1753 68.3871 11.6899C68.8573 11.2045 69.0924 10.5034 69.0924 9.58652V9.18202L67.0772 9.50562C65.5322 9.74831 64.7597 10.2674 64.7597 11.0629C64.7597 11.4944 64.9343 11.8315 65.2836 12.0742C65.6464 12.3034 66.0763 12.418 66.5734 12.418Z" fill="#1D293F"/>
<path d="M74.8814 18C74.747 18 74.6328 17.9528 74.5388 17.8584C74.4447 17.7775 74.3977 17.6629 74.3977 17.5146V4.12584C74.3977 3.97753 74.4447 3.86292 74.5388 3.78202C74.6328 3.68764 74.747 3.64045 74.8814 3.64045H76.4935C76.6413 3.64045 76.7622 3.68764 76.8563 3.78202C76.9503 3.8764 76.9973 3.99101 76.9973 4.12584V4.93483C77.7094 3.93708 78.7774 3.4382 80.2015 3.4382C81.5584 3.4382 82.5996 3.86966 83.3251 4.73258C84.0506 5.58202 84.4402 6.72809 84.4939 8.17079C84.5074 8.33258 84.5141 8.57528 84.5141 8.89888C84.5141 9.22247 84.5074 9.46517 84.4939 9.62697C84.4536 11.0427 84.064 12.1888 83.3251 13.0652C82.5996 13.9281 81.5584 14.3595 80.2015 14.3595C78.8581 14.3595 77.8303 13.8809 77.1183 12.9236V17.5146C77.1183 17.6629 77.0712 17.7775 76.9772 17.8584C76.8966 17.9528 76.7824 18 76.6346 18H74.8814ZM79.4357 12.1753C80.8733 12.1753 81.639 11.2854 81.7331 9.50562C81.7465 9.37079 81.7532 9.16854 81.7532 8.89888C81.7532 8.62921 81.7465 8.42697 81.7331 8.29213C81.639 6.51236 80.8733 5.62247 79.4357 5.62247C78.67 5.62247 78.099 5.87191 77.7228 6.37079C77.3466 6.86966 77.1451 7.4764 77.1183 8.19101C77.1048 8.35281 77.0981 8.60899 77.0981 8.95955C77.0981 9.31011 77.1048 9.57303 77.1183 9.74831C77.1451 10.4225 77.3534 10.9955 77.743 11.4674C78.1326 11.9393 78.6968 12.1753 79.4357 12.1753Z" fill="#1D293F"/>
<path d="M91.2904 14.3595C89.7857 14.3595 88.59 13.9281 87.7033 13.0652C86.83 12.2022 86.3665 10.9753 86.3128 9.38427L86.2927 8.87865C86.2927 7.19326 86.7293 5.86517 87.6025 4.89438C88.4892 3.92359 89.7118 3.4382 91.2702 3.4382C92.8689 3.4382 94.0982 3.92359 94.958 4.89438C95.8313 5.86517 96.2679 7.15955 96.2679 8.77753V9.20225C96.2679 9.33708 96.2209 9.45168 96.1269 9.54607C96.0328 9.64045 95.9119 9.68764 95.7641 9.68764H89.0736V9.84944C89.1005 10.6045 89.302 11.2315 89.6782 11.7303C90.0678 12.2157 90.5985 12.4584 91.2702 12.4584C92.036 12.4584 92.6607 12.1483 93.1444 11.5281C93.2653 11.3798 93.3593 11.2921 93.4265 11.2652C93.4937 11.2247 93.6079 11.2045 93.7691 11.2045H95.5425C95.6634 11.2045 95.7641 11.2382 95.8447 11.3056C95.9388 11.373 95.9858 11.4674 95.9858 11.5888C95.9858 11.9124 95.791 12.2966 95.4014 12.7416C95.0252 13.173 94.4811 13.5506 93.7691 13.8742C93.057 14.1978 92.2308 14.3595 91.2904 14.3595ZM93.4869 7.96854V7.92809C93.4869 7.13258 93.2854 6.49888 92.8824 6.02697C92.4928 5.54157 91.9554 5.29888 91.2702 5.29888C90.585 5.29888 90.0477 5.54157 89.6581 6.02697C89.2684 6.49888 89.0736 7.13258 89.0736 7.92809V7.96854H93.4869Z" fill="#1D293F"/>
<path d="M98.8902 14.1573C98.7559 14.1573 98.6417 14.1101 98.5476 14.0157C98.4536 13.9213 98.4066 13.8067 98.4066 13.6719V4.14607C98.4066 3.99775 98.4536 3.8764 98.5476 3.78202C98.6417 3.68764 98.7559 3.64045 98.8902 3.64045H100.543C100.69 3.64045 100.811 3.68764 100.905 3.78202C100.999 3.8764 101.046 3.99775 101.046 4.14607V4.97528C101.718 4.08539 102.686 3.64045 103.948 3.64045H104.795C104.943 3.64045 105.057 3.68764 105.137 3.78202C105.231 3.86292 105.278 3.97753 105.278 4.12584V5.60225C105.278 5.73708 105.231 5.85169 105.137 5.94607C105.057 6.04045 104.943 6.08764 104.795 6.08764H103.203C102.571 6.08764 102.074 6.26966 101.712 6.63371C101.349 6.99775 101.167 7.49663 101.167 8.13034V13.6719C101.167 13.8067 101.12 13.9213 101.026 14.0157C100.932 14.1101 100.818 14.1573 100.684 14.1573H98.8902Z" fill="#1D293F"/>
<path d="M107.575 14.1573C107.44 14.1573 107.326 14.1101 107.232 14.0157C107.138 13.9213 107.091 13.8067 107.091 13.6719V0.505619C107.091 0.357304 107.131 0.235955 107.212 0.141574C107.306 0.0471912 107.427 0 107.575 0H112.492C116.455 0 118.477 1.83371 118.558 5.50112C118.584 6.28315 118.598 6.80899 118.598 7.07865C118.598 7.33483 118.584 7.85393 118.558 8.63595C118.504 10.5236 117.993 11.9191 117.026 12.8225C116.072 13.7124 114.594 14.1573 112.593 14.1573H107.575ZM112.492 11.8112C113.607 11.8112 114.413 11.5618 114.91 11.0629C115.407 10.564 115.669 9.73483 115.696 8.57528C115.723 7.76629 115.736 7.26067 115.736 7.05843C115.736 6.8427 115.723 6.34382 115.696 5.5618C115.669 4.45618 115.394 3.64719 114.87 3.13483C114.346 2.60899 113.52 2.34607 112.391 2.34607H109.932V11.8112H112.492Z" fill="#1D293F"/>
<path d="M125.674 14.3595C124.088 14.3595 122.866 13.9551 122.006 13.1461C121.146 12.3371 120.683 11.218 120.616 9.78876L120.595 8.89888L120.616 8.00899C120.683 6.59326 121.153 5.4809 122.026 4.67191C122.899 3.84944 124.115 3.4382 125.674 3.4382C127.219 3.4382 128.428 3.84944 129.301 4.67191C130.174 5.4809 130.645 6.59326 130.712 8.00899C130.725 8.17079 130.732 8.46742 130.732 8.89888C130.732 9.33034 130.725 9.62697 130.712 9.78876C130.645 11.218 130.181 12.3371 129.321 13.1461C128.461 13.9551 127.246 14.3595 125.674 14.3595ZM125.674 12.3169C126.386 12.3169 126.93 12.0944 127.306 11.6494C127.696 11.2045 127.904 10.5506 127.931 9.68764C127.944 9.55281 127.951 9.28989 127.951 8.89888C127.951 8.50786 127.944 8.24494 127.931 8.11011C127.904 7.24719 127.696 6.59326 127.306 6.14831C126.916 5.68989 126.372 5.46067 125.674 5.46067C124.962 5.46067 124.411 5.68989 124.021 6.14831C123.632 6.59326 123.423 7.24719 123.397 8.11011L123.376 8.89888L123.397 9.68764C123.423 10.5506 123.632 11.2045 124.021 11.6494C124.411 12.0944 124.962 12.3169 125.674 12.3169Z" fill="#1D293F"/>
<path d="M133.448 14.1573C133.314 14.1573 133.199 14.1101 133.105 14.0157C133.011 13.9213 132.964 13.8067 132.964 13.6719V4.12584C132.964 3.97753 133.011 3.86292 133.105 3.78202C133.199 3.68764 133.314 3.64045 133.448 3.64045H135.121C135.268 3.64045 135.383 3.68764 135.463 3.78202C135.557 3.86292 135.604 3.97753 135.604 4.12584V4.95506C136.424 3.94382 137.545 3.4382 138.97 3.4382C140.206 3.4382 141.186 3.8427 141.912 4.65169C142.637 5.46067 143 6.57303 143 7.98876V13.6719C143 13.8067 142.953 13.9213 142.859 14.0157C142.778 14.1101 142.664 14.1573 142.516 14.1573H140.703C140.568 14.1573 140.454 14.1101 140.36 14.0157C140.266 13.9213 140.219 13.8067 140.219 13.6719V8.11011C140.219 7.32809 140.024 6.72135 139.635 6.28989C139.258 5.84494 138.714 5.62247 138.002 5.62247C137.317 5.62247 136.766 5.84494 136.35 6.28989C135.933 6.73483 135.725 7.34157 135.725 8.11011V13.6719C135.725 13.8067 135.678 13.9213 135.584 14.0157C135.503 14.1101 135.389 14.1573 135.241 14.1573H133.448Z" fill="#1D293F"/>
</svg>
