<svg width="26" height="37" viewBox="0 0 26 37" fill="none" xmlns="http://www.w3.org/2000/svg">
<path d="M17.2961 37.0004C16.9761 37.0004 16.6881 36.8884 16.4321 36.6644C16.2081 36.4084 16.0961 36.1204 16.0961 35.8004V13.3364L9.66407 18.2804C9.40807 18.4404 9.16807 18.5204 8.94407 18.5204C8.56007 18.5204 8.22407 18.3284 7.93607 17.9444L4.96007 14.1044C4.83207 13.8804 4.76807 13.6404 4.76807 13.3844C4.76807 12.9364 4.94407 12.5844 5.29607 12.3284L16.4321 3.73639C16.7521 3.51239 17.1201 3.40039 17.5361 3.40039H23.8721C24.2241 3.40039 24.5121 3.51239 24.7361 3.73639C24.9921 3.96039 25.1201 4.24839 25.1201 4.60039V35.8004C25.1201 36.1524 24.9921 36.4404 24.7361 36.6644C24.5121 36.8884 24.2241 37.0004 23.8721 37.0004H17.2961Z" fill="#CAAAD8"/>
<path d="M13.0558 34.9936L13.0777 35.0187L13.1028 35.0407C13.4437 35.339 13.8469 35.5004 14.2961 35.5004H20.8721C21.3349 35.5004 21.7509 35.3502 22.0777 35.0297C22.4382 34.7084 22.6201 34.2853 22.6201 33.8004V2.60039C22.6201 2.11548 22.4382 1.69241 22.0777 1.37108C21.7509 1.05056 21.3349 0.900391 20.8721 0.900391H14.5361C14.0245 0.900391 13.555 1.04003 13.1453 1.32678L13.1358 1.33343L13.1266 1.34052L1.99585 9.9285C1.51411 10.2816 1.26807 10.7845 1.26807 11.3844C1.26807 11.7281 1.35513 12.0535 1.52594 12.3525L1.54336 12.3829L1.56486 12.4107L4.53857 16.2477C4.89451 16.7208 5.365 17.0204 5.94407 17.0204C6.28903 17.0204 6.62041 16.8973 6.92907 16.7044L6.94959 16.6916L6.96878 16.6768L12.5961 12.3514V33.8004C12.5961 34.2495 12.7575 34.6527 13.0558 34.9936Z" fill="#FFE9A9" stroke="#A788CE"/>
</svg>
