<svg width="120" height="120" viewBox="0 0 120 120" fill="none" xmlns="http://www.w3.org/2000/svg">
<path d="M99.793 19.5681C104.44 28.3989 103.947 40.0734 106.537 50.2542C109.127 60.4351 114.799 69.1223 116.189 78.9143C117.647 88.7203 114.768 99.549 106.755 103.22C98.8238 106.837 85.7576 103.296 76.0237 102.214C66.2758 101.201 59.8743 102.579 50.8438 104.976C41.745 107.359 30.0455 110.626 20.5268 107.815C10.9258 105.059 3.53389 96.0884 3.16731 86.5071C2.80074 76.9258 9.48768 66.5973 12.5146 56.083C15.6097 45.5827 15.113 34.9105 20.4039 29.6151C25.6808 24.3877 36.7453 24.5372 46.88 20.2389C56.9324 15.9946 66.1372 7.24859 75.667 5.87619C85.1828 4.57183 95.0919 10.6552 99.793 19.5681Z" fill="#C8DEFE" fill-opacity="0.2"/>
<path d="M1.19995 107.832L10.839 107.76L26.478 107.733L57.753 107.685L89.028 107.733L104.667 107.76L118.506 107.832L104.667 107.907L89.028 107.934L57.753 107.982L26.478 107.934L10.839 107.907L1.19995 107.832Z" fill="#1E437D"/>
<path d="M83.0604 20.1001H42.6481C42.1063 20.1051 41.5707 20.2168 41.0721 20.4287C40.5734 20.6407 40.1214 20.9488 39.7418 21.3355C39.3622 21.7222 39.0626 22.1799 38.8599 22.6824C38.6572 23.1849 38.5554 23.7224 38.5605 24.2642V107.451C38.5509 108.545 38.9761 109.598 39.7425 110.379C40.509 111.159 41.554 111.604 42.6481 111.615H83.0604C84.1549 111.604 85.2005 111.16 85.9677 110.379C86.7349 109.598 87.1611 108.545 87.1528 107.451V24.2642C87.1618 23.1695 86.7357 22.116 85.9684 21.3352C85.201 20.5544 84.1551 20.1102 83.0604 20.1001ZM84.5951 104.881C84.5951 107.071 82.9553 108.842 80.933 108.842H44.7803C42.7533 108.842 41.1134 107.071 41.1134 104.881V27.4172C41.1134 22.9566 42.7533 22.7391 44.7803 22.7391H52.0233C52.444 22.7391 52.7882 23.2172 52.7882 23.81V24.0658C52.7882 25.4546 53.5484 25.4594 54.4806 25.4594H71.2231C72.1649 25.4594 72.9203 25.4594 72.9203 24.0658V23.81C72.9203 23.2172 73.2597 22.7391 73.6876 22.7391H80.9282C82.9505 22.7391 84.5903 23.3319 84.5903 27.4172L84.5951 104.881Z" fill="#D3DBE7"/>
<path d="M84.5952 27.4173V104.881C84.5952 107.071 82.9553 108.842 80.9331 108.842H44.7804C42.7534 108.842 41.1135 107.071 41.1135 104.881V27.4173C41.1135 22.9568 42.7534 22.7393 44.7804 22.7393H52.0234C52.4441 22.7393 52.7883 23.2173 52.7883 23.8102V24.0659C52.7883 25.4548 53.5485 25.4596 54.4807 25.4596H71.2232C72.165 25.4596 72.9204 25.4595 72.9204 24.0659V23.8102C72.9204 23.2173 73.2598 22.7393 73.6877 22.7393H80.9283C82.9553 22.7393 84.5952 23.3321 84.5952 27.4173Z" fill="white"/>
<path d="M84.5952 27.4173V36.1399H41.104V27.4173C41.104 22.9568 42.7438 22.7393 44.7709 22.7393H52.0139C52.4346 22.7393 52.7788 23.2173 52.7788 23.8102V24.0659C52.7788 25.4548 53.5389 25.4596 54.4712 25.4596H71.2232C72.1651 25.4596 72.9204 25.4595 72.9204 24.0659V23.8102C72.9204 23.2173 73.2599 22.7393 73.6877 22.7393H80.9283C82.9554 22.7393 84.5952 23.3321 84.5952 27.4173Z" fill="#6AA6DA"/>
<path d="M50.773 24.4768L50.7037 24.5461C50.6893 24.5461 50.6774 24.5724 50.663 24.5868C50.4839 24.4087 50.2415 24.3087 49.9889 24.3087C49.7363 24.3087 49.494 24.4087 49.3148 24.5868L49.2766 24.5461L49.2073 24.4768L49.2957 24.4003C49.3584 24.348 49.4275 24.3038 49.5013 24.2688C49.5865 24.2258 49.6775 24.1952 49.7714 24.178C49.8168 24.178 49.8623 24.178 49.9077 24.1589C49.9531 24.1398 50.0224 24.1589 50.0272 24.1589H50.118C50.1997 24.1696 50.2799 24.1897 50.3571 24.2187C50.4158 24.2401 50.4726 24.2664 50.5268 24.2975C50.583 24.3308 50.6365 24.3684 50.6869 24.4099L50.761 24.4768H50.773Z" fill="white"/>
<path d="M49.5351 24.809C49.4993 24.7708 49.4634 24.7349 49.4252 24.6991C49.4989 24.6248 49.5866 24.5659 49.6833 24.5257C49.7799 24.4855 49.8835 24.4648 49.9881 24.4648C50.0928 24.4648 50.1964 24.4855 50.293 24.5257C50.3896 24.5659 50.4773 24.6248 50.5511 24.6991L50.4411 24.809C50.3822 24.7491 50.3119 24.7018 50.2342 24.6697C50.1566 24.6377 50.0733 24.6216 49.9893 24.6226C49.905 24.622 49.8215 24.6382 49.7435 24.6702C49.6655 24.7022 49.5947 24.7494 49.5351 24.809Z" fill="white"/>
<path d="M50.3311 24.9192L50.2212 25.0292C50.1594 24.9682 50.0761 24.934 49.9893 24.934C49.9025 24.934 49.8192 24.9682 49.7574 25.0292L49.6475 24.9192C49.692 24.8737 49.7452 24.8375 49.8039 24.8128C49.8626 24.7881 49.9256 24.7754 49.9893 24.7754C50.053 24.7754 50.116 24.7881 50.1747 24.8128C50.2334 24.8375 50.2866 24.8737 50.3311 24.9192Z" fill="white"/>
<path d="M50.087 25.1294C50.087 25.1554 50.0767 25.1803 50.0583 25.1987C50.0399 25.2171 50.015 25.2274 49.989 25.2274C49.9747 25.2297 49.9601 25.2288 49.9461 25.2248C49.9322 25.2208 49.9193 25.2139 49.9083 25.2045C49.8973 25.1951 49.8884 25.1834 49.8824 25.1702C49.8763 25.157 49.8732 25.1427 49.8732 25.1282C49.8732 25.1137 49.8763 25.0994 49.8824 25.0863C49.8884 25.0731 49.8973 25.0614 49.9083 25.052C49.9193 25.0425 49.9322 25.0356 49.9461 25.0317C49.9601 25.0277 49.9747 25.0268 49.989 25.029C50.0021 25.029 50.015 25.0316 50.0271 25.0367C50.0391 25.0418 50.05 25.0492 50.0592 25.0586C50.0683 25.0679 50.0755 25.079 50.0803 25.0912C50.085 25.1034 50.0873 25.1164 50.087 25.1294Z" fill="white"/>
<path d="M43.9484 24.6896C43.9484 24.6324 43.9653 24.5765 43.9971 24.5289C44.0289 24.4814 44.0741 24.4443 44.1269 24.4224C44.1798 24.4005 44.2379 24.3948 44.294 24.4059C44.3501 24.4171 44.4017 24.4447 44.4421 24.4851C44.4826 24.5256 44.5101 24.5771 44.5213 24.6332C44.5324 24.6893 44.5267 24.7475 44.5048 24.8003C44.4829 24.8532 44.4459 24.8983 44.3983 24.9301C44.3507 24.9619 44.2948 24.9789 44.2376 24.9789C44.1609 24.9789 44.0873 24.9484 44.0331 24.8942C43.9788 24.8399 43.9484 24.7663 43.9484 24.6896Z" fill="white"/>
<path d="M44.8567 24.6896C44.8567 24.6324 44.8737 24.5765 44.9054 24.5289C44.9372 24.4814 44.9824 24.4443 45.0352 24.4224C45.0881 24.4005 45.1463 24.3948 45.2024 24.4059C45.2585 24.4171 45.31 24.4447 45.3505 24.4851C45.3909 24.5256 45.4185 24.5771 45.4296 24.6332C45.4408 24.6893 45.435 24.7475 45.4132 24.8003C45.3913 24.8532 45.3542 24.8983 45.3066 24.9301C45.2591 24.9619 45.2031 24.9789 45.1459 24.9789C45.1079 24.9789 45.0703 24.9714 45.0352 24.9569C45.0002 24.9423 44.9683 24.921 44.9414 24.8942C44.9145 24.8673 44.8932 24.8354 44.8787 24.8003C44.8642 24.7652 44.8567 24.7276 44.8567 24.6896Z" fill="white"/>
<path d="M45.7653 24.6896C45.7653 24.6323 45.7823 24.5763 45.8142 24.5287C45.8461 24.4811 45.8914 24.444 45.9444 24.4222C45.9974 24.4004 46.0557 24.3948 46.1118 24.4061C46.168 24.4175 46.2195 24.4453 46.2599 24.486C46.3002 24.5266 46.3276 24.5784 46.3385 24.6347C46.3494 24.6909 46.3433 24.7492 46.321 24.802C46.2988 24.8548 46.2613 24.8998 46.2135 24.9313C46.1656 24.9628 46.1094 24.9793 46.0521 24.9789C46.0142 24.9789 45.9768 24.9714 45.9418 24.9568C45.9068 24.9422 45.8751 24.9209 45.8484 24.894C45.8218 24.8671 45.8007 24.8352 45.7864 24.8001C45.7721 24.7651 45.765 24.7275 45.7653 24.6896Z" fill="white"/>
<path d="M46.6733 24.6896C46.6734 24.6323 46.6904 24.5763 46.7223 24.5287C46.7542 24.4811 46.7995 24.444 46.8525 24.4222C46.9055 24.4004 46.9637 24.3948 47.0199 24.4061C47.0761 24.4175 47.1276 24.4453 47.168 24.486C47.2083 24.5266 47.2357 24.5784 47.2466 24.6347C47.2574 24.6909 47.2514 24.7492 47.2291 24.802C47.2069 24.8548 47.1694 24.8998 47.1215 24.9313C47.0737 24.9628 47.0175 24.9793 46.9602 24.9789C46.9223 24.9789 46.8848 24.9714 46.8499 24.9568C46.8149 24.9422 46.7832 24.9209 46.7565 24.894C46.7298 24.8671 46.7088 24.8352 46.6945 24.8001C46.6802 24.7651 46.673 24.7275 46.6733 24.6896Z" fill="white"/>
<path d="M47.5795 24.6896C47.5795 24.6324 47.5964 24.5765 47.6282 24.5289C47.66 24.4814 47.7052 24.4443 47.758 24.4224C47.8109 24.4005 47.869 24.3948 47.9251 24.4059C47.9812 24.4171 48.0328 24.4447 48.0732 24.4851C48.1137 24.5256 48.1412 24.5771 48.1524 24.6332C48.1636 24.6893 48.1578 24.7475 48.1359 24.8003C48.114 24.8532 48.077 24.8983 48.0294 24.9301C47.9818 24.9619 47.9259 24.9789 47.8687 24.9789C47.792 24.9789 47.7184 24.9484 47.6642 24.8942C47.6099 24.8399 47.5795 24.7663 47.5795 24.6896Z" fill="white"/>
<path d="M81.3344 25.3183H78.9871V24.2378H81.3344V25.3183ZM79.1114 25.194H81.2197V24.3525H79.1114V25.194Z" fill="white"/>
<path d="M80.6962 24.417H79.1831V25.1341H80.6962V24.417Z" fill="white"/>
<path d="M81.5424 24.4863H81.3345V25.0672H81.5424V24.4863Z" fill="white"/>
<path d="M45.0767 33.6918L43.7931 32.487L45.0767 31.2822L45.2775 31.495L44.2186 32.487L45.2775 33.479L45.0767 33.6918Z" fill="white"/>
<path d="M80.6367 31.2822L81.9204 32.487L80.6367 33.6918L80.4359 33.479L81.4949 32.487L80.4359 31.495L80.6367 31.2822Z" fill="white"/>
<path d="M55.9529 33.5721H56.7936C57.2356 33.5721 57.471 33.3325 57.471 33.0071C57.471 32.7047 57.2625 32.5221 57.0387 32.5111V32.4911C57.2433 32.4432 57.3942 32.2925 57.3942 32.0519C57.3942 31.7455 57.1751 31.5279 56.7408 31.5279H55.9529V33.5721ZM56.3689 33.2187V32.6758H56.7177C56.9176 32.6758 57.0415 32.7955 57.0415 32.9642C57.0415 33.1179 56.9406 33.2187 56.7081 33.2187H56.3689ZM56.3689 32.3833V31.8773H56.6851C56.8695 31.8773 56.9743 31.9761 56.9743 32.1238C56.9743 32.2855 56.8474 32.3833 56.6774 32.3833H56.3689Z" fill="white"/>
<path d="M58.3515 33.5721L58.4976 33.1059H59.2076L59.3537 33.5721H59.7995L59.1212 31.5279H58.585L57.9057 33.5721H58.3515ZM58.6033 32.7686L58.8454 31.9951H58.8608L59.1029 32.7686H58.6033Z" fill="white"/>
<path d="M60.307 33.5721H61.5666V33.2157H60.723V31.5279H60.307V33.5721Z" fill="white"/>
<path d="M62.5021 33.5721L62.6482 33.1059H63.3583L63.5043 33.5721H63.9502L63.2718 31.5279H62.7356L62.0563 33.5721H62.5021ZM62.7539 32.7686L62.996 31.9951H63.0114L63.2535 32.7686H62.7539Z" fill="white"/>
<path d="M66.1035 31.5279H65.6894V32.8135H65.6721L64.8227 31.5279H64.4576V33.5721H64.8736V32.2855H64.888L65.7442 33.5721H66.1035V31.5279Z" fill="white"/>
<path d="M68.4541 32.2436C68.3994 31.7715 68.0554 31.5 67.5999 31.5C67.0801 31.5 66.6833 31.8813 66.6833 32.55C66.6833 33.2167 67.0734 33.6 67.5999 33.6C68.1044 33.6 68.409 33.2517 68.4541 32.8754L68.0333 32.8734C67.9939 33.092 67.8286 33.2177 67.6067 33.2177C67.3078 33.2177 67.1051 32.9872 67.1051 32.55C67.1051 32.1248 67.3049 31.8823 67.6095 31.8823C67.8373 31.8823 68.0016 32.019 68.0333 32.2436H68.4541Z" fill="white"/>
<path d="M69.0231 33.5721H70.3529V33.2157H69.4391V32.7277H70.2808V32.3713H69.4391V31.8843H70.349V31.5279H69.0231V33.5721Z" fill="white"/>
<path d="M65.1393 23.7238H60.5713C60.5342 23.7238 60.4975 23.7165 60.4633 23.7023C60.4291 23.6882 60.398 23.6674 60.3718 23.6412C60.3456 23.615 60.3248 23.5839 60.3107 23.5497C60.2965 23.5155 60.2892 23.4788 60.2892 23.4417C60.2892 23.4047 60.2965 23.368 60.3107 23.3338C60.3248 23.2996 60.3456 23.2685 60.3718 23.2423C60.398 23.2161 60.4291 23.1953 60.4633 23.1811C60.4975 23.167 60.5342 23.1597 60.5713 23.1597H65.1393C65.1764 23.1597 65.2131 23.167 65.2473 23.1811C65.2815 23.1953 65.3126 23.2161 65.3388 23.2423C65.365 23.2685 65.3858 23.2996 65.3999 23.3338C65.4141 23.368 65.4214 23.4047 65.4214 23.4417C65.4214 23.4788 65.4141 23.5155 65.3999 23.5497C65.3858 23.5839 65.365 23.615 65.3388 23.6412C65.3126 23.6674 65.2815 23.6882 65.2473 23.7023C65.2131 23.7165 65.1764 23.7238 65.1393 23.7238Z" fill="white"/>
<path d="M78.6339 69.0044H47.0804V73.3071H78.6339V69.0044Z" fill="#D3DBE7" fill-opacity="0.5"/>
<path d="M49.2315 71.6339C49.4955 71.6339 49.7096 71.4199 49.7096 71.1558C49.7096 70.8918 49.4955 70.6777 49.2315 70.6777C48.9675 70.6777 48.7534 70.8918 48.7534 71.1558C48.7534 71.4199 48.9675 71.6339 49.2315 71.6339Z" fill="#D3DBE7"/>
<path d="M50.9052 71.6339C51.1692 71.6339 51.3833 71.4199 51.3833 71.1558C51.3833 70.8918 51.1692 70.6777 50.9052 70.6777C50.6411 70.6777 50.4271 70.8918 50.4271 71.1558C50.4271 71.4199 50.6411 71.6339 50.9052 71.6339Z" fill="#D3DBE7"/>
<path d="M53.0563 71.1558C53.0563 71.4199 52.8422 71.6339 52.5782 71.6339C52.3142 71.6339 52.1001 71.4199 52.1001 71.1558C52.1001 70.8918 52.3142 70.6777 52.5782 70.6777C52.8422 70.6777 53.0563 70.8918 53.0563 71.1558Z" fill="#D3DBE7"/>
<path d="M54.2515 71.6339C54.5155 71.6339 54.7296 71.4199 54.7296 71.1558C54.7296 70.8918 54.5155 70.6777 54.2515 70.6777C53.9875 70.6777 53.7734 70.8918 53.7734 71.1558C53.7734 71.4199 53.9875 71.6339 54.2515 71.6339Z" fill="#D3DBE7"/>
<path d="M64.0522 71.6339C64.3163 71.6339 64.5303 71.4199 64.5303 71.1558C64.5303 70.8918 64.3163 70.6777 64.0522 70.6777C63.7882 70.6777 63.5741 70.8918 63.5741 71.1558C63.5741 71.4199 63.7882 71.6339 64.0522 71.6339Z" fill="#D3DBE7"/>
<path d="M65.7256 71.6339C65.9897 71.6339 66.2037 71.4199 66.2037 71.1558C66.2037 70.8918 65.9897 70.6777 65.7256 70.6777C65.4616 70.6777 65.2475 70.8918 65.2475 71.1558C65.2475 71.4199 65.4616 71.6339 65.7256 71.6339Z" fill="#D3DBE7"/>
<path d="M67.8767 71.1558C67.8767 71.4199 67.6627 71.6339 67.3987 71.6339C67.1346 71.6339 66.9206 71.4199 66.9206 71.1558C66.9206 70.8918 67.1346 70.6777 67.3987 70.6777C67.6627 70.6777 67.8767 70.8918 67.8767 71.1558Z" fill="#D3DBE7"/>
<path d="M69.0723 71.6339C69.3363 71.6339 69.5503 71.4199 69.5503 71.1558C69.5503 70.8918 69.3363 70.6777 69.0723 70.6777C68.8082 70.6777 68.5942 70.8918 68.5942 71.1558C68.5942 71.4199 68.8082 71.6339 69.0723 71.6339Z" fill="#D3DBE7"/>
<path d="M56.6417 71.6339C56.9058 71.6339 57.1198 71.4199 57.1198 71.1558C57.1198 70.8918 56.9058 70.6777 56.6417 70.6777C56.3777 70.6777 56.1636 70.8918 56.1636 71.1558C56.1636 71.4199 56.3777 71.6339 56.6417 71.6339Z" fill="#D3DBE7"/>
<path d="M58.3147 71.6339C58.5787 71.6339 58.7928 71.4199 58.7928 71.1558C58.7928 70.8918 58.5787 70.6777 58.3147 70.6777C58.0506 70.6777 57.8366 70.8918 57.8366 71.1558C57.8366 71.4199 58.0506 71.6339 58.3147 71.6339Z" fill="#D3DBE7"/>
<path d="M60.4664 71.1558C60.4664 71.4199 60.2523 71.6339 59.9883 71.6339C59.7242 71.6339 59.5102 71.4199 59.5102 71.1558C59.5102 70.8918 59.7242 70.6777 59.9883 70.6777C60.2523 70.6777 60.4664 70.8918 60.4664 71.1558Z" fill="#D3DBE7"/>
<path d="M61.6616 71.6339C61.9256 71.6339 62.1397 71.4199 62.1397 71.1558C62.1397 70.8918 61.9256 70.6777 61.6616 70.6777C61.3976 70.6777 61.1835 70.8918 61.1835 71.1558C61.1835 71.4199 61.3976 71.6339 61.6616 71.6339Z" fill="#D3DBE7"/>
<path d="M71.4622 71.6339C71.7262 71.6339 71.9402 71.4199 71.9402 71.1558C71.9402 70.8918 71.7262 70.6777 71.4622 70.6777C71.1981 70.6777 70.9841 70.8918 70.9841 71.1558C70.9841 71.4199 71.1981 71.6339 71.4622 71.6339Z" fill="#D3DBE7"/>
<path d="M73.1354 71.6339C73.3995 71.6339 73.6135 71.4199 73.6135 71.1558C73.6135 70.8918 73.3995 70.6777 73.1354 70.6777C72.8714 70.6777 72.6573 70.8918 72.6573 71.1558C72.6573 71.4199 72.8714 71.6339 73.1354 71.6339Z" fill="#D3DBE7"/>
<path d="M75.2868 71.1558C75.2868 71.4199 75.0728 71.6339 74.8087 71.6339C74.5447 71.6339 74.3307 71.4199 74.3307 71.1558C74.3307 70.8918 74.5447 70.6777 74.8087 70.6777C75.0728 70.6777 75.2868 70.8918 75.2868 71.1558Z" fill="#D3DBE7"/>
<path d="M76.4823 71.6339C76.7464 71.6339 76.9604 71.4199 76.9604 71.1558C76.9604 70.8918 76.7464 70.6777 76.4823 70.6777C76.2183 70.6777 76.0043 70.8918 76.0043 71.1558C76.0043 71.4199 76.2183 71.6339 76.4823 71.6339Z" fill="#D3DBE7"/>
<path d="M78.6336 75.6973H65.4863V80H78.6336V75.6973Z" fill="#D3DBE7" fill-opacity="0.5"/>
<path d="M69.7889 77.8487C69.7889 78.1127 69.5748 78.3268 69.3108 78.3268C69.0468 78.3268 68.8327 78.1127 68.8327 77.8487C68.8327 77.5847 69.0468 77.3706 69.3108 77.3706C69.5748 77.3706 69.7889 77.5847 69.7889 77.8487Z" fill="#D3DBE7"/>
<path d="M68.1157 77.8487C68.1157 78.1127 67.9017 78.3268 67.6376 78.3268C67.3736 78.3268 67.1595 78.1127 67.1595 77.8487C67.1595 77.5847 67.3736 77.3706 67.6376 77.3706C67.9017 77.3706 68.1157 77.5847 68.1157 77.8487Z" fill="#D3DBE7"/>
<path d="M70.9838 78.3268C71.2479 78.3268 71.4619 78.1127 71.4619 77.8487C71.4619 77.5847 71.2479 77.3706 70.9838 77.3706C70.7198 77.3706 70.5058 77.5847 70.5058 77.8487C70.5058 78.1127 70.7198 78.3268 70.9838 78.3268Z" fill="#D3DBE7"/>
<path d="M63.813 75.6973H47.0801V80H63.813V75.6973Z" fill="#D3DBE7" fill-opacity="0.5"/>
<path d="M50.9052 78.3268C51.1692 78.3268 51.3833 78.1128 51.3833 77.8488C51.3833 77.5847 51.1692 77.3707 50.9052 77.3707C50.6411 77.3707 50.4271 77.5847 50.4271 77.8488C50.4271 78.1128 50.6411 78.3268 50.9052 78.3268Z" fill="#D3DBE7"/>
<path d="M49.2315 78.3268C49.4955 78.3268 49.7096 78.1128 49.7096 77.8488C49.7096 77.5847 49.4955 77.3707 49.2315 77.3707C48.9675 77.3707 48.7534 77.5847 48.7534 77.8488C48.7534 78.1128 48.9675 78.3268 49.2315 78.3268Z" fill="#D3DBE7"/>
<path d="M56.8809 78.3268C57.1449 78.3268 57.359 78.1128 57.359 77.8488C57.359 77.5847 57.1449 77.3707 56.8809 77.3707C56.6169 77.3707 56.4028 77.5847 56.4028 77.8488C56.4028 78.1128 56.6169 78.3268 56.8809 78.3268Z" fill="#D3DBE7"/>
<path d="M55.2075 78.3268C55.4715 78.3268 55.6856 78.1128 55.6856 77.8488C55.6856 77.5847 55.4715 77.3707 55.2075 77.3707C54.9435 77.3707 54.7294 77.5847 54.7294 77.8488C54.7294 78.1128 54.9435 78.3268 55.2075 78.3268Z" fill="#D3DBE7"/>
<path d="M52.5923 78.5935L53.2512 76.9865C53.2585 76.9681 53.2692 76.9514 53.2828 76.9373C53.2964 76.9232 53.3125 76.912 53.3303 76.9044C53.3481 76.8967 53.3672 76.8927 53.3865 76.8926C53.4058 76.8925 53.4249 76.8963 53.4427 76.9038C53.4606 76.9113 53.4768 76.9223 53.4906 76.9363C53.5043 76.9502 53.5152 76.9668 53.5226 76.9851C53.5301 77.0034 53.534 77.023 53.5341 77.0429C53.5342 77.0627 53.5305 77.0824 53.5232 77.1007L52.8643 78.7116C52.8528 78.7392 52.8335 78.7626 52.8089 78.7787C52.7843 78.7949 52.7556 78.8031 52.7264 78.8022C52.7087 78.8058 52.6905 78.8058 52.6728 78.8022C52.6537 78.7945 52.6364 78.7829 52.6219 78.768C52.6074 78.7531 52.596 78.7354 52.5884 78.7158C52.5809 78.6962 52.5773 78.6753 52.578 78.6542C52.5787 78.6332 52.5835 78.6125 52.5923 78.5935Z" fill="#D3DBE7"/>
<path d="M47.0081 64.3132L50.969 64.2845L54.9299 64.2749L62.8541 64.2534L70.7783 64.2725L74.7393 64.2845L78.7002 64.3132L74.7393 64.3419L70.7783 64.3538L62.8541 64.3729L54.9299 64.3538L50.969 64.3419L47.0081 64.3132Z" fill="#EBEBEB"/>
<path d="M47.0081 84.7844L50.969 84.7557L54.9299 84.7437L62.8541 84.7246L70.7783 84.7437L74.7393 84.7557L78.7002 84.7844L74.7393 84.8131L70.7783 84.825L62.8541 84.8441L54.9299 84.825L50.969 84.8131L47.0081 84.7844Z" fill="#EBEBEB"/>
<path d="M73.7 89.3999H52.3C51.7478 89.3999 51.3 89.8476 51.3 90.3999V93.1999C51.3 93.7522 51.7478 94.1999 52.3 94.1999H73.7C74.2523 94.1999 74.7 93.7522 74.7 93.1999V90.3999C74.7 89.8476 74.2523 89.3999 73.7 89.3999Z" fill="#6AA6DA"/>
<path d="M56.7851 92.6751L56.9113 92.2758H57.5246L57.6508 92.6751H58.0359L57.4499 90.9238H56.9868L56.4 92.6751H56.7851ZM57.0026 91.9867L57.2117 91.324H57.225L57.4341 91.9867H57.0026Z" fill="white"/>
<path d="M59.1351 92.6751C59.653 92.6751 59.9667 92.345 59.9667 91.7978C59.9667 91.2522 59.653 90.9238 59.1401 90.9238H58.5326V92.6751H59.1351ZM58.892 92.3579V91.2411H59.121C59.4397 91.2411 59.6082 91.4087 59.6082 91.7978C59.6082 92.1885 59.4397 92.3579 59.1202 92.3579H58.892Z" fill="white"/>
<path d="M61.1276 92.6751C61.6455 92.6751 61.9592 92.345 61.9592 91.7978C61.9592 91.2522 61.6455 90.9238 61.1326 90.9238H60.5251V92.6751H61.1276ZM60.8845 92.3579V91.2411H61.1135C61.4322 91.2411 61.6007 91.4087 61.6007 91.7978C61.6007 92.1885 61.4322 92.3579 61.1127 92.3579H60.8845Z" fill="white"/>
<path d="M63.3507 92.6751H63.71V91.9517H64.4014V91.6464H63.71V91.2291H64.4761V90.9238H63.3507V92.6751Z" fill="white"/>
<path d="M66.0598 90.9238V92.0295C66.0598 92.2296 65.9237 92.3741 65.7146 92.3741C65.5063 92.3741 65.3693 92.2296 65.3693 92.0295V90.9238H65.0099V92.0611C65.0099 92.4442 65.2905 92.6999 65.7146 92.6999C66.137 92.6999 66.4192 92.4442 66.4192 92.0611V90.9238H66.0598Z" fill="white"/>
<path d="M68.4287 90.9238H68.071V92.0252H68.0561L67.3224 90.9238H67.007V92.6751H67.3664V91.5729H67.3788L68.1183 92.6751H68.4287V90.9238Z" fill="white"/>
<path d="M69.6203 92.6751C70.1382 92.6751 70.4519 92.345 70.4519 91.7978C70.4519 91.2522 70.1382 90.9238 69.6253 90.9238H69.0178V92.6751H69.6203ZM69.3771 92.3579V91.2411H69.6062C69.9249 91.2411 70.0934 91.4087 70.0934 91.7978C70.0934 92.1885 69.9249 92.3579 69.6054 92.3579H69.3771Z" fill="white"/>
<path d="M71.9324 91.4275H72.2768C72.2718 91.1154 72.0228 90.8999 71.6444 90.8999C71.2717 90.8999 70.9987 91.112 71.0003 91.4301C70.9995 91.6883 71.1763 91.8362 71.4634 91.9072L71.6485 91.9551C71.8336 92.0013 71.9365 92.056 71.9373 92.174C71.9365 92.3023 71.8187 92.3895 71.6361 92.3895C71.4493 92.3895 71.3149 92.3006 71.3033 92.1253H70.9555C70.9646 92.5041 71.2277 92.6999 71.6402 92.6999C72.0552 92.6999 72.2992 92.4955 72.3 92.1749C72.2992 91.8833 72.0859 91.7285 71.7904 91.6601L71.6377 91.6225C71.49 91.5874 71.3663 91.531 71.3688 91.4053C71.3688 91.2924 71.4659 91.2095 71.6419 91.2095C71.8137 91.2095 71.9191 91.2898 71.9324 91.4275Z" fill="white"/>
<path fill-rule="evenodd" clip-rule="evenodd" d="M53.8729 91.7314C53.8752 91.4069 53.9102 90.8999 54.4345 90.8999C54.9589 90.8999 54.9609 91.4069 54.9589 91.7314H55.1342V92.8122H53.7V91.7314H53.8729ZM54.7555 91.7314C54.7485 91.2672 54.6643 91.1078 54.4345 91.1078C54.2046 91.1078 54.0859 91.2599 54.076 91.7314H54.7555Z" fill="white"/>
<path d="M73.6748 48.55C76.0634 48.55 77.9998 46.6136 77.9998 44.2249C77.9998 41.8363 76.0634 39.8999 73.6748 39.8999C71.2861 39.8999 69.3497 41.8363 69.3497 44.2249C69.3497 46.6136 71.2861 48.55 73.6748 48.55Z" fill="#FFC727"/>
<path d="M52.9249 59.6535C55.3136 59.6535 57.2499 57.7171 57.2499 55.3285C57.2499 52.9398 55.3136 51.0034 52.9249 51.0034C50.5362 51.0034 48.5999 52.9398 48.5999 55.3285C48.5999 57.7171 50.5362 59.6535 52.9249 59.6535Z" fill="#D3DBE7"/>
<path d="M74.1698 43.7189L74.2024 55.6114C74.2031 55.769 74.1727 55.9253 74.1129 56.0711C74.053 56.2169 73.965 56.3495 73.8538 56.4612C73.7426 56.573 73.6104 56.6616 73.4648 56.7221C73.3193 56.7826 73.1632 56.8137 73.0055 56.8137L54.144 56.8627C53.9861 56.8634 53.8296 56.833 53.6835 56.7732C53.5373 56.7135 53.4044 56.6255 53.2923 56.5144C53.1801 56.4032 53.091 56.2711 53.0299 56.1255C52.9688 55.9799 52.937 55.8237 52.9363 55.6658L52.9091 43.7733C52.9046 43.6254 52.9303 43.4781 52.9847 43.3405C53.0391 43.2028 53.121 43.0777 53.2254 42.9728C53.3298 42.8679 53.4545 42.7854 53.5918 42.7304C53.7292 42.6753 53.8764 42.6488 54.0243 42.6526L73.0654 42.6036C73.212 42.6014 73.3575 42.6288 73.4932 42.6842C73.6289 42.7396 73.752 42.8218 73.8552 42.926C73.9583 43.0301 74.0394 43.1541 74.0934 43.2903C74.1475 43.4266 74.1734 43.5724 74.1698 43.7189Z" fill="#475569"/>
<path d="M71.134 53.9416C71.134 54.1568 71.0702 54.3671 70.9506 54.5461C70.8311 54.725 70.6611 54.8645 70.4623 54.9468C70.2635 55.0292 70.0447 55.0507 69.8337 55.0087C69.6226 54.9668 69.4287 54.8631 69.2766 54.711C69.1244 54.5588 69.0208 54.3649 68.9788 54.1538C68.9368 53.9428 68.9584 53.724 69.0407 53.5252C69.1231 53.3264 69.2625 53.1564 69.4415 53.0369C69.6204 52.9173 69.8308 52.8535 70.046 52.8535C70.3345 52.8535 70.6113 52.9681 70.8153 53.1722C71.0194 53.3763 71.134 53.653 71.134 53.9416Z" fill="white"/>
<path d="M72.4995 53.9362C72.4995 54.1514 72.4357 54.3618 72.3161 54.5407C72.1966 54.7196 72.0266 54.8591 71.8278 54.9414C71.629 55.0238 71.4102 55.0453 71.1992 55.0034C70.9881 54.9614 70.7942 54.8577 70.6421 54.7056C70.4899 54.5534 70.3863 54.3595 70.3443 54.1485C70.3023 53.9374 70.3238 53.7186 70.4062 53.5198C70.4885 53.321 70.628 53.1511 70.8069 53.0315C70.9859 52.912 71.1962 52.8481 71.4114 52.8481C71.7 52.8481 71.9767 52.9628 72.1808 53.1668C72.3848 53.3709 72.4995 53.6476 72.4995 53.9362Z" fill="#FFC727"/>
<path d="M57.3153 47.9843H56.0858C55.7197 47.9843 55.3685 47.8396 55.1086 47.5818C54.8488 47.324 54.7014 46.9739 54.6985 46.6079C54.6985 46.2424 54.8433 45.8917 55.1013 45.6327C55.3593 45.3737 55.7093 45.2275 56.0749 45.2261H57.3098C57.6754 45.2261 58.026 45.3709 58.285 45.6289C58.544 45.8868 58.6902 46.2369 58.6917 46.6025C58.6917 46.968 58.5468 47.3187 58.2889 47.5777C58.0309 47.8366 57.6808 47.9829 57.3153 47.9843Z" fill="#FFC727"/>
<path d="M71.7213 46.7058H69.9151C69.8158 46.7065 69.7173 46.6876 69.6253 46.6503C69.5333 46.6129 69.4495 46.5578 69.3788 46.4881C69.308 46.4184 69.2517 46.3354 69.2131 46.244C69.1744 46.1525 69.1542 46.0543 69.1534 45.955C69.1534 45.7539 69.2329 45.561 69.3746 45.4183C69.5163 45.2757 69.7086 45.1948 69.9097 45.1934H71.7158C71.9164 45.1934 72.1087 45.273 72.2506 45.4148C72.3924 45.5567 72.472 45.749 72.472 45.9496C72.472 46.1492 72.3931 46.3407 72.2525 46.4824C72.1118 46.624 71.9209 46.7043 71.7213 46.7058Z" fill="white"/>
<path d="M64.8178 52.9618L54.7206 52.9883L54.7219 53.4833L64.819 53.4569L64.8178 52.9618Z" fill="white"/>
<path d="M61.8725 54.0682L54.724 54.0869L54.7253 54.582L61.8738 54.5633L61.8725 54.0682Z" fill="white"/>
<path d="M68.4626 45.1943L63.4249 45.2075L63.4262 45.7026L68.4639 45.6894L68.4626 45.1943Z" fill="white"/>
<path d="M81.0744 25.1551L80.9711 25.1809C80.9739 25.169 80.9802 25.1582 80.9892 25.1499L81.0744 25.1551Z" fill="#263238"/>
<path d="M84.0481 99.7885H84.0016V99.7549L84.0481 99.7885Z" fill="#F7A9A0"/>
<path d="M30.4534 82.0693L31.0656 85.7455L35.2197 108.172H35.8888L32.8688 85.7455L32.4219 82.0693H30.4534Z" fill="#DBDBDB"/>
<path d="M32.4219 82.0693H30.4534L31.0656 85.7455H32.8688L32.4219 82.0693Z" fill="#A6A6A6"/>
<path d="M17.4098 108.172H18.0815L22.2329 85.7455L22.8478 82.0693H20.8767L20.4297 85.7455L17.4098 108.172Z" fill="#D3DBE7"/>
<path d="M20.8769 82.0693L20.4299 85.7455H22.2331L22.848 82.0693H20.8769Z" fill="#D3DBE7"/>
<path d="M20.8769 82.0693L20.4299 85.7455H22.2331L22.848 82.0693H20.8769Z" fill="#1E437D" fill-opacity="0.2"/>
<path d="M4.95288 108.172H5.62197L9.77603 85.7455L10.3883 82.0693H8.41976L7.97284 85.7455L4.95288 108.172Z" fill="#D3DBE7"/>
<path d="M7.9729 85.7455H9.77609L10.3884 82.0693H8.41982L7.9729 85.7455Z" fill="#D3DBE7"/>
<path d="M7.9729 85.7455H9.77609L10.3884 82.0693H8.41982L7.9729 85.7455Z" fill="#1E437D" fill-opacity="0.2"/>
<path d="M6.01477 83.7952H36.4495V80.5892H25.0568L21.2282 63.8877H7.17729L6.01477 83.7952Z" fill="#D3DBE7"/>
<path d="M6.01477 83.7952H7.67588L8.75573 63.8877H7.17729L6.01477 83.7952Z" fill="#D3DBE7"/>
<path d="M6.01477 83.7952H7.67588L8.75573 63.8877H7.17729L6.01477 83.7952Z" fill="#1E437D" fill-opacity="0.2"/>
<path d="M54.2747 102.646C53.7425 102.959 37.351 106.384 36.6432 106.121C36.3848 106.023 35.7364 103.664 35.0466 100.791C34.8968 100.171 34.747 99.5307 34.5971 98.8797C33.6258 94.6456 32.6854 90.1453 32.6854 90.1453L43.6441 87.8203L45.2458 96.6296L45.5997 98.562C45.5997 98.562 52.4637 100.058 53.2077 100.43C53.9517 100.802 54.8094 102.336 54.2747 102.646Z" fill="#FFAE9D"/>
<path d="M54.3677 102.648C53.8278 102.964 37.2477 106.405 36.5424 106.136C36.2686 106.038 35.6279 103.656 34.9356 100.752C34.9272 100.722 34.9203 100.692 34.9149 100.662L45.5868 98.3213L45.6204 98.5047C45.6204 98.5047 52.5542 100.021 53.3085 100.401C54.0629 100.781 54.9025 102.336 54.3677 102.648Z" fill="#FFC727"/>
<path d="M54.0447 102.047C51.2365 102.564 39.9549 104.889 37.2166 105.604C37.1959 105.604 37.1985 105.627 37.2166 105.622C40.0118 105.175 51.2727 102.757 54.0498 102.091C54.1273 102.078 54.1041 102.029 54.0447 102.047Z" fill="#1E437D"/>
<path d="M46.7751 98.1044C45.6333 98.1277 44.3235 98.5772 43.6441 99.533C43.6183 99.5718 43.6725 99.608 43.7035 99.5899C44.6856 99.0321 45.725 98.5817 46.8036 98.2465C46.8224 98.2427 46.839 98.2317 46.8496 98.2157C46.8603 98.1997 46.8642 98.1801 46.8604 98.1613C46.8566 98.1424 46.8455 98.1259 46.8295 98.1152C46.8136 98.1045 46.794 98.1007 46.7751 98.1044Z" fill="#1E437D"/>
<path d="M47.6689 98.4116C46.5245 98.4349 45.2147 98.8818 44.5379 99.8377C44.512 99.8764 44.5637 99.9126 44.5973 99.8945C45.5792 99.3363 46.6186 98.8859 47.6973 98.5511C47.7131 98.5449 47.7261 98.5332 47.7342 98.5183C47.7422 98.5034 47.7448 98.4861 47.7414 98.4695C47.738 98.4529 47.7289 98.438 47.7157 98.4274C47.7024 98.4169 47.6859 98.4113 47.6689 98.4116Z" fill="#1E437D"/>
<path d="M48.5601 98.7321C47.4183 98.7553 46.1085 99.2022 45.4317 100.161C45.4032 100.197 45.4575 100.233 45.4911 100.215C46.4728 99.6562 47.5122 99.2058 48.5911 98.8716C48.6072 98.8653 48.6204 98.8534 48.6285 98.8382C48.6366 98.823 48.639 98.8054 48.6352 98.7886C48.6315 98.7718 48.6219 98.7568 48.6081 98.7465C48.5943 98.7361 48.5773 98.731 48.5601 98.7321Z" fill="#1E437D"/>
<path d="M47.7078 95.4123C47.1523 94.9085 46.4032 95.3425 46.0234 95.823C45.3889 96.6599 44.9854 97.6487 44.8531 98.6906C44.8531 98.7138 44.8686 98.7241 44.8867 98.7241C44.89 98.746 44.8985 98.7668 44.9114 98.7847C44.9243 98.8027 44.9413 98.8173 44.961 98.8274C44.9807 98.8375 45.0025 98.8428 45.0246 98.8428C45.0467 98.8428 45.0685 98.8376 45.0882 98.8275C45.9252 98.3108 46.8966 97.8458 47.5399 97.0785C47.9274 96.6316 48.2322 95.8902 47.7078 95.4123ZM46.1965 97.7709C45.7909 98.0292 45.3724 98.2875 44.9772 98.5691C45.2071 98.0111 45.4112 97.4454 45.6979 96.908C45.8322 96.6487 45.9832 96.3985 46.15 96.1589C46.4083 95.7946 47.5812 94.893 47.6354 96.1382C47.669 96.8254 46.6796 97.4531 46.1965 97.7709Z" fill="#1E437D"/>
<path d="M41.9984 98.9854C42.9853 99.1818 44.0212 98.9467 45.0055 98.8407C45.0268 98.8361 45.0467 98.8265 45.0637 98.8129C45.0807 98.7993 45.0943 98.782 45.1036 98.7623C45.1128 98.7425 45.1174 98.7209 45.117 98.6992C45.1165 98.6774 45.1111 98.656 45.1011 98.6367C45.1048 98.6338 45.1079 98.63 45.11 98.6258C45.1121 98.6215 45.1131 98.6169 45.1131 98.6121C45.1131 98.6074 45.1121 98.6027 45.11 98.5984C45.1079 98.5942 45.1048 98.5905 45.1011 98.5876C44.3524 97.8498 43.4219 97.3231 42.404 97.0608C41.8099 96.9161 40.9522 97.0401 40.8282 97.779C40.7171 98.4791 41.4224 98.8692 41.9984 98.9854ZM41.3397 98.3034C40.6112 97.2907 42.0837 97.2701 42.5177 97.4018C42.7982 97.4866 43.0726 97.5902 43.3392 97.7118C43.8847 97.9706 44.4167 98.2568 44.9332 98.5695C44.4475 98.5927 43.967 98.6573 43.4813 98.6961C42.9026 98.7452 41.7401 98.864 41.3397 98.3034Z" fill="#1E437D"/>
<path d="M39.5908 110.517C38.9967 110.683 22.2823 109.817 21.6571 109.383C21.5227 109.288 21.6752 107.04 21.8663 105.017C22.0058 103.514 25.6587 93.082 25.6587 93.082L36.8499 93.6271L32.2541 104.353C32.2541 104.353 38.5084 107.549 39.1336 108.099C39.7588 108.649 40.1773 110.352 39.5908 110.517Z" fill="#FFAE9D"/>
<path d="M39.8024 110.67C39.2005 110.832 22.2975 109.838 21.6775 109.393C21.4631 109.244 21.6051 107.585 21.8196 104.893C21.8428 104.593 22.1399 103.501 22.1399 103.47L32.4424 104.203L32.4295 104.387C32.4295 104.387 38.7277 107.657 39.3581 108.221C39.9884 108.784 40.4043 110.507 39.8024 110.67Z" fill="#FFC727"/>
<path d="M39.6606 110.003C36.8189 109.765 25.3151 109.076 22.4863 109.058C22.4631 109.058 22.4605 109.073 22.4863 109.076C25.3022 109.373 36.8059 109.97 39.6606 110.05C39.7071 110.052 39.7097 110.008 39.6606 110.003Z" fill="#1E437D"/>
<path d="M33.6568 104.307C32.5459 104.031 31.1664 104.121 30.2622 104.871C30.2261 104.899 30.2622 104.948 30.3061 104.938C31.3983 104.657 32.5171 104.492 33.6439 104.447C33.6624 104.449 33.6808 104.443 33.6951 104.431C33.7094 104.419 33.7184 104.402 33.7201 104.384C33.7218 104.365 33.7161 104.347 33.7042 104.332C33.6923 104.318 33.6753 104.309 33.6568 104.307Z" fill="#1E437D"/>
<path d="M34.4371 104.842C33.3288 104.565 31.9467 104.656 31.0425 105.405C31.0063 105.433 31.0425 105.482 31.0864 105.472C32.1785 105.191 33.2974 105.026 34.4241 104.981C34.4426 104.983 34.4611 104.977 34.4753 104.965C34.4896 104.953 34.4986 104.936 34.5003 104.918C34.5021 104.899 34.4964 104.881 34.4845 104.867C34.4726 104.852 34.4556 104.843 34.4371 104.842Z" fill="#1E437D"/>
<path d="M35.2172 105.387C34.1089 105.113 32.7268 105.203 31.8226 105.952C31.789 105.981 31.8226 106.03 31.8665 106.02C32.9587 105.739 34.0775 105.574 35.2043 105.529C35.2213 105.527 35.2374 105.52 35.2495 105.508C35.2617 105.496 35.2693 105.48 35.2708 105.463C35.2724 105.446 35.2678 105.429 35.258 105.415C35.2482 105.401 35.2337 105.391 35.2172 105.387Z" fill="#1E437D"/>
<path d="M35.2687 101.949C34.8631 101.318 34.0261 101.543 33.5352 101.907C32.7037 102.55 32.056 103.4 31.6571 104.372C31.6555 104.376 31.6549 104.38 31.6552 104.385C31.6556 104.389 31.6569 104.394 31.6591 104.398C31.6613 104.402 31.6644 104.405 31.6681 104.408C31.6717 104.41 31.6759 104.412 31.6804 104.413C31.6783 104.435 31.6813 104.457 31.6893 104.477C31.6973 104.498 31.71 104.516 31.7264 104.531C31.7427 104.545 31.7623 104.556 31.7835 104.561C31.8046 104.567 31.8269 104.567 31.8483 104.563C32.7964 104.274 33.8427 104.085 34.6719 103.514C35.1447 103.183 35.6407 102.545 35.2687 101.949ZM33.202 103.834C32.7396 103.987 32.2745 104.116 31.8173 104.286C32.1689 103.795 32.5457 103.323 32.9462 102.871C33.1428 102.655 33.3534 102.452 33.5766 102.264C33.9279 101.982 35.2868 101.414 35.0181 102.631C34.8502 103.302 33.7342 103.651 33.1839 103.837L33.202 103.834Z" fill="#1E437D"/>
<path d="M28.8101 103.909C29.7091 104.358 30.7735 104.4 31.75 104.552C31.7718 104.554 31.7938 104.551 31.8141 104.542C31.8343 104.534 31.8523 104.521 31.8665 104.504C31.8807 104.488 31.8906 104.468 31.8955 104.446C31.9004 104.425 31.9001 104.403 31.8947 104.382C31.8994 104.38 31.9037 104.378 31.9073 104.375C31.9109 104.372 31.9137 104.367 31.9155 104.363C31.9172 104.358 31.9179 104.354 31.9174 104.349C31.917 104.344 31.9154 104.339 31.9128 104.335C31.3822 103.429 30.6221 102.679 29.7091 102.16C29.1718 101.865 28.3115 101.762 27.999 102.444C27.6864 103.126 28.2935 103.648 28.8101 103.909ZM28.3503 103.082C27.9111 101.915 29.3371 102.287 29.7246 102.519C29.9733 102.674 30.2106 102.847 30.4351 103.036C30.9078 103.415 31.3186 103.855 31.75 104.278C31.2747 104.175 30.7967 104.11 30.3162 104.02C29.7505 103.914 28.5957 103.725 28.3555 103.082H28.3503Z" fill="#1E437D"/>
<path d="M13.5376 77.9539C16.8701 81.6662 28.069 78.7289 28.7381 80.2117C29.3297 81.5034 21.6855 102.444 21.6855 102.444L33.9152 103.762C33.9152 103.762 44.4734 80.6483 40.694 73.9703C38.6557 70.3536 29.6733 71.8003 24.2534 71.1415C22.6181 70.9426 21.8509 67.5713 21.8509 67.5713H12.171C12.171 67.5713 9.7271 73.7094 13.5376 77.9539Z" fill="#A788CE"/>
<path d="M37.2993 71.9012L27.0304 79.7598C23.6203 79.6874 16.1544 80.868 13.5374 77.9514C9.72697 73.7069 12.1708 67.5688 12.1708 67.5688H21.8559C21.8559 67.5688 22.6309 70.9401 24.2584 71.1391C28.0637 71.6041 33.618 71.028 37.2993 71.9012Z" fill="#1E437D"/>
<path d="M34.3825 101.033C34.0467 100.928 30.8743 100.574 30.1742 100.499C28.774 100.346 24.3668 99.9355 23.5685 99.9355C23.5646 99.937 23.5612 99.9397 23.5588 99.9431C23.5563 99.9466 23.5551 99.9507 23.5551 99.9549C23.5551 99.9591 23.5563 99.9633 23.5588 99.9667C23.5612 99.9702 23.5646 99.9728 23.5685 99.9743C24.2609 100.119 27.0742 100.447 27.7743 100.519C29.1744 100.664 33.9899 101.132 34.3799 101.093C34.3864 101.091 34.3922 101.088 34.3965 101.082C34.4007 101.077 34.4032 101.071 34.4034 101.064C34.4037 101.057 34.4019 101.051 34.3981 101.045C34.3943 101.04 34.3889 101.036 34.3825 101.033Z" fill="#1E437D"/>
<path d="M30.2234 78.9847C29.4355 78.5946 23.4756 78.7884 19.1976 78.3879C17.8051 78.2614 16.4101 77.9591 15.3432 77.0472C14.4154 76.2105 13.7535 75.1201 13.4392 73.911C13.0285 72.4488 13.0698 70.9272 13.1396 69.4288C13.1576 69.0594 13.1835 68.6925 13.2067 68.3231C13.2067 68.3025 13.1706 68.2999 13.168 68.3231C12.8425 71.0047 12.5945 74.0065 14.3382 76.3316C15.1129 77.3497 16.2136 78.0711 17.4564 78.375C20.0397 79.0545 29.7326 78.8917 30.0761 79.15C30.4817 79.4626 24.2119 98.5512 24.0879 98.9154C24.0646 98.9826 24.1861 99.0291 24.2145 98.9619C24.8319 97.4842 30.908 79.3257 30.2234 78.9847Z" fill="#1E437D"/>
<path d="M41.1381 74.6164C40.5621 73.1517 39.2471 72.2423 37.3122 71.8936C37.2786 71.8936 37.2812 71.9349 37.3122 71.9426C39.0017 72.4361 40.2081 73.1155 40.8721 74.5415C41.1821 75.2054 41.3422 76.1406 41.4223 77.3832C41.8227 83.635 36.3692 97.8229 36.2556 98.0683C36.2532 98.0727 36.2526 98.078 36.2541 98.0828C36.2556 98.0876 36.2589 98.0917 36.2633 98.0941C36.2678 98.0965 36.273 98.097 36.2778 98.0956C36.2827 98.0941 36.2868 98.0908 36.2892 98.0864C37.0616 96.8024 43.52 80.6589 41.1381 74.6164Z" fill="#263238"/>
<path d="M45.5609 96.058L36.3021 98.0265C36.3021 98.0265 43.6079 76.2228 40.1772 73.4096C39.2265 72.6345 37.1521 72.3555 34.6875 73.4096C31.0062 75.0087 26.7437 78.2611 22.7317 79.4366C18.9703 80.5448 14.5062 79.5244 12.9717 77.8323C9.74251 74.2802 12.1709 67.5685 12.1709 67.5685L24.8707 67.0674C24.8707 67.0674 24.9276 67.2301 25.5631 67.7933C25.5631 67.7933 33.7549 66.0185 37.1547 68.0956C43.2902 71.844 45.5609 96.058 45.5609 96.058Z" fill="#A788CE"/>
<path d="M17.924 68.3465C17.924 68.3403 17.9216 68.3344 17.9172 68.3301C17.9128 68.3257 17.9069 68.3232 17.9008 68.3232C17.8946 68.3232 17.8887 68.3257 17.8843 68.3301C17.88 68.3344 17.8775 68.3403 17.8775 68.3465C17.8888 68.8467 17.8507 69.3469 17.7638 69.8397C17.6593 70.3073 17.4267 70.7367 17.0922 71.0797C16.3636 71.8185 15.3148 72.0691 14.359 72.3714C14.3073 72.3895 14.3176 72.4773 14.3745 72.4696C15.4362 72.3042 16.5522 72.0355 17.3272 71.2399C17.684 70.8719 17.9232 70.406 18.0144 69.9017C18.1139 69.3838 18.0828 68.8493 17.924 68.3465Z" fill="#1E437D"/>
<path d="M39.9446 72.9942C38.5212 72.1004 36.2943 72.7772 35.2299 73.1854C35.2067 73.1854 35.2299 73.2319 35.2299 73.2215C36.209 72.8702 38.6477 72.3354 39.9523 73.2603C42.9671 75.3942 38.9319 89.9928 36.2891 98.0271C36.2478 98.1537 36.346 98.1201 36.4028 97.9987C36.8394 97.0454 40.2468 86.8902 41.1355 80.1734C41.2828 79.1452 41.9855 74.2807 39.9446 72.9942Z" fill="#1E437D"/>
<path d="M44.5042 93.5967C44.2252 93.5967 41.8253 94.1134 41.2957 94.2374C40.2391 94.475 37.7875 95.1105 37.214 95.3275C37.2011 95.3275 37.214 95.3663 37.2269 95.3637C37.7746 95.312 39.0533 95.0305 39.5803 94.909C40.6369 94.6636 44.2562 93.7956 44.5223 93.6535C44.5456 93.6406 44.5327 93.5967 44.5042 93.5967Z" fill="#1E437D"/>
<path d="M39.4899 72.6144C38.5314 72.0977 37.3922 72.0047 36.3278 72.1364C35.2058 72.3045 34.1165 72.6453 33.0986 73.1465C30.9312 74.136 28.867 75.3476 26.6996 76.3318C24.5321 77.3161 22.2407 78.0782 19.864 78.1402C17.8309 78.2048 15.2604 77.8457 13.9532 76.0192C11.9408 73.2034 13.1136 68.3466 13.1369 68.034C13.1369 68.0108 13.1059 68.0108 13.1007 68.034C11.5507 74.0016 13.5476 76.3189 14.9091 77.2928C15.9863 78.0679 17.5312 78.2642 18.5542 78.3494C20.918 78.5484 23.2895 77.9697 25.4802 77.0965C27.7252 76.2027 29.8332 74.9988 31.9852 73.8983C34.0519 72.8417 36.3459 71.7541 38.7019 72.3483C38.9661 72.4158 39.2251 72.5021 39.4769 72.6066C39.495 72.6428 39.5028 72.6195 39.4899 72.6144Z" fill="#1E437D"/>
<path d="M27.8055 53.7192C27.808 53.7471 27.8001 53.7748 27.7834 53.7972C27.7668 53.8196 27.7424 53.8351 27.7151 53.8407L27.2475 53.8717C26.829 52.7789 26.3769 51.9135 26.4957 52.2519C26.6744 52.7828 26.7728 53.3375 26.7877 53.8975L25.8654 53.944C25.5011 52.0245 25.0335 50.6011 25.062 51.0403C25.1808 52.8125 25.0749 53.3834 24.9535 53.9905C22.7266 54.0964 19.8048 54.2023 17.689 54.2307C17.4462 53.1716 17.2318 52.022 17.1956 52.1021C16.9063 52.7014 16.8288 53.572 16.8236 54.2437C16.1493 54.2437 15.612 54.2437 15.2736 54.2178C15.2736 54.2178 15.116 53.3266 15.0927 53.0321C15.0325 52.2782 15.1122 51.5197 15.3278 50.7949C15.5814 50.0742 15.9086 49.3817 16.3043 48.7282V48.7127C16.5463 48.2754 16.7346 47.8104 16.8649 47.328C16.9526 46.9787 17.0105 46.6227 17.038 46.2636C17.1362 44.9539 17.8724 43.8198 19.1047 43.471C21.4297 41.2777 23.7548 42.1974 24.4678 43.8792C24.535 44.0419 24.5995 44.2305 24.6641 44.4346C24.9018 45.1941 25.1162 46.1758 25.3151 46.9353C25.3898 47.2333 25.4821 47.5266 25.5916 47.8137C26.2271 49.1803 27.5575 49.9553 27.8055 53.7192Z" fill="#1D293F"/>
<path d="M26.9811 49.2786C26.4102 48.5345 25.816 47.9016 25.4802 46.9794C25.1754 46.1398 25.0023 45.2537 24.7052 44.4141C24.7052 44.4141 24.6794 44.4141 24.6845 44.4141C25.1624 45.9047 25.2554 47.4082 26.219 48.6611C26.7357 49.3406 27.2524 49.9709 27.6089 50.7872C27.9603 51.6425 28.1444 52.5571 28.1514 53.4817C28.1514 53.4879 28.1539 53.4938 28.1582 53.4981C28.1626 53.5025 28.1685 53.5049 28.1747 53.5049C28.1808 53.5049 28.1867 53.5025 28.1911 53.4981C28.1955 53.4938 28.1979 53.4879 28.1979 53.4817C28.3337 51.9776 27.8994 50.4775 26.9811 49.2786Z" fill="#263238"/>
<path d="M34.7777 47.1035L31.9722 53.9985C31.9443 54.0353 31.9268 54.0789 31.9215 54.1248C31.9162 54.1707 31.9233 54.2171 31.942 54.2593C31.9607 54.3015 31.9904 54.3379 32.028 54.3647C32.0656 54.3916 32.1096 54.4079 32.1556 54.4119L35.8421 54.9285C35.9558 54.9358 36.0692 54.9108 36.1693 54.8564C36.2694 54.802 36.3521 54.7205 36.4079 54.6211L39.2108 47.7261C39.2386 47.6895 39.2561 47.6461 39.2616 47.6004C39.267 47.5548 39.2602 47.5085 39.2417 47.4664C39.2233 47.4242 39.194 47.3878 39.1567 47.3608C39.1195 47.3338 39.0757 47.3172 39.03 47.3128L35.3409 46.7961C35.2276 46.789 35.1146 46.8141 35.015 46.8685C34.9153 46.9229 34.8331 47.0044 34.7777 47.1035Z" fill="#1D293F"/>
<path d="M35.2148 47.1624L32.4118 54.0548C32.384 54.0915 32.3665 54.1348 32.3611 54.1805C32.3556 54.2262 32.3625 54.2725 32.3809 54.3146C32.3993 54.3567 32.4287 54.3932 32.4659 54.4202C32.5031 54.4472 32.5469 54.4637 32.5927 54.4682L36.2817 54.9848C36.3951 54.9926 36.5084 54.9677 36.6081 54.9133C36.7079 54.8588 36.79 54.777 36.8449 54.6774L39.6608 47.7772C39.6886 47.7406 39.7061 47.6972 39.7115 47.6516C39.717 47.6059 39.7101 47.5596 39.6917 47.5175C39.6733 47.4754 39.6439 47.4389 39.6067 47.4119C39.5695 47.3849 39.5257 47.3683 39.4799 47.3639L35.7909 46.8472C35.6747 46.839 35.5587 46.8643 35.4565 46.9202C35.3544 46.9761 35.2705 47.0602 35.2148 47.1624Z" fill="#1E437D"/>
<path d="M36.1805 47.6305C36.1613 47.7077 36.1137 47.775 36.0472 47.8188C35.9808 47.8627 35.9003 47.88 35.8216 47.8673C35.743 47.8547 35.672 47.8129 35.6227 47.7504C35.5734 47.6879 35.5494 47.6091 35.5553 47.5297C35.5705 47.4477 35.617 47.3749 35.685 47.3266C35.7531 47.2784 35.8372 47.2586 35.9196 47.2714C36.0017 47.2847 36.0751 47.33 36.124 47.3972C36.1729 47.4645 36.1932 47.5483 36.1805 47.6305Z" fill="#D3DBE7"/>
<path d="M21.3727 56.2562C22.7936 61.0044 26.6092 67.468 28.5416 67.7832C29.4613 67.933 31.0733 68.398 32.4399 67.5248C35.4237 65.608 38.2887 61.5211 39.1153 59.0591C39.4098 58.1834 35.3255 55.5819 34.5686 56.2174C32.8016 57.7054 30.5385 60.8081 30.275 60.7486C29.2934 60.5239 25.9014 56.7186 23.5376 54.0319C20.6649 50.7923 20.8018 54.3626 21.3727 56.2562Z" fill="#FFAE9D"/>
<path d="M39.9189 54.4246C39.7278 52.531 39.3893 52.0738 40.0765 50.3868C40.5286 49.2811 40.0171 48.5191 39.0664 49.3173C37.5164 50.6245 37.2426 53.1226 37.4001 54.0139L39.9189 54.4246Z" fill="#FFAE9D"/>
<path d="M38.7847 59.8081C38.7847 59.8081 39.9808 57.3849 39.9783 55.3466C39.9783 53.9361 39.6295 50.8671 35.9999 48.7332C35.1396 48.2165 33.5534 48.1158 34.6591 49.454C35.4341 50.4021 36.2298 50.7689 36.5863 51.4044C36.5863 51.4044 34.5532 51.5026 34.0778 52.3835C33.6647 53.1556 33.3065 53.9559 33.0057 54.7783C33.144 54.8664 33.2872 54.9466 33.4346 55.0185C33.4346 55.0185 33.0187 55.8581 33.4862 57.2067L38.7847 59.8081Z" fill="#FFAE9D"/>
<path d="M39.7613 54.0011C39.273 53.4431 38.2113 52.2832 37.0307 51.6322C35.708 50.9088 32.9645 49.8729 32.4426 50.8572C32.0577 51.5753 33.0704 52.0636 33.0704 52.0636C33.0704 52.0636 31.8459 51.875 31.6418 52.6009C31.4558 53.2623 32.2618 53.593 32.2618 53.593C32.2618 53.593 31.4868 53.6059 31.4403 54.2775C31.3731 55.0861 32.9903 54.926 33.6206 55.8069C33.7627 56.0007 39.7613 54.0011 39.7613 54.0011Z" fill="#FFAE9D"/>
<path d="M36.501 53.1563C35.5054 52.4485 34.3176 52.061 33.0961 52.0454C33.0651 52.0454 33.0496 52.0687 33.0781 52.0738C34.2568 52.2986 35.4037 52.6665 36.4933 53.1692L36.501 53.1563Z" fill="#1E437D"/>
<path d="M35.7313 54.4708C34.6795 53.8616 33.4824 53.5483 32.267 53.564C32.236 53.564 32.2231 53.5899 32.2515 53.595C33.4402 53.7614 34.6059 54.063 35.7261 54.4941C35.7261 54.4941 35.739 54.4734 35.7313 54.4708Z" fill="#1E437D"/>
<path d="M37.857 60.3897C38.3994 60.6678 38.5687 61.358 38.2018 61.8447C36.8268 63.6683 33.7148 67.5776 32.0293 67.9644C29.8231 68.4708 28.6037 68.1013 27.8468 67.8688C27.5571 67.7561 27.2966 67.5795 27.0847 67.3522C25.2092 65.5438 22.2434 59.6692 21.1636 56.4581C20.355 54.0452 20.7864 52.0354 22.4243 52.9499C22.9737 53.2882 23.4634 53.7151 23.8735 54.2131C26.6662 57.3674 29.9884 60.4726 30.1796 60.4132C30.3121 60.372 31.4441 59.0918 32.1261 58.3102C32.4297 57.9623 32.931 57.8646 33.342 58.0753L37.857 60.3897Z" fill="#FFE9A9"/>
<path d="M37.8005 62.0714C37.5809 61.9034 35.4755 60.6919 35.0001 60.4387C34.5248 60.1855 32.6415 59.1315 32.1403 58.9093C32.1361 58.9082 32.1316 58.9086 32.1275 58.9102C32.1234 58.9119 32.12 58.9148 32.1177 58.9185C32.1154 58.9223 32.1143 58.9267 32.1147 58.931C32.1151 58.9354 32.1168 58.9396 32.1197 58.9429C32.5718 59.2529 34.4783 60.3224 34.9459 60.5885C35.4135 60.8546 37.5293 62.0094 37.7876 62.1049C37.8057 62.1127 37.8134 62.0843 37.8005 62.0714Z" fill="#1E437D"/>
<path d="M28.6862 59.1704C27.1081 60.3107 25.4338 61.3117 23.6822 62.1619C23.2689 61.3714 22.8711 60.5628 22.512 59.7774C24.0044 59.081 25.4355 58.26 26.79 57.3232C27.4927 58.0311 28.1437 58.664 28.6862 59.1704Z" fill="white"/>
<path d="M27.8415 67.8689C27.8415 67.8689 27.2913 67.5796 27.0794 67.3523C25.2039 65.5439 22.2382 59.6693 21.1583 56.4582C20.4246 54.2701 20.7114 52.4152 21.9902 52.7691C24.1524 55.4075 27.8415 67.8689 27.8415 67.8689Z" fill="#1E437D"/>
<path d="M25.537 62.8514C25.4165 63.0619 25.3571 63.3045 25.3866 63.5453L25.7287 66.3367C25.7986 66.9072 25.3743 67.4191 24.8007 67.4562L12.6954 68.2401C12.0097 68.2845 11.4861 67.6467 11.6798 66.9875C12.6356 63.734 15.1926 55.5404 17.2962 53.3834C19.0787 51.5492 21.1067 51.7455 22.3674 53.094C22.6851 53.435 26.0048 57.4858 26.3639 59.462C26.6 60.783 25.8958 62.2249 25.537 62.8514Z" fill="#FFE9A9"/>
<path d="M25.9686 61.9863C23.2044 62.379 17.49 62.9784 13.261 62.0225C13.6537 60.8781 14.0851 59.6975 14.5346 58.566C18.3351 59.0288 22.1825 58.9418 25.9583 58.3076C26.1423 58.6727 26.2786 59.0599 26.3638 59.4598C26.5214 60.3381 26.2631 61.2682 25.9686 61.9863Z" fill="white"/>
<path d="M25.6198 65.4921C25.4906 64.717 25.377 63.942 25.271 63.1799V63.1567L25.2865 63.1309C25.6486 62.5797 25.9296 61.9794 26.121 61.3483C26.2165 61.0355 26.278 60.7133 26.3044 60.3873C26.339 60.0637 26.3216 59.7366 26.2527 59.4185C26.1843 59.0971 26.0848 58.783 25.9556 58.4808C25.8342 58.1734 25.6973 57.8737 25.5371 57.5792C25.2264 56.9902 24.8814 56.4201 24.5038 55.8716C24.9319 56.3868 25.3156 56.9373 25.6508 57.5172C26.0019 58.0953 26.2632 58.7233 26.4258 59.3798C26.563 60.0536 26.5184 60.7517 26.2966 61.4026C26.0954 62.0495 25.7919 62.66 25.3976 63.2109V63.1619C25.488 63.9394 25.5604 64.7145 25.6198 65.4921Z" fill="#1E437D"/>
<path d="M25.2374 56.4292C25.3962 56.6611 25.5271 56.9108 25.6275 57.1732C25.6807 57.3035 25.7247 57.4373 25.7593 57.5736C25.7979 57.7099 25.8188 57.8505 25.8213 57.9921C25.7205 57.7338 25.6094 57.4755 25.5087 57.2171C25.4033 56.9599 25.3128 56.6968 25.2374 56.4292Z" fill="#1E437D"/>
<path d="M17.7226 52.717C12.5972 55.3185 6.71485 61.1931 7.05844 63.1487C7.44336 65.3239 14.8086 61.6452 14.7336 61.3196C14.6691 61.0406 16.2165 58.7027 18.4279 55.3521C20.678 51.9446 18.9936 52.0738 17.7226 52.717Z" fill="#FFE9A9"/>
<path d="M16.2758 58.6274C15.5964 59.6789 15.1029 60.472 14.8756 60.9215C13.1028 60.3476 11.3757 59.6412 9.70886 58.8083C10.316 58.1702 11.0005 57.5166 11.7394 56.8682C13.2014 57.5764 14.7185 58.1648 16.2758 58.6274Z" fill="white"/>
<path d="M7.05828 63.1486C7.50779 64.6677 9.77599 65.6855 15.245 68.7881C16.0019 69.217 20.466 64.6909 19.6806 64.1923C18.6938 63.562 14.7231 61.3325 14.4106 61.2085C11.7884 60.1416 6.75344 62.1153 7.05828 63.1486Z" fill="#F7A9A0"/>
<path d="M18.6009 63.5361C18.6009 63.5361 20.9543 64.74 21.9954 65.7527C23.0491 66.8365 23.8254 68.1588 24.2584 69.6071C24.7286 71.17 24.788 75.2724 23.61 75.4946C22.5431 75.6986 22.6929 71.5007 22.6929 71.5007C22.6929 71.5007 23.2458 75.8046 21.9179 75.8123C20.59 75.8201 21.0421 70.9582 21.0421 70.9582C21.0421 70.9582 21.5097 75.3938 20.138 75.1846C19.1046 75.0244 19.2622 70.5991 19.2622 70.5991C19.2622 70.5991 19.6394 74.4147 18.5647 74.2959C17.3789 74.1667 17.273 70.0721 17.273 70.0721C14.6018 69.3125 13.6253 67.8581 13.0518 66.7395C12.9252 66.4683 18.6009 63.5361 18.6009 63.5361Z" fill="#FFAE9D"/>
<path d="M22.6103 69.9946C22.6956 70.4984 22.7834 71.0073 22.8196 71.5162C22.8558 72.0252 22.879 72.5496 22.8687 73.0456C22.8695 73.7125 22.7941 74.3773 22.6439 75.027C22.8273 73.8542 22.7188 72.0303 22.6801 71.5214C22.6413 71.0125 22.6103 70.5113 22.5793 69.9946H22.6103Z" fill="#1E437D"/>
<path d="M20.7581 70.1007C20.8356 70.7492 20.9389 71.3924 20.988 72.0409C21.0371 72.6893 21.0267 73.3067 21.0319 73.9551C21.0319 74.0068 21.0061 73.9887 21.0035 73.9396C20.9725 73.2912 20.895 72.6919 20.8562 72.046C20.8175 71.4002 20.8046 70.7543 20.7426 70.1033C20.7426 70.093 20.7581 70.093 20.7581 70.1007Z" fill="#1E437D"/>
<path d="M19.1641 69.9069C19.3061 70.8965 19.3476 71.8979 19.2881 72.8958C19.2881 72.9475 19.2519 72.9217 19.2519 72.87C19.2287 71.8754 19.2183 71.0952 19.1279 69.912C19.1279 69.894 19.1589 69.8862 19.1641 69.9069Z" fill="#1E437D"/>
<path d="M18.3524 62.9576C19.0131 63.2789 19.0953 64.1759 18.5105 64.6205C16.6705 66.0193 13.4569 68.4558 13.4109 68.4448C13.3463 68.4293 7.1591 64.779 7.05835 63.1489C6.9576 61.5188 12.0804 60.2943 14.4055 61.1959C15.719 61.7052 17.2601 62.4265 18.3524 62.9576Z" fill="#FFE9A9"/>
<path d="M17.6399 62.9708C17.3816 63.118 15.4053 64.7197 14.9816 65.0762C14.5579 65.4327 12.809 66.8846 12.3982 67.2824C12.3954 67.2862 12.3938 67.2908 12.3939 67.2955C12.394 67.3002 12.3957 67.3047 12.3987 67.3083C12.4017 67.3119 12.4059 67.3144 12.4105 67.3153C12.4151 67.3163 12.4199 67.3156 12.4241 67.3134C12.8994 66.9931 14.6664 65.5412 15.1056 65.1847C15.5448 64.8282 17.4771 63.2033 17.6657 62.9966C17.6838 62.9785 17.658 62.9605 17.6399 62.9708Z" fill="#1E437D"/>
<path d="M11.6077 60.9528C12.1477 60.8675 13.6331 60.7435 14.8395 61.348C14.8395 61.348 14.8395 61.3713 14.8395 61.3661C13.7947 61.0585 12.7062 60.9258 11.6181 60.9734C11.6181 60.9734 11.5922 60.9528 11.6077 60.9528Z" fill="#1E437D"/>
<path d="M19.3834 63.9601L19.7632 63.6501V63.6811L18.5154 63.0611C18.0995 62.8544 17.681 62.6555 17.2599 62.4592C16.4203 62.0613 15.573 61.6842 14.7127 61.338L14.6119 61.2966L14.6636 61.2037C15.1441 60.3279 15.6401 59.465 16.1723 58.6203C16.6988 57.7752 17.2696 56.9585 17.8825 56.1738C17.3296 57.0005 16.8018 57.841 16.2989 58.6952C15.7951 59.5529 15.2965 60.4106 14.8341 61.2786L14.785 61.1468C15.6505 61.4982 16.4952 61.8908 17.3296 62.3042C17.743 62.5134 18.1563 62.7304 18.5671 62.95C18.9778 63.1696 19.3783 63.4021 19.7813 63.6346L19.8071 63.6501L19.7838 63.6656L19.3834 63.9601Z" fill="#1E437D"/>
<path d="M16.6219 58.0418C16.7697 57.8439 16.9311 57.6566 17.105 57.4812C17.2789 57.305 17.4692 57.1458 17.6734 57.0059C17.5327 57.2094 17.3735 57.3997 17.198 57.5742C17.1076 57.6595 17.0198 57.7447 16.9242 57.8325C16.8302 57.9116 16.729 57.9816 16.6219 58.0418Z" fill="#1E437D"/>
<path d="M11.5868 67.3076C12.1178 67.5358 12.6115 67.8423 13.0516 68.217C12.7822 68.106 12.5229 67.9721 12.2766 67.8165C12.0333 67.6658 11.8026 67.4956 11.5868 67.3076Z" fill="#1E437D"/>
<path d="M17.1465 53.0218C17.1465 53.0218 19.797 55.4243 21.701 55.3107C23.6049 55.197 23.3233 53.6392 23.3233 53.6392C23.3233 53.6392 21.9593 52.0169 20.0993 52.0453C19.0347 52.0391 17.9975 52.3821 17.1465 53.0218Z" fill="#FFAE9D"/>
<path d="M19.5101 52.8924C19.5772 53.2747 20.484 55.0107 21.6491 54.9591C22.2484 54.941 22.2614 52.8407 22.2614 52.8407L22.2898 52.6857L22.7031 50.5234L19.7607 48.7822C19.7607 48.7822 19.4791 52.7839 19.5101 52.8924Z" fill="#FFAE9D"/>
<path d="M19.6523 50.2807C19.8999 50.8421 20.2616 51.3458 20.7143 51.7599C21.1671 52.174 21.701 52.4893 22.2822 52.6858L22.6956 50.5236L19.7505 48.7798C19.7505 48.7798 19.704 49.4721 19.6523 50.2807Z" fill="#1D293F"/>
<path d="M25.7257 47.2193C26.0642 51.0659 23.7985 51.7015 22.9693 51.7738C22.2149 51.8384 19.6419 51.965 18.9082 48.1752C18.1745 44.3853 19.8589 43.0084 21.5717 42.7682C23.2845 42.5279 25.3899 43.3701 25.7257 47.2193Z" fill="#FFAE9D"/>
<path d="M25.0644 46.357C24.9773 46.3458 24.8911 46.3294 24.806 46.3079C24.7113 46.3052 24.6203 46.2706 24.5477 46.2098C24.529 46.1858 24.5189 46.1562 24.5189 46.1258C24.5189 46.0954 24.529 46.0659 24.5477 46.0419C24.5902 45.9985 24.6434 45.9672 24.702 45.9514C24.7606 45.9355 24.8224 45.9355 24.8809 45.9514C25.004 45.9662 25.1172 46.026 25.1987 46.1194C25.217 46.1423 25.2279 46.1702 25.2302 46.1994C25.2326 46.2287 25.2261 46.2579 25.2116 46.2835C25.1972 46.309 25.1755 46.3297 25.1492 46.3428C25.123 46.3559 25.0934 46.3608 25.0644 46.357Z" fill="#1D293F"/>
<path d="M22.5948 46.4395C22.6852 46.424 22.7653 46.3981 22.8531 46.3749C22.9498 46.3683 23.0412 46.3281 23.1114 46.2612C23.1301 46.2372 23.1402 46.2077 23.1402 46.1773C23.1402 46.1469 23.1301 46.1173 23.1114 46.0933C23.0663 46.0526 23.0112 46.0247 22.9517 46.0124C22.8922 46.0001 22.8305 46.004 22.773 46.0236C22.6516 46.0468 22.5425 46.1128 22.4656 46.2096C22.4502 46.2322 22.4414 46.2587 22.4402 46.2861C22.439 46.3135 22.4455 46.3406 22.4589 46.3645C22.4724 46.3884 22.4922 46.4081 22.5162 46.4213C22.5402 46.4346 22.5674 46.4409 22.5948 46.4395Z" fill="#1D293F"/>
<path d="M23.1268 47.3979C23.1268 47.3979 23.1061 47.4109 23.1087 47.4212C23.1294 47.6795 23.1087 47.987 22.8788 48.0877C22.8788 48.0877 22.8788 48.1032 22.8788 48.1006C23.1785 48.036 23.1991 47.6434 23.1268 47.3979Z" fill="#1D293F"/>
<path d="M22.8892 47.1343C22.4656 47.1343 22.4759 47.9739 22.8686 47.9842C23.2612 47.9945 23.2432 47.1446 22.8892 47.1343Z" fill="#1D293F"/>
<path d="M22.7216 47.1831C22.6492 47.2322 22.5769 47.3175 22.489 47.3278C22.4012 47.3381 22.3056 47.2503 22.2307 47.165H22.2152C22.2152 47.3278 22.2798 47.4931 22.4555 47.5164C22.6311 47.5396 22.7138 47.3898 22.7655 47.227C22.7784 47.2064 22.7526 47.1625 22.7216 47.1831Z" fill="#1D293F"/>
<path d="M24.5839 47.333C24.5839 47.333 24.6045 47.3459 24.6045 47.3563C24.6045 47.6146 24.6329 47.922 24.8629 48.0073V48.0228C24.5787 47.984 24.5348 47.581 24.5839 47.333Z" fill="#1D293F"/>
<path d="M24.8164 47.0571C25.2401 47.0235 25.2789 47.8709 24.8862 47.9019C24.4935 47.9329 24.4625 47.0855 24.8164 47.0571Z" fill="#1D293F"/>
<path d="M24.9972 47.1059C25.0644 47.1473 25.1342 47.2248 25.2168 47.2274C25.2995 47.2299 25.3744 47.1344 25.4287 47.0439C25.4416 47.2067 25.3951 47.3772 25.2401 47.416C25.0851 47.4547 24.9817 47.3178 24.943 47.1576C24.9482 47.1344 24.9688 47.0879 24.9972 47.1059Z" fill="#1D293F"/>
<path d="M23.0623 49.4697C23.1088 49.542 23.1527 49.6376 23.2457 49.666C23.3409 49.688 23.4399 49.688 23.5351 49.666C23.5351 49.666 23.5506 49.666 23.5351 49.6815C23.4876 49.7245 23.4294 49.7537 23.3665 49.766C23.3037 49.7783 23.2387 49.7732 23.1786 49.7513C23.1291 49.7263 23.0882 49.6872 23.061 49.6389C23.0339 49.5905 23.0217 49.5352 23.0262 49.48C23.0339 49.4593 23.0546 49.4593 23.0623 49.4697Z" fill="#1D293F"/>
<path d="M24.2353 48.5113C24.2353 48.5113 24.2999 48.904 24.3051 49.0874C24.1323 49.1344 23.9501 49.1337 23.7778 49.0855C23.6054 49.0373 23.4493 48.9433 23.326 48.8136C23.3105 48.7981 23.326 48.7748 23.3544 48.7878C23.5942 48.943 23.8779 49.0164 24.163 48.997C24.163 48.9453 24.0312 48.3305 24.0596 48.3279C24.2041 48.3368 24.3467 48.3655 24.4833 48.4132C24.3748 47.5942 24.1346 46.7986 24.0364 45.9822C24.036 45.9762 24.0377 45.9703 24.0412 45.9654C24.0447 45.9605 24.0498 45.957 24.0556 45.9554C24.0614 45.9539 24.0676 45.9545 24.073 45.957C24.0785 45.9595 24.0829 45.9639 24.0855 45.9693C24.3687 46.8128 24.5669 47.6826 24.6771 48.5656C24.6951 48.6715 24.3102 48.5527 24.2353 48.5113Z" fill="#1D293F"/>
<path d="M24.0519 49.0697C23.9525 49.2009 23.8207 49.3041 23.6695 49.3693C23.5874 49.4022 23.4971 49.4085 23.4112 49.3874C23.2226 49.3383 23.2149 49.1653 23.2485 49.018C23.2677 48.9383 23.2963 48.8611 23.3337 48.7881C23.5364 48.957 23.7884 49.0558 24.0519 49.0697Z" fill="#1D293F"/>
<path d="M23.6695 49.3738C23.5874 49.4066 23.4971 49.413 23.4112 49.3919C23.2226 49.3428 23.2149 49.1697 23.2485 49.0225C23.348 49.025 23.4437 49.0611 23.5201 49.1249C23.5966 49.1886 23.6492 49.2764 23.6695 49.3738Z" fill="#FF9BBC"/>
<path d="M19.4483 43.252C19.7893 43.1539 20.2465 41.33 19.0969 40.3561C17.9473 39.3821 16.3146 40.2682 16.852 41.8338C17.1852 42.8232 18.7352 43.4587 19.4483 43.252Z" fill="#1D293F"/>
<path d="M17.4072 40.1152C17.0244 40.3882 16.7449 40.7823 16.6141 41.2338C16.5502 41.4438 16.5424 41.6667 16.5913 41.8806C16.6403 42.0945 16.7443 42.2919 16.8931 42.4532C17.212 42.7817 17.6136 43.0182 18.0556 43.1378C18.28 43.2042 18.51 43.25 18.7428 43.2747C18.9773 43.3109 19.2165 43.303 19.448 43.2514C19.2254 43.354 18.9828 43.406 18.7376 43.4039C18.4912 43.4124 18.2447 43.3898 18.0039 43.3367C17.5056 43.2429 17.0488 42.9965 16.6968 42.6314C16.5189 42.4359 16.3974 42.1957 16.3454 41.9365C16.3005 41.6761 16.3264 41.4085 16.4203 41.1615C16.5045 40.9289 16.6355 40.716 16.8053 40.536C16.975 40.3561 17.1799 40.2129 17.4072 40.1152Z" fill="#1D293F"/>
<path d="M19.1254 48.0673C19.8436 48.1706 20.058 46.5173 20.058 46.5173C20.058 46.5173 23.1374 46.0471 23.4397 43.5516C23.8094 44.5757 24.5598 45.4177 25.5348 45.9024C25.5348 45.9024 25.4754 43.1589 23.3105 42.5906C23.3105 42.5906 20.629 41.5572 19.0764 43.6782C17.5237 45.7991 18.6423 47.9975 19.1254 48.0673Z" fill="#1D293F"/>
<path d="M23.4524 43.3706C23.4837 43.7571 23.4308 44.1458 23.2974 44.5099C23.17 44.8817 22.9668 45.223 22.7007 45.5122C22.6387 45.5871 22.5586 45.6466 22.4888 45.7163L22.3803 45.8145C22.3442 45.8455 22.3028 45.8713 22.2641 45.8997C22.1814 45.954 22.1039 46.0134 22.0212 46.0651L21.7629 46.1994L21.6337 46.264L21.4968 46.3131L21.2385 46.4138C21.0499 46.4603 20.8613 46.5017 20.6753 46.5352C20.8535 46.4629 21.0344 46.4087 21.2075 46.3337L21.4658 46.2123L21.5924 46.1529C21.6337 46.1322 21.6725 46.1064 21.7138 46.0806C21.7551 46.0547 21.8714 45.9824 21.9541 45.9359C22.0367 45.8894 22.1013 45.8248 22.1762 45.768L22.2873 45.6853L22.3881 45.5897C22.4573 45.5282 22.5229 45.4627 22.5844 45.3934C22.8374 45.1206 23.041 44.8059 23.1863 44.4634C23.3351 44.1157 23.4292 43.7471 23.4653 43.3706H23.4524Z" fill="#1D293F"/>
<path d="M19.5824 47.9296C19.5824 47.9296 18.7402 46.7258 18.1925 47.0255C17.6448 47.3251 18.2803 49.0741 18.9236 49.3117C19.0039 49.3481 19.0908 49.3678 19.1789 49.3697C19.267 49.3716 19.3546 49.3557 19.4364 49.3229C19.5182 49.2901 19.5926 49.241 19.6549 49.1787C19.7173 49.1164 19.7664 49.0422 19.7994 48.9604L19.5824 47.9296Z" fill="#F7A9A0"/>
<path d="M18.3864 47.5195C18.3864 47.5195 18.3864 47.5195 18.3864 47.535C18.5928 47.6385 18.7754 47.7838 18.9226 47.9617C19.0699 48.1396 19.1784 48.3462 19.2414 48.5684C19.2154 48.5231 19.1798 48.484 19.1371 48.4538C19.0944 48.4237 19.0457 48.4032 18.9943 48.3939C18.9429 48.3846 18.89 48.3865 18.8395 48.3997C18.7889 48.4129 18.7418 48.437 18.7015 48.4702C18.7015 48.4702 18.7015 48.496 18.7015 48.4935C18.7806 48.4685 18.8654 48.4684 18.9444 48.4934C19.0235 48.5184 19.0929 48.5671 19.1433 48.633C19.2252 48.7447 19.2961 48.8641 19.3551 48.9895C19.3758 49.0308 19.4481 49.0101 19.4326 48.9636C19.4507 48.3824 18.9934 47.5815 18.3864 47.5195Z" fill="#1D293F"/>
<path d="M18.9935 49.1701C19.0056 49.2123 19.0337 49.2481 19.0718 49.2699C19.11 49.2916 19.1551 49.2975 19.1976 49.2864C19.2401 49.2751 19.2763 49.2473 19.2983 49.2093C19.3204 49.1713 19.3264 49.126 19.3151 49.0836C19.3038 49.0411 19.2761 49.0048 19.2381 48.9828C19.2 48.9608 19.1548 48.9547 19.1123 48.966C19.0696 48.9775 19.0332 49.0054 19.011 49.0436C18.9887 49.0819 18.9824 49.1273 18.9935 49.1701Z" fill="#1D293F"/>
<path d="M19.0813 49.1469C19.0837 49.157 19.0881 49.1664 19.0943 49.1747C19.1005 49.183 19.1083 49.1898 19.1173 49.1949C19.1262 49.2 19.1362 49.2032 19.1464 49.2043C19.1567 49.2054 19.1671 49.2043 19.1769 49.2012C19.1969 49.1957 19.214 49.1827 19.2246 49.1649C19.2352 49.147 19.2385 49.1258 19.2337 49.1056C19.2258 49.0884 19.212 49.0746 19.1949 49.0666C19.1777 49.0586 19.1583 49.0569 19.1401 49.0619C19.1218 49.0668 19.1059 49.0781 19.0951 49.0937C19.0844 49.1092 19.0795 49.1281 19.0813 49.1469Z" fill="#263238"/>
<path d="M18.7067 48.9685C18.7127 48.9913 18.7254 49.0118 18.7431 49.0274C18.7608 49.043 18.7827 49.0529 18.8061 49.056C18.8295 49.0591 18.8533 49.0551 18.8744 49.0446C18.8955 49.0341 18.9131 49.0176 18.9248 48.9971C18.9365 48.9766 18.9418 48.9531 18.9401 48.9296C18.9384 48.9061 18.9298 48.8836 18.9152 48.865C18.9007 48.8464 18.881 48.8326 18.8586 48.8252C18.8362 48.8179 18.8121 48.8174 18.7894 48.8238C18.7594 48.8322 18.7339 48.8522 18.7184 48.8792C18.703 48.9063 18.6987 48.9383 18.7067 48.9685Z" fill="#1D293F"/>
<path d="M97.2705 73.7766C97.5056 75.4269 97.4178 77.107 97.0122 78.7238C96.822 79.4735 96.5679 80.2056 96.2527 80.9119C95.86 81.8187 95.4492 82.7022 95.5474 83.6916C95.643 83.7562 95.3149 83.7459 95.3046 83.6503C92.6566 82.1416 89.2621 81.8652 87.2238 79.4006C86.2602 78.2355 85.7719 76.7553 85.542 75.2673C85.2837 73.6578 85.2217 71.8727 85.6376 70.2865C85.9889 68.9432 86.7717 67.6489 88.035 66.9901C89.2982 66.3314 91.042 66.3701 92.4138 66.7938C95.3795 67.7212 96.852 70.9143 97.2705 73.7766Z" fill="#B3E9D7"/>
<path d="M98.6294 93.3742C98.2677 92.1686 97.9034 90.963 97.5366 89.7574C96.8081 87.4066 96.0537 85.0609 95.2116 82.7436C94.7104 81.3554 94.1817 79.982 93.6254 78.6231C93.6865 77.7648 93.7926 76.9102 93.9431 76.063C94.1627 75.0296 94.4856 74.0454 94.7853 73.0404C94.8034 72.9784 94.7026 72.9474 94.6768 73.0043C94.0826 74.389 93.3076 76.1586 93.2869 77.799C92.6411 76.2593 91.9479 74.7412 91.2073 73.2445C91.1235 71.9787 91.1625 70.7078 91.3236 69.4496C91.3236 69.4385 91.3198 69.4279 91.3127 69.4194C91.3056 69.411 91.2958 69.4054 91.2849 69.4035C91.2741 69.4016 91.2629 69.4037 91.2534 69.4093C91.244 69.4149 91.2368 69.4237 91.2332 69.4341C91.0076 70.5384 90.9209 71.6666 90.9748 72.7924C90.4065 71.6678 89.8037 70.5587 89.1665 69.4651C89.1096 69.3669 88.9727 69.4651 89.0244 69.5658C90.019 71.4801 90.9412 73.4409 91.8067 75.4171C90.5875 74.3606 89.1787 73.5453 87.6552 73.0146C87.5906 72.9913 87.5415 73.0869 87.6087 73.1154C89.27 73.8295 90.7898 74.8357 92.096 76.0862C92.7195 77.5381 93.3128 79.002 93.876 80.478C92.22 78.853 89.9544 77.7861 87.7611 77.2126C87.6862 77.1945 87.6655 77.3082 87.7379 77.3288C90.2747 78.1038 92.2458 79.5324 94.1756 81.2607C94.4004 81.8549 94.62 82.4542 94.837 83.051C95.6533 85.3192 96.4283 87.602 97.162 89.8995C97.5185 90.9983 97.869 92.0997 98.2134 93.2037C98.5829 94.392 98.8722 95.6449 99.3553 96.792C99.3992 96.9005 99.5981 96.8746 99.5723 96.7429C99.376 95.5984 98.9626 94.4824 98.6294 93.3742Z" fill="#1E437D"/>
<path d="M106.196 82.7695C104.287 83.3353 102.373 83.8597 100.466 84.4177C100.301 84.4694 97.0768 78.2925 98.2419 75.1176C99.3191 72.1725 101.784 69.9689 104.721 68.9691C106.082 68.5067 107.756 68.1166 109.195 68.4344C110.474 68.7186 111.378 69.7648 111.794 70.9661C112.36 72.6014 112.171 74.5518 111.861 76.2207C111.577 77.7707 111.009 79.2923 109.986 80.5065C108.963 81.7207 107.682 82.3278 106.196 82.7695Z" fill="#B3E9D7"/>
<path d="M108.96 76.8975C107.754 77.4862 106.503 77.9786 105.22 78.37C104.364 78.6008 103.529 78.9033 102.724 79.2742C103.53 77.4658 104.413 75.7195 105.351 73.9783C106.584 73.6218 107.878 73.0663 108.808 72.1932C108.859 72.1466 108.792 72.0743 108.738 72.1131C107.723 72.8312 106.602 73.2627 105.478 73.7483C105.736 73.2807 105.995 72.8106 106.253 72.3456C106.325 72.2138 106.147 72.0872 106.059 72.2112C105.051 73.6662 104.141 75.1869 103.336 76.7631C103.131 75.3834 103.065 73.9865 103.14 72.5936C103.14 72.586 103.137 72.5788 103.132 72.5735C103.126 72.5682 103.119 72.5652 103.111 72.5652C103.104 72.5652 103.097 72.5682 103.091 72.5735C103.086 72.5788 103.083 72.586 103.083 72.5936C102.845 74.1124 102.861 75.6602 103.13 77.1739C102.463 78.5095 101.853 79.8761 101.306 81.2608C101.089 80.4289 100.805 79.61 100.616 78.773C100.328 77.5721 100.235 76.3324 100.342 75.102C100.342 75.0659 100.293 75.0633 100.288 75.102C99.9501 77.3799 100.227 79.7067 101.089 81.842C100.768 82.6739 100.464 83.5109 100.187 84.3479C98.7506 88.6234 97.899 93.0736 97.6554 97.5774C97.657 97.597 97.6654 97.6154 97.6793 97.6293C97.6933 97.6432 97.7117 97.6517 97.7313 97.6532C97.7509 97.6548 97.7704 97.6493 97.7863 97.6378C97.8022 97.6262 97.8135 97.6094 97.8181 97.5903C98.317 93.1466 99.2692 88.7657 100.66 84.5158C101.213 82.8547 101.851 81.2401 102.548 79.6565C103.675 79.3233 104.796 78.8815 105.907 78.4888C107.018 78.0962 108.092 77.6828 109.007 76.9724C109.017 76.9662 109.024 76.9564 109.026 76.945C109.029 76.9336 109.027 76.9216 109.021 76.9117C109.015 76.9017 109.005 76.8947 108.994 76.892C108.982 76.8893 108.97 76.8913 108.96 76.8975Z" fill="#1E437D"/>
<path d="M83.5141 85.4925C84.0746 87.2672 85.4025 89.7188 87.5054 89.7369C88.8694 89.7369 90.2437 89.5897 91.6103 89.569C93.0725 89.5483 94.5399 89.5509 96.0021 89.6388C96.1235 89.6388 95.829 85.247 92.3104 83.1183C91.3236 82.519 90.1197 82.3278 89.0011 82.085C87.7214 81.7805 86.4075 81.6433 85.0925 81.6768C84.2839 81.7078 83.6122 81.8809 83.3229 82.7102C83.0206 83.5756 83.248 84.6477 83.5141 85.4925Z" fill="#B3E9D7"/>
<path d="M85.0279 83.2705C85.883 83.4927 86.7458 83.7432 87.6112 84.0171C87.3882 83.7734 87.1519 83.5423 86.9034 83.3247C86.534 83.0199 86.1284 82.7745 85.7331 82.5058C85.6995 82.4826 85.7202 82.4206 85.7615 82.4361C86.59 82.7844 87.3054 83.3559 87.8282 84.0868C88.8952 84.433 89.9543 84.8128 90.9748 85.2313C91.679 85.5196 92.3538 85.8752 92.9898 86.293C92.7857 85.8491 92.5419 85.4246 92.2613 85.0246C91.7937 84.4201 91.1634 84.0817 90.5511 83.6528C90.5448 83.6493 90.5393 83.6445 90.5349 83.6388C90.5305 83.6331 90.5272 83.6266 90.5253 83.6196C90.5233 83.6127 90.5228 83.6054 90.5237 83.5983C90.5246 83.5911 90.5269 83.5842 90.5304 83.5779C90.534 83.5716 90.5388 83.5661 90.5445 83.5617C90.5502 83.5572 90.5567 83.554 90.5636 83.5521C90.5706 83.5501 90.5778 83.5496 90.585 83.5505C90.5922 83.5514 90.5991 83.5537 90.6054 83.5572C91.245 83.8344 91.8195 84.2424 92.292 84.755C92.7645 85.2675 93.1245 85.8733 93.3489 86.5333C94.0817 87.0575 94.7517 87.6643 95.3458 88.3416C97.6709 90.987 99.5051 94.503 99.5128 98.0939C99.5128 98.1791 99.3759 98.2024 99.3578 98.1145C98.6991 94.5495 97.2911 91.3461 94.9196 88.5793C94.7474 88.3864 94.5751 88.2004 94.4029 88.0213C93.7657 87.9352 93.1238 87.8877 92.4809 87.8792C91.7317 87.8792 90.9877 87.9877 90.2437 88.0497C89.014 88.1479 87.6603 88.1634 86.5495 87.546C86.5004 87.5175 86.534 87.4323 86.5882 87.453C89.0579 88.352 91.6465 87.2127 94.1239 87.7475C93.0656 86.7396 91.8262 85.941 90.471 85.394L90.2437 85.3036C88.6601 85.4922 86.9861 85.9055 85.4438 85.3914C85.4389 85.3901 85.4343 85.3878 85.4302 85.3846C85.4262 85.3815 85.4228 85.3776 85.4203 85.3732C85.4152 85.3642 85.4139 85.3536 85.4167 85.3436C85.4194 85.3337 85.426 85.3253 85.4349 85.3202C85.4439 85.3151 85.4545 85.3138 85.4645 85.3165C86.9551 85.6911 88.3862 85.2209 89.8562 85.146C88.2545 84.5234 86.6218 84.0274 85.0124 83.4074C84.8858 83.3583 84.8832 83.2343 85.0279 83.2705Z" fill="#1E437D"/>
<path d="M101.962 89.0241C101.936 89.081 102.019 89.1352 102.052 89.0758C102.058 89.0855 102.066 89.0938 102.075 89.1001C102.085 89.1064 102.096 89.1104 102.107 89.112C103.523 89.4499 104.959 89.7001 106.405 89.8612C107.568 89.9645 108.909 90.0291 109.927 89.3445C111.306 88.43 112.215 85.9861 111.477 84.4361C110.593 82.5915 107.935 83.5939 106.599 84.2501C104.543 85.2506 102.902 86.9398 101.962 89.0241Z" fill="#B3E9D7"/>
<path d="M100.928 89.8763C101.704 89.1259 102.566 88.4703 103.496 87.9233C104.164 86.863 105.051 85.9583 106.098 85.2702C106.149 85.234 106.191 85.3141 106.144 85.3502C105.313 86.0167 104.576 86.7928 103.954 87.6572C104.989 87.0909 106.065 86.6013 107.172 86.1924C107.568 85.4592 108.169 84.8569 108.901 84.459C108.916 84.459 108.934 84.459 108.919 84.4848C108.318 84.9448 107.795 85.4977 107.369 86.1227C108.022 85.8798 108.684 85.6525 109.343 85.4329C109.402 85.4122 109.425 85.5027 109.368 85.5259C108.193 85.9858 106.992 86.4688 105.827 87.0269C107.248 87.2499 108.695 87.2455 110.115 87.0139C110.156 87.0139 110.172 87.0656 110.133 87.0759C108.65 87.5138 107.076 87.537 105.581 87.1431C104.84 87.5053 104.12 87.9089 103.424 88.3521C104.009 88.3042 104.598 88.3531 105.168 88.4968C106.173 88.7306 107.202 88.8467 108.234 88.843C108.242 88.8451 108.249 88.8496 108.253 88.8559C108.258 88.8622 108.261 88.8699 108.261 88.8778C108.261 88.8858 108.258 88.8935 108.253 88.8998C108.249 88.9061 108.242 88.9106 108.234 88.9127C106.457 89.2176 104.775 88.409 103.013 88.6208C102.358 89.0651 101.743 89.5666 101.176 90.1192C100.077 91.2191 99.1712 92.4969 98.4975 93.8986C97.7561 95.4073 97.3531 96.9987 96.7537 98.5694C96.7483 98.5822 96.7384 98.5925 96.7259 98.5985C96.7134 98.6045 96.6991 98.6057 96.6858 98.6019C96.6724 98.5981 96.6609 98.5895 96.6534 98.5778C96.646 98.5661 96.6431 98.5521 96.6452 98.5384C97.1567 95.4616 98.6861 92.0696 100.928 89.8763Z" fill="#1E437D"/>
<path d="M104.111 108.086H93.5194L95.4153 94.3945H102.215L104.111 108.086Z" fill="#C8DEFE"/>
<path fill-rule="evenodd" clip-rule="evenodd" d="M93.07 107.808L94.9319 94.4322L94.6504 94.3945L92.7445 108.086H103.595L102.447 99.8494L102.166 99.8871L103.269 107.808H93.07Z" fill="#1E437D"/>
<path d="M102.561 93.3613H93.7778V95.6864H102.561V93.3613Z" fill="#1E437D"/>
</svg>
