<svg width="120" height="120" viewBox="0 0 120 120" fill="none" xmlns="http://www.w3.org/2000/svg">
<path d="M88.0089 23.6781C96.7294 29.415 107.022 32.3874 108.89 38.6125C110.692 44.8351 104.064 54.4357 103.534 64.1467C103.004 73.8577 108.569 83.7418 107 91.278C105.498 98.8167 96.8608 104.007 87.9187 106.926C78.9792 109.782 69.671 110.301 60.753 109.391C51.9012 108.483 43.4421 106.084 35.3095 102.191C27.2406 98.3628 19.4981 93.0405 15.4805 85.8532C11.4628 78.666 11.1674 69.6764 13.3502 61.7245C15.5967 53.8379 20.3189 47.0516 24.043 38.7198C27.7697 30.3254 30.5008 20.3228 37.1385 13.7362C43.7763 7.1496 54.3207 3.97891 63.1669 6.64421C72.0794 9.31207 79.2248 17.876 88.0089 23.6781Z" fill="#C8DEFE" fill-opacity="0.2"/>
<path d="M5.68213 109.854L18.1381 109.779L32.9911 109.752L62.7001 109.704L92.4091 109.752L107.262 109.779L115.818 109.854L107.262 109.926L92.4091 109.953L62.7001 110.001L32.9911 109.953L18.1381 109.926L5.68213 109.854Z" fill="#1D293F"/>
<path d="M71.1194 106.706C71.75 106.823 88.9633 104.341 89.5592 103.83C89.788 103.638 89.5725 101.108 89.224 98.0592C89.224 98.0273 89.224 97.9953 89.224 97.9634C89.1522 97.3355 86.952 86.9277 86.952 86.9277L75.4321 88.5533L78.0926 99.4426L78.1218 99.6289C78.1218 99.6289 71.9575 103.526 71.3642 104.152C70.7709 104.777 70.4889 106.594 71.1194 106.706Z" fill="#F7A9A0"/>
<path d="M71.1166 106.706C71.4412 106.764 76.1236 106.139 80.6943 105.447C81.6122 105.309 82.5248 105.181 83.3947 105.03C86.6485 104.513 89.3303 104.024 89.5591 103.827C89.7879 103.63 89.5803 101.18 89.2398 98.1869C89.2398 98.1443 89.2398 98.1017 89.2398 98.0592C89.2371 98.0273 89.2371 97.9952 89.2398 97.9634H89.2265L78.1163 99.4399L78.1456 99.6288C78.1456 99.6288 71.9786 103.526 71.3853 104.152C70.792 104.777 70.4861 106.594 71.1166 106.706Z" fill="#FFC727"/>
<path d="M71.2178 106.011C74.1098 105.522 85.8185 103.822 88.7131 103.556C88.7371 103.556 88.7397 103.572 88.7131 103.574C85.8584 104.122 74.1364 105.729 71.2205 106.059C71.1619 106.067 71.1566 106.022 71.2178 106.011Z" fill="#1D293F"/>
<path d="M76.858 99.6555C77.9674 99.2777 79.3907 99.2511 80.3804 99.9375C80.4177 99.9641 80.3804 100.02 80.3405 100.012C79.1986 99.8174 78.0391 99.746 76.8819 99.7992C76.8649 99.7984 76.8487 99.7918 76.8359 99.7804C76.8232 99.7691 76.8147 99.7538 76.8119 99.737C76.8091 99.7202 76.8122 99.7029 76.8205 99.6881C76.8289 99.6733 76.8421 99.6618 76.858 99.6555Z" fill="#1D293F"/>
<path d="M76.1049 100.27C77.2143 99.8922 78.6377 99.8656 79.6274 100.555C79.6646 100.581 79.6274 100.635 79.5875 100.629C78.4457 100.434 77.2861 100.361 76.1289 100.414C76.1118 100.413 76.0956 100.406 76.0829 100.395C76.0701 100.384 76.0617 100.368 76.0589 100.352C76.0561 100.335 76.0591 100.317 76.0675 100.303C76.0759 100.288 76.0891 100.276 76.1049 100.27Z" fill="#1D293F"/>
<path d="M75.3522 100.885C76.4616 100.507 77.885 100.483 78.8747 101.17C78.912 101.196 78.8747 101.249 78.8348 101.244C77.6928 101.05 76.5334 100.978 75.3762 101.029C75.3592 101.028 75.3429 101.021 75.3302 101.01C75.3175 100.999 75.309 100.983 75.3062 100.966C75.3034 100.95 75.3064 100.932 75.3148 100.917C75.3232 100.903 75.3364 100.891 75.3522 100.885Z" fill="#1D293F"/>
<path d="M76.4295 97.517L89.3754 95.7318C89.3754 95.7318 86.1509 73.6498 86.2494 73.1363C86.3744 72.4818 93.9648 41.5059 93.9648 41.5059H83.3494C83.3494 41.5059 74.6177 70.2391 74.2825 73.0113C73.7318 77.4915 76.4295 97.517 76.4295 97.517Z" fill="#A788CE"/>
<path d="M77.039 94.877C79.2525 94.4247 87.3058 93.4536 88.1917 93.4882C88.1958 93.4897 88.1993 93.4924 88.2018 93.496C88.2043 93.4996 88.2056 93.5038 88.2056 93.5082C88.2056 93.5125 88.2043 93.5167 88.2018 93.5203C88.1993 93.5239 88.1958 93.5266 88.1917 93.5281C87.343 93.7809 80.4098 94.712 77.039 94.9328C77.033 94.931 77.0278 94.9273 77.0241 94.9222C77.0204 94.9172 77.0184 94.9111 77.0184 94.9049C77.0184 94.8987 77.0204 94.8926 77.0241 94.8876C77.0278 94.8825 77.033 94.8788 77.039 94.877Z" fill="#1D293F"/>
<path d="M91.5463 43.8839C91.2803 44.6448 91.0674 45.4164 90.8333 46.1826C90.5992 46.9488 90.3917 47.723 90.1629 48.4919C89.7106 50.0137 89.2796 51.5435 88.8459 53.0706C87.9706 56.1541 87.1379 59.2509 86.3211 62.3503C85.9167 63.8863 85.5168 65.4232 85.1212 66.961C84.7275 68.5014 84.3098 70.0418 83.9559 71.5928C83.7742 72.3205 83.6963 73.0702 83.7245 73.8197C83.7879 74.5874 83.8927 75.3512 84.0384 76.1077C84.2938 77.6898 84.5501 79.2719 84.8073 80.854C85.3234 84.0466 85.8555 87.2391 86.4036 90.4317C86.4701 90.8228 86.5499 91.2112 86.6244 91.5997C86.6244 91.6209 86.667 91.6156 86.6643 91.5997C86.2386 88.4257 85.7065 85.2651 85.2037 82.1044C84.9572 80.5418 84.7062 78.981 84.4508 77.422C84.3178 76.6052 84.1848 75.7911 84.0544 74.9717C83.9158 74.1974 83.8871 73.4074 83.9693 72.6251C84.0932 71.8596 84.2611 71.1019 84.4721 70.3557C84.6636 69.5948 84.8552 68.8313 85.0494 68.0704C85.4396 66.5326 85.8369 64.9958 86.2413 63.4598C87.0501 60.3736 87.8766 57.2919 88.7209 54.2146C89.5651 51.1373 90.4165 48.0795 91.2749 45.0413C91.3814 44.6608 91.4851 44.283 91.5809 43.9026C91.5862 43.8706 91.5516 43.8627 91.5463 43.8839Z" fill="#1D293F"/>
<path d="M82.227 109.59C82.8389 109.784 100.228 109.464 100.882 109.031C101.132 108.871 101.233 106.333 101.268 103.266V103.17C101.268 102.537 100.922 91.9346 100.922 91.9346L89.5539 92.1102L90.0488 103.247V103.438C90.0488 103.438 83.4481 106.538 82.7777 107.089C82.1072 107.639 81.615 109.398 82.227 109.59Z" fill="#F7A9A0"/>
<path d="M82.227 109.59C82.8389 109.784 100.228 109.465 100.882 109.031C101.132 108.871 101.233 106.333 101.268 103.266V103.17L90.0488 103.25V103.441C90.0488 103.441 83.4481 106.541 82.7777 107.091C82.1072 107.642 81.615 109.398 82.227 109.59Z" fill="#FFC727"/>
<path d="M82.4129 108.912C85.3394 108.786 97.1733 108.555 100.081 108.645C100.102 108.645 100.105 108.661 100.081 108.664C97.1786 108.853 85.3474 108.989 82.4156 108.951C82.3491 108.959 82.3491 108.914 82.4129 108.912Z" fill="#1D293F"/>
<path d="M88.7982 103.306C89.9475 103.069 91.3629 103.221 92.2568 104.027C92.2914 104.056 92.2568 104.107 92.2089 104.096C91.1003 103.759 89.9585 103.543 88.8035 103.452C88.7863 103.45 88.7706 103.441 88.759 103.428C88.7475 103.415 88.7408 103.399 88.7402 103.381C88.7395 103.364 88.745 103.347 88.7556 103.333C88.7662 103.319 88.7813 103.31 88.7982 103.306Z" fill="#1D293F"/>
<path d="M87.9759 103.821C89.1252 103.585 90.538 103.736 91.4345 104.542C91.4718 104.574 91.4345 104.622 91.3893 104.612C90.2803 104.277 89.1387 104.061 87.9839 103.968C87.9666 103.966 87.9506 103.957 87.9388 103.945C87.9269 103.932 87.9199 103.915 87.9189 103.898C87.918 103.881 87.9232 103.863 87.9336 103.849C87.944 103.835 87.959 103.826 87.9759 103.821Z" fill="#1D293F"/>
<path d="M87.1514 104.34C88.3007 104.104 89.7161 104.253 90.61 105.059C90.6446 105.091 90.61 105.139 90.5621 105.128C89.4532 104.792 88.3116 104.577 87.1567 104.484C87.1376 104.485 87.1191 104.478 87.1051 104.465C87.0912 104.452 87.0829 104.434 87.0822 104.415C87.0815 104.396 87.0884 104.377 87.1014 104.363C87.1143 104.349 87.1323 104.341 87.1514 104.34Z" fill="#1D293F"/>
<path d="M83.6847 41.5059C83.6847 41.5059 83.9295 46.5847 85.0921 50.6074C85.1852 50.9399 85.2863 51.2672 85.3954 51.5811C85.3954 51.5811 85.8556 51.5811 87.7047 52.7091L89.2424 101.364L101.768 101.231C101.768 101.231 99.77 75.4456 99.7859 73.7935C99.8099 71.133 98.3519 53.1588 98.5036 52.7038C100.06 48.0613 97.4846 41.5059 97.4846 41.5059H83.6847Z" fill="#A788CE"/>
<path d="M89.6735 99.0462C93.2013 98.8333 100.036 98.7801 100.914 98.9158C100.919 98.9158 100.924 98.9178 100.927 98.9213C100.931 98.9248 100.933 98.9295 100.933 98.9344C100.933 98.9394 100.931 98.9441 100.927 98.9476C100.924 98.9511 100.919 98.9531 100.914 98.9531C100.041 99.11 91.738 99.2697 89.6762 99.1021C89.6701 99.1005 89.6647 99.097 89.6607 99.0922C89.6568 99.0873 89.6545 99.0814 89.6542 99.0751C89.6539 99.0689 89.6556 99.0627 89.6591 99.0575C89.6626 99.0523 89.6676 99.0483 89.6735 99.0462Z" fill="#1D293F"/>
<path d="M88.894 78.7066C88.7415 73.1302 88.5517 67.5547 88.3247 61.9801C88.197 58.8328 88.0586 55.6881 87.8803 52.5461C87.8803 52.5235 87.8714 52.5018 87.8554 52.4859C87.8394 52.4699 87.8178 52.4609 87.7952 52.4609C87.7726 52.4609 87.751 52.4699 87.735 52.4859C87.7191 52.5018 87.7101 52.5235 87.7101 52.5461C87.8458 58.1544 88.0666 63.7573 88.2422 69.363C88.4178 74.9686 88.62 80.5157 88.8115 86.0921C88.9179 89.2368 89.0137 92.3841 89.1441 95.5288C89.1441 95.538 89.1477 95.5468 89.1542 95.5532C89.1607 95.5597 89.1695 95.5634 89.1787 95.5634C89.1878 95.5634 89.1966 95.5597 89.2031 95.5532C89.2096 95.5468 89.2133 95.538 89.2133 95.5288C89.1893 89.9205 89.0456 84.3122 88.894 78.7066Z" fill="#1D293F"/>
<path d="M98.6846 86.4863C98.4185 82.8282 98.1525 79.1727 97.8731 75.5172C97.5938 71.8617 97.3277 68.2009 97.0564 64.5454C96.9207 62.7149 96.7903 60.8872 96.6467 59.0594L96.4312 56.3165C96.3267 55.4148 96.2725 54.5079 96.2689 53.6001C96.3034 52.6078 96.7211 51.7378 96.9526 50.78C97.1621 49.8777 97.2569 48.9525 97.2346 48.0264C97.2107 46.1162 96.7823 44.2352 96.3859 42.3756C96.3646 42.2745 96.205 42.3197 96.229 42.4235C96.6779 44.1322 96.9612 45.8802 97.075 47.6433C97.1164 48.5201 97.0548 49.3988 96.8914 50.2612C96.7291 51.0886 96.3833 51.8575 96.1891 52.6743C95.9948 53.4911 96.0986 54.3903 96.1651 55.2443C96.2369 56.1595 96.2981 57.0747 96.362 57.9873C96.4897 59.7804 96.628 61.5709 96.7611 63.3641C97.2931 70.6405 97.8252 77.9196 98.4026 85.196C98.7218 89.2905 98.9932 93.3929 99.3896 97.4821C99.3896 97.5114 99.4402 97.5114 99.4375 97.4821C99.2486 93.8106 98.9453 90.1525 98.6846 86.4863Z" fill="#1D293F"/>
<path d="M96.1196 47.0313C95.9068 46.9488 95.6726 46.9276 95.4545 46.8637C95.2252 46.7995 95.0003 46.7204 94.7814 46.6269C94.365 46.4453 93.9742 46.2101 93.6187 45.9272C93.281 45.6297 93.0223 45.2531 92.8658 44.8311C92.77 44.6049 92.6823 44.3761 92.5998 44.15L92.4614 43.8148C92.4428 43.7696 92.3231 43.5328 92.3018 43.4583C92.3062 43.4622 92.3119 43.4644 92.3178 43.4644C92.3237 43.4644 92.3293 43.4622 92.3337 43.4583V43.445C92.3368 43.4412 92.3384 43.4365 92.3384 43.4317C92.3384 43.4268 92.3368 43.4221 92.3337 43.4184C92.3204 43.3918 92.3178 43.3891 92.2885 43.3811C92.2822 43.3803 92.2758 43.3814 92.2701 43.3842C92.2644 43.3871 92.2597 43.3916 92.2566 43.3971C92.214 43.4716 92.2566 43.5434 92.2752 43.6232C92.3151 43.7722 92.3524 43.9212 92.3896 44.0702C92.4588 44.3362 92.5279 44.589 92.6078 44.8471C92.7346 45.3314 92.9967 45.7697 93.3633 46.1108C93.7445 46.4316 94.1808 46.6804 94.651 46.8451C94.8929 46.9347 95.1422 47.0033 95.3959 47.0499C95.6292 47.1064 95.8706 47.1208 96.109 47.0925C96.1622 47.0952 96.1489 47.0419 96.1196 47.0313Z" fill="#263238"/>
<path d="M86.0474 49.8301C86.0181 49.3912 85.9835 48.9548 85.9463 48.5159C85.8585 47.5182 85.7547 46.5178 85.5791 45.5308C85.5791 45.4536 85.4568 45.4829 85.4647 45.5574C85.5312 46.3316 85.619 47.1058 85.6909 47.88C85.7627 48.6542 85.8585 49.4257 85.8718 50.1973C85.8718 50.4287 85.8585 50.8225 85.5738 50.8863C85.1907 50.9741 85.0098 50.4713 84.9167 50.1946C84.6975 49.5062 84.5373 48.8004 84.4378 48.0849C84.3101 47.2708 84.2436 46.446 84.1717 45.6292C84.1717 45.5973 84.1185 45.6026 84.1185 45.6292C84.1185 47.2548 84.1372 48.9548 84.7437 50.4899C84.7874 50.6477 84.8731 50.7907 84.9916 50.9036C85.1102 51.0165 85.2571 51.0952 85.4168 51.1311H85.4328C85.43 51.1398 85.43 51.1491 85.4328 51.1577C85.4328 51.2029 85.4514 51.2482 85.4594 51.2934C85.4674 51.3386 85.4727 51.3706 85.4807 51.4078C85.4967 51.4876 85.51 51.5674 85.5286 51.6446C85.5295 51.6523 85.5318 51.6597 85.5356 51.6665C85.5393 51.6732 85.5444 51.6792 85.5504 51.684C85.5565 51.6888 85.5634 51.6924 85.5709 51.6946C85.5783 51.6967 85.5861 51.6973 85.5938 51.6965C85.6014 51.6956 85.6089 51.6932 85.6157 51.6895C85.6224 51.6857 85.6284 51.6807 85.6332 51.6746C85.638 51.6686 85.6416 51.6616 85.6437 51.6542C85.6459 51.6468 85.6465 51.639 85.6456 51.6313C85.6557 51.6279 85.6645 51.6215 85.6707 51.6129C85.6769 51.6043 85.6802 51.594 85.6802 51.5834C85.674 51.4246 85.6379 51.2685 85.5738 51.1231C85.6682 51.1049 85.7564 51.0628 85.83 51.0009C85.9036 50.9389 85.9601 50.8592 85.9942 50.7693C86.0855 50.4648 86.1037 50.143 86.0474 49.8301Z" fill="#1D293F"/>
<path d="M84.874 51.2772C86.1193 51.7984 87.3174 52.426 88.455 53.1528C88.5003 53.1821 88.455 53.2513 88.4178 53.2273C87.2099 52.6394 85.9755 52.0753 84.8022 51.4235C84.7861 51.4122 84.7745 51.3956 84.7696 51.3765C84.7647 51.3574 84.7667 51.3372 84.7754 51.3196C84.7841 51.3019 84.7988 51.2879 84.8169 51.2801C84.835 51.2724 84.8552 51.2713 84.874 51.2772Z" fill="#1D293F"/>
<path d="M84.7383 34.9317C85.4092 35.4624 86.1385 35.9149 86.9119 36.2805C85.7333 34.2905 85.9115 29.7969 86.0552 30.4275C86.7443 33.4923 88.6705 36.8472 89.4048 37.0148H89.4181C91.2418 37.2255 93.0846 36.836 94.6672 35.9054C93.148 33.6546 93.2092 29.0839 93.3103 29.3633C94.4277 32.343 96.7344 34.0856 97.1334 34.0803C98.6127 32.6649 99.3949 31.2522 99.1847 31.1086C97.6496 30.0656 96.3433 27.3839 95.1647 24.5345C93.9994 21.733 93.4088 19.0672 91.7699 16.5664C90.2694 14.2757 87.2737 13.842 85.5763 15.0126C81.1227 18.0855 83.7885 34.1867 84.7383 34.9317Z" fill="#1D293F"/>
<path d="M89.3674 15.1373C90.6019 15.4273 91.6155 16.558 92.262 17.6036C93.1214 18.9923 93.688 20.5674 94.3904 22.0359C95.7602 24.9346 97.5743 27.6015 99.7672 29.9402C99.7745 29.9507 99.778 29.9634 99.777 29.9761C99.7761 29.9888 99.7708 30.0008 99.7621 30.0101C99.7534 30.0195 99.7418 30.0255 99.7292 30.0273C99.7166 30.0291 99.7037 30.0266 99.6928 30.02C97.2983 28.2162 95.6568 25.6276 94.3133 22.9644C93.6242 21.6049 93.0841 20.1816 92.435 18.8035C92.0945 18.0423 91.6523 17.3308 91.1207 16.6884C90.6029 16.1255 89.9767 15.673 89.2796 15.3581C89.2503 15.3465 89.2269 15.3237 89.2144 15.2948C89.2019 15.2658 89.2015 15.2331 89.2131 15.2038C89.2248 15.1745 89.2476 15.1511 89.2765 15.1386C89.3054 15.1261 89.3381 15.1257 89.3674 15.1373Z" fill="#1D293F"/>
<path d="M73.5111 19.442L75.98 27.1254C76.0758 27.3516 75.98 27.5431 75.7485 27.5591L71.7179 27.8251C71.5944 27.8231 71.4741 27.7864 71.3705 27.7191C71.267 27.6518 71.1846 27.5567 71.1326 27.4447L68.6663 19.7586C68.5679 19.5351 68.6663 19.3409 68.8951 19.3276L72.9258 19.0615C73.0493 19.0629 73.17 19.0994 73.2736 19.1668C73.3773 19.2341 73.4596 19.3296 73.5111 19.442Z" fill="#1D293F"/>
<path d="M73.0321 19.4691L75.4957 27.1579C75.5226 27.2001 75.5379 27.2487 75.5398 27.2987C75.5418 27.3487 75.5304 27.3983 75.5068 27.4424C75.4832 27.4866 75.4484 27.5237 75.4057 27.5499C75.3631 27.5761 75.3143 27.5905 75.2643 27.5916L71.2336 27.8576C71.1103 27.8565 70.9899 27.8204 70.8863 27.7535C70.7827 27.6866 70.7002 27.5917 70.6483 27.4799L68.1821 19.7937C68.0836 19.5702 68.1821 19.376 68.4109 19.3627L72.4415 19.0967C72.5651 19.0964 72.6863 19.1312 72.7909 19.1972C72.8955 19.2631 72.9791 19.3574 73.0321 19.4691Z" fill="#1D293F"/>
<path d="M71.9519 19.8946C71.9575 19.9624 71.983 20.027 72.0253 20.0802C72.0676 20.1334 72.1248 20.1729 72.1896 20.1936C72.2544 20.2143 72.3238 20.2152 72.3892 20.1964C72.4545 20.1775 72.5128 20.1397 72.5566 20.0877C72.6003 20.0356 72.6277 19.9718 72.6351 19.9042C72.6426 19.8366 72.6298 19.7683 72.5983 19.708C72.5669 19.6477 72.5183 19.5981 72.4586 19.5655C72.3989 19.5329 72.3309 19.5187 72.2632 19.5248C72.2183 19.5282 72.1745 19.5404 72.1344 19.5609C72.0943 19.5814 72.0587 19.6097 72.0297 19.6442C72.0007 19.6786 71.9789 19.7185 71.9655 19.7616C71.9522 19.8046 71.9475 19.8498 71.9519 19.8946Z" fill="#E2E4E8"/>
<path d="M87.2606 30.4375C85.3344 35.4578 80.6732 42.1436 78.5582 42.3165C77.5525 42.4043 75.77 42.7741 74.3652 41.7126C71.295 39.398 68.5335 34.7421 67.8391 32.0125C67.5943 31.0414 72.2235 28.5539 72.9898 29.3121C74.7803 31.0654 76.9805 34.6065 77.2625 34.5639C78.34 34.4016 82.3174 30.5732 85.1003 27.8648C88.4711 24.5871 88.0268 28.4368 87.2606 30.4375Z" fill="#F7A9A0"/>
<path d="M67.3522 26.937C67.7113 24.9044 68.1184 24.4362 67.5118 22.5579C67.1127 21.3261 67.73 20.5412 68.6904 21.4937C70.2654 23.0341 70.3505 25.7504 70.1084 26.7082L67.3522 26.937Z" fill="#F7A9A0"/>
<path d="M68.1368 32.8513C68.1368 32.8513 67.0407 30.135 67.211 27.9294C67.3307 26.4023 67.9559 23.114 72.0557 21.1026C73.0294 20.6264 74.7534 20.6371 73.4471 21.9912C72.5186 22.9543 71.6407 23.2842 71.2043 23.944C71.2043 23.944 73.3939 24.2101 73.8329 25.2104C74.218 26.0785 74.5407 26.9729 74.7987 27.8869C74.642 27.9712 74.4803 28.0459 74.3144 28.1104C74.3144 28.1104 74.6364 29.0788 74.0218 30.5048L68.1368 32.8513Z" fill="#F7A9A0"/>
<path d="M67.557 26.4899C68.129 25.9286 69.3608 24.758 70.7044 24.1514C72.1942 23.4783 75.2458 22.5843 75.73 23.6884C76.0865 24.4866 74.9531 24.9415 74.9531 24.9415C74.9531 24.9415 76.2834 24.8378 76.4537 25.6412C76.6 26.3729 75.7007 26.6629 75.7007 26.6629C75.7007 26.6629 76.5255 26.74 76.5308 27.461C76.5308 28.339 74.8121 28.0357 74.0486 28.9349C73.8783 29.1451 67.557 26.4899 67.557 26.4899Z" fill="#F7A9A0"/>
<path d="M71.151 25.8463C72.2852 25.1617 73.6014 24.8396 74.9236 24.9231C74.9581 24.9231 74.9741 24.9524 74.9422 24.9577C73.6492 25.1037 72.3788 25.4066 71.159 25.8596L71.151 25.8463Z" fill="#1D293F"/>
<path d="M71.8748 27.3303C72.4548 27.0057 74.2107 26.4284 75.6952 26.6333C75.7298 26.6333 75.7431 26.6652 75.7112 26.6679C74.4128 26.7485 73.1277 26.9752 71.8801 27.3436C71.8801 27.3436 71.8695 27.333 71.8748 27.3303Z" fill="#1D293F"/>
<path d="M74.6045 30.9888L69.0494 37.4298C69.0494 37.4298 73.8064 42.083 75.3548 42.4501C76.6138 42.7467 77.9301 42.6906 79.1593 42.2878C80.2421 41.9766 85.5657 35.8069 87.3163 30.7627C89.0669 25.7184 87.1886 25.4763 84.2009 28.5305C81.2132 31.5847 77.5151 34.5911 77.3368 34.3836C77.1586 34.176 74.6045 30.9888 74.6045 30.9888Z" fill="#FFC727"/>
<path d="M74.6045 30.9888L69.0494 37.4298C69.0494 37.4298 73.8064 42.083 75.3548 42.4501C76.6138 42.7467 77.9301 42.6906 79.1593 42.2878C80.2421 41.9766 85.5657 35.8069 87.3163 30.7627C89.0669 25.7184 87.1886 25.4763 84.2009 28.5305C81.2132 31.5847 77.5151 34.5911 77.3368 34.3836C77.1586 34.176 74.6045 30.9888 74.6045 30.9888Z" fill="#FFE6B3"/>
<path d="M75.6128 32.7446C75.3867 32.9495 73.5323 35.0459 73.1199 35.5168C72.7076 35.9878 71.1326 37.9113 70.7255 38.3928C70.7095 38.4141 70.7255 38.4434 70.7574 38.4221C70.9729 38.188 71.207 37.9698 71.4225 37.7357C71.638 37.5016 72.8752 36.0968 73.2849 35.6286C73.6946 35.1603 75.4824 33.0293 75.6527 32.7712C75.666 32.7446 75.6314 32.7446 75.6128 32.7446Z" fill="#1D293F"/>
<path d="M82.1895 39.2891L81.1599 48.2257C81.1599 48.2257 95.6675 48.0075 99.2511 47.6457C99.2511 47.6457 95.8164 31.0975 91.8204 27.011C89.8224 24.9677 87.5636 25.1912 86.1483 26.705C85.7918 27.0881 81.5909 32.9997 81.1971 35.2186C80.8646 37.182 82.1895 39.2891 82.1895 39.2891Z" fill="#FFE6B3"/>
<path d="M81.615 37.8367C81.4496 37.3303 81.3599 36.8022 81.349 36.2696C81.3849 35.1837 81.6572 34.1187 82.1471 33.1489C82.4132 32.5929 82.7324 32.0661 82.9905 31.5101C82.9905 31.4941 82.9745 31.4834 82.9666 31.4967C82.7152 31.8687 82.486 32.2551 82.2802 32.6541C82.2834 32.6404 82.2878 32.627 82.2935 32.6141C82.36 32.3986 82.4265 32.1885 82.5036 31.9783C82.5036 31.957 82.4744 31.941 82.4637 31.9623C82.3786 32.1672 82.2961 32.372 82.2216 32.5822C82.1749 32.7147 82.1358 32.8497 82.1046 32.9866C81.847 33.4757 81.629 33.9846 81.4528 34.5084C81.0898 35.5453 81.0656 36.6707 81.3836 37.7223C81.4732 37.9963 81.5835 38.2631 81.7135 38.5204C81.8545 38.8077 82.0327 39.0738 82.1844 39.3531C82.1844 39.3771 82.2323 39.3531 82.219 39.3319C81.9683 38.8549 81.766 38.354 81.615 37.8367Z" fill="#1D293F"/>
<path d="M89.4633 26.7609C89.3435 27.0269 87.6621 28.5939 86.3931 28.2933C85.9807 28.1922 86.4197 25.8989 86.4197 25.8989V25.7233L86.3399 23.265L89.4473 22.0092L89.8916 21.8496C89.8916 21.8496 89.8703 22.5254 89.8357 23.3634C89.8357 23.4033 89.8357 23.4432 89.8357 23.4831C89.8357 23.5231 89.8357 23.5763 89.8357 23.6215C89.8357 23.7465 89.8357 23.8742 89.8357 24.0019C89.8357 24.1296 89.8357 24.1935 89.8171 24.2946C89.7985 24.3957 89.8011 24.4968 89.7958 24.5979C89.7339 25.3256 89.6228 26.0482 89.4633 26.7609Z" fill="#F7A9A0"/>
<path d="M89.8304 23.3771C89.465 23.9959 88.9692 24.5275 88.3774 24.9351C87.7856 25.3427 87.112 25.6163 86.4037 25.7369L86.3239 23.2787L89.4313 22.0229L89.8756 21.8633C89.8756 21.8633 89.8623 22.539 89.8304 23.3771Z" fill="#1D293F"/>
<path d="M83.4293 19.4928C82.8387 23.7735 85.3342 24.6089 86.2574 24.7366C87.0955 24.851 89.9635 25.1356 90.9931 20.9401C92.0227 16.7445 90.2189 15.1163 88.3193 14.7544C86.4197 14.3926 84.0093 15.2147 83.4293 19.4928Z" fill="#F7A9A0"/>
<path d="M84.5867 18.6068C84.6864 18.6051 84.7858 18.5979 84.8847 18.5855C84.991 18.5933 85.0969 18.5652 85.1853 18.5057C85.2096 18.4818 85.2252 18.4505 85.2296 18.4167C85.2339 18.3829 85.2268 18.3486 85.2093 18.3194C85.1669 18.2667 85.1114 18.2262 85.0483 18.2019C84.9852 18.1776 84.9168 18.1704 84.8501 18.1811C84.7112 18.1815 84.5775 18.2337 84.475 18.3274C84.4529 18.3503 84.4379 18.379 84.4318 18.4102C84.4257 18.4414 84.4287 18.4737 84.4405 18.5032C84.4523 18.5327 84.4724 18.5582 84.4983 18.5766C84.5243 18.5949 84.555 18.6054 84.5867 18.6068Z" fill="#1D293F"/>
<path d="M87.404 19.0275C87.3056 19.0009 87.2178 18.961 87.122 18.9264C87.0187 18.9043 86.9253 18.8492 86.856 18.7694C86.8393 18.7398 86.8328 18.7054 86.8376 18.6718C86.8424 18.6381 86.8582 18.6069 86.8826 18.5832C86.9374 18.5435 87.0017 18.5191 87.0691 18.5125C87.1364 18.506 87.2043 18.5175 87.2657 18.5459C87.4 18.584 87.515 18.6714 87.5876 18.7907C87.6021 18.8187 87.6084 18.8502 87.6055 18.8816C87.6027 18.913 87.5909 18.9429 87.5716 18.9678C87.5523 18.9928 87.5263 19.0116 87.4966 19.0222C87.4669 19.0328 87.4347 19.0346 87.404 19.0275Z" fill="#1D293F"/>
<path d="M86.6831 20.0273C86.6831 20.0273 86.7044 20.0433 86.7017 20.0566C86.6458 20.3439 86.6299 20.6845 86.8773 20.8255C86.8773 20.8255 86.8773 20.8441 86.8773 20.8415C86.558 20.743 86.5846 20.2907 86.6831 20.0273Z" fill="#1D293F"/>
<path d="M86.9917 19.7666C87.4653 19.8065 87.3509 20.7483 86.9119 20.711C86.4729 20.6738 86.5953 19.732 86.9917 19.7666Z" fill="#1D293F"/>
<path d="M87.1725 19.8389C87.247 19.9027 87.3162 20.0065 87.4146 20.0278C87.5131 20.0491 87.6275 19.9666 87.7126 19.8814H87.7286C87.7099 20.0624 87.6168 20.2406 87.4199 20.2433C87.2231 20.2459 87.1326 20.0703 87.1087 19.8841C87.106 19.8602 87.1406 19.8123 87.1725 19.8389Z" fill="#1D293F"/>
<path d="M85.0044 19.751C85.0044 19.751 84.9804 19.751 84.9778 19.7749C84.9538 20.0676 84.8767 20.4001 84.6 20.4666V20.4826C84.9299 20.4746 85.0283 20.033 85.0044 19.751Z" fill="#1D293F"/>
<path d="M84.7784 19.4153C84.3128 19.3249 84.1665 20.264 84.5975 20.3465C85.0285 20.429 85.1695 19.4898 84.7784 19.4153Z" fill="#1D293F"/>
<path d="M84.5734 19.442C84.4909 19.4792 84.4031 19.559 84.3073 19.5511C84.2116 19.5431 84.1424 19.4287 84.0918 19.3223C84.0918 19.3223 84.0918 19.3223 84.0759 19.3223C84.044 19.5005 84.0759 19.6947 84.2408 19.7559C84.4058 19.8171 84.5308 19.6761 84.6027 19.5058C84.6239 19.4872 84.6053 19.442 84.5734 19.442Z" fill="#1D293F"/>
<path d="M86.3001 22.3686C86.2229 22.4325 86.1458 22.5203 86.034 22.5229C85.9255 22.5116 85.8205 22.4781 85.7254 22.4245C85.7254 22.4245 85.7042 22.4245 85.7095 22.4245C85.7476 22.4852 85.8012 22.5347 85.8648 22.5679C85.9284 22.6011 85.9997 22.6168 86.0713 22.6134C86.1319 22.6016 86.1878 22.5724 86.2322 22.5294C86.2766 22.4864 86.3076 22.4315 86.3214 22.3713C86.3188 22.3683 86.3152 22.3663 86.3112 22.3658C86.3073 22.3654 86.3033 22.3663 86.3001 22.3686Z" fill="#1D293F"/>
<path d="M85.2226 21.1369C85.2226 21.1369 85.1029 21.5652 85.0763 21.7701C85.0763 21.7887 85.1215 21.8047 85.1907 21.818C85.3628 21.8734 85.5467 21.8806 85.7226 21.8388C85.8985 21.7971 86.0596 21.708 86.1884 21.5812C86.1907 21.5794 86.1926 21.5772 86.194 21.5748C86.1954 21.5723 86.1963 21.5695 86.1967 21.5667C86.1971 21.5639 86.1969 21.561 86.1961 21.5582C86.1954 21.5554 86.1941 21.5528 86.1924 21.5506C86.1906 21.5483 86.1884 21.5464 86.186 21.545C86.1835 21.5435 86.1807 21.5426 86.1779 21.5422C86.1751 21.5419 86.1722 21.5421 86.1694 21.5428C86.1666 21.5436 86.1641 21.5448 86.1618 21.5466C85.8762 21.6914 85.5511 21.739 85.2359 21.6823C85.2359 21.6237 85.4647 20.9586 85.4328 20.9506C85.2711 20.9434 85.1092 20.9578 84.9513 20.9932C85.1721 20.0966 85.5366 19.2426 85.7494 18.3327C85.7506 18.3261 85.7494 18.3193 85.7462 18.3134C85.7429 18.3075 85.7377 18.3029 85.7315 18.3004C85.7252 18.2979 85.7183 18.2977 85.7119 18.2997C85.7055 18.3017 85.6999 18.3058 85.6962 18.3114C85.2791 19.216 84.9529 20.1598 84.7225 21.1289C84.6932 21.2593 85.1348 21.1608 85.2226 21.1369Z" fill="#1D293F"/>
<path d="M90.618 20.9558C89.5538 20.8787 89.3782 17.6143 89.3596 17.2152C89.3596 17.4813 89.3436 18.8115 89.2399 18.8567C89.1267 18.8489 89.0155 18.8238 88.91 18.7822C88.9159 18.6214 88.9087 18.4604 88.8887 18.3007C88.8887 18.2262 88.8541 18.4603 88.8035 18.7476L88.6093 18.6864C88.6343 18.3447 88.6137 18.0011 88.5481 17.6648C88.5215 17.5371 88.4657 18.1038 88.3273 18.5987C87.435 18.2996 86.5125 18.0997 85.5764 18.0027C85.3103 17.9841 85.0842 17.9788 84.882 17.9788C84.8953 17.585 84.9565 17.1647 84.9246 17.2551C84.8368 17.4912 84.7726 17.7354 84.733 17.9841C84.6213 17.9841 84.5202 17.9841 84.4297 17.9841C84.4297 17.4227 84.725 16.5421 84.6292 16.6751C84.3481 17.0849 84.1476 17.5445 84.0386 18.0293C83.6528 18.0905 83.5464 18.1597 83.5385 18.0612C83.6994 16.9681 84.2435 15.9677 85.0735 15.2385C86.4437 14.0439 89.0935 13.8337 90.5063 15.8078C90.5063 15.8078 91.7008 16.6538 91.8365 17.9362C91.9722 19.2185 91.2272 21.0011 90.618 20.9558Z" fill="#1D293F"/>
<path d="M90.2668 21.1743C90.2668 21.1743 91.2778 19.876 91.8631 20.2431C92.4484 20.6103 91.6502 22.5258 90.9186 22.7546C90.8269 22.7905 90.7289 22.8075 90.6304 22.8046C90.532 22.8017 90.4351 22.7789 90.3457 22.7377C90.2563 22.6964 90.1761 22.6376 90.1099 22.5646C90.0438 22.4916 89.9931 22.406 89.9608 22.313L90.2668 21.1743Z" fill="#F7A9A0"/>
<path d="M91.6264 20.7861V20.8048C91.1129 20.983 90.8283 21.4379 90.6154 21.9115C90.647 21.8627 90.6889 21.8213 90.7381 21.7902C90.7872 21.7591 90.8426 21.7391 90.9003 21.7315C90.958 21.7239 91.0166 21.7289 91.0722 21.7462C91.1277 21.7635 91.1788 21.7927 91.222 21.8317C91.2353 21.8317 91.222 21.861 91.2087 21.8583C91.1217 21.8253 91.0266 21.8202 90.9366 21.8435C90.8465 21.8669 90.7659 21.9176 90.7059 21.9887C90.6031 22.1079 90.5139 22.2382 90.4398 22.3771C90.4132 22.4197 90.3334 22.3931 90.352 22.3425V22.3292C90.3946 21.688 90.9267 20.8154 91.6264 20.7861Z" fill="#1D293F"/>
<path d="M92.6 27.0005C97.5778 31.0684 101.603 37.2886 101.816 38.8636C102.05 40.5982 101.443 46.8956 99.8019 50.0935C99.3683 50.9369 92.9326 47.0978 93.3583 46.1773C94.1777 44.4054 95.3935 39.55 95.2206 38.5842C95.0583 37.6903 92.5229 32.3082 90.7882 29.4827C89.1813 26.8914 90.2827 25.1089 92.6 27.0005Z" fill="#F7A9A0"/>
<path d="M88.4043 53.8291C88.5374 54.0175 88.725 54.1606 88.9419 54.2391C89.1589 54.3176 89.3946 54.3277 89.6175 54.2681C89.6261 54.6597 89.771 55.036 90.0272 55.3323C90.5034 55.8324 91.4958 55.303 91.4958 55.303C91.5887 55.711 91.8018 56.0817 92.1077 56.3672C92.6132 56.7982 93.6907 56.4071 93.6907 56.4071C93.9811 56.7315 94.3788 56.9402 94.8107 56.9951C95.9707 57.0935 97.0402 55.6648 97.7373 54.7762C98.4343 53.8876 99.5384 50.6924 99.8124 50.1071L94.0951 45.6401C94.0951 45.6401 89.8649 48.7822 89.2051 49.9501C88.6411 50.9265 87.9227 53.0895 88.4043 53.8291Z" fill="#F7A9A0"/>
<path d="M89.5562 54.1564C89.8967 52.9698 90.5672 51.9455 91.1817 50.884C91.195 50.8601 91.2323 50.884 91.2163 50.9053C90.5964 51.9535 90.1894 53.1108 89.62 54.1803C89.5961 54.2096 89.5482 54.1883 89.5562 54.1564Z" fill="#1D293F"/>
<path d="M91.4373 55.2256C91.5396 54.9629 91.6765 54.7151 91.8443 54.4886C92.0066 54.2386 92.1742 53.9885 92.3445 53.7437C92.6851 53.2542 93.0362 52.77 93.4087 52.2964C93.4247 52.2751 93.4619 52.2964 93.446 52.3177C93.1054 52.8099 92.7755 53.3047 92.4563 53.8076C92.2966 54.0736 92.1397 54.3131 91.9854 54.5685C91.8524 54.8176 91.6937 55.0521 91.5118 55.2682C91.5061 55.278 91.4968 55.2853 91.4858 55.2883C91.4748 55.2913 91.4631 55.2898 91.4533 55.2841C91.4434 55.2785 91.4361 55.2691 91.4332 55.2582C91.4302 55.2472 91.4316 55.2355 91.4373 55.2256Z" fill="#1D293F"/>
<path d="M93.704 56.3752C93.8042 56.1383 93.9446 55.9204 94.1191 55.7313C94.2813 55.5105 94.4383 55.2897 94.5979 55.0662C94.9119 54.6219 95.2285 54.1776 95.5265 53.7227C95.5424 53.7014 95.577 53.7227 95.5637 53.744C95.2604 54.2095 94.9651 54.6778 94.6591 55.1381C94.5101 55.3651 94.3585 55.5912 94.2042 55.8165C94.0837 56.0337 93.9262 56.2282 93.7386 56.3911C93.7365 56.3957 93.7326 56.3993 93.7279 56.401C93.7232 56.4028 93.7179 56.4026 93.7133 56.4005C93.7087 56.3983 93.7052 56.3945 93.7034 56.3897C93.7017 56.385 93.7019 56.3798 93.704 56.3752Z" fill="#1D293F"/>
<path d="M90.2058 28.9559C91.1662 31.6643 95.0425 38.1053 95.0186 38.7252C94.9947 39.3451 93.103 45.8047 93.103 45.8047L100.789 50.4712C100.789 50.4712 102.503 41.6756 101.853 38.6161C101.361 36.2642 95.9444 29.4374 93.3106 27.3357C90.6767 25.2339 88.9766 25.4866 90.2058 28.9559Z" fill="#FFC727"/>
<path d="M90.2058 28.9559C91.1662 31.6643 95.0425 38.1053 95.0186 38.7252C94.9947 39.3451 93.103 45.8047 93.103 45.8047L100.789 50.4712C100.789 50.4712 102.503 41.6756 101.853 38.6161C101.361 36.2642 95.9444 29.4374 93.3106 27.3357C90.6767 25.2339 88.9766 25.4866 90.2058 28.9559Z" fill="#FFE6B3"/>
<path d="M95.0264 38.3506C94.902 37.897 94.71 37.4647 94.457 37.0682C93.9701 36.1716 93.4859 35.2724 92.9751 34.3891C92.6905 33.8996 91.5464 32.024 91.2086 31.4227C91.1766 31.3668 91.0968 31.4227 91.1261 31.4732C91.3097 31.8404 91.8524 32.8168 92.2328 33.4952C92.1743 33.4234 92.1158 33.3489 92.0519 33.2797C91.9375 33.152 91.8205 33.0137 91.6928 32.9046C91.55 32.7862 91.4191 32.6544 91.3017 32.5108C91.2884 32.4895 91.2511 32.5108 91.2671 32.5321C91.4811 32.8098 91.7093 33.0762 91.9508 33.3303C92.0679 33.4659 92.185 33.5963 92.2967 33.74C92.3739 33.8304 92.4457 33.9262 92.5255 34.006C92.5441 34.0406 92.5627 34.0699 92.5761 34.0965C93.0762 34.9611 93.5471 35.8444 94.018 36.725C94.2667 37.1461 94.4906 37.5814 94.6885 38.0287C94.7757 38.2355 94.8165 38.4589 94.8082 38.6831C94.7818 38.9502 94.7256 39.2135 94.6406 39.468C94.3745 40.4284 94.1244 41.3915 93.8744 42.3546C93.7307 42.9106 93.587 43.4693 93.454 44.028C93.321 44.5868 93.1667 45.1454 93.0869 45.7148C93.0869 45.752 93.1374 45.784 93.1534 45.7414C93.3337 45.2611 93.4891 44.7718 93.619 44.2755C93.7662 43.7753 93.9072 43.2742 94.042 42.7723C94.308 41.7587 94.5741 40.7424 94.8401 39.7234C94.9625 39.2791 95.1141 38.8162 95.0264 38.3506Z" fill="#1D293F"/>
<path d="M100.712 48.4541C98.6268 46.9839 96.4633 45.6286 94.2307 44.3942C94.2263 44.3931 94.2217 44.3934 94.2175 44.3951C94.2133 44.3968 94.2098 44.3998 94.2074 44.4037C94.205 44.4075 94.2039 44.4121 94.2043 44.4166C94.2047 44.4211 94.2065 44.4254 94.2094 44.4288C96.291 45.9041 98.4509 47.2656 100.68 48.5073C100.687 48.5094 100.694 48.5092 100.701 48.5067C100.707 48.5041 100.713 48.4994 100.717 48.4933C100.72 48.4871 100.722 48.4799 100.721 48.4728C100.72 48.4657 100.717 48.4591 100.712 48.4541Z" fill="#1D293F"/>
<path d="M65.9678 67.4882V26.2652C65.9678 26.106 65.9046 25.9534 65.7921 25.8409L56.0603 16.1093C55.9478 15.9968 55.7952 15.9336 55.6361 15.9336H24.8441C24.5128 15.9336 24.2441 16.2022 24.2441 16.5336V67.4882C24.2441 67.8196 24.5128 68.0882 24.8441 68.0882H65.3678C65.6992 68.0882 65.9678 67.8196 65.9678 67.4882Z" fill="#C8DEFE"/>
<path d="M64.9249 66.4448V24.9732L54.8416 14.8901H23.8012C23.4698 14.8901 23.2012 15.1588 23.2012 15.4901V66.4448C23.2012 66.7761 23.4698 67.0448 23.8012 67.0448H64.3249C64.6562 67.0448 64.9249 66.7761 64.9249 66.4448Z" fill="white"/>
<path fill-rule="evenodd" clip-rule="evenodd" d="M64.9249 24.9732L54.8416 14.8901H23.8012C23.4698 14.8901 23.2012 15.1588 23.2012 15.4901V66.4448C23.2012 66.7761 23.4698 67.0448 23.8012 67.0448H64.3249C64.6562 67.0448 64.9249 66.7761 64.9249 66.4448V24.9732ZM54.7174 15.1901L64.6249 25.0975V66.4448C64.6249 66.6104 64.4905 66.7448 64.3249 66.7448H23.8012C23.6355 66.7448 23.5012 66.6104 23.5012 66.4448V15.4901C23.5012 15.3245 23.6355 15.1901 23.8012 15.1901H54.7174Z" fill="#1D293F"/>
<path fill-rule="evenodd" clip-rule="evenodd" d="M46.149 28.6406H28.4164V29.336H46.149V28.6406ZM28.4163 31.4219H46.1488V32.1173H28.4163V31.4219ZM52.7551 36.9854H28.4163V37.6807H52.7551V36.9854ZM55.5367 43.939H28.4163V44.6344H55.5367V43.939ZM55.5367 55.0654H28.4163V55.7608H55.5367V55.0654ZM28.4163 46.7207H51.3643V47.4161H28.4163V46.7207ZM28.4163 34.2031H59.709V34.8985H28.4163V34.2031ZM59.709 49.502H28.4163V50.1973H59.709V49.502ZM28.4163 57.8467H59.709V58.5421H28.4163V57.8467ZM56.2321 52.2832H28.4163V52.9786H56.2321V52.2832ZM28.4163 60.6284H56.2321V61.3238H28.4163V60.6284Z" fill="#CAD1DD"/>
<rect x="28.5455" y="21.4678" width="15.6221" height="2.46665" fill="#CAD1DD"/>
<path d="M54.8418 14.8901L64.925 24.9735H54.8418L54.8418 14.8901Z" fill="#1D293F"/>
<path d="M26.7096 96.2429C26.7908 94.2052 26.7628 92.1647 26.6256 90.1301C26.3237 85.9338 25.6816 81.7689 24.7056 77.6765C24.1728 75.3725 23.5056 73.1165 22.8288 70.8437C22.8096 70.7741 22.6992 70.7933 22.7184 70.8653C24.8376 78.8429 26.5752 87.0773 26.4552 95.3717C26.424 97.6925 26.1552 99.9725 25.9344 102.279C25.9344 102.339 26.0304 102.365 26.0424 102.3C26.4864 100.328 26.628 98.2589 26.7096 96.2429Z" fill="#1D293F"/>
<path d="M22.7231 70.8652C22.7231 70.8652 19.5143 79.0132 20.2319 80.9284C20.9495 82.8436 22.4327 83.2516 22.4327 83.2516C22.4327 83.2516 20.4695 86.0548 21.8399 88.6852C23.2103 91.3156 26.2631 91.1908 26.4647 94.1716C26.4647 94.1716 26.6351 81.7036 22.7231 70.8652Z" fill="#B3E9D7"/>
<path d="M26.1239 89.0237C26.1287 89.0097 26.1287 88.9945 26.1239 88.9805C25.7008 83.4177 24.6542 77.92 23.0039 72.5909C23.0039 72.5765 22.9727 72.5909 22.9775 72.5909C23.6175 74.9733 24.1775 77.3733 24.6575 79.7909C24.2275 79.3813 23.7007 79.0874 23.1263 78.9365C23.1263 78.9365 23.1095 78.9365 23.1263 78.9533C23.7294 79.1758 24.2713 79.5376 24.7079 80.0093C24.8007 80.4893 24.8911 80.9621 24.9791 81.4277C24.2591 80.6261 23.2679 80.2277 22.2719 79.8509C22.2575 79.8509 22.2503 79.8653 22.2719 79.8725C23.3087 80.2925 24.3407 80.8325 25.0439 81.7301C25.2887 83.0837 25.5039 84.4437 25.6895 85.8101C25.1691 85.2665 24.5021 84.8855 23.7695 84.7133C23.7479 84.7133 23.7359 84.7397 23.7695 84.7469C24.5228 84.966 25.1969 85.3976 25.7111 85.9901C25.7759 86.4701 25.8359 86.9501 25.8911 87.4301C25.4893 87.0915 25.0365 86.8185 24.5495 86.6213C24.5495 86.6213 24.5303 86.6357 24.5495 86.6429C25.042 86.8538 25.4937 87.1495 25.8839 87.5165H25.9007C25.9559 87.9725 26.0087 88.4285 26.0543 88.8869C25.3315 88.0134 24.3935 87.3433 23.3327 86.9429C23.3111 86.9429 23.3015 86.9669 23.3327 86.9765C24.3809 87.4373 25.3017 88.1456 26.0159 89.0405C26.0234 89.0507 26.0339 89.0583 26.046 89.0622C26.0581 89.0661 26.0711 89.066 26.0831 89.0621C26.1527 89.7629 26.2151 90.4637 26.2655 91.1669C26.2655 91.1669 26.2823 91.1789 26.2823 91.1669C26.2311 90.4581 26.1783 89.7437 26.1239 89.0237Z" fill="#1D293F"/>
<path d="M35.1479 81.0604C33.7904 81.9984 32.544 83.0878 31.4327 84.3076C30.2872 85.595 29.4021 87.0922 28.8263 88.7164C27.6081 92.107 26.953 95.6742 26.8871 99.2764C26.8453 101.273 27.037 103.267 27.4583 105.219C27.4611 105.233 27.4697 105.246 27.4821 105.255C27.4945 105.263 27.5096 105.266 27.5243 105.263C27.5389 105.26 27.5518 105.252 27.5602 105.239C27.5685 105.227 27.5715 105.212 27.5687 105.197C27.0449 101.753 27.0652 98.2479 27.6287 94.81C28.1807 91.438 29.0447 87.7708 31.1879 85.0324C32.3639 83.5612 33.8039 82.3876 35.2439 81.1732C35.3231 81.1108 35.2247 81.0052 35.1479 81.0604Z" fill="#1D293F"/>
<path d="M27.3574 96.8767C28.1312 95.6273 29.0398 94.4667 30.067 93.4159C31.6726 91.8103 33.0238 90.6703 33.2326 89.6071C33.4414 88.5439 31.6246 87.7639 31.6246 87.7639C31.6246 87.7639 33.847 88.1623 34.4542 87.2311C35.0614 86.2999 35.3566 80.8975 35.3566 80.8975C35.3566 80.8975 31.315 83.7775 29.431 87.8287C27.547 91.8799 27.3574 96.8767 27.3574 96.8767Z" fill="#B3E9D7"/>
<path d="M15.509 86.7966C16.8238 87.2434 18.0838 87.8375 19.265 88.5678C20.4883 89.3469 21.5481 90.3569 22.385 91.5414C24.1563 94.0051 25.5126 96.7421 26.4002 99.6438C26.8985 101.248 27.2086 102.905 27.3242 104.581C27.3217 104.591 27.3158 104.601 27.3073 104.607C27.2988 104.614 27.2882 104.618 27.2774 104.618C27.2665 104.618 27.2559 104.614 27.2474 104.607C27.2389 104.601 27.233 104.591 27.2306 104.581C26.8585 101.67 26.0324 98.8355 24.7826 96.1806C23.5514 93.5958 22.0034 90.8286 19.6442 89.1078C18.3554 88.1694 16.9058 87.5574 15.461 86.907C15.3794 86.8734 15.4322 86.7654 15.509 86.7966Z" fill="#1D293F"/>
<path d="M25.4664 97.7834C24.5513 96.9514 23.5477 96.2223 22.4736 95.609C20.7936 94.6802 19.4448 94.0706 19.0296 93.2594C18.6144 92.4482 19.9056 91.3946 19.9056 91.3946C19.9056 91.3946 18.1992 92.2322 17.5056 91.6178C16.812 91.0034 15.3 86.7002 15.3 86.7002C15.3 86.7002 19.2384 88.1018 21.6984 90.941C24.1584 93.7802 25.4664 97.7834 25.4664 97.7834Z" fill="#B3E9D7"/>
<path d="M31.3501 109.734H22.4604L23.8751 98.25H29.5823L31.3501 109.734Z" fill="#C8DEFE"/>
<path fill-rule="evenodd" clip-rule="evenodd" d="M21.8773 109.699L23.4024 98.2472L23.1658 98.2148L21.6036 109.938H30.7236L29.7196 102.9L29.4829 102.932L30.45 109.699H21.8773Z" fill="#1D293F"/>
<path d="M29.7697 97.5195H22.4305V99.5355H29.7697V97.5195Z" fill="#1D293F"/>
<path d="M95.9546 53.0944L96.0092 72.9945C96.0104 73.2583 95.9595 73.5197 95.8594 73.7637C95.7593 74.0077 95.612 74.2296 95.4259 74.4165C95.2398 74.6035 95.0186 74.7518 94.775 74.853C94.5314 74.9542 94.2703 75.0063 94.0065 75.0063L62.445 75.0883C62.1808 75.0895 61.9189 75.0386 61.6744 74.9386C61.4298 74.8386 61.2074 74.6914 61.0197 74.5055C60.8321 74.3195 60.6829 74.0984 60.5807 73.8547C60.4785 73.6111 60.4252 73.3497 60.424 73.0855L60.3785 53.1855C60.371 52.938 60.4141 52.6915 60.5051 52.4612C60.5961 52.2308 60.7331 52.0215 60.9078 51.846C61.0825 51.6705 61.2912 51.5324 61.521 51.4403C61.7509 51.3481 61.9971 51.3039 62.2447 51.3102L94.1066 51.2282C94.3519 51.2245 94.5954 51.2703 94.8225 51.363C95.0496 51.4557 95.2556 51.5933 95.4282 51.7676C95.6008 51.9419 95.7364 52.1493 95.8269 52.3773C95.9173 52.6053 95.9608 52.8492 95.9546 53.0944Z" fill="#475569"/>
<path d="M90.8753 70.1996C90.8753 70.5597 90.7685 70.9117 90.5684 71.2111C90.3684 71.5105 90.084 71.7439 89.7513 71.8817C89.4186 72.0195 89.0525 72.0555 88.6994 71.9853C88.3462 71.915 88.0218 71.7416 87.7672 71.487C87.5125 71.2324 87.3391 70.908 87.2689 70.5548C87.1986 70.2016 87.2347 69.8355 87.3725 69.5028C87.5103 69.1702 87.7436 68.8858 88.0431 68.6858C88.3425 68.4857 88.6945 68.3789 89.0546 68.3789C89.5375 68.3789 90.0006 68.5707 90.342 68.9122C90.6834 69.2536 90.8753 69.7167 90.8753 70.1996Z" fill="white"/>
<path d="M93.1597 70.1908C93.1597 70.5509 93.0529 70.9029 92.8528 71.2023C92.6528 71.5017 92.3684 71.7351 92.0357 71.8729C91.703 72.0107 91.337 72.0468 90.9838 71.9765C90.6306 71.9063 90.3062 71.7328 90.0516 71.4782C89.797 71.2236 89.6235 70.8992 89.5533 70.546C89.483 70.1928 89.5191 69.8267 89.6569 69.4941C89.7947 69.1614 90.0281 68.877 90.3275 68.677C90.6269 68.4769 90.9789 68.3701 91.339 68.3701C91.8218 68.3701 92.2849 68.5619 92.6264 68.9034C92.9678 69.2448 93.1597 69.7079 93.1597 70.1908Z" fill="#FFC727"/>
<path d="M67.7513 60.2316H65.6939C65.0814 60.2316 64.4937 59.9896 64.0589 59.5582C63.624 59.1268 63.3774 58.541 63.3726 57.9285C63.3726 57.3168 63.6149 56.73 64.0466 56.2967C64.4783 55.8633 65.064 55.6186 65.6757 55.6162H67.7422C68.3539 55.6162 68.9406 55.8586 69.374 56.2902C69.8074 56.7219 70.052 57.3077 70.0545 57.9194C70.0545 58.531 69.8121 59.1178 69.3804 59.5512C68.9488 59.9846 68.363 60.2292 67.7513 60.2316Z" fill="#FFC727"/>
<path d="M91.8574 58.0923H88.835C88.6688 58.0935 88.5041 58.0619 88.3501 57.9994C88.1961 57.937 88.0559 57.8448 87.9376 57.7281C87.8192 57.6114 87.725 57.4726 87.6603 57.3195C87.5956 57.1665 87.5617 57.0022 87.5605 56.836C87.5605 56.4996 87.6936 56.1768 87.9306 55.938C88.1677 55.6993 88.4895 55.5639 88.8259 55.5615H91.8483C92.1839 55.5615 92.5057 55.6948 92.743 55.9321C92.9803 56.1694 93.1136 56.4913 93.1136 56.8269C93.1136 57.1609 92.9816 57.4814 92.7462 57.7184C92.5109 57.9555 92.1914 58.0899 91.8574 58.0923Z" fill="white"/>
<path d="M80.3058 68.5603L63.4099 68.6045L63.4121 69.4329L80.308 69.3887L80.3058 68.5603Z" fill="white"/>
<path d="M75.3774 70.412L63.4155 70.4434L63.4177 71.2718L75.3795 71.2405L75.3774 70.412Z" fill="white"/>
<path d="M86.4048 55.5629L77.9751 55.585L77.9773 56.4134L86.407 56.3913L86.4048 55.5629Z" fill="white"/>
<path d="M88.4044 53.8297C88.5375 54.0181 88.7251 54.1612 88.9421 54.2397C89.159 54.3182 89.3948 54.3283 89.6176 54.2687C89.6263 54.6602 89.7711 55.0366 90.0273 55.3329C90.5035 55.833 91.4959 55.3036 91.4959 55.3036C91.5888 55.7116 91.802 56.0823 92.1078 56.3678C92.6133 56.7988 93.6908 56.4077 93.6908 56.4077C93.9812 56.7321 94.3789 56.9408 94.8109 56.9957C95.9708 57.0941 97.0403 55.6654 97.7374 54.7768C98.4344 53.8882 99.5385 50.693 99.8126 50.1077L93.0818 46.4766C93.0818 46.4766 89.865 48.7828 89.2052 49.9507C88.6412 50.9271 87.9229 53.0901 88.4044 53.8297Z" fill="#F7A9A0"/>
<path d="M89.5564 54.1569C89.897 52.9703 90.5674 51.946 91.182 50.8845C91.1953 50.8606 91.2325 50.8845 91.2166 50.9058C90.5967 51.954 90.1896 53.1113 89.6203 54.1808C89.5963 54.2101 89.5484 54.1888 89.5564 54.1569Z" fill="#1D293F"/>
<path d="M91.4374 55.2266C91.5397 54.9639 91.6766 54.7161 91.8445 54.4896C92.0068 54.2395 92.1744 53.9895 92.3446 53.7447C92.6852 53.2552 93.0364 52.771 93.4088 52.2974C93.4248 52.2761 93.462 52.2974 93.4461 52.3187C93.1055 52.8109 92.7756 53.3057 92.4564 53.8085C92.2967 54.0746 92.1398 54.314 91.9855 54.5694C91.8525 54.8186 91.6938 55.0531 91.5119 55.2691C91.5063 55.279 91.4969 55.2863 91.4859 55.2892C91.475 55.2922 91.4633 55.2908 91.4534 55.2851C91.4435 55.2795 91.4363 55.2701 91.4333 55.2591C91.4303 55.2482 91.4318 55.2365 91.4374 55.2266Z" fill="#1D293F"/>
<path d="M93.7044 56.3762C93.8046 56.1392 93.945 55.9214 94.1194 55.7323C94.2817 55.5115 94.4387 55.2907 94.5983 55.0672C94.9122 54.6229 95.2288 54.1786 95.5268 53.7237C95.5428 53.7024 95.5774 53.7237 95.5641 53.7449C95.2608 54.2105 94.9655 54.6788 94.6595 55.139C94.5105 55.3661 94.3589 55.5922 94.2046 55.8175C94.0841 56.0347 93.9265 56.2292 93.739 56.3921C93.7369 56.3967 93.733 56.4003 93.7283 56.402C93.7235 56.4038 93.7183 56.4035 93.7137 56.4014C93.7091 56.3993 93.7056 56.3955 93.7038 56.3907C93.7021 56.386 93.7023 56.3807 93.7044 56.3762Z" fill="#1D293F"/>
<path d="M52.6764 93.7673H63.9778C64.6914 93.7667 65.3756 93.4829 65.8802 92.9783C66.3848 92.4737 66.6686 91.7894 66.6693 91.0758V69.9226C66.6712 69.5525 66.7482 69.1867 66.8956 68.8473C67.043 68.5078 67.2578 68.2018 67.5269 67.9478C67.796 67.6938 68.1138 67.497 68.4612 67.3694C68.8086 67.2418 69.1782 67.186 69.5478 67.2054H55.3679C54.6543 67.2061 53.9701 67.4899 53.4655 67.9945C52.9609 68.4991 52.6771 69.1833 52.6764 69.897V93.7673Z" fill="white"/>
<path d="M52.6764 93.7673H63.9778C64.6914 93.7667 65.3756 93.4829 65.8802 92.9783C66.3848 92.4737 66.6686 91.7894 66.6693 91.0758V69.9226C66.6712 69.5525 66.7482 69.1867 66.8956 68.8473C67.043 68.5078 67.2578 68.2018 67.5269 67.9478C67.796 67.6938 68.1138 67.497 68.4612 67.3694C68.8086 67.2418 69.1782 67.186 69.5478 67.2054H55.3679C54.6543 67.2061 53.9701 67.4899 53.4655 67.9945C52.9609 68.4991 52.6771 69.1833 52.6764 69.897V93.7673Z" fill="#D3DBE7" fill-opacity="0.6"/>
<path d="M64.8588 69.9019H54.7227V70.3679H64.8588V69.9019Z" fill="#D3DBE7"/>
<path d="M64.8588 69.9019H54.7227V70.3679H64.8588V69.9019Z" fill="#1E437D" fill-opacity="0.2"/>
<path d="M64.8588 71.2134H54.7227V71.6795H64.8588V71.2134Z" fill="#D3DBE7"/>
<path d="M64.8588 71.2134H54.7227V71.6795H64.8588V71.2134Z" fill="#1E437D" fill-opacity="0.2"/>
<path d="M64.8588 72.522H54.7227V72.9881H64.8588V72.522Z" fill="#D3DBE7"/>
<path d="M64.8588 72.522H54.7227V72.9881H64.8588V72.522Z" fill="#1E437D" fill-opacity="0.2"/>
<path d="M64.8588 73.8306H54.7227V74.2966H64.8588V73.8306Z" fill="#D3DBE7"/>
<path d="M64.8588 73.8306H54.7227V74.2966H64.8588V73.8306Z" fill="#1E437D" fill-opacity="0.2"/>
<path d="M64.8588 75.1392H54.7227V75.6053H64.8588V75.1392Z" fill="#D3DBE7"/>
<path d="M64.8588 75.1392H54.7227V75.6053H64.8588V75.1392Z" fill="#1E437D" fill-opacity="0.2"/>
<path d="M64.8588 76.4473H54.7227V76.9133H64.8588V76.4473Z" fill="#D3DBE7"/>
<path d="M64.8588 76.4473H54.7227V76.9133H64.8588V76.4473Z" fill="#1E437D" fill-opacity="0.2"/>
<path d="M64.8588 77.7588H54.7227V78.2249H64.8588V77.7588Z" fill="#D3DBE7"/>
<path d="M64.8588 77.7588H54.7227V78.2249H64.8588V77.7588Z" fill="#1E437D" fill-opacity="0.2"/>
<path d="M64.8588 79.0674H54.7227V79.5335H64.8588V79.0674Z" fill="#D3DBE7"/>
<path d="M64.8588 79.0674H54.7227V79.5335H64.8588V79.0674Z" fill="#1E437D" fill-opacity="0.2"/>
<path d="M64.8588 80.3765H54.7227V80.8426H64.8588V80.3765Z" fill="#D3DBE7"/>
<path d="M64.8588 80.3765H54.7227V80.8426H64.8588V80.3765Z" fill="#1E437D" fill-opacity="0.2"/>
<path d="M64.8588 81.6846H54.7227V82.1507H64.8588V81.6846Z" fill="#D3DBE7"/>
<path d="M64.8588 81.6846H54.7227V82.1507H64.8588V81.6846Z" fill="#1E437D" fill-opacity="0.2"/>
<path d="M64.8588 82.9932H54.7227V83.4592H64.8588V82.9932Z" fill="#D3DBE7"/>
<path d="M64.8588 82.9932H54.7227V83.4592H64.8588V82.9932Z" fill="#1E437D" fill-opacity="0.2"/>
<path d="M64.8588 84.3047H54.7227V84.7708H64.8588V84.3047Z" fill="#D3DBE7"/>
<path d="M64.8588 84.3047H54.7227V84.7708H64.8588V84.3047Z" fill="#1E437D" fill-opacity="0.2"/>
<path d="M64.8588 85.6133H54.7227V86.0794H64.8588V85.6133Z" fill="#D3DBE7"/>
<path d="M64.8588 85.6133H54.7227V86.0794H64.8588V85.6133Z" fill="#1E437D" fill-opacity="0.2"/>
<path d="M64.8588 86.9219H54.7227V87.388H64.8588V86.9219Z" fill="#D3DBE7"/>
<path d="M64.8588 86.9219H54.7227V87.388H64.8588V86.9219Z" fill="#1E437D" fill-opacity="0.2"/>
<path d="M64.8588 88.2305H54.7227V88.6966H64.8588V88.2305Z" fill="#D3DBE7"/>
<path d="M64.8588 88.2305H54.7227V88.6966H64.8588V88.2305Z" fill="#1E437D" fill-opacity="0.2"/>
<path d="M64.8588 89.5391H54.7227V90.0052H64.8588V89.5391Z" fill="#D3DBE7"/>
<path d="M64.8588 89.5391H54.7227V90.0052H64.8588V89.5391Z" fill="#1E437D" fill-opacity="0.2"/>
<path d="M41.7515 84.8116V110.352H50.3075V110.385C50.3067 111.094 50.5836 111.776 51.0789 112.284C51.5743 112.792 52.2488 113.085 52.9581 113.102H53.0503C53.1427 113.102 53.235 113.097 53.3269 113.087L53.839 112.982C53.9644 112.942 54.0868 112.893 54.2052 112.836C54.2642 112.81 54.3215 112.78 54.3768 112.746C54.4061 112.73 54.4344 112.712 54.4613 112.692C54.5408 112.647 54.617 112.595 54.6893 112.539L54.7251 112.511C54.7775 112.47 54.8271 112.427 54.8737 112.38C54.9005 112.358 54.9262 112.334 54.9505 112.308C55.2626 112 55.4932 111.619 55.6214 111.199C55.6206 111.192 55.6206 111.184 55.6214 111.176C55.6394 111.11 55.6573 111.043 55.6727 110.974C55.6937 110.89 55.7074 110.804 55.7136 110.718C55.7136 110.677 55.7136 110.639 55.7136 110.6C55.7149 110.587 55.7149 110.573 55.7136 110.559C55.7136 110.511 55.7136 110.462 55.7136 110.413V84.8398C55.7152 84.4693 55.792 84.103 55.9394 83.7631C56.0868 83.4232 56.3018 83.1167 56.5712 82.8624C56.8406 82.6081 57.1589 82.4111 57.5067 82.2835C57.8546 82.1559 58.2247 82.1003 58.5947 82.1201H44.4532C44.099 82.1191 43.7481 82.188 43.4205 82.3227C43.0929 82.4575 42.7951 82.6556 42.5442 82.9056C42.2932 83.1556 42.094 83.4526 41.958 83.7797C41.822 84.1067 41.7518 84.4574 41.7515 84.8116Z" fill="white"/>
<path d="M50.3484 110.353V110.386C50.3475 111.096 50.6244 111.777 51.1198 112.285C51.6152 112.793 52.2231 113.024 52.9323 113.041H53.0245C53.1169 113.041 53.2093 113.036 53.3011 113.025L53.8133 112.92C53.9386 112.88 54.061 112.832 54.1795 112.774C54.2385 112.748 54.2958 112.718 54.3511 112.685C54.3804 112.669 54.4086 112.651 54.4356 112.631C54.515 112.585 54.5912 112.534 54.6635 112.477L54.6994 112.449C54.7518 112.409 54.8014 112.365 54.8479 112.318C54.8748 112.296 54.9004 112.272 54.9247 112.247C55.2369 111.939 55.4674 111.557 55.5957 111.138C55.5948 111.13 55.5948 111.123 55.5957 111.115C55.6136 111.048 55.6315 110.982 55.6469 110.913C55.6679 110.829 55.6816 110.743 55.6879 110.656C55.6879 110.615 55.6879 110.577 55.6879 110.539C55.6892 110.525 55.6892 110.511 55.6879 110.498C55.6879 110.449 55.6879 110.4 55.6879 110.352V84.7783C55.6894 84.4078 55.7662 84.0415 55.9137 83.7015C56.0611 83.3616 56.276 83.0552 56.5454 82.8009C56.8148 82.5466 57.1331 82.3496 57.481 82.222C57.8288 82.0944 58.1989 82.0388 58.5689 82.0586" stroke="#1D293F" stroke-width="0.5"/>
<g opacity="0.9">
<path d="M53.7673 83.8262H43.6311V84.2923H53.7673V83.8262Z" fill="#D3DBE7"/>
<path d="M54.7225 82.6274H44.5863V83.0935H54.7225V82.6274Z" fill="#D3DBE7"/>
<path d="M53.7673 85.1348H43.6311V85.6009H53.7673V85.1348Z" fill="#D3DBE7"/>
<path d="M53.7673 86.4434H43.6311V86.9094H53.7673V86.4434Z" fill="#D3DBE7"/>
<path d="M53.7673 87.752H43.6311V88.218H53.7673V87.752Z" fill="#D3DBE7"/>
<path d="M53.7673 89.0605H43.6311V89.5266H53.7673V89.0605Z" fill="#D3DBE7"/>
<path d="M53.7673 90.3721H43.6311V90.8382H53.7673V90.3721Z" fill="#D3DBE7"/>
<path d="M53.7673 91.6807H43.6311V92.1468H53.7673V91.6807Z" fill="#D3DBE7"/>
<path d="M53.7673 92.9893H43.6311V93.4553H53.7673V92.9893Z" fill="#D3DBE7"/>
<path d="M53.7673 94.2979H43.6311V94.7639H53.7673V94.2979Z" fill="#D3DBE7"/>
<path d="M53.7673 95.6064H43.6311V96.0725H53.7673V95.6064Z" fill="#D3DBE7"/>
<path d="M53.7673 96.9175H43.6311V97.3836H53.7673V96.9175Z" fill="#D3DBE7"/>
<path d="M53.7673 98.2266H43.6311V98.6927H53.7673V98.2266Z" fill="#D3DBE7"/>
<path d="M53.7673 99.5347H43.6311V100.001H53.7673V99.5347Z" fill="#D3DBE7"/>
<path d="M53.7673 100.843H43.6311V101.309H53.7673V100.843Z" fill="#D3DBE7"/>
<path d="M53.7673 102.152H43.6311V102.618H53.7673V102.152Z" fill="#D3DBE7"/>
<path d="M53.7673 103.463H43.6311V103.929H53.7673V103.463Z" fill="#D3DBE7"/>
<path d="M53.7673 104.772H43.6311V105.238H53.7673V104.772Z" fill="#D3DBE7"/>
<path d="M53.7673 106.081H43.6311V106.547H53.7673V106.081Z" fill="#D3DBE7"/>
<path d="M53.7673 107.968H48.6992V109.043H53.7673V107.968Z" fill="#D3DBE7"/>
</g>
<path d="M63.8831 93.7674C63.906 93.7701 63.9292 93.7701 63.9522 93.7674C64.0523 93.7667 64.1523 93.7607 64.2518 93.7495C64.16 93.759 64.0676 93.7633 63.9753 93.7623L63.8831 93.7674Z" fill="#FFC727"/>
<path d="M69.3865 67.2109C68.6667 67.2109 67.9764 67.4965 67.467 68.005C66.9575 68.5134 66.6707 69.2032 66.6693 69.923V75.0448H72.1036V69.923C72.1022 69.2032 71.8154 68.5134 71.306 68.005C70.7965 67.4965 70.1062 67.2109 69.3865 67.2109Z" fill="#FFC727"/>
<path d="M69.3865 67.2109C68.6667 67.2109 67.9764 67.4965 67.467 68.005C66.9575 68.5134 66.6707 69.2032 66.6693 69.923V75.0448H72.1036V69.923C72.1022 69.2032 71.8154 68.5134 71.306 68.005C70.7965 67.4965 70.1062 67.2109 69.3865 67.2109Z" fill="#D3DBE7"/>
<path d="M69.3865 67.2109C68.6667 67.2109 67.9764 67.4965 67.467 68.005C66.9575 68.5134 66.6707 69.2032 66.6693 69.923V75.0448H72.1036V69.923C72.1022 69.2032 71.8154 68.5134 71.306 68.005C70.7965 67.4965 70.1062 67.2109 69.3865 67.2109Z" fill="#1E437D" fill-opacity="0.2"/>
<path d="M55.7471 84.8403V93.7728H61.184H63.8345C63.1255 93.7567 62.451 93.4635 61.9556 92.9561C61.4601 92.4487 61.1831 91.7674 61.184 91.0582V84.8403C61.1952 84.4762 61.1331 84.1137 61.0015 83.7741C60.8699 83.4346 60.6715 83.1249 60.418 82.8634C60.1644 82.602 59.861 82.3941 59.5256 82.2522C59.1902 82.1102 58.8297 82.0371 58.4656 82.0371C58.1014 82.0371 57.7409 82.1102 57.4055 82.2522C57.0701 82.3941 56.7667 82.602 56.5132 82.8634C56.2596 83.1249 56.0612 83.4346 55.9296 83.7741C55.798 84.1137 55.736 84.4762 55.7471 84.8403Z" fill="#FFC727"/>
<path d="M55.7471 84.8403V93.7728H61.184H63.8345C63.1255 93.7567 62.451 93.4635 61.9556 92.9561C61.4601 92.4487 61.1831 91.7674 61.184 91.0582V84.8403C61.1952 84.4762 61.1331 84.1137 61.0015 83.7741C60.8699 83.4346 60.6715 83.1249 60.418 82.8634C60.1644 82.602 59.861 82.3941 59.5256 82.2522C59.1902 82.1102 58.8297 82.0371 58.4656 82.0371C58.1014 82.0371 57.7409 82.1102 57.4055 82.2522C57.0701 82.3941 56.7667 82.602 56.5132 82.8634C56.2596 83.1249 56.0612 83.4346 55.9296 83.7741C55.798 84.1137 55.736 84.4762 55.7471 84.8403Z" fill="#D3DBE7"/>
<path d="M55.7471 84.8403V93.7728H61.184H63.8345C63.1255 93.7567 62.451 93.4635 61.9556 92.9561C61.4601 92.4487 61.1831 91.7674 61.184 91.0582V84.8403C61.1952 84.4762 61.1331 84.1137 61.0015 83.7741C60.8699 83.4346 60.6715 83.1249 60.418 82.8634C60.1644 82.602 59.861 82.3941 59.5256 82.2522C59.1902 82.1102 58.8297 82.0371 58.4656 82.0371C58.1014 82.0371 57.7409 82.1102 57.4055 82.2522C57.0701 82.3941 56.7667 82.602 56.5132 82.8634C56.2596 83.1249 56.0612 83.4346 55.9296 83.7741C55.798 84.1137 55.736 84.4762 55.7471 84.8403Z" fill="#1E437D" fill-opacity="0.2"/>
<path d="M37.8001 110.352V110.385C37.7992 111.095 38.0761 111.776 38.5715 112.284C39.0669 112.792 39.7414 113.086 40.4506 113.103H52.9684C52.2592 113.086 51.5847 112.792 51.0893 112.284C50.5939 111.776 50.317 111.095 50.3179 110.385V110.35L37.8001 110.352Z" fill="#D3DBE7"/>
<path d="M13.3332 20.0901C13.51 21.7818 14.1533 23.391 15.1913 24.7383C16.2294 26.0856 17.6215 27.118 19.2121 27.7202C20.8028 28.3225 22.5295 28.4709 24.1996 28.1489C25.8697 27.8269 27.4174 27.0473 28.6702 25.8968L33.264 26.5852L30.9656 22.6129C31.5394 21.2155 31.7562 19.6972 31.5963 18.195C31.4785 16.9897 31.1235 15.8196 30.5517 14.7522C29.9798 13.6847 29.2024 12.7408 28.2643 11.9751C27.3261 11.2093 26.2457 10.6366 25.0854 10.2901C23.925 9.94362 22.7075 9.83009 21.5031 9.95607C20.2986 10.0821 19.131 10.4451 18.0674 11.0242C17.0039 11.6033 16.0654 12.3871 15.306 13.3305C14.5466 14.2738 13.9814 15.3581 13.6428 16.5208C13.3042 17.6835 13.199 18.9017 13.3332 20.1053V20.0901Z" fill="#B3E9D7"/>
<path d="M12.3565 19.4842C12.5333 21.1758 13.1766 22.7851 14.2147 24.1324C15.2527 25.4797 16.6448 26.512 18.2354 27.1143C19.8261 27.7165 21.5528 27.8649 23.2229 27.543C24.893 27.221 26.4408 26.4413 27.6935 25.2909L32.2874 25.9792L29.9889 22.007C30.5627 20.6095 30.7795 19.0912 30.6196 17.589C30.5019 16.3838 30.1468 15.2137 29.575 14.1462C29.0031 13.0787 28.2257 12.1349 27.2876 11.3691C26.3494 10.6033 25.2691 10.0307 24.1087 9.68416C22.9483 9.33766 21.7308 9.22413 20.5264 9.35011C19.3219 9.4761 18.1543 9.8391 17.0908 10.4182C16.0272 10.9974 15.0887 11.7812 14.3293 12.7245C13.57 13.6679 13.0047 14.7521 12.6661 15.9148C12.3275 17.0776 12.2223 18.2958 12.3565 19.4993V19.4842Z" fill="white"/>
<path fill-rule="evenodd" clip-rule="evenodd" d="M12.3548 19.4842C12.3548 19.4842 12.3548 19.4841 12.3548 19.4842C12.3543 19.479 12.3537 19.4739 12.3532 19.4687C12.2241 18.2751 12.3304 17.0677 12.6661 15.9148C13.0047 14.7521 13.57 13.6679 14.3293 12.7245C15.0887 11.7812 16.0272 10.9974 17.0908 10.4182C18.1543 9.8391 19.3219 9.4761 20.5264 9.35011C21.7308 9.22413 22.9483 9.33766 24.1087 9.68416C25.2691 10.0307 26.3494 10.6033 27.2876 11.3691C28.2257 12.1349 29.0031 13.0787 29.575 14.1462C30.1468 15.2137 30.5019 16.3838 30.6196 17.589C30.7795 19.0912 30.5627 20.6095 29.9889 22.007L32.2874 25.9792L27.6935 25.2909C26.4408 26.4413 24.893 27.221 23.2229 27.543C21.5528 27.8649 19.8261 27.7165 18.2354 27.1143C16.6448 26.512 15.2527 25.4797 14.2147 24.1324C13.1831 22.7935 12.5413 21.1959 12.3599 19.5158C12.3593 19.5103 12.3587 19.5048 12.3581 19.4993C12.3581 19.4994 12.3581 19.4993 12.3581 19.4993C12.3576 19.4943 12.357 19.4892 12.3565 19.4842V19.4993C12.356 19.4943 12.3554 19.4892 12.3548 19.4842ZM12.6532 19.4531C12.5256 18.2931 12.6279 17.1193 12.9542 15.9987C13.2817 14.874 13.8285 13.8252 14.563 12.9126C15.2976 12.0001 16.2054 11.2419 17.2342 10.6817C18.263 10.1215 19.3925 9.77035 20.5576 9.64849C21.7227 9.52662 22.9004 9.63644 24.0228 9.97162C25.1453 10.3068 26.1904 10.8607 27.0979 11.6015C28.0054 12.3423 28.7574 13.2552 29.3105 14.2879C29.8637 15.3205 30.2071 16.4523 30.321 17.6182L30.3213 17.6208C30.4759 19.0734 30.2663 20.5417 29.7114 21.893L29.6554 22.0295L31.7157 25.5902L27.5962 24.973L27.4906 25.0699C26.2788 26.1827 24.7816 26.9369 23.1661 27.2484C21.5506 27.5598 19.8803 27.4163 18.3417 26.8337C16.803 26.2512 15.4565 25.2525 14.4523 23.9493C13.4481 22.646 12.8259 21.0893 12.6549 19.453L12.6532 19.4531Z" fill="#1D293F"/>
<path d="M20.8948 23.0262L17.3033 19.3943L18.5111 18.2038L20.6059 20.3246L24.9631 13.4971L26.3904 14.4072L20.8948 23.0262Z" fill="#00B67B"/>
</svg>
