<svg width="120" height="120" viewBox="0 0 120 120" fill="none" xmlns="http://www.w3.org/2000/svg">
<path d="M92.1599 78.1029C95.9999 81.8613 96.6431 87.6765 95.8343 92.7693C95.8127 92.8845 95.6327 92.8533 95.6327 92.7429C95.6327 91.5837 95.6687 90.4365 95.6639 89.2893L95.6063 89.1357C94.6031 88.4157 93.6863 87.5853 93.1127 86.4573C92.4695 85.1949 92.2175 83.7741 91.7279 82.4565C91.6823 82.3317 91.8167 82.3677 91.9055 82.4325C94.2407 84.1557 94.9847 86.0085 95.6543 88.4853C95.6406 87.1898 95.5048 85.8985 95.2487 84.6285C94.7447 82.2789 93.7463 79.9485 92.0567 78.2037C92.0015 78.1389 92.0999 78.0357 92.1599 78.1029Z" fill="#B3E9D7"/>
<path d="M91.4401 78.5421C90.7801 78.5637 90.3649 79.6197 89.8513 79.9269C89.7974 79.9692 89.7354 79.9998 89.6691 80.017C89.6028 80.0342 89.5337 80.0374 89.4661 80.0266C89.3985 80.0158 89.3338 79.9911 89.2762 79.9541C89.2186 79.9172 89.1692 79.8687 89.1313 79.8117C88.6225 79.0917 89.3209 78.2229 89.9785 77.7309C89.4985 77.9253 89.1193 78.2637 88.6105 78.3621C88.5455 78.3826 88.4769 78.389 88.4092 78.381C88.3416 78.3729 88.2764 78.3506 88.218 78.3154C88.1597 78.2802 88.1095 78.233 88.0708 78.1769C88.0321 78.1208 88.0058 78.0571 87.9937 77.9901C87.7705 77.0301 88.9873 76.5885 89.8225 76.5693C89.4169 76.2861 88.2577 75.5229 88.8745 75.1461C89.4913 74.7693 90.8593 75.8661 91.3033 76.2213C91.9561 76.7517 92.7433 77.5437 92.7649 78.3813C92.7985 79.3389 91.9537 78.7437 91.4401 78.5421Z" fill="#FFC727"/>
<path d="M91.4401 78.5421C90.7801 78.5637 90.3649 79.6197 89.8513 79.9269C89.7974 79.9692 89.7354 79.9998 89.6691 80.017C89.6028 80.0342 89.5337 80.0374 89.4661 80.0266C89.3985 80.0158 89.3338 79.9911 89.2762 79.9541C89.2186 79.9172 89.1692 79.8687 89.1313 79.8117C88.6225 79.0917 89.3209 78.2229 89.9785 77.7309C89.4985 77.9253 89.1193 78.2637 88.6105 78.3621C88.5455 78.3826 88.4769 78.389 88.4092 78.381C88.3416 78.3729 88.2764 78.3506 88.218 78.3154C88.1597 78.2802 88.1095 78.233 88.0708 78.1769C88.0321 78.1208 88.0058 78.0571 87.9937 77.9901C87.7705 77.0301 88.9873 76.5885 89.8225 76.5693C89.4169 76.2861 88.2577 75.5229 88.8745 75.1461C89.4913 74.7693 90.8593 75.8661 91.3033 76.2213C91.9561 76.7517 92.7433 77.5437 92.7649 78.3813C92.7985 79.3389 91.9537 78.7437 91.4401 78.5421Z" fill="#EE6877"/>
<path d="M91.6368 78.703C90.792 78.319 89.1696 78.8734 89.0304 78.5542C88.752 77.9014 90.048 77.4574 90.7488 77.371C90.1032 77.1958 88.8696 76.9174 88.9056 76.2958C88.9536 75.5374 90.7992 76.1902 91.7352 76.9054C92.9136 77.8102 92.9063 78.6814 92.7119 78.8566C92.4431 79.0942 91.776 78.7678 91.6368 78.703Z" fill="#F9CACF"/>
<path d="M100.908 77.7312C96.9289 81.3312 96.0649 87.1272 96.6793 92.2464C96.6961 92.3616 96.8761 92.3376 96.8809 92.2296C96.9241 91.0704 96.9337 89.9208 96.9793 88.776C97.0033 88.7256 97.0225 88.6776 97.0441 88.6248C98.0737 87.936 99.0265 87.1488 99.6385 86.0424C100.327 84.8064 100.634 83.4024 101.174 82.0992C101.225 81.9744 101.088 82.0056 100.997 82.068C98.5969 83.7 97.7857 85.524 97.0201 87.972C97.0837 86.6775 97.2693 85.3918 97.5745 84.132C98.1673 81.8016 99.2545 79.512 101.006 77.8344C101.071 77.772 100.978 77.6664 100.908 77.7312Z" fill="#B3E9D7"/>
<path d="M101.614 78.1967C102.271 78.2447 102.646 79.3151 103.147 79.6367C103.2 79.6828 103.261 79.7174 103.328 79.7382C103.394 79.759 103.464 79.7655 103.534 79.7574C103.603 79.7492 103.67 79.7266 103.73 79.6909C103.79 79.6552 103.841 79.6073 103.882 79.5503C104.417 78.8591 103.752 77.9543 103.114 77.4383C103.577 77.6495 103.954 78.0047 104.455 78.1199C104.519 78.1434 104.588 78.153 104.656 78.148C104.724 78.1429 104.79 78.1234 104.85 78.0906C104.91 78.0579 104.963 78.0128 105.004 77.9582C105.045 77.9037 105.074 77.841 105.089 77.7743C105.348 76.8143 104.148 76.3343 103.315 76.2815C103.73 76.0175 104.918 75.2951 104.316 74.8967C103.714 74.4983 102.305 75.5375 101.846 75.8807C101.174 76.3847 100.366 77.1455 100.306 77.9735C100.231 78.9431 101.098 78.3791 101.614 78.1967Z" fill="#FFC727"/>
<path d="M101.614 78.1967C102.271 78.2447 102.646 79.3151 103.147 79.6367C103.2 79.6828 103.261 79.7174 103.328 79.7382C103.394 79.759 103.464 79.7655 103.534 79.7574C103.603 79.7492 103.67 79.7266 103.73 79.6909C103.79 79.6552 103.841 79.6073 103.882 79.5503C104.417 78.8591 103.752 77.9543 103.114 77.4383C103.577 77.6495 103.954 78.0047 104.455 78.1199C104.519 78.1434 104.588 78.153 104.656 78.148C104.724 78.1429 104.79 78.1234 104.85 78.0906C104.91 78.0579 104.963 78.0128 105.004 77.9582C105.045 77.9037 105.074 77.841 105.089 77.7743C105.348 76.8143 104.148 76.3343 103.315 76.2815C103.73 76.0175 104.918 75.2951 104.316 74.8967C103.714 74.4983 102.305 75.5375 101.846 75.8807C101.174 76.3847 100.366 77.1455 100.306 77.9735C100.231 78.9431 101.098 78.3791 101.614 78.1967Z" fill="#EE6877"/>
<path d="M101.417 78.3524C102.274 77.9996 103.874 78.614 104.023 78.2996C104.328 77.6612 103.051 77.1644 102.355 77.0516C103.006 76.9028 104.249 76.6724 104.234 76.0484C104.218 75.2876 102.346 75.8708 101.386 76.5524C100.174 77.4092 100.147 78.2804 100.337 78.4724C100.594 78.7124 101.28 78.4196 101.417 78.3524Z" fill="#F9CACF"/>
<path d="M96.84 87.2641C96.5717 89.1948 96.1585 91.1026 95.604 92.9713C95.5967 93.0082 95.575 93.0407 95.5438 93.0616C95.5125 93.0826 95.4742 93.0902 95.4372 93.0829C95.4003 93.0756 95.3678 93.0539 95.3469 93.0226C95.326 92.9913 95.3183 92.953 95.3256 92.9161C95.5872 91.1569 96.0648 89.4313 96.3264 87.6721C96.6101 85.8926 96.7123 84.089 96.6312 82.2889C96.4632 79.3249 95.6592 76.1713 93.7248 73.8529C93.6816 73.7977 93.7728 73.7209 93.816 73.7713C97.6872 78.2857 97.0728 83.8201 97.068 84.3169C97.6176 82.4473 98.1816 80.3065 100.255 78.4033C100.344 78.3193 100.414 78.3601 100.399 78.4993C100.03 81.9649 99.0648 83.7793 97.056 85.6273C96.9984 86.1769 96.9264 86.7241 96.84 87.2641Z" fill="#B3E9D7"/>
<path d="M93.6888 74.3711C92.9928 74.0615 92.0329 74.9495 91.3441 75.0095C90.9793 75.0431 90.7081 74.8991 90.6457 74.5295C90.4753 73.5335 91.6417 72.9743 92.5657 72.7967C91.9801 72.7607 91.4041 72.9167 90.8281 72.7607C90.7501 72.7503 90.6753 72.7232 90.6087 72.6813C90.5422 72.6394 90.4854 72.5836 90.4424 72.5178C90.3993 72.452 90.371 72.3776 90.3593 72.2999C90.3475 72.2221 90.3527 72.1427 90.3745 72.0671C90.6313 70.9463 92.1097 71.1071 92.9881 71.5103C92.7097 71.0159 91.8912 69.6359 92.7192 69.5567C93.5472 69.4775 94.4184 71.2991 94.6992 71.8967C95.1096 72.7751 95.52 73.9895 95.1337 74.8631C94.6921 75.8807 94.116 74.8391 93.6888 74.3711Z" fill="#FFC727"/>
<path d="M93.6888 74.3711C92.9928 74.0615 92.0329 74.9495 91.3441 75.0095C90.9793 75.0431 90.7081 74.8991 90.6457 74.5295C90.4753 73.5335 91.6417 72.9743 92.5657 72.7967C91.9801 72.7607 91.4041 72.9167 90.8281 72.7607C90.7501 72.7503 90.6753 72.7232 90.6087 72.6813C90.5422 72.6394 90.4854 72.5836 90.4424 72.5178C90.3993 72.452 90.371 72.3776 90.3593 72.2999C90.3475 72.2221 90.3527 72.1427 90.3745 72.0671C90.6313 70.9463 92.1097 71.1071 92.9881 71.5103C92.7097 71.0159 91.8912 69.6359 92.7192 69.5567C93.5472 69.4775 94.4184 71.2991 94.6992 71.8967C95.1096 72.7751 95.52 73.9895 95.1337 74.8631C94.6921 75.8807 94.116 74.8391 93.6888 74.3711Z" fill="#EE6877"/>
<path d="M93.8063 74.638C93.1223 73.8148 91.1663 73.57 91.1807 73.1692C91.2167 72.3532 92.7863 72.5428 93.5567 72.8068C92.9759 72.3004 91.8335 71.3908 92.1863 70.7644C92.6159 70.0012 94.2047 71.6068 94.8143 72.8236C95.5823 74.3524 95.1359 75.2524 94.8455 75.3364C94.4471 75.4492 93.9191 74.7724 93.8063 74.638Z" fill="#F9CACF"/>
<path d="M100.274 88.5166L102 101.4H91.5001C91.7159 100.258 93.6704 88.5 93.6704 88.5L100.274 88.5166Z" fill="#6AA6DA"/>
<path d="M98.9474 88.8067L100.525 100.854H91.2974C91.5029 99.6423 91.9363 97.0039 92.3507 94.4695C92.6058 92.9087 92.8543 91.3842 93.039 90.2498L93.2611 88.8851L93.2762 88.7921L98.9474 88.8067Z" stroke="#1E437D"/>
<path d="M82.1622 15.2337C87.4175 21.6495 88.9768 31.2442 92.7884 39.105C96.6 46.9657 102.664 53.0925 105.436 60.8377C108.266 68.5828 107.746 77.8886 101.855 82.2235C96.0224 86.5007 84.8187 85.8071 76.7336 86.5585C68.6485 87.3677 63.6819 89.5641 56.7517 93.0321C49.7639 96.5001 40.8125 101.124 32.6118 100.43C24.3534 99.7946 16.8458 93.7257 14.94 85.9805C13.0342 78.2354 16.7303 68.6984 17.4233 59.6239C18.1741 50.5493 15.9795 41.9372 19.3868 36.7352C22.7941 31.591 31.8033 29.857 39.3109 24.6551C46.7608 19.5109 52.7669 10.8409 60.2746 8.12435C67.7822 5.46556 76.8491 8.76015 82.1622 15.2337Z" fill="#C8DEFE" fill-opacity="0.2"/>
<path d="M6.4104 101.335L19.2072 101.278L32.004 101.256L57.6 101.218L83.1936 101.256L95.9928 101.278L108.79 101.335L95.9928 101.395L83.1936 101.417L57.6 101.455L32.004 101.417L19.2072 101.395L6.4104 101.335Z" fill="#1E437D"/>
<path d="M99.9084 57.42V27.5674C99.9084 27.4083 99.8452 27.2557 99.7327 27.1432L92.7261 20.1367C92.6135 20.0242 92.4609 19.9609 92.3018 19.9609H70.0612C69.7298 19.9609 69.4612 20.2296 69.4612 20.5609V57.42C69.4612 57.7514 69.7298 58.02 70.0612 58.02H99.3084C99.6398 58.02 99.9084 57.7514 99.9084 57.42Z" fill="#6AA6DA"/>
<path d="M99.1472 56.6592V26.5582L91.7891 19.2002H69.3C68.9686 19.2002 68.7 19.4688 68.7 19.8002V56.6592C68.7 56.9906 68.9686 57.2592 69.3 57.2592H98.5472C98.8786 57.2592 99.1472 56.9906 99.1472 56.6592Z" fill="white"/>
<path fill-rule="evenodd" clip-rule="evenodd" d="M99.1472 26.5582L91.7891 19.2002H69.3C68.9686 19.2002 68.7 19.4688 68.7 19.8002V56.6592C68.7 56.9906 68.9686 57.2592 69.3 57.2592H98.5472C98.8786 57.2592 99.1472 56.9906 99.1472 56.6592V26.5582ZM91.6648 19.5002L98.8472 26.6824V56.6592C98.8472 56.8249 98.7129 56.9592 98.5472 56.9592H69.3C69.1343 56.9592 69 56.8249 69 56.6592V19.8002C69 19.6345 69.1343 19.5002 69.3 19.5002H91.6648Z" fill="#1E437D"/>
<path fill-rule="evenodd" clip-rule="evenodd" d="M85.4462 29.2334H72.5061V29.7409H85.4462V29.2334ZM72.5059 31.2632H85.4459V31.7706H72.5059V31.2632ZM90.2667 35.3232H72.5059V35.8307H90.2667V35.3232ZM92.2966 40.3975H72.5059V40.9049H92.2966V40.3975ZM92.2966 48.5166H72.5059V49.0241H92.2966V48.5166ZM72.5059 42.4272H89.2518V42.9347H72.5059V42.4272ZM72.5059 33.293H95.3413V33.8004H72.5059V33.293ZM95.3413 44.457H72.5059V44.9645H95.3413V44.457ZM72.5059 50.5464H95.3413V51.0538H72.5059V50.5464ZM92.804 46.4868H72.5059V46.9943H92.804V46.4868ZM72.5059 52.5762H92.804V53.0836H72.5059V52.5762Z" fill="#CAD1DD"/>
<rect x="72.6001" y="24" width="11.4" height="1.8" fill="#CAD1DD"/>
<path d="M91.7892 19.1997L99.1473 26.5579H91.7892L91.7892 19.1997Z" fill="#1E437D"/>
<path d="M100.567 52.5433L99.1353 54.0474L93.1019 48.3039L94.5337 46.7998L100.567 52.5433Z" fill="#D3DBE7"/>
<path d="M105.6 56.481L103.435 58.7548L97.3048 52.9211L99.4697 50.6455L105.6 56.481Z" fill="#1E437D"/>
<path d="M96.7234 39.8687C96.4126 38.023 95.5613 36.311 94.2774 34.9491C92.9935 33.5873 91.3345 32.6367 89.5104 32.2177C87.6862 31.7987 85.7787 31.9301 84.0292 32.5952C82.2797 33.2603 80.7667 34.4292 79.6816 35.9542C78.5965 37.4792 77.9879 39.2918 77.933 41.1627C77.878 43.0335 78.3791 44.8787 79.3728 46.4648C80.3665 48.0508 81.8083 49.3066 83.5158 50.0733C85.2232 50.8399 87.1197 51.083 88.9653 50.7718C91.4387 50.3523 93.6446 48.9687 95.099 46.9246C96.5535 44.8805 97.1377 42.343 96.7234 39.8687ZM95.6532 40.0565C95.9288 41.6904 95.7136 43.3694 95.0349 44.8811C94.3562 46.3928 93.2445 47.6692 91.8403 48.549C90.4361 49.4288 88.8026 49.8725 87.1463 49.8238C85.4899 49.7752 83.8852 49.2365 82.5351 48.2758C81.1849 47.3151 80.15 45.9757 79.5612 44.4268C78.9723 42.8779 78.856 41.1892 79.227 39.5742C79.5979 37.9592 80.4395 36.4905 81.6452 35.3538C82.8509 34.2171 84.3666 33.4635 86.0006 33.1883C88.1911 32.8213 90.4377 33.3384 92.2473 34.6261C94.057 35.9137 95.2819 37.8667 95.6532 40.0565Z" fill="#1E437D"/>
<path d="M84.8121 50.8358C87.1694 51.4909 89.6865 51.2388 91.867 50.1291C94.0474 49.0194 95.7328 47.1328 96.5905 44.8415C97.4483 42.5502 97.4161 40.0207 96.5004 37.7519C95.5846 35.4832 93.8518 33.6401 91.6439 32.5862C89.4359 31.5323 86.9131 31.3443 84.5733 32.0591C82.2335 32.774 80.2466 34.3398 79.0046 36.4477C77.7626 38.5556 77.3558 41.0524 77.8643 43.4456C78.3728 45.8387 79.7599 47.9544 81.7517 49.3751C82.6778 50.0385 83.7139 50.533 84.8121 50.8358ZM89.8365 32.5857C90.8696 32.8744 91.8447 33.3401 92.7186 33.962C94.5721 35.2895 95.8612 37.2631 96.3317 39.4939C96.8022 41.7247 96.4201 44.0508 95.2607 46.0138C94.1012 47.9768 92.2485 49.4343 90.0677 50.0991C87.887 50.7639 85.5363 50.5877 83.4789 49.6053C81.4216 48.6229 79.8069 46.9055 78.953 44.7916C78.0991 42.6776 78.068 40.3206 78.8658 38.1848C79.6636 36.0491 81.2324 34.2897 83.2631 33.2533C85.2938 32.2169 87.639 31.9788 89.8365 32.5857ZM85.0994 49.79C86.5028 50.1754 87.9806 50.201 89.3965 49.8645C90.8124 49.528 92.1207 48.8403 93.2006 47.8647C94.2805 46.8892 95.0973 45.6573 95.5755 44.2828C96.0538 42.9083 96.178 41.4355 95.9368 40.0003C95.6998 38.5966 95.1204 37.2729 94.2499 36.1465C93.3794 35.02 92.2445 34.1256 90.9459 33.5424C89.6472 32.9591 88.2248 32.7051 86.8046 32.8027C85.3843 32.9003 84.01 33.3465 82.8034 34.1019C81.5967 34.8573 80.5949 35.8985 79.8866 37.1335C79.1783 38.3684 78.7854 39.7589 78.7427 41.1818C78.7 42.6048 79.0088 44.0163 79.6417 45.2915C80.2746 46.5667 81.2121 47.6662 82.3713 48.4926C83.1964 49.0801 84.1177 49.5191 85.0938 49.79H85.0994ZM95.3754 40.0942C95.6889 41.943 95.3516 43.8433 94.4209 45.4712C93.4902 47.0991 92.0237 48.3538 90.2715 49.0215C88.5192 49.6893 86.5896 49.7286 84.8116 49.133C83.0335 48.5373 81.5171 47.3434 80.5207 45.7548C79.5244 44.1662 79.1098 42.2813 79.3477 40.4213C79.5855 38.5612 80.461 36.8412 81.825 35.5545C83.189 34.2677 84.9571 33.4938 86.8278 33.3647C88.6985 33.2356 90.5561 33.7592 92.084 34.8463C92.951 35.4635 93.688 36.2455 94.2527 37.1475C94.8175 38.0496 95.199 39.054 95.3754 40.1036V40.0942Z" fill="#1E437D"/>
<g opacity="0.4">
<path d="M87.1946 33.393C88.7859 33.3542 90.3531 33.788 91.6979 34.6398C93.0427 35.4915 94.1048 36.7229 94.7499 38.1782C95.3949 39.6335 95.5939 41.2474 95.3218 42.8158C95.0497 44.3842 94.3186 45.8367 93.2211 46.9897C92.1235 48.1426 90.7087 48.9443 89.1556 49.2932C87.6024 49.6422 85.9807 49.5228 84.4954 48.9501C83.0102 48.3774 81.728 47.3772 80.8112 46.0759C79.8943 44.7746 79.3839 43.2307 79.3444 41.6394C79.3182 40.5824 79.5005 39.5306 79.8808 38.5441C80.2612 37.5576 80.8322 36.6557 81.5612 35.8899C82.2902 35.1242 83.1629 34.5095 84.1295 34.0811C85.0961 33.6526 86.1376 33.4188 87.1946 33.393Z" fill="white"/>
<path d="M89.4572 33.6582C91.5079 34.2051 93.2604 35.5383 94.3346 37.3689C95.4087 39.1994 95.7179 41.3796 95.1951 43.4366L89.4572 33.6582Z" fill="#6AA6DA"/>
<path d="M81.6202 35.8228L89.4779 49.2155C88.8607 49.381 88.226 49.4724 87.5872 49.4878C86.854 49.5082 86.1215 49.4261 85.4111 49.2437L79.6093 39.3582C79.9658 38.027 80.6583 36.8096 81.6202 35.8228Z" fill="#6AA6DA"/>
<path d="M86.393 33.4531L93.8789 46.2094C93.5649 46.6335 93.2109 47.0264 92.8218 47.3829L84.8515 33.8005C85.3524 33.6334 85.8688 33.517 86.393 33.4531Z" fill="#6AA6DA"/>
<path d="M82.4483 35.0884L90.5219 48.8567C90.4317 48.8942 90.3341 48.9318 90.2496 48.9656L82.2211 35.2724C82.2943 35.2104 82.3713 35.1466 82.4483 35.0884Z" fill="#6AA6DA"/>
<path d="M79.3671 42.043L82.9514 48.1526C82.7497 48.0205 82.5548 47.8782 82.3675 47.7264L79.4516 42.7564C79.4103 42.5236 79.3821 42.2852 79.3671 42.043Z" fill="#6AA6DA"/>
</g>
<path d="M93.7324 40.0021C93.5612 39.1316 93.2136 38.3054 92.711 37.5744C92.4605 37.2032 92.1743 36.8574 91.8567 36.5417C91.5338 36.2269 91.1817 35.9433 90.8053 35.6949C90.044 35.2072 89.1876 34.8871 88.2931 34.7561C87.4171 34.629 86.5249 34.6704 85.6645 34.8782C86.5216 34.8928 87.3749 34.9966 88.2105 35.188C88.6175 35.2871 89.0156 35.4196 89.4008 35.5841C89.7854 35.7418 90.1538 35.9361 90.5011 36.1643C91.2044 36.6205 91.8322 37.1837 92.3618 37.8335C92.9028 38.4996 93.3629 39.2276 93.7324 40.0021Z" fill="white"/>
<path d="M30.4248 82.7019C31.7631 83.819 33.2179 84.7886 34.764 85.5939C32.6256 81.6915 33.7704 73.3731 33.9648 74.5899C34.8888 80.4051 38.3688 86.9811 39.8832 87.4179C39.8919 87.4165 39.9008 87.4165 39.9096 87.4179C44.0064 88.2411 47.8584 87.5715 51.144 86.2875C51.1457 86.2812 51.1457 86.2745 51.144 86.2683C48.3312 81.8187 49.2432 73.3419 49.4112 73.8771C51.24 79.6203 55.7928 83.2611 56.64 83.3235C60 80.9571 61.8864 78.4731 61.4664 78.1707C58.416 75.9603 56.1288 70.7307 54.1344 65.2443C52.1616 59.8323 51.4224 51.9507 48.4032 47.0163C45.6384 42.4971 39.4104 41.1603 35.64 43.0347C25.7496 47.9403 28.56 81.1515 30.4248 82.7019Z" fill="#1D375E"/>
<path d="M36.3096 42.7422C35.4875 43.0282 34.7334 43.4808 34.0944 44.0718C33.4692 44.6323 32.8979 45.2502 32.388 45.9174C31.4276 47.2452 30.6224 48.6785 29.988 50.1894C28.68 53.1678 27.9672 59.163 27.6024 62.3358C27.294 65.5203 27.294 68.7272 27.6024 71.9118C27.6648 72.7086 27.7824 73.5006 27.8712 74.295L28.2216 76.671L28.6776 79.0326L29.208 81.3798L28.836 79.0134L28.5216 76.6398L28.2552 74.2662C28.1952 73.4718 28.1064 72.6822 28.0704 71.8878C27.8358 68.7252 27.8799 65.5482 28.2024 62.3934C28.5096 59.2446 29.232 53.3022 30.4128 50.331C30.9919 48.827 31.7373 47.3925 32.6352 46.0542C33.1018 45.3763 33.6314 44.7439 34.2168 44.1654C34.5166 43.8742 34.8375 43.6055 35.1768 43.3614C35.5226 43.1016 35.9041 42.893 36.3096 42.7422Z" fill="#263238"/>
<path d="M61.9201 77.3402C61.0436 76.1996 60.2273 75.014 59.4745 73.7882C58.7089 72.5882 57.9937 71.3498 57.3481 70.0922C56.7025 68.8346 56.0977 67.5626 55.5865 66.2522C55.0753 64.9418 54.6097 63.6242 54.1177 62.309C53.1049 59.6858 52.1377 54.233 50.9521 51.6578C50.3521 50.3714 49.7257 49.0946 49.0033 47.8562C48.6374 47.2334 48.2368 46.6317 47.8033 46.0538C47.3771 45.4419 46.8298 44.924 46.1953 44.5322C46.7848 44.9643 47.2851 45.5062 47.6689 46.1282C48.0604 46.7206 48.4186 47.3344 48.7417 47.9666C49.4041 49.2194 49.9777 50.5058 50.5225 51.8066C51.6145 54.3986 52.5817 59.8418 53.5513 62.4746C54.0601 63.7874 54.5377 65.1002 55.0753 66.413C55.6141 67.7308 56.2353 69.0133 56.9353 70.253C58.3352 72.7891 60.0066 75.1654 61.9201 77.3402Z" fill="#1D375E"/>
<path d="M38.1408 75.2593C40.7232 81.0601 50.8272 99.7393 57.0624 100.863C61.1424 101.597 77.4984 99.4225 80.184 95.4361C81.3552 93.7009 78.8496 81.9961 76.68 82.5313C74.5104 83.0665 61.4184 85.2889 59.7864 84.8785C58.1544 84.4681 45.5472 70.9585 40.9008 67.6657C32.88 61.9801 36.7512 72.1369 38.1408 75.2593Z" fill="#EB9481"/>
<path d="M70.4079 82.3156C71.046 82.0969 71.7238 82.5463 71.7612 83.2198L72.6226 98.715C72.6498 99.2047 72.3206 99.6402 71.8395 99.7357C68.8982 100.32 58.8952 102.107 54.1178 100.457C47.2754 98.0933 37.2602 76.8965 35.8778 73.4117C33.6266 67.6925 34.2506 64.2317 37.4402 65.0765C38.6786 65.3957 40.3202 66.3725 42.3074 68.1317C44.3978 69.9653 56.405 81.8621 60.1946 84.1085C61.835 85.0776 67.7707 83.2193 70.4079 82.3156Z" fill="#FFE9A9"/>
<path d="M64.7616 96.5474C64.4142 96.6718 64.0862 96.8448 63.7872 97.061C64.1543 97.032 64.5155 96.9512 64.86 96.821C65.2076 96.6983 65.5358 96.5261 65.8344 96.3098C65.4672 96.3366 65.1058 96.4167 64.7616 96.5474ZM55.032 82.6418C54.685 82.7644 54.3576 82.9366 54.06 83.153C54.7963 83.084 55.5015 82.8225 56.1048 82.3946C55.7371 82.4248 55.3758 82.5081 55.032 82.6418ZM45.216 74.2418C44.8686 74.3662 44.5406 74.5392 44.2416 74.7554C44.9786 74.6859 45.6844 74.4245 46.2888 73.997C45.9215 74.0265 45.5603 74.1081 45.216 74.2394V74.2418ZM52.3512 93.2738C52.0037 93.3969 51.6755 93.569 51.3768 93.785C52.1131 93.716 52.8183 93.4545 53.4216 93.0266C53.0548 93.0557 52.6942 93.1382 52.3512 93.2714V93.2738ZM63.7704 86.4506C63.4228 86.5745 63.0947 86.7475 62.796 86.9642C63.1631 86.9352 63.5243 86.8544 63.8688 86.7242C64.2164 86.6015 64.5446 86.4293 64.8432 86.213C64.4761 86.239 64.1147 86.3183 63.7704 86.4482V86.4506ZM46.6224 83.3546C46.2799 83.4801 45.9568 83.653 45.6624 83.8682C46.0295 83.8392 46.3907 83.7584 46.7352 83.6282C47.0781 83.5037 47.4013 83.3307 47.6952 83.1146C47.3282 83.1429 46.967 83.2228 46.6224 83.3522V83.3546ZM72.3024 93.1298C72.2616 92.9666 72.2088 92.8058 72.1536 92.6498C72.0292 92.3024 71.8563 91.9744 71.64 91.6754C71.6679 92.0427 71.7487 92.4041 71.88 92.7482C71.9907 93.058 72.139 93.353 72.3216 93.6266L72.3024 93.1298ZM58.7352 94.1162C58.6116 93.7689 58.4395 93.4409 58.224 93.1418C58.253 93.509 58.3338 93.8701 58.464 94.2146C58.5875 94.5624 58.7605 94.8906 58.9776 95.189C58.9525 94.8212 58.8741 94.459 58.7448 94.1138L58.7352 94.1162ZM50.16 78.9554C50.0355 78.6088 49.8626 78.2815 49.6464 77.9834C49.6754 78.3505 49.7562 78.7117 49.8864 79.0562C50.0097 79.4033 50.1827 79.7307 50.4 80.0282C50.3722 79.6609 50.2913 79.2996 50.16 78.9554ZM40.7064 69.6482C40.5833 69.3007 40.4112 68.9726 40.1952 68.6738C40.2642 69.4102 40.5258 70.1154 40.9536 70.7186C40.9198 70.3511 40.8325 69.9905 40.6944 69.6482H40.7064ZM54.084 98.5802C53.7541 98.4183 53.4024 98.3052 53.04 98.2442C53.3208 98.4823 53.6344 98.6787 53.9712 98.8274C54.3043 98.9856 54.6583 99.0955 55.0224 99.1538C54.7384 98.919 54.4225 98.7259 54.084 98.5802ZM65.8608 91.2962C65.5278 91.1383 65.1737 91.0292 64.8096 90.9722C65.3816 91.4416 66.0654 91.7549 66.7944 91.8818C66.5124 91.6409 66.1982 91.4405 65.8608 91.2866V91.2962ZM61.9824 101.019C61.6497 100.859 61.2956 100.749 60.9312 100.692C61.109 100.848 61.3039 100.983 61.512 101.095L62.0784 101.064L61.9824 101.019ZM52.4592 87.2066C52.1265 87.0474 51.7724 86.9374 51.408 86.8802C51.9788 87.35 52.662 87.6635 53.3904 87.7898C53.1102 87.5484 52.7965 87.3487 52.4592 87.197V87.2066ZM38.0592 74.7098C37.7265 74.5506 37.3724 74.4406 37.008 74.3834C37.2888 74.6215 37.6024 74.8179 37.9392 74.9666C38.2723 75.1248 38.6263 75.2347 38.9904 75.293C38.7113 75.0524 38.3994 74.8528 38.064 74.7002L38.0592 74.7098ZM46.9872 90.1274C46.8281 90.46 46.7189 90.8142 46.6632 91.1786C46.9009 90.8966 47.0972 90.5823 47.2464 90.245C47.4035 89.9115 47.5133 89.5577 47.5728 89.1938C47.3369 89.4731 47.1414 89.7841 46.992 90.1178L46.9872 90.1274ZM42.1872 80.2298C42.0281 80.5624 41.9189 80.9166 41.8632 81.281C42.1009 80.999 42.2972 80.6847 42.4464 80.3474C42.6035 80.0139 42.7133 79.6601 42.7728 79.2962C42.5385 79.5762 42.3439 79.8871 42.1944 80.2202L42.1872 80.2298ZM57.4632 88.1786C57.3084 88.5091 57.2009 88.8597 57.144 89.2202C57.3837 88.9401 57.581 88.6264 57.7296 88.289C57.8867 87.9555 57.9965 87.6017 58.056 87.2378C57.8168 87.5183 57.6196 87.8319 57.4704 88.169L57.4632 88.1786ZM34.7328 69.6074C34.7568 69.7394 34.7832 69.8714 34.8144 70.0082C34.9293 69.7394 35.0099 69.4572 35.0544 69.1682C34.9367 69.3016 34.8315 69.4454 34.74 69.5978L34.7328 69.6074Z" fill="white"/>
<path d="M69.4393 99.3004C69.2137 96.6892 68.6881 85.9684 68.7313 83.6428C68.7313 83.482 68.8369 83.446 68.8561 83.614C69.7153 91.4236 69.4513 96.7156 69.5401 99.2884C69.5425 99.346 69.4441 99.3604 69.4393 99.3004Z" fill="#263238"/>
<path d="M35.8872 73.409C37.2552 76.8938 47.2752 98.093 54.1272 100.455C47.5499 87.3002 40.8525 70.8441 37.0272 64.9802C36.348 64.877 35.8032 64.9922 35.4072 65.309C34.1352 66.3146 34.2576 69.2762 35.8872 73.409Z" fill="#1E437D"/>
<path d="M12.7751 100.047C12.5823 100.682 13.06 101.312 13.7235 101.311L46.6879 101.223C47.3025 101.222 47.7702 100.671 47.6726 100.065L45.9694 89.4743C45.9238 89.1908 46.0016 88.9025 46.1682 88.6686C46.8578 87.7003 48.5982 84.9108 48.1705 81.934C47.5897 77.89 40.2961 67.6372 39.6841 67.054C37.2523 64.7711 34.6808 64.3335 32.2058 65.1181C32.1292 65.1424 32.0578 65.176 31.9901 65.2194C21.8998 71.6938 14.4841 94.4209 12.7751 100.047Z" fill="#FFE9A9"/>
<path d="M15.1706 94.2936C14.9653 94.371 14.7657 94.4624 14.573 94.5672L14.501 94.7712C14.7626 94.7231 15.0196 94.6525 15.269 94.56C15.617 94.4371 15.9453 94.264 16.2434 94.0464C15.8757 94.0766 15.5144 94.1598 15.1706 94.2936ZM27.9818 71.0136C27.6393 71.1391 27.3162 71.3119 27.0218 71.5272C27.3881 71.4982 27.7485 71.4174 28.0922 71.2872C28.4402 71.1643 28.7685 70.9912 29.0666 70.7736C28.6956 70.7999 28.3303 70.8791 27.9818 71.0088V71.0136ZM44.7122 74.46C44.544 74.5435 44.3834 74.6415 44.2322 74.7528C44.4309 74.7407 44.6279 74.7085 44.8202 74.6568C44.7914 74.592 44.7506 74.5272 44.7122 74.46ZM35.5778 79.7664C35.2305 79.8899 34.9024 80.062 34.6034 80.2776C35.3403 80.2081 36.0462 79.9466 36.6506 79.5192C36.2829 79.5494 35.9216 79.6326 35.5778 79.7664ZM31.0178 93.6504C30.6703 93.7734 30.3421 93.9456 30.0434 94.1616C30.4105 94.1326 30.7717 94.0518 31.1162 93.9216C31.459 93.7971 31.7823 93.6241 32.0762 93.408C31.716 93.4382 31.362 93.5198 31.025 93.6504H31.0178ZM46.6178 83.352C46.2753 83.4774 45.9522 83.6503 45.6578 83.8656C46.0249 83.8366 46.3861 83.7558 46.7306 83.6256C47.0734 83.5011 47.3967 83.3281 47.6906 83.112C47.3251 83.1414 46.9655 83.2222 46.6226 83.352H46.6178ZM23.3522 83.9712C23.0098 84.0958 22.6867 84.2679 22.3922 84.4824C23.1285 84.4134 23.8337 84.1518 24.437 83.724C24.0669 83.7535 23.7031 83.8367 23.357 83.9712H23.3522ZM40.841 93.2712C40.4935 93.3942 40.1653 93.5664 39.8666 93.7824C40.2337 93.7534 40.5949 93.6726 40.9394 93.5424C41.2862 93.4184 41.6135 93.2455 41.9114 93.0288C41.5463 93.0576 41.1874 93.1393 40.8458 93.2712H40.841ZM31.4402 65.8368L31.3682 65.6592C31.289 65.7144 31.2122 65.772 31.1282 65.8296C31.1426 65.8656 31.1546 65.8992 31.1666 65.9352C31.2909 66.2796 31.4639 66.6045 31.6802 66.9C31.6503 66.5361 31.5695 66.1782 31.4402 65.8368ZM22.589 93.9984C22.4654 93.6511 22.2933 93.323 22.0778 93.024C22.1473 93.7609 22.4088 94.4668 22.8362 95.0712C22.8063 94.7035 22.723 94.3421 22.589 93.9984ZM35.3378 88.4472C35.2132 88.1048 35.0411 87.7817 34.8266 87.4872C34.8956 88.2235 35.1571 88.9287 35.585 89.532C35.556 89.1603 35.4727 88.7948 35.3378 88.4472ZM30.8282 76.4808C30.7037 76.1342 30.5308 75.8069 30.3146 75.5088C30.3876 76.2442 30.6488 76.9484 31.073 77.5536C31.0425 77.1862 30.96 76.825 30.8282 76.4808ZM46.4954 96.8352C46.3733 96.4872 46.2011 96.159 45.9842 95.8608C46.0132 96.2279 46.094 96.5891 46.2242 96.9336C46.3481 97.2804 46.5211 97.6077 46.7378 97.9056C46.7094 97.5389 46.6278 97.1783 46.4954 96.8352ZM40.6946 69.648C40.5715 69.3005 40.3994 68.9723 40.1834 68.6736C40.2524 69.4099 40.5139 70.1151 40.9418 70.7184C40.9119 70.3515 40.8286 69.9909 40.6946 69.648ZM27.0986 89.3904C26.7655 89.2325 26.4115 89.1234 26.0474 89.0664C26.6194 89.5357 27.3032 89.8491 28.0322 89.976C27.7496 89.7384 27.4354 89.5413 27.0986 89.3904ZM39.6914 100.961C39.8137 101.067 39.9446 101.164 40.0826 101.249H40.6538C40.348 101.108 40.0241 101.011 39.6914 100.961ZM18.8882 98.9064C18.5551 98.7482 18.2011 98.6383 17.837 98.58C18.1179 98.8197 18.4325 99.017 18.7706 99.1656C19.1032 99.323 19.4562 99.4329 19.8194 99.492C19.5393 99.2523 19.2255 99.055 18.8882 98.9064ZM40.3658 86.4528C40.0336 86.2943 39.6804 86.1844 39.317 86.1264C39.5971 86.3661 39.9108 86.5634 40.2482 86.712C40.5814 86.8693 40.9354 86.9784 41.2994 87.036C41.0174 86.7983 40.703 86.6019 40.3658 86.4528ZM38.0642 74.6928C37.7315 74.5336 37.3774 74.4236 37.013 74.3664C37.2938 74.6044 37.6074 74.8008 37.9442 74.9496C38.2773 75.1077 38.6313 75.2176 38.9954 75.276C38.7138 75.0409 38.4003 74.847 38.0642 74.7V74.6928ZM24.2546 77.9472C24.0954 78.2799 23.9854 78.634 23.9282 78.9984C24.1664 78.7168 24.3628 78.4024 24.5114 78.0648C24.6709 77.733 24.7809 77.3797 24.8378 77.016C24.5992 77.299 24.4027 77.6151 24.2546 77.9544V77.9472ZM35.381 97.2408C35.2236 97.574 35.1145 97.928 35.057 98.292C35.2935 98.017 35.4898 97.71 35.6402 97.38C35.7983 97.0469 35.9082 96.6929 35.9666 96.3288C35.73 96.6068 35.5329 96.9161 35.381 97.248V97.2408ZM42.1946 80.2128C42.0355 80.5453 41.9263 80.8996 41.8706 81.264C42.1082 80.982 42.3046 80.6676 42.4538 80.3304C42.6109 79.9968 42.7207 79.643 42.7802 79.2792C42.5421 79.5639 42.3449 79.8806 42.1946 80.22V80.2128ZM26.9666 98.232C26.8069 98.5704 26.6969 98.9301 26.6402 99.3C26.8799 99.0199 27.0772 98.7061 27.2258 98.3688C27.3831 98.0355 27.4922 97.6816 27.5498 97.3176C27.3129 97.5958 27.1166 97.906 26.9666 98.2392V98.232ZM19.2674 89.4144C19.1089 89.7474 18.999 90.1014 18.941 90.4656C19.4128 89.8951 19.7264 89.2106 19.8506 88.4808C19.6129 88.7628 19.4165 89.0771 19.2674 89.4144ZM30.1106 83.7C29.951 84.0317 29.8411 84.3851 29.7842 84.7488C30.0222 84.4679 30.2186 84.1543 30.3674 83.8176C30.5255 83.4845 30.6354 83.1305 30.6938 82.7664C30.4561 83.0484 30.2597 83.3627 30.1106 83.7ZM34.4762 70.0848C34.3166 70.4165 34.2067 70.7699 34.1498 71.1336C34.3878 70.8527 34.5842 70.5391 34.733 70.2024C34.8911 69.8693 35.001 69.5153 35.0594 69.1512C34.8211 69.4354 34.6247 69.7522 34.4762 70.092V70.0848Z" fill="white"/>
<path d="M43.5313 71.9931C44.2177 73.1355 44.9713 74.2371 45.6913 75.3531C45.4009 74.5563 45.1177 73.7595 44.8009 72.9747C44.7999 72.9717 44.8 72.9683 44.8011 72.9653C44.8023 72.9623 44.8044 72.9598 44.8072 72.9581C44.81 72.9564 44.8132 72.9558 44.8164 72.9562C44.8196 72.9566 44.8226 72.958 44.8249 72.9603C45.3288 73.9071 45.7396 74.9005 46.0513 75.9267C46.5895 76.7737 47.0706 77.6556 47.4913 78.5667C48.0076 79.6601 48.3323 80.8339 48.4513 82.0371C48.5285 83.2495 48.357 84.4648 47.9473 85.6083C47.4646 86.9209 46.8637 88.1869 46.1521 89.3907C46.0609 89.5515 45.8377 89.4027 45.9121 89.2419C46.9177 87.0963 48.0289 84.8403 47.9281 82.4091C47.8273 79.9779 46.7089 77.7891 45.6121 75.7035C44.9714 74.4323 44.2499 73.2034 43.4521 72.0243C43.4185 71.9907 43.5001 71.9403 43.5313 71.9931Z" fill="#1E437D"/>
<path d="M54.7344 98.7002L54.0144 102.73H76.3632C76.9802 102.71 77.5724 102.482 78.0438 102.084C78.5152 101.685 78.8381 101.139 78.96 100.534L79.2816 98.7002H54.7344Z" fill="#D3DBE7"/>
<path d="M52.2168 100.534L52.5408 98.7002H54.7356H56.9304L56.6064 100.534C56.4858 101.137 56.1653 101.682 55.6967 102.08C55.2281 102.479 54.6387 102.708 54.024 102.73C53.7512 102.737 53.4802 102.683 53.231 102.572C52.9818 102.46 52.7607 102.295 52.584 102.087C52.413 101.87 52.2916 101.619 52.2281 101.351C52.1647 101.083 52.1608 100.804 52.2168 100.534Z" fill="white"/>
<path d="M61.9969 69.9626L56.2201 102.73H76.3801C76.9942 102.706 77.5825 102.477 78.0505 102.079C78.5184 101.68 78.8388 101.136 78.9601 100.534L84.7369 67.7666H64.5769C63.9633 67.7782 63.3735 68.006 62.9113 68.4098C62.4371 68.8069 62.1141 69.3553 61.9969 69.9626Z" fill="#D3DBE7"/>
<path d="M59.0088 86.5153C58.2047 91.5344 57.401 96.5502 56.5551 100.311L56.5529 100.318C56.5501 100.327 56.5458 100.34 56.5402 100.357C56.5289 100.39 56.5121 100.439 56.4899 100.499C56.4456 100.62 56.3805 100.786 56.2972 100.967C56.1279 101.334 55.8941 101.74 55.6232 101.966C55.1111 102.392 54.6239 102.559 54.0419 102.58C53.7917 102.587 53.5432 102.537 53.3147 102.435C53.0868 102.333 52.8845 102.182 52.7226 101.992C52.5661 101.793 52.4548 101.563 52.3967 101.317C52.3383 101.07 52.3347 100.813 52.3862 100.565L52.0925 100.504C52.032 100.795 52.0362 101.096 52.1047 101.386C52.1732 101.675 52.3043 101.947 52.4889 102.18L52.4905 102.182L52.4922 102.184C52.6835 102.409 52.9227 102.589 53.1924 102.709C53.462 102.829 53.7553 102.888 54.0505 102.88L54.0519 102.88C54.6991 102.857 55.2506 102.666 55.8152 102.196C56.1412 101.925 56.3978 101.465 56.5697 101.092C56.6571 100.902 56.7252 100.729 56.7715 100.603C56.7947 100.54 56.8125 100.488 56.8246 100.452C56.8279 100.442 56.8308 100.434 56.8333 100.426C56.8353 100.42 56.8369 100.415 56.8383 100.411L56.8419 100.4L56.8429 100.397L56.8431 100.396L56.8432 100.395C56.8433 100.395 56.8433 100.395 56.7 100.351L56.8432 100.395C56.8446 100.391 56.8458 100.386 56.8468 100.382C57.6947 96.6127 58.5019 91.5755 59.3078 86.546C59.7855 83.5651 60.2627 80.5869 60.7477 77.8771L60.4524 77.8242C59.965 80.5472 59.4868 83.5319 59.0088 86.5153Z" fill="#1E437D"/>
<path d="M64.5792 67.7666L63.4128 74.3858H87.9552L88.7352 69.9626C88.9488 68.7506 88.1376 67.7666 86.928 67.7666H64.5792Z" fill="white"/>
<path d="M61.9968 69.9626L61.2168 74.3858H65.6064L66.3864 69.9626C66.6 68.7506 65.7912 67.7666 64.5792 67.7666C63.9656 67.7782 63.3758 68.006 62.9136 68.4098C62.4385 68.8065 62.1147 69.355 61.9968 69.9626Z" fill="#D3DBE7"/>
<path d="M81.768 80.4385C82.5888 82.7785 84.9552 85.8241 84.9816 87.6673C85.0033 88.1209 84.8786 88.5695 84.6257 88.9468C84.3729 89.3241 84.0055 89.6101 83.5776 89.7625C83.5776 89.7625 85.296 90.8593 85.044 92.5345C84.9144 93.3961 83.4216 93.9457 83.4216 93.9457C83.4216 93.9457 84.7608 94.8841 84.444 96.3601C84.192 97.5361 82.7352 97.9105 82.7352 97.9105C82.7352 97.9105 83.5992 99.4105 82.9584 100.526C81.6576 102.787 71.3928 101.698 70.2096 97.7473C69.6576 95.9065 72.1512 96.3073 72.1512 96.3073C72.1512 96.3073 68.7048 94.8673 68.8776 92.7409C69.0504 90.6145 72.2544 91.3369 72.2544 91.3369C72.2544 91.3369 68.928 89.9089 69.3264 87.7249C69.744 85.4545 72.828 86.7217 72.828 86.7217C72.828 86.7217 70.7088 84.9337 71.388 83.3329C72.5232 80.6929 76.4808 84.5857 78.7944 84.2929L80.4336 80.6929L81.768 80.4385Z" fill="#EB9481"/>
<path d="M83.4817 83.8921C82.8985 81.6097 85.9057 79.188 85.6609 76.932C85.3321 73.872 81.6529 76.452 80.4433 80.712L80.0857 84.1801L83.4817 83.8921Z" fill="#EB9481"/>
<path d="M82.5144 98.0044C82.5214 98.0044 82.5281 98.0072 82.5331 98.0121C82.538 98.0171 82.5408 98.0238 82.5408 98.0308C82.5408 98.0378 82.538 98.0445 82.5331 98.0495C82.5281 98.0544 82.5214 98.0572 82.5144 98.0572C79.0488 98.5228 75.1032 97.9708 72.0072 96.3028C71.904 96.25 71.9496 96.0628 72.0744 96.0988C75.6 97.2076 78.8088 97.9084 82.5144 98.0044Z" fill="#1E437D"/>
<path d="M83.4696 93.9724C83.5104 93.9724 83.508 94.0396 83.4696 94.0444C79.896 94.5052 75.468 93.7612 72.1248 91.4188C72.012 91.3396 71.988 91.1524 72.1248 91.234C74.4648 92.6236 80.1336 93.9028 83.4696 93.9724Z" fill="#1E437D"/>
<path d="M72.6385 86.4773C75.9289 88.5989 79.5697 89.4509 83.4385 89.7868C83.4889 89.7868 83.4769 89.8637 83.4385 89.8709C81.5041 90.2212 79.0633 89.7485 77.1985 89.2205C75.4548 88.7644 73.8616 87.8582 72.5785 86.5925C72.5113 86.5421 72.5665 86.4341 72.6385 86.4773Z" fill="#1E437D"/>
<path d="M33.8688 64.9924C33.9168 65.6164 36.1872 69.9628 38.9568 70.258C39.8592 70.3516 40.5936 65.458 40.5936 65.458L40.7328 65.11L42.6528 60.2164L37.2888 55.4788L36.5064 54.8428C36.5064 54.8428 36.072 56.2156 35.5464 57.9292C35.5224 58.0084 35.496 58.09 35.472 58.1692C35.448 58.2484 35.4072 58.3564 35.3808 58.4476C35.2992 58.702 35.2176 58.9636 35.1408 59.2252C35.0808 59.4244 35.0232 59.6164 34.968 59.8276C34.9128 60.0388 34.8552 60.2452 34.7952 60.454C34.2408 62.5396 33.852 64.7404 33.8688 64.9924Z" fill="#EB9481"/>
<path d="M35.5392 57.9218C35.8318 59.424 36.448 60.8444 37.3449 62.0844C38.2417 63.3245 39.3978 64.3544 40.7328 65.1026L42.6528 60.209L37.2888 55.4715L36.5064 54.8354C36.5064 54.8354 36.0648 56.2082 35.5392 57.9218Z" fill="#1D375E"/>
<path d="M51.1871 54.3817C49.9727 63.5209 44.3615 63.8257 42.3911 63.5617C40.6031 63.3217 34.5407 62.2777 34.8047 53.0617C35.0687 43.8457 39.7031 41.5201 43.8239 41.8513C47.9447 42.1825 52.4039 45.2401 51.1871 54.3817Z" fill="#EB9481"/>
<path d="M49.8745 53.4004C49.6749 53.3261 49.4794 53.2411 49.2889 53.146C49.0709 53.0863 48.8791 52.9553 48.7441 52.774C48.712 52.7091 48.7026 52.6352 48.7174 52.5643C48.7322 52.4934 48.7703 52.4295 48.8257 52.3828C48.9481 52.3056 49.089 52.2624 49.2337 52.2577C49.3784 52.2531 49.5217 52.2872 49.6489 52.3564C49.928 52.4575 50.1597 52.6584 50.2993 52.9204C50.3276 52.9821 50.3374 53.0507 50.3274 53.1179C50.3175 53.1851 50.2882 53.2479 50.2432 53.2987C50.1982 53.3496 50.1394 53.3863 50.0739 53.4043C50.0085 53.4224 49.9392 53.421 49.8745 53.4004Z" fill="#1D375E"/>
<path d="M43.6945 51.8305C43.9064 51.8413 44.1186 51.8413 44.3305 51.8305C44.5557 51.8599 44.7842 51.8143 44.9809 51.7009C45.0352 51.6534 45.0724 51.5894 45.0867 51.5187C45.101 51.448 45.0916 51.3746 45.0601 51.3097C44.9775 51.1904 44.8646 51.0952 44.733 51.034C44.6014 50.9728 44.4558 50.9479 44.3113 50.9617C44.0153 50.9456 43.7237 51.0396 43.4929 51.2257C43.4437 51.2715 43.4088 51.3305 43.3922 51.3956C43.3756 51.4607 43.3781 51.5292 43.3993 51.5929C43.4206 51.6567 43.4597 51.7129 43.512 51.7551C43.5644 51.7972 43.6277 51.8234 43.6945 51.8305Z" fill="#1D375E"/>
<path d="M44.6689 53.8419C44.6689 53.8155 44.6161 53.8611 44.6113 53.8875C44.5201 54.5091 44.3113 55.2051 43.7137 55.3083C43.6969 55.3083 43.6921 55.3443 43.7137 55.3443C44.4121 55.3803 44.6809 54.4443 44.6689 53.8419Z" fill="#1D375E"/>
<path d="M44.2343 53.0958C43.2551 52.8414 42.8159 54.8214 43.7255 55.0566C44.6351 55.2918 45.0551 53.3094 44.2343 53.0958Z" fill="#1D375E"/>
<path d="M43.8216 53.1147C43.6248 53.1891 43.4112 53.3547 43.2 53.3235C42.96 53.2947 42.816 53.0451 42.7032 52.8123C42.6912 52.7883 42.6696 52.8003 42.6648 52.8267C42.5736 53.2059 42.6336 53.6259 43.0296 53.7723C43.3872 53.9067 43.728 53.6307 43.908 53.2707C43.9416 53.2035 43.9032 53.0859 43.8216 53.1147Z" fill="#1D375E"/>
<path d="M48.3288 54.4205C48.3288 54.3989 48.3696 54.4613 48.3624 54.4877C48.2015 55.0949 48.1223 55.8173 48.6288 56.1461C48.6456 56.1581 48.6288 56.1869 48.6168 56.1797C47.9616 55.9229 48.0791 54.9653 48.3288 54.4205Z" fill="#1D375E"/>
<path d="M49.02 53.8992C50.0232 54.0504 49.6464 56.0424 48.72 55.9032C47.7936 55.764 48.1824 53.7744 49.02 53.8992Z" fill="#1D375E"/>
<path d="M49.4113 54.1106C49.5481 54.245 49.6681 54.4658 49.8553 54.5138C50.0425 54.5618 50.2705 54.3842 50.4481 54.2042C50.4673 54.185 50.4793 54.2042 50.4769 54.2306C50.4145 54.6146 50.2129 54.9866 49.8337 54.9914C49.4545 54.9962 49.3057 54.6218 49.2865 54.2258C49.2817 54.1514 49.3561 54.0554 49.4113 54.1106Z" fill="#1D375E"/>
<path d="M43.692 59.1267C43.8 59.3067 43.8912 59.5419 44.1072 59.6067C44.3334 59.6626 44.5688 59.6708 44.7984 59.6307C44.8034 59.6289 44.8089 59.629 44.8138 59.6309C44.8188 59.6329 44.8228 59.6366 44.8252 59.6413C44.8276 59.6461 44.8281 59.6516 44.8267 59.6567C44.8253 59.6618 44.8221 59.6662 44.8176 59.6691C44.6984 59.7645 44.5557 59.826 44.4045 59.8471C44.2533 59.8682 44.0992 59.8482 43.9584 59.7891C43.8433 59.7245 43.7502 59.6268 43.6911 59.5088C43.6321 59.3907 43.6098 59.2576 43.6272 59.1267C43.6272 59.1003 43.68 59.1003 43.692 59.1267Z" fill="#1D375E"/>
<path d="M46.7256 57.4421C46.7256 57.4421 46.6608 58.3853 46.5696 58.8197C46.5696 58.8605 46.452 58.8557 46.3032 58.8341C46.3007 58.8358 46.2978 58.8368 46.2948 58.8368C46.2917 58.8368 46.2888 58.8358 46.2864 58.8341C45.9008 58.8237 45.5254 58.7076 45.2013 58.4985C44.8771 58.2895 44.6165 57.9954 44.448 57.6485C44.4432 57.6384 44.4423 57.6269 44.4455 57.6162C44.4486 57.6055 44.4556 57.5963 44.465 57.5904C44.4745 57.5845 44.4858 57.5822 44.4968 57.5841C44.5078 57.5859 44.5178 57.5918 44.5248 57.6005C44.9978 58.0945 45.6186 58.4213 46.2936 58.5317C46.3488 58.4189 46.3488 56.9117 46.4184 56.9213C46.7492 57.0203 47.0649 57.164 47.3568 57.3485C47.5488 55.3853 47.424 53.4077 47.6448 51.4565C47.6448 51.4406 47.6511 51.4253 47.6623 51.4141C47.6736 51.4028 47.6889 51.3965 47.7048 51.3965C47.7207 51.3965 47.7359 51.4028 47.7472 51.4141C47.7584 51.4253 47.7648 51.4406 47.7648 51.4565C48.0408 53.5205 47.868 55.7765 47.7216 57.8165C47.7072 58.0637 46.884 57.5525 46.7256 57.4421Z" fill="#1D375E"/>
<path d="M35.4481 53.1796C37.5601 53.6116 38.1937 50.2732 38.1937 50.2732C38.1937 50.2732 40.6345 50.5132 41.5657 46.6852C41.5657 46.6852 42.2641 49.2484 45.4225 50.3572C46.0921 50.5972 44.1313 48.358 44.1313 48.358C44.1313 48.358 46.4089 51.3988 51.7273 51.4492C52.1017 51.4492 52.8145 45.8596 49.1497 43.2292C45.4849 40.5988 41.2297 40.9684 38.2321 43.0228C38.2321 43.0228 35.3521 44.0356 34.4809 46.7644C33.6097 49.4932 34.6273 53.0116 35.4481 53.1796Z" fill="#1D375E"/>
<path d="M42.48 57.3483C41.9285 57.1941 41.4314 56.8883 41.0451 56.4657C40.6589 56.043 40.3989 55.5205 40.2949 54.9574C40.1908 54.3944 40.2468 53.8135 40.4565 53.2807C40.6662 52.7479 41.0212 52.2846 41.481 51.9435C41.9409 51.6024 42.4873 51.3972 43.058 51.3512C43.6288 51.3052 44.2009 51.4202 44.7095 51.6833C45.2181 51.9463 45.6427 52.3467 45.935 52.8391C46.2274 53.3314 46.3757 53.8959 46.3632 54.4683C46.3424 55.277 46.0028 56.0446 45.4183 56.6039C44.8338 57.1632 44.052 57.4687 43.2432 57.4539C42.9853 57.4517 42.7288 57.4162 42.48 57.3483ZM44.0184 51.8475C43.4888 51.7008 42.9267 51.7231 42.4104 51.9111C41.894 52.0991 41.4493 52.4436 41.138 52.8964C40.8268 53.3493 40.6646 53.888 40.6741 54.4374C40.6836 54.9868 40.8643 55.5195 41.191 55.9614C41.5177 56.4032 41.9742 56.732 42.4967 56.9021C43.0192 57.0722 43.5817 57.075 44.1059 56.9101C44.6301 56.7452 45.0897 56.4209 45.4208 55.9823C45.7519 55.5437 45.9378 55.0128 45.9528 54.4635C45.9651 53.8759 45.7827 53.3008 45.4342 52.8277C45.0856 52.3545 44.5904 52.0099 44.0256 51.8475H44.0184Z" fill="#1E437D"/>
<path d="M49.4401 58.3993C48.3145 58.0849 47.6137 56.6449 47.8609 55.0681C47.9627 54.3131 48.2984 53.609 48.8209 53.0545C49.0321 52.8039 49.3044 52.6119 49.6115 52.4973C49.9186 52.3826 50.2501 52.3492 50.574 52.4001C50.8978 52.451 51.203 52.5846 51.4601 52.7879C51.7172 52.9913 51.9175 53.2575 52.0416 53.5609C52.3731 54.2482 52.4805 55.0221 52.3488 55.7737C52.0872 57.4393 50.8657 58.6369 49.6249 58.4425C49.5623 58.4324 49.5006 58.418 49.4401 58.3993ZM50.6736 52.8361C50.6241 52.8212 50.5736 52.81 50.5224 52.8025C50.2627 52.7743 50 52.8086 49.7562 52.9025C49.5124 52.9965 49.2945 53.1473 49.1209 53.3425C48.6568 53.8353 48.3573 54.4601 48.2641 55.1305C48.0385 56.5705 48.6793 57.8785 49.7041 58.0393C50.7289 58.2001 51.7344 57.1537 51.9624 55.7113C52.0797 55.0443 51.9866 54.3574 51.696 53.7457C51.5977 53.5296 51.4547 53.3368 51.2764 53.18C51.0981 53.0232 50.8886 52.906 50.6616 52.8361H50.6736Z" fill="#1E437D"/>
<path d="M46.2145 54.8067L46.0033 54.4563C46.5217 54.1419 47.6617 53.7915 48.2761 54.6963L47.9377 54.9363C47.3881 54.1155 46.2625 54.7779 46.2145 54.8067Z" fill="#1E437D"/>
<path d="M32.6257 53.4601L32.2969 53.2201C32.4097 53.0665 33.4249 51.7177 34.3513 51.7129C35.2153 51.7129 40.5505 53.0689 40.7785 53.1265L40.6753 53.5225C39.1465 53.1313 35.0209 52.1185 34.3537 52.1209C33.7417 52.1329 32.8993 53.0977 32.6257 53.4601Z" fill="#1E437D"/>
<path d="M36.1658 53.9575C36.1658 53.9575 34.8242 50.7103 33.3938 51.1279C31.9634 51.5455 32.5346 55.9471 33.9074 56.8375C34.0756 56.9638 34.2677 57.0547 34.4721 57.1048C34.6764 57.155 34.8888 57.1632 35.0964 57.1292C35.304 57.0951 35.5026 57.0194 35.6802 56.9065C35.8578 56.7937 36.0107 56.6462 36.1298 56.4727L36.1658 53.9575Z" fill="#EB9481"/>
<path d="M33.6 52.3851C33.5953 52.3843 33.5904 52.3851 33.5862 52.3874C33.5819 52.3897 33.5786 52.3933 33.5766 52.3977C33.5747 52.4021 33.5743 52.4071 33.5755 52.4117C33.5767 52.4164 33.5794 52.4205 33.5832 52.4235C34.5432 53.0835 34.8744 54.1779 35.0352 55.2723C34.8096 54.8163 34.4328 54.5091 33.8352 54.7635C33.8291 54.7671 33.8243 54.7726 33.8215 54.7792C33.8187 54.7857 33.818 54.793 33.8196 54.7999C33.8212 54.8069 33.825 54.8131 33.8304 54.8178C33.8358 54.8225 33.8425 54.8253 33.8496 54.8259C34.0476 54.8079 34.2463 54.8518 34.4182 54.9515C34.5902 55.0512 34.727 55.2019 34.8096 55.3827C34.9478 55.6845 35.0517 56.0009 35.1192 56.3259C35.148 56.4291 35.328 56.4171 35.316 56.3019C35.316 56.3019 35.316 56.2851 35.316 56.2755C35.6208 54.9435 34.9968 52.8387 33.6 52.3851Z" fill="#1D375E"/>
<path d="M41.281 66.5995C40.9641 66.1858 40.3122 66.3032 40.1595 66.8015L39.6808 68.3638C39.4696 69.0533 38.6201 69.2993 38.0731 68.8294L34.5559 65.8082C34.1132 65.4279 33.4403 65.5059 33.0964 65.9774L32.87 66.2879C32.6142 66.6385 32.6113 67.1105 32.8673 67.461C34.0352 69.0597 37.2454 73.4337 37.9501 74.1759C38.0333 74.2635 38.11 74.2127 38.1527 74.0997L39.03 71.7775C39.2436 71.212 39.9528 71.0284 40.414 71.4192C41.0199 71.9325 41.9413 71.4381 41.8485 70.6493L41.4087 66.9143C41.3952 66.7998 41.3511 66.691 41.281 66.5995Z" fill="#FFE9A9"/>
<path d="M41.9136 69.8112C41.7624 68.8056 41.6376 67.788 41.4336 66.7896C41.4336 66.756 41.3688 66.744 41.364 66.7896C41.244 67.7832 41.844 71.6256 41.9208 72.5496C41.8104 72.4512 39.492 70.5912 39.4728 70.6296C39.156 71.2176 38.1408 73.8792 38.076 74.1192C37.1832 72.8856 33.4248 68.04 32.3928 66.8904C32.3902 66.8866 32.387 66.8834 32.3832 66.8809C32.3794 66.8783 32.3752 66.8766 32.3707 66.8757C32.3663 66.8748 32.3617 66.8748 32.3572 66.8757C32.3528 66.8766 32.3485 66.8783 32.3448 66.8808C32.341 66.8834 32.3377 66.8866 32.3352 66.8904C32.3327 66.8941 32.3309 66.8984 32.33 66.9028C32.3291 66.9073 32.3291 66.9119 32.33 66.9164C32.3309 66.9208 32.3326 66.925 32.3352 66.9288C33.144 68.244 38.0136 74.6448 38.0712 74.6232C38.6179 73.3619 39.0985 72.073 39.5112 70.7616C39.912 71.1744 42.2736 73.2984 42.2688 73.1472C42.2098 72.0297 42.0912 70.9161 41.9136 69.8112Z" fill="#1E437D"/>
<path d="M32.0449 73.6206C29.9089 82.8222 23.8585 93.1157 20.0281 96.1421C17.6953 97.9829 10.2289 97.9997 9.89525 93.1686C9.56165 88.3374 24.2209 73.1958 26.3785 70.251C28.5361 67.3062 33.9745 65.319 32.0449 73.6206Z" fill="#EB9481"/>
<path d="M32.0449 73.6206C29.9089 82.8222 23.8585 93.1157 20.0281 96.1421C17.6953 97.9829 10.2289 97.9997 9.89525 93.1686C9.56165 88.3374 24.2209 73.1958 26.3785 70.251C28.5361 67.3062 33.9745 65.319 32.0449 73.6206Z" fill="#FFE9A9"/>
<path d="M15.1704 94.2939C14.828 94.4194 14.5048 94.5923 14.2104 94.8075C14.5768 94.7785 14.9371 94.6977 15.2808 94.5675C15.6288 94.4446 15.9571 94.2716 16.2552 94.0539C15.8838 94.0806 15.5184 94.1615 15.1704 94.2939ZM27.9816 71.0139C27.6392 71.1394 27.316 71.3123 27.0216 71.5275C27.388 71.4985 27.7483 71.4177 28.092 71.2875C28.44 71.1646 28.7683 70.9916 29.0664 70.7739C28.6954 70.8003 28.3302 70.8795 27.9816 71.0091V71.0139ZM23.3568 83.9739C23.0144 84.0985 22.6913 84.2706 22.3968 84.4851C23.1331 84.4161 23.8384 84.1546 24.4416 83.7267C24.07 83.755 23.7045 83.8375 23.3568 83.9715V83.9739ZM19.7016 79.8603C19.5823 79.51 19.4134 79.1787 19.2 78.8763C19.229 79.2434 19.3098 79.6046 19.44 79.9491C19.5635 80.2969 19.7365 80.6251 19.9536 80.9235C19.9201 80.559 19.8353 80.2011 19.7016 79.8603ZM13.7352 89.0163C13.6108 88.6689 13.4379 88.3409 13.2216 88.0419C13.2911 88.7789 13.5526 89.4848 13.98 90.0891C13.9495 89.7217 13.8671 89.3606 13.7352 89.0163ZM22.08 93.0243C22.1003 93.3154 22.1584 93.6026 22.2528 93.8787L22.4424 93.6387C22.3445 93.4212 22.223 93.2152 22.08 93.0243ZM30.8304 76.4811C30.706 76.1345 30.533 75.8072 30.3168 75.5091C30.3447 75.8756 30.4255 76.2362 30.5568 76.5795C30.6619 76.8717 30.7995 77.151 30.9672 77.4123C30.9864 77.3499 31.008 77.2899 31.0272 77.2275C30.9818 76.9736 30.9152 76.7239 30.828 76.4811H30.8304ZM17.2032 84.1803C16.87 84.023 16.516 83.9139 16.152 83.8563C16.4328 84.0943 16.7465 84.2908 17.0832 84.4395C17.4163 84.5977 17.7703 84.7076 18.1344 84.7659C17.8527 84.5284 17.5393 84.3313 17.2032 84.1803ZM24.2544 77.9403C24.0952 78.273 23.9852 78.6271 23.928 78.9915C24.1662 78.7099 24.3627 78.3955 24.5112 78.0579C24.6707 77.7262 24.7807 77.3728 24.8376 77.0091C24.5984 77.2944 24.4019 77.6129 24.2544 77.9547V77.9403ZM19.2672 89.4147C19.1087 89.7477 18.9988 90.1017 18.9408 90.4659C19.4126 89.8954 19.7263 89.211 19.8504 88.4811C19.6127 88.7631 19.4164 89.0774 19.2672 89.4147ZM10.0656 92.6355C10.0032 92.7771 9.94321 92.9211 9.89281 93.0699C9.89038 93.1019 9.89038 93.134 9.89281 93.1659C9.89281 93.2643 9.90961 93.3627 9.92161 93.4563C10.0754 93.2345 10.2088 92.9991 10.32 92.7531C10.4774 92.4197 10.5873 92.0659 10.6464 91.7019C10.409 91.9836 10.2134 92.2981 10.0656 92.6355Z" fill="white"/>
<path d="M13.572 96.8428C14.5778 97.0056 15.6028 97.0113 16.6104 96.8596C17.5971 96.6992 18.5463 96.3601 19.4112 95.8588C21.24 94.8076 22.464 93.0268 23.5512 91.2748C24.7432 89.3548 25.8632 87.3884 26.9112 85.3756C27.9552 83.3668 28.9128 81.3124 29.8368 79.246C30.3048 78.2044 30.7296 77.1484 31.1736 76.0972C31.6176 75.046 32.0376 74.0068 32.424 72.9436C32.5224 72.6748 32.6136 72.406 32.7072 72.1372C32.7088 72.1321 32.7123 72.1278 32.7171 72.1253C32.7218 72.1229 32.7273 72.1224 32.7324 72.124C32.7375 72.1256 32.7417 72.1291 32.7442 72.1338C32.7467 72.1386 32.7472 72.1441 32.7456 72.1492C32.4 73.2484 32.0712 74.3596 31.6992 75.4492C31.6512 75.5908 31.5984 75.7324 31.548 75.874C31.9344 75.0508 32.3304 74.2324 32.748 73.4236C32.772 73.3756 32.8392 73.4236 32.82 73.4668C32.4504 74.3068 32.0664 75.1468 31.6728 75.9652C31.4776 76.3732 31.2816 76.7796 31.0848 77.1844C30.8976 77.6884 30.7032 78.1948 30.504 78.6964C29.6448 80.8468 28.6896 82.9516 27.6384 85.0108C26.5872 87.07 25.4544 89.0868 24.24 91.0612C23.1288 92.878 21.936 94.7452 20.1384 95.9572C18.4166 97.1138 16.3059 97.5394 14.2704 97.1404C14.0259 97.0882 13.7854 97.0193 13.5504 96.934C13.5406 96.9292 13.5327 96.9212 13.528 96.9114C13.5233 96.9015 13.5221 96.8903 13.5246 96.8797C13.5271 96.8691 13.5332 96.8596 13.5418 96.8529C13.5504 96.8462 13.5611 96.8426 13.572 96.8428Z" fill="#1E437D"/>
<path d="M17.1432 59.9115C18.6672 56.2035 21.1392 51.1179 22.8 50.3403C24.5472 49.5315 30.804 46.9395 32.4528 46.8075C34.1016 46.6755 39.948 48.3843 41.004 49.4211C41.8464 50.2515 40.3848 52.2291 37.0536 51.9459C33.9336 51.6795 33.2136 51.4659 32.3088 51.6027C31.404 51.7395 28.728 53.8995 28.9632 55.2195C29.1024 55.9947 30.9144 57.3315 32.3232 57.0891C33.732 56.8467 34.5792 55.4691 36.3192 54.6651C38.0592 53.8611 40.5552 54.6651 40.524 55.3851C40.4928 56.1051 39.564 56.2107 37.6776 58.2027C36.4584 59.4819 35.58 62.0235 33.024 64.1091C31.74 65.1555 29.1984 68.1699 29.1984 68.1699L17.1432 59.9115Z" fill="#EB9481"/>
<path d="M22.8 50.3405C24.5184 48.7349 28.5385 46.0781 31.9441 45.6893C34.2457 45.4229 40.5505 50.7917 39.9841 52.1141C39.4177 53.4365 38.1889 53.1269 36.4201 52.4405C35.7769 52.2005 32.5801 50.0237 31.8001 50.6069C30.6673 51.4445 28.6416 54.7829 28.6416 54.7829L22.8 50.3405Z" fill="#EB9481"/>
<path d="M39.9481 51.5402C39.4369 49.8362 37.6825 48.545 35.8945 47.4218C35.8657 47.4026 35.8369 47.4458 35.8657 47.4626C36.3193 47.7506 39.1177 50.0282 39.9193 51.557C39.9289 51.5738 39.9529 51.557 39.9481 51.5402Z" fill="#1D375E"/>
<path d="M22.8 50.3405C24.5184 48.7349 28.5385 46.0781 31.9441 45.6893C34.2457 45.4229 38.7913 51.3845 38.2273 52.7093C37.6633 54.0341 35.8633 53.6861 34.0849 52.5029C33.5089 52.1189 31.7737 50.0837 30.9865 50.6645C29.8513 51.5021 27.0768 53.5925 27.0768 53.5925L22.8 50.3405Z" fill="#EB9481"/>
<path d="M28.709 52.2846C28.9826 52.0446 29.0786 51.9438 29.357 51.6966C29.6354 51.4494 29.9162 51.2166 30.2114 50.9766C30.453 50.7589 30.7308 50.5851 31.0322 50.463C31.3328 50.3798 31.6523 50.3975 31.9418 50.5134C32.6042 50.7534 33.1058 51.339 33.5954 51.819C34.1426 52.3518 35.321 53.2926 36.3698 53.4462C36.6531 53.5062 36.9458 53.5062 37.229 53.4462C37.4421 53.4085 37.6424 53.3187 37.8122 53.1846C38.4458 52.5486 38.1146 51.5502 37.7066 50.7846C36.9434 49.383 35.7386 48.1998 34.5386 47.1846C34.2434 46.9326 33.941 46.6878 33.641 46.443C33.3116 46.1383 32.9203 45.9083 32.4938 45.7686C31.7858 45.5814 30.4394 46.0086 30.0242 46.1286C29.993 46.1286 29.9834 46.0878 30.0242 46.0782C30.5282 45.9174 31.8362 45.3126 32.9642 45.6654C33.377 45.795 33.713 46.1094 34.0514 46.371C34.3898 46.6326 34.7522 46.9326 35.0906 47.2278C35.7543 47.795 36.3722 48.4138 36.9386 49.0782C37.469 49.7094 38.0234 50.4294 38.2874 51.2214C38.5274 51.9078 38.417 52.7718 37.8866 53.2926C37.4402 53.7318 36.7418 53.6862 36.425 53.6478C36.1156 53.6085 35.8129 53.5278 35.525 53.4078C34.8957 53.093 34.2901 52.7328 33.713 52.3302C33.1562 51.9246 32.705 51.3702 32.117 51.0054C31.98 50.9146 31.8261 50.8521 31.6646 50.8216C31.503 50.7911 31.337 50.7932 31.1762 50.8278C30.8702 50.935 30.5821 51.088 30.3218 51.2814C29.7872 51.5904 29.2826 51.9488 28.8146 52.3518C28.6778 52.4574 28.5938 52.3902 28.709 52.2846Z" fill="#1D375E"/>
<path d="M21.4656 51.7807C22.1496 50.9839 23.8656 47.4127 24.8976 46.4455C25.9296 45.4783 30.2688 42.3415 31.7736 42.9127C33.6648 43.6327 30.732 46.6183 29.34 47.7991C27.948 48.9799 27.4896 51.4831 27.4896 51.4831L21.4656 51.7807Z" fill="#EB9481"/>
<path d="M31.3778 45.78C30.8978 46.1448 30.4466 46.5696 30.005 46.98C29.5635 47.3492 29.1495 47.7503 28.7666 48.18C28.4213 48.6344 28.1536 49.1429 27.9746 49.6848C27.8786 49.9488 27.8018 50.2176 27.7346 50.4888C27.6674 50.76 27.605 51.0912 27.521 51.384C27.521 51.4152 27.5594 51.4344 27.569 51.4008C27.7445 50.868 27.9537 50.347 28.1954 49.8408C28.4354 49.3126 28.7384 48.8154 29.0978 48.36C29.8178 47.4576 30.7154 46.7208 31.4402 45.8232C31.4666 45.7944 31.4138 45.7536 31.3778 45.78Z" fill="#1D375E"/>
<path d="M31.6151 57.0846C32.2605 57.1221 32.8954 56.9079 33.3863 56.487C33.8471 56.1414 34.2863 55.767 34.7495 55.4238C35.1968 55.0636 35.694 54.7702 36.2255 54.5526C36.8395 54.3586 37.4777 54.2519 38.1215 54.2358C38.7422 54.1695 39.3696 54.2612 39.9455 54.5022C40.4111 54.723 40.9055 55.2054 40.6487 55.7718C40.5189 56.0259 40.3413 56.2524 40.1255 56.439C39.9232 56.6312 39.7065 56.8077 39.4775 56.967C39.0191 57.2958 38.5319 57.591 38.1047 57.9654C37.5359 58.4646 37.1447 59.1438 36.7271 59.7702C36.5711 60.0102 35.5751 61.5798 35.1959 62.115C34.8778 62.5709 34.5204 62.9981 34.1279 63.3918C33.7393 63.7487 33.3298 64.0821 32.9015 64.3902C32.4339 64.7231 32.0049 65.1071 31.6223 65.535C31.6055 65.5566 31.5767 65.535 31.5887 65.5062C32.0687 64.623 32.9471 64.0302 33.7487 63.4446C34.7735 62.6862 37.0487 58.7694 37.4615 58.2366C38.1479 57.351 39.1895 56.9262 39.9719 56.1558C40.1519 55.9782 40.4279 55.7262 40.4231 55.4478C40.4008 55.3154 40.345 55.191 40.261 55.0864C40.1769 54.9818 40.0675 54.9004 39.9431 54.8502C39.4055 54.5646 38.7431 54.5838 38.1575 54.6414C37.5417 54.6723 36.9314 54.773 36.3383 54.9414C35.8209 55.1272 35.3315 55.3831 34.8839 55.7022C34.3703 56.0574 33.8783 56.4222 33.3383 56.7438C32.8258 57.0807 32.2079 57.219 31.6007 57.1326C31.5719 57.1254 31.5863 57.0822 31.6151 57.0846Z" fill="#1D375E"/>
<path d="M40.0296 48.9458C39.6192 48.7442 39.2112 48.5258 38.7936 48.3362C38.7936 48.3362 38.7936 48.3122 38.7936 48.317C39.288 48.5138 39.7968 48.677 40.2936 48.869C40.6872 49.0202 41.0928 49.241 41.2536 49.6538C41.3166 49.8471 41.3277 50.0536 41.2855 50.2524C41.2434 50.4513 41.1496 50.6356 41.0136 50.7866C40.7086 51.1061 40.3387 51.3565 39.9288 51.521C39.9072 51.533 39.8904 51.4994 39.912 51.4874C40.5096 51.1418 41.436 50.4458 40.9488 49.6514C40.7143 49.335 40.3959 49.0905 40.0296 48.9458Z" fill="#1D375E"/>
<path d="M38.0305 52.9274C38.4985 52.9418 39.0169 52.9274 39.4321 52.6874C39.5715 52.6107 39.6905 52.5019 39.7794 52.3701C39.8683 52.2382 39.9245 52.087 39.9433 51.929C39.9684 51.8144 39.9522 51.6946 39.8977 51.5906C39.8785 51.5666 39.9241 51.545 39.9313 51.5738C39.9522 51.6362 39.977 51.6971 40.0057 51.7562C40.0234 51.8092 40.0355 51.8639 40.0417 51.9194C40.0535 52.0297 40.0445 52.1412 40.0153 52.2482C39.9463 52.4812 39.7999 52.6836 39.6001 52.8218C39.1321 53.1578 38.5513 53.1266 38.0233 52.9706C38.0017 52.961 38.0065 52.9274 38.0305 52.9274Z" fill="#1E437D"/>
<path d="M29.1937 68.1747C28.1713 71.8635 20.4001 91.5363 18.2401 94.3131C16.0801 97.0899 10.8265 97.6875 9.36011 92.6691C7.89371 87.6507 15.5281 63.6651 17.1409 59.9115C18.0409 57.8235 29.5609 66.8379 29.1937 68.1747Z" fill="#EB9481"/>
<path d="M30.5476 71.4643C30.748 71.0015 30.5654 70.4715 30.1292 70.2185L16.7476 62.4579C16.1859 62.1321 15.4721 62.4075 15.2943 63.032C13.9404 67.786 9.10384 85.1597 9.00479 91.0926C8.92079 96.0438 14.856 99.7446 19.5456 93.051C23.5998 87.2643 29.1249 74.7493 30.5476 71.4643Z" fill="#FFE9A9"/>
<path d="M16.1089 62.1006C15.8814 62.3757 15.6918 62.68 15.5449 63.0054C15.3875 63.3386 15.2784 63.6926 15.2209 64.0566C15.4589 63.7757 15.6553 63.4621 15.8041 63.1254C15.9578 62.8002 16.066 62.4553 16.1257 62.1006H16.1089ZM11.1937 83.4366C11.0363 83.7698 10.9272 84.1238 10.8697 84.4878C11.1077 84.2069 11.3041 83.8933 11.4529 83.5566C11.6115 83.2219 11.7214 82.8664 11.7793 82.5006C11.5419 82.7841 11.3448 83.0991 11.1937 83.4366ZM10.0657 92.6358C9.90719 92.9688 9.79727 93.3228 9.73926 93.687C9.97664 93.4053 10.1722 93.0908 10.3201 92.7534C10.4775 92.42 10.5873 92.0661 10.6465 91.7022C10.4091 91.9839 10.2135 92.2983 10.0657 92.6358ZM19.2673 89.415C19.1088 89.748 18.9989 90.102 18.9409 90.4662C19.4127 89.8957 19.7263 89.2112 19.8505 88.4814C19.6128 88.7634 19.4164 89.0777 19.2673 89.415ZM24.3937 66.9006C24.3937 66.9222 24.3937 66.9462 24.3937 66.9678L24.4345 66.9174L24.3937 66.9006ZM24.2545 77.9622C24.0952 78.2949 23.9853 78.649 23.9281 79.0134C24.1663 78.7318 24.3627 78.4174 24.5113 78.0798C24.6708 77.748 24.7808 77.3947 24.8377 77.031C24.6002 77.3096 24.4038 77.6208 24.2545 77.955V77.9622ZM17.2225 75.4566C17.0636 75.7869 16.9536 76.1386 16.8961 76.5006C17.3654 75.9285 17.6788 75.2448 17.8057 74.5158C17.568 74.7978 17.3716 75.1121 17.2225 75.4494V75.4566ZM22.4449 72.8046C22.1117 72.6464 21.7578 72.5365 21.3937 72.4782C21.6738 72.7179 21.9875 72.9152 22.3249 73.0638C22.6585 73.2187 23.0124 73.3253 23.3761 73.3806C23.0949 73.143 22.7814 72.9466 22.4449 72.7974V72.8046ZM17.2033 84.1806C16.87 84.0232 16.5161 83.9141 16.1521 83.8566C16.4329 84.0946 16.7465 84.291 17.0833 84.4398C17.4164 84.5979 17.7703 84.7079 18.1345 84.7662C17.8528 84.5287 17.5394 84.3316 17.2033 84.1806ZM14.9233 70.1214C14.5904 69.9627 14.2363 69.8527 13.8721 69.795C14.4426 70.2668 15.127 70.5805 15.8569 70.7046C15.5743 70.4703 15.26 70.2772 14.9233 70.131V70.1214ZM13.7233 89.007C13.5988 88.6596 13.4259 88.3316 13.2097 88.0326C13.2791 88.7696 13.5406 89.4754 13.9681 90.0798C13.9405 89.7162 13.8621 89.3584 13.7353 89.0166L13.7233 89.007ZM19.7017 79.8606C19.5823 79.5103 19.4134 79.1789 19.2001 78.8766C19.2291 79.2437 19.3099 79.6049 19.4401 79.9494C19.5635 80.2972 19.7365 80.6254 19.9537 80.9238C19.9202 80.5593 19.8353 80.2013 19.7017 79.8606ZM23.3569 83.9814C23.0145 84.106 22.6913 84.2781 22.3969 84.4926C23.1332 84.4236 23.8384 84.162 24.4417 83.7342C24.0704 83.7601 23.705 83.8402 23.3569 83.9718V83.9814ZM13.1713 78.6294C12.8284 78.7539 12.5051 78.9269 12.2113 79.143C12.5782 79.1128 12.9392 79.0321 13.2841 78.903C13.6269 78.7785 13.9502 78.6055 14.2441 78.3894C13.8768 78.4173 13.5154 78.4981 13.1713 78.6294ZM19.1401 67.4382C18.7927 67.5626 18.4646 67.7355 18.1657 67.9518C18.5328 67.9228 18.894 67.842 19.2385 67.7118C19.5863 67.5883 19.9144 67.4153 20.2129 67.1982C19.8457 67.2269 19.4845 67.3077 19.1401 67.4382ZM27.9817 71.0094C27.6392 71.1349 27.3161 71.3077 27.0217 71.523C27.388 71.494 27.7484 71.4132 28.0921 71.283C28.4401 71.1601 28.7684 70.987 29.0665 70.7694C28.6953 70.7973 28.33 70.8781 27.9817 71.0094ZM15.1705 94.2894C14.828 94.4149 14.5049 94.5877 14.2105 94.803C14.5768 94.774 14.9372 94.6932 15.2809 94.563C15.6289 94.4401 15.9572 94.267 16.2553 94.0494C15.8837 94.0776 15.5182 94.1601 15.1705 94.2942V94.2894Z" fill="white"/>
<path d="M28.8001 73.3803C26.4913 72.1395 17.2225 66.7251 15.3001 65.4195C15.1657 65.3283 15.1921 65.2203 15.3433 65.2971C22.3609 68.8395 26.6401 71.9403 28.8529 73.2819C28.9081 73.3155 28.8673 73.4067 28.8001 73.3803Z" fill="#1E437D"/>
<path d="M23.9209 85.2411C25.5313 82.2171 27.0793 79.1619 28.4809 76.0299C28.8697 75.1531 29.2505 74.2731 29.6233 73.3899C29.9809 72.5403 30.3433 71.6883 30.6649 70.8243C30.3457 70.6011 28.9441 69.6843 28.7929 69.5427C28.7473 69.5019 28.7929 69.4227 28.8553 69.4419C29.0425 69.5115 30.6697 70.4547 31.0153 70.7115C31.0657 70.7475 30.3721 72.4323 30.0553 73.2387C29.7385 74.0451 29.4169 74.8467 29.0809 75.6387C28.4153 77.2179 27.7113 78.7787 26.9689 80.3211C26.1697 81.9867 25.3345 83.6283 24.4489 85.2435C23.6761 86.6355 21.8401 89.1363 23.9209 85.2411Z" fill="#1E437D"/>
<path d="M85.5288 110.194C85.5288 110.194 88.5192 110.599 88.6296 108.538C88.74 106.476 85.7232 106.558 85.7232 106.558L85.5288 110.194Z" fill="#EE6877"/>
<path d="M64.6583 105.431L64.4626 109.067L85.6552 110.207L85.8508 106.572L64.6583 105.431Z" fill="#FFC727"/>
<path d="M85.139 106.23L84.9106 110.475L85.7518 110.52L85.9802 106.276L85.139 106.23Z" fill="#1E437D"/>
<path d="M84.2059 106.179L83.9775 110.423L84.8211 110.468L85.0495 106.224L84.2059 106.179Z" fill="#1E437D"/>
<path d="M64.6512 105.425L61.9632 106.651L61.0752 107.052L61.9152 107.556L64.4568 109.063L65.004 108.725L64.4952 108.336L65.0424 107.995L64.5336 107.609L65.0808 107.275C65.0808 107.275 64.5816 106.889 64.5744 106.879L65.1216 106.548L64.6128 106.152L65.16 105.821L64.6512 105.425Z" fill="#D3DBE7"/>
<path d="M61.9632 106.651L61.0752 107.052L61.9152 107.556L61.9632 106.651Z" fill="#1E437D"/>
<path d="M35.5499 106.049L44.2727 109.37" stroke="#1E437D"/>
<path d="M35.3878 105.976L42.6286 101.699L51.8278 104.778L44.2726 109.37L35.3878 105.976Z" fill="white"/>
<path fill-rule="evenodd" clip-rule="evenodd" d="M43.812 104.096C43.3393 104.378 42.8913 104.699 42.4728 105.056C42.9807 104.848 43.4704 104.597 43.9368 104.308C44.4094 104.026 44.8574 103.705 45.276 103.348C44.7676 103.555 44.2778 103.806 43.812 104.096ZM41.5272 106.652C42.2832 106.081 43.08 105.572 43.884 105.078C44.688 104.584 45.5088 104.118 46.3656 103.71C45.6096 104.281 44.8128 104.79 44.0088 105.284C43.2048 105.779 42.3816 106.232 41.5272 106.652ZM43.1711 106.547C42.7079 106.85 42.2495 107.154 41.8055 107.483C42.2142 107.284 42.6082 107.065 43.0037 106.845C43.089 106.798 43.1744 106.75 43.2599 106.703C43.7423 106.437 44.2175 106.156 44.6879 105.868C45.1583 105.58 45.6263 105.292 46.0872 104.987L46.7759 104.529C46.8586 104.47 46.9415 104.412 47.0245 104.354L47.0245 104.354L47.0245 104.354C47.1679 104.254 47.3113 104.154 47.4527 104.049C47.2708 104.134 47.0973 104.226 46.9263 104.317C46.8559 104.354 46.7859 104.392 46.7159 104.428L45.9959 104.829C45.5135 105.098 45.0359 105.376 44.5679 105.664C44.0999 105.952 43.6343 106.245 43.1711 106.547ZM45.1823 106.441C45.6958 106.029 46.2371 105.653 46.8022 105.316C47.3619 104.969 47.9449 104.662 48.5471 104.396C47.5147 105.213 46.3863 105.899 45.1871 106.441H45.1823ZM43.9871 108.179C44.4311 107.85 44.8895 107.545 45.3503 107.241C45.783 106.954 46.2242 106.683 46.6639 106.412L46.664 106.412L46.7495 106.36C47.2175 106.072 47.6951 105.791 48.1895 105.525L48.9095 105.124L49.0374 105.056L49.0374 105.056C49.2353 104.95 49.4355 104.843 49.6487 104.745C49.5072 104.85 49.3639 104.95 49.2204 105.05L49.2204 105.05L49.2204 105.05L49.2204 105.05L49.2204 105.05C49.1375 105.108 49.0545 105.166 48.9719 105.225L48.2735 105.693C47.8127 105.997 47.3447 106.288 46.8743 106.576C46.4039 106.864 45.9287 107.142 45.4463 107.411C44.9639 107.68 44.4839 107.934 43.9871 108.179Z" fill="#D3DBE7"/>
<path d="M20.2498 109.199L31.195 115.938" stroke="#1E437D"/>
<path d="M20.0999 109.125L31.5383 104.656L42.5759 111.311L31.1951 115.939L20.0999 109.125Z" fill="white"/>
<path fill-rule="evenodd" clip-rule="evenodd" d="M29.5534 106.813C28.651 107.183 27.7558 107.572 26.8894 108.025C27.7953 107.754 28.6765 107.405 29.5483 107.059C29.5796 107.047 29.6109 107.035 29.6422 107.022C30.5446 106.665 31.4398 106.278 32.3062 105.822C31.3678 106.093 30.4558 106.444 29.5534 106.813ZM24.2734 110.27C25.0198 109.912 25.7734 109.581 26.5294 109.252C27.2854 108.923 28.0486 108.606 28.8118 108.292C29.575 107.978 30.3406 107.675 31.1134 107.385L32.2702 106.95C32.4088 106.902 32.5464 106.853 32.6838 106.803C32.9346 106.713 33.1848 106.624 33.439 106.54C33.2128 106.649 32.9849 106.754 32.7567 106.858L32.7567 106.858C32.6097 106.925 32.4626 106.992 32.3158 107.061L31.183 107.558C30.5616 107.83 29.9352 108.089 29.308 108.349L28.9006 108.518C28.1374 108.834 27.3718 109.132 26.599 109.422C26.4718 109.47 26.3445 109.518 26.2171 109.566C25.5709 109.81 24.923 110.055 24.2734 110.27ZM28.4325 109.656L28.4324 109.656C27.7629 109.951 27.0933 110.246 26.4333 110.567C27.1087 110.342 27.784 110.092 28.4548 109.843L28.4548 109.843L28.5021 109.826C29.1885 109.571 29.8678 109.305 30.5446 109.027C31.2214 108.748 31.8982 108.47 32.5678 108.175L33.571 107.731C33.7152 107.662 33.8603 107.595 34.0053 107.527L34.0053 107.527C34.1934 107.44 34.3813 107.353 34.567 107.263C34.2674 107.363 33.9732 107.465 33.6782 107.568L33.678 107.568L33.6779 107.568L33.5278 107.62L32.4982 108.002C31.8118 108.259 31.1326 108.525 30.4558 108.803C29.779 109.082 29.1021 109.36 28.4325 109.655L28.4325 109.656ZM26.5245 111.707C27.2685 111.35 28.0245 111.018 28.7805 110.69C29.4769 110.387 30.1773 110.096 30.8799 109.804L30.88 109.804L31.0605 109.73C31.8237 109.413 32.5917 109.115 33.3621 108.825L34.5213 108.39C34.6617 108.341 34.8017 108.29 34.9417 108.24C35.1897 108.15 35.4377 108.06 35.6877 107.978C35.4286 108.104 35.1649 108.224 34.9013 108.344C34.7889 108.395 34.6765 108.447 34.5645 108.498L33.4317 108.995C32.7908 109.276 32.1465 109.543 31.5002 109.811L31.1517 109.955C30.3885 110.272 29.6205 110.57 28.8501 110.86C28.7149 110.911 28.5796 110.962 28.4442 111.014L28.4421 111.014L28.4416 111.015L28.4413 111.015L28.4413 111.015C27.8062 111.256 27.1686 111.498 26.5245 111.707ZM31.1999 110.884C30.5879 111.153 29.9759 111.427 29.3735 111.727C29.7598 111.602 30.1426 111.457 30.5239 111.312L30.524 111.312L30.524 111.312L30.524 111.312L30.524 111.312C30.7729 111.218 31.0212 111.124 31.2695 111.035C31.8983 110.812 32.5223 110.572 33.1415 110.315L33.2704 110.262C33.8463 110.023 34.42 109.785 34.9895 109.533L35.9159 109.132C36.0167 109.084 36.1178 109.037 36.2189 108.99C36.421 108.895 36.6231 108.801 36.8231 108.7C36.6022 108.768 36.3868 108.843 36.1717 108.918C36.069 108.954 35.9663 108.989 35.8631 109.024L34.9223 109.37C34.2935 109.603 33.6695 109.847 33.0503 110.102C32.4311 110.356 31.8119 110.615 31.1999 110.884ZM29.9061 112.686C30.5565 112.37 31.2189 112.074 31.8813 111.784C32.5437 111.494 33.2109 111.218 33.8805 110.942C34.5501 110.666 35.2221 110.402 35.8989 110.15L36.9165 109.773C37.0361 109.732 37.1551 109.69 37.274 109.649L37.274 109.649L37.274 109.649L37.274 109.649L37.2741 109.649L37.2741 109.649C37.4965 109.571 37.7186 109.493 37.9437 109.42C37.7321 109.525 37.5174 109.624 37.303 109.723L37.303 109.723L37.3029 109.723L37.3029 109.723L37.3028 109.723L37.3028 109.723C37.189 109.775 37.0753 109.827 36.9621 109.881L35.9685 110.322C35.3087 110.613 34.6394 110.889 33.97 111.164L33.9693 111.165C33.2997 111.441 32.6277 111.702 31.9509 111.954L31.8603 111.988L31.8603 111.988C31.2135 112.229 30.5642 112.471 29.9061 112.686ZM36.4726 111.064C35.623 111.414 34.7806 111.782 33.9646 112.214C34.8526 111.954 35.7142 111.638 36.5638 111.287C37.4134 110.937 38.2558 110.572 39.0718 110.138C38.1838 110.397 37.3222 110.714 36.4726 111.064ZM33.2902 113.558C32.5342 113.887 31.7782 114.218 31.0342 114.573C31.8166 114.319 32.599 114.033 33.3718 113.743C34.1446 113.452 34.9102 113.152 35.6734 112.835L35.9378 112.726C36.6127 112.446 37.2868 112.166 37.9534 111.875L39.0766 111.367C39.2233 111.298 39.3704 111.231 39.5174 111.164L39.5174 111.164L39.5174 111.164L39.5174 111.164L39.5175 111.163L39.5175 111.163L39.5175 111.163L39.5175 111.163L39.5175 111.163L39.5175 111.163L39.5175 111.163L39.5175 111.163L39.5175 111.163C39.7456 111.059 39.9736 110.955 40.1998 110.846C39.9329 110.934 39.6693 111.028 39.406 111.122C39.281 111.167 39.1561 111.212 39.031 111.256L37.8718 111.691C37.1014 111.981 36.331 112.283 35.5702 112.598C34.8094 112.912 34.0462 113.229 33.2902 113.558Z" fill="#D3DBE7"/>
</svg>
