<svg width="255" height="244" viewBox="0 0 255 244" fill="none" xmlns="http://www.w3.org/2000/svg">
<path d="M179.155 47.4749C190.068 53.1182 194.144 71.2296 206.636 86.7161C218.996 102.071 239.771 114.802 243.716 129.763C247.792 144.725 235.169 161.918 221.757 175.829C208.477 189.61 194.407 199.978 179.418 202.602C164.428 205.227 148.518 199.978 132.739 199.453C116.96 199.059 101.576 203.259 84.8772 201.684C68.3096 199.978 50.4271 192.497 42.2748 179.11C34.1225 165.855 35.7004 146.562 35.5689 127.27C35.4374 108.108 33.5966 88.6847 39.2506 71.0983C45.0361 53.512 58.185 37.763 75.0155 35.5319C91.8461 33.3008 112.095 44.7188 131.293 46.9499C150.359 49.0498 168.11 41.9627 179.155 47.4749Z" fill="white" fill-opacity="0.3"/>
<path d="M32.7435 199.716L58.5315 199.599L84.3243 199.555L135.905 199.472L187.486 199.555L213.279 199.599L239.067 199.716L213.279 199.838L187.486 199.877L135.905 199.96L84.3243 199.877L58.5315 199.838L32.7435 199.716Z" fill="#1E437D"/>
<path d="M223.983 58.747C236.086 58.747 245.898 48.9364 245.898 36.8343C245.898 24.7323 236.086 14.9216 223.983 14.9216C211.88 14.9216 202.069 24.7323 202.069 36.8343C202.069 48.9364 211.88 58.747 223.983 58.747Z" fill="#C8DEFE"/>
<path d="M223.592 56.8329C235.14 56.8329 244.501 47.4726 244.501 35.9261C244.501 24.3796 235.14 15.0193 223.592 15.0193C212.045 15.0193 202.684 24.3796 202.684 35.9261C202.684 47.4726 212.045 56.8329 223.592 56.8329Z" fill="white"/>
<path fill-rule="evenodd" clip-rule="evenodd" d="M223.592 56.1344C234.754 56.1344 243.802 47.0869 243.802 35.9261C243.802 24.7654 234.754 15.7178 223.592 15.7178C212.43 15.7178 203.382 24.7654 203.382 35.9261C203.382 47.0869 212.43 56.1344 223.592 56.1344ZM244.501 35.9261C244.501 47.4726 235.14 56.8329 223.592 56.8329C212.045 56.8329 202.684 47.4726 202.684 35.9261C202.684 24.3796 212.045 15.0193 223.592 15.0193C235.14 15.0193 244.501 24.3796 244.501 35.9261Z" fill="#1E437D"/>
<path opacity="0.3" d="M242.74 31.7699C233.819 37.1695 219.156 46.0408 210.962 50.8955C208.646 48.9527 206.812 46.4995 205.604 43.7287L232.709 18.5818C235.242 19.9146 237.453 21.7859 239.186 24.0642C240.919 26.3426 242.132 28.9727 242.74 31.7699Z" fill="#E1EDF8"/>
<path opacity="0.3" d="M243.166 36.6108C243.099 38.7899 242.662 40.9416 241.874 42.9744L217.424 54.528C216.358 54.1753 215.325 53.7313 214.336 53.2008C221.734 48.9398 235.224 41.1792 243.166 36.6108Z" fill="#E1EDF8"/>
<path fill-rule="evenodd" clip-rule="evenodd" d="M223.403 17.7578H223.781V20.7265H223.403V17.7578ZM214.345 20.2731L214.671 20.0845L216.156 22.6555L215.829 22.8441L214.345 20.2731ZM207.94 26.6688L207.752 26.9955L210.323 28.4799L210.511 28.1532L207.94 26.6688ZM205.422 35.7378H208.391V36.115H205.422V35.7378ZM210.336 43.3631L207.765 44.8475L207.953 45.1741L210.524 43.6898L210.336 43.3631ZM214.332 51.5545L215.815 48.9828L216.142 49.1712L214.659 51.743L214.332 51.5545ZM223.781 51.1193H223.403V54.0881H223.781V51.1193ZM231.031 49.1832L231.358 48.9946L232.842 51.5656L232.515 51.7542L231.031 49.1832ZM236.837 43.3514L236.648 43.6781L239.22 45.1624L239.408 44.8358L236.837 43.3514ZM238.793 35.7378H241.762V36.115H238.793V35.7378ZM239.231 26.6793L236.659 28.1637L236.848 28.4904L239.419 27.006L239.231 26.6793ZM231.04 22.6782L232.523 20.1067L232.85 20.2952L231.366 22.8667L231.04 22.6782Z" fill="#D3DBE7"/>
<path d="M235.237 23.6392L221.95 36.017L223.285 37.3163L235.601 23.9954L235.237 23.6392Z" fill="#475569"/>
<path d="M219.827 23.0734L222.949 37.2116L224.731 36.6877L220.309 22.9268L219.827 23.0734Z" fill="#1D293F"/>
<path d="M223.145 35.4723C223.036 35.593 222.978 35.7508 222.981 35.9133C222.985 36.0759 223.051 36.2307 223.166 36.3461C223.28 36.4615 223.435 36.5287 223.597 36.5338C223.76 36.5388 223.918 36.4815 224.039 36.3734C224.158 36.2533 224.224 36.0914 224.224 35.9229C224.224 35.7543 224.158 35.5925 224.039 35.4723C223.92 35.3546 223.76 35.2886 223.592 35.2886C223.425 35.2886 223.264 35.3546 223.145 35.4723Z" fill="#FFC727"/>
<path d="M224.114 164.042C224.114 164.042 236.55 161.231 243.33 154.965C250.111 148.698 253.934 137.469 253.934 137.469C249.217 138.371 244.567 139.592 240.016 141.124C238.902 142.313 236.772 144.762 235.804 147.071C235.686 145.655 235.675 144.233 235.771 142.816C234.18 143.51 232.692 144.42 231.348 145.519C225.709 150.439 224.114 164.042 224.114 164.042Z" fill="#B3E9D7"/>
<path d="M246.185 142.924C247.877 141.756 249.597 140.626 251.284 139.442C251.301 139.427 251.312 139.406 251.315 139.383C251.318 139.36 251.313 139.337 251.301 139.317C251.289 139.298 251.27 139.284 251.248 139.277C251.226 139.27 251.202 139.271 251.181 139.28C247.98 141.188 244.828 143.232 241.778 145.368C240.697 146.114 239.669 146.887 238.637 147.682L238.853 147.314C239.226 146.687 239.621 146.076 240.01 145.465C240.791 144.223 241.673 143.047 242.649 141.951C242.681 141.907 242.621 141.848 242.584 141.891C241.621 143.005 240.653 144.108 239.772 145.292C239.35 145.833 238.966 146.433 238.593 147.028C238.399 147.341 238.215 147.649 238.053 147.968L237.863 148.287C236.241 149.547 234.7 150.861 233.208 152.25C232.285 153.108 231.396 153.997 230.542 154.916C231.018 153.413 231.44 151.894 231.997 150.418C231.999 150.411 232 150.404 231.999 150.397C231.998 150.39 231.996 150.384 231.992 150.378C231.988 150.372 231.982 150.367 231.976 150.364C231.97 150.361 231.963 150.359 231.956 150.359C231.949 150.359 231.942 150.361 231.936 150.364C231.93 150.367 231.925 150.372 231.921 150.378C231.917 150.384 231.914 150.39 231.913 150.397C231.912 150.404 231.913 150.411 231.916 150.418C231.375 151.969 230.78 153.526 230.364 155.121C229.412 156.149 228.504 157.208 227.66 158.317C227.66 158.252 227.687 158.181 227.703 158.117C227.844 157.533 227.99 156.949 228.147 156.365C228.45 155.246 228.779 154.126 229.158 153.029C229.873 150.742 231.004 148.607 232.494 146.73C232.527 146.692 232.467 146.633 232.429 146.676C230.007 149.542 228.585 152.986 227.676 156.597C227.547 157.138 227.417 157.679 227.298 158.187C227.233 158.473 227.163 158.76 227.114 159.046C226.736 159.555 226.368 160.068 226.033 160.593C223.921 163.82 222.161 167.263 220.782 170.865C219.231 174.924 217.903 179.065 216.803 183.268C216.803 183.349 216.906 183.376 216.933 183.268C219.36 176.007 221.837 168.67 225.995 162.15C226.872 160.782 227.818 159.459 228.828 158.187C230.883 158.053 232.912 157.65 234.862 156.987C236.994 156.269 239.027 155.286 240.913 154.062C241.987 153.337 243.021 152.556 244.011 151.721C244.017 151.718 244.022 151.713 244.026 151.708C244.03 151.703 244.032 151.697 244.034 151.691C244.035 151.684 244.035 151.678 244.033 151.671C244.032 151.665 244.029 151.659 244.024 151.654C244.02 151.649 244.015 151.645 244.009 151.643C244.003 151.64 243.997 151.639 243.99 151.639C243.984 151.639 243.978 151.641 243.972 151.643C243.966 151.646 243.961 151.651 243.957 151.656C242.225 153.055 240.312 154.214 238.269 155.1C236.263 156.021 234.164 156.725 232.007 157.197C231.094 157.397 230.164 157.549 229.234 157.673C230.38 156.257 231.602 154.904 232.894 153.618C233.311 153.202 233.743 152.802 234.176 152.396C235.623 151.383 237.159 150.503 238.766 149.769C240.799 148.785 242.8 147.741 244.811 146.719C245.947 146.141 247.077 145.552 248.223 144.995C248.272 144.968 248.223 144.897 248.175 144.919C246.136 145.908 244.065 146.828 242.005 147.768C240.069 148.655 238.107 149.547 236.247 150.591L236.014 150.731C237.696 149.271 239.437 147.876 241.216 146.53C242.816 145.314 244.498 144.097 246.185 142.924Z" fill="#1E437D"/>
<path d="M183.799 101.504C186.091 104.462 187.389 108.069 187.508 111.809C187.546 112.923 187.373 114.474 187.243 116.296C191.871 118.767 195.354 123.217 195.354 123.217C192.726 121.638 189.114 121 187.167 121.26C187.231 122.506 187.39 123.746 187.643 124.969C188.503 124.92 190.163 125.034 192.904 126.007C191.275 125.991 189.661 126.313 188.162 126.953C190.374 133.981 196.949 141.221 215.106 144.292C215.106 144.292 218.609 131.965 211.894 118.74C206.438 108.035 183.799 101.504 183.799 101.504Z" fill="#B3E9D7"/>
<path d="M221.384 174.429C221.07 171.423 220.67 168.422 220.205 165.438C219.288 159.454 218.066 153.52 216.544 147.661C215.835 144.907 214.959 142.199 213.922 139.551C213.975 139.068 213.999 138.582 213.992 138.096C213.992 137.518 213.992 136.934 213.992 136.355C213.992 135.188 213.927 134.031 213.83 132.868C213.644 130.572 213.269 128.296 212.711 126.061C212.381 124.769 211.992 123.493 211.629 122.212C211.625 122.203 211.617 122.195 211.607 122.191C211.598 122.188 211.587 122.187 211.577 122.19C211.567 122.194 211.559 122.2 211.554 122.209C211.548 122.218 211.546 122.229 211.548 122.239C212.148 124.463 212.592 126.727 212.878 129.013C213.206 131.271 213.41 133.545 213.489 135.826C213.489 136.453 213.522 137.075 213.527 137.702C213.527 137.967 213.527 138.242 213.527 138.502C212.623 136.335 211.591 134.225 210.434 132.182C208.589 128.935 206.511 125.827 204.216 122.882C204.211 122.539 204.162 122.197 204.07 121.866C203.984 121.46 203.897 121.055 203.805 120.649C203.616 119.822 203.411 118.995 203.183 118.178C202.735 116.556 202.14 114.934 201.621 113.312C201.618 113.304 201.612 113.297 201.605 113.292C201.598 113.287 201.589 113.284 201.58 113.284C201.571 113.284 201.563 113.287 201.556 113.292C201.548 113.297 201.543 113.304 201.54 113.312C202.021 114.934 202.34 116.589 202.708 118.227C202.891 119.033 203.07 119.849 203.248 120.655L203.508 121.871V121.963C202.787 121.04 202.037 120.128 201.259 119.227C197.787 115.161 193.986 111.409 190.163 107.684C189.693 107.225 189.206 106.781 188.73 106.327C188.693 106.289 188.633 106.327 188.671 106.392C192.332 110.177 195.933 114.064 199.339 118.103C200.15 119.065 200.961 120.033 201.734 121.017L200.496 120.195C199.415 119.503 198.366 118.833 197.252 118.216C196.138 117.6 195.04 116.994 193.91 116.432C192.78 115.87 191.499 115.389 190.38 114.734C190.331 114.707 190.288 114.788 190.336 114.81C191.485 115.339 192.592 115.951 193.651 116.643C194.732 117.297 195.857 117.957 196.944 118.649C198.031 119.341 199.107 119.99 200.145 120.682C201.026 121.255 201.897 121.882 202.816 122.412C204.921 125.116 206.864 127.943 208.634 130.879C209.732 132.727 210.736 134.631 211.64 136.583L210.986 136.296L209.353 135.588C208.271 135.112 207.19 134.652 206.141 134.182C204.103 133.301 202.032 132.484 200.037 131.511C198.916 130.982 197.832 130.379 196.792 129.705C196.749 129.673 196.706 129.749 196.749 129.776C200.475 132.344 204.649 134.15 208.769 135.977L210.559 136.766C211.051 136.983 211.537 137.226 212.046 137.415C213.266 140.144 214.292 142.955 215.117 145.828C216.747 151.61 218.071 157.473 219.086 163.394C220.124 169.341 220.827 175.289 221.373 181.295C221.443 182.041 221.508 182.788 221.594 183.534C221.603 183.59 221.631 183.641 221.675 183.678C221.718 183.715 221.773 183.736 221.83 183.736C221.887 183.736 221.942 183.715 221.985 183.678C222.028 183.641 222.056 183.59 222.065 183.534C222.011 180.479 221.703 177.43 221.384 174.429Z" fill="#1E437D"/>
<path opacity="0.1" d="M224.341 142.529C224.341 142.529 235.825 139.788 241.102 132.084C246.142 124.725 247.769 112.187 247.899 111.084C247.688 112.096 245.32 123.055 237.501 128.159C231.521 132.089 225.725 135.306 224.341 142.529Z" fill="#263238"/>
<path d="M234.944 122.703C232.901 124.581 231.431 127 230.705 129.678C230.705 129.678 230.737 129.716 230.743 129.678C231.587 127.064 233.047 124.691 234.998 122.757C235.036 122.73 234.982 122.665 234.944 122.703Z" fill="#263238"/>
<path d="M224.34 142.529C224.34 142.529 235.825 139.788 241.102 132.084C246.142 124.725 247.769 112.187 247.899 111.085C247.901 111.058 247.901 111.03 247.899 111.003C247.899 111.003 242.394 118.832 236.603 120.833C230.813 122.833 222.68 129.748 224.34 142.529Z" fill="#B3E9D7"/>
<path d="M245.872 115.339C244.846 117.449 243.664 119.478 242.335 121.411C240.996 123.246 239.405 124.884 237.61 126.277C236.052 127.515 234.403 128.64 232.824 129.851L232.857 129.797C233.154 129.353 233.473 128.926 233.798 128.51C234.457 127.672 235.176 126.888 235.901 126.093C237.328 124.547 238.783 123.028 240.064 121.352C240.773 120.425 241.388 119.43 241.903 118.383C241.93 118.335 241.849 118.308 241.822 118.356C239.962 122.238 236.242 124.72 233.587 127.996C233.208 128.467 232.851 128.948 232.505 129.451C232.244 129.821 232.022 130.218 231.846 130.635C230.392 131.798 229.078 133.126 227.931 134.592C228.029 133.84 228.183 133.095 228.391 132.365C228.659 131.343 229.068 130.364 229.607 129.456C229.634 129.407 229.564 129.364 229.537 129.407C228.98 130.317 228.531 131.288 228.196 132.3C227.953 133.105 227.813 133.937 227.78 134.776C227.212 135.546 226.693 136.352 226.228 137.188C226.276 136.944 226.32 136.696 226.368 136.452C226.595 135.306 226.85 134.165 227.147 133.041C227.684 130.734 228.619 128.539 229.91 126.553C229.942 126.51 229.872 126.461 229.84 126.504C228.521 128.457 227.49 130.589 226.779 132.835C226.412 133.96 226.12 135.106 225.86 136.263C225.736 136.831 225.622 137.398 225.514 137.966C225.455 138.258 225.395 138.561 225.346 138.864C224.206 141.364 223.318 143.972 222.697 146.649C221.567 151.43 220.749 156.279 220.248 161.166C219.653 166.285 219.387 171.438 219.453 176.591C219.453 177.234 219.501 177.883 219.534 178.527C219.534 178.694 219.793 178.716 219.799 178.527C219.912 175.975 219.977 173.428 220.129 170.882C220.28 168.335 220.502 165.789 220.777 163.253C221.3 158.264 222.097 153.307 223.167 148.406C224.103 144.205 225.33 139.977 227.601 136.301C228.742 134.47 230.138 132.811 231.748 131.375C233.37 129.926 235.117 128.672 236.815 127.326C238.531 126.018 240.091 124.518 241.465 122.855C242.87 120.993 244.094 119.002 245.12 116.907C245.39 116.367 245.661 115.875 245.942 115.356C245.963 115.339 245.893 115.291 245.872 115.339Z" fill="#1E437D"/>
<path d="M182.198 137.469C182.198 137.469 182.014 153.786 191.774 158.5C201.533 163.215 206.762 159.284 213.402 160.863C213.148 160.474 208.417 153.667 200.89 151.796C193.131 149.861 184.545 144.27 182.198 137.469Z" fill="#B3E9D7"/>
<path d="M214.035 161.155C212.875 160.098 211.569 159.213 210.158 158.528C209.947 158.425 209.731 158.344 209.52 158.252C209.417 158.122 209.304 157.998 209.19 157.879C208.898 157.576 208.595 157.284 208.271 157.008C207.661 156.477 207.004 156.003 206.308 155.592C204.686 154.64 202.923 153.97 201.269 153.094C201.22 153.067 201.177 153.143 201.225 153.164C202.042 153.591 202.848 154.056 203.632 154.521C204.416 154.986 205.194 155.402 205.946 155.889C206.623 156.325 207.268 156.809 207.876 157.338C208.049 157.489 208.217 157.652 208.379 157.819C207.301 157.452 206.199 157.16 205.081 156.943C203.296 156.581 201.49 156.327 199.706 155.943C198.831 155.757 197.966 155.524 197.116 155.246C196.305 154.591 195.494 153.948 194.732 153.24C193.804 152.39 192.958 151.454 192.207 150.445C192.174 150.396 192.104 150.445 192.136 150.488C193.321 152.087 194.661 153.565 196.137 154.9C195.716 154.741 195.299 154.561 194.888 154.359C191.538 152.855 188.662 150.464 186.572 147.444C186.545 147.401 186.47 147.444 186.502 147.487C188.272 150.091 190.562 152.3 193.228 153.975C194.564 154.805 195.99 155.48 197.478 155.986C199.209 156.522 200.974 156.939 202.761 157.235C204.513 157.52 206.243 157.93 207.936 158.463C209.487 158.994 210.947 159.764 212.261 160.744C214.746 162.675 216.747 165.157 218.106 167.995C219.955 171.698 220.837 175.84 221.35 179.927C221.35 180.1 221.642 180.1 221.626 179.927C221.161 173.055 219.328 165.918 214.035 161.155Z" fill="#1E437D"/>
<path d="M234.902 211.556H208.877L213.486 176.546H230.194L234.902 211.556Z" fill="#6AA6DA"/>
<path fill-rule="evenodd" clip-rule="evenodd" d="M207.224 210.932L211.897 176.642L211.191 176.546L206.407 211.646H233.642L230.762 190.53L230.055 190.626L232.825 210.932H207.224Z" fill="#1E437D"/>
<path d="M230.616 174.125H208.828V180.177H230.616V174.125Z" fill="#1E437D"/>
<path d="M22.6476 229.833C23.8833 230.228 59.0323 229.862 60.3653 228.998C60.8745 228.672 61.1147 223.552 61.2349 217.351C61.2635 216.012 61.2806 214.634 61.2921 213.227C61.3779 204.114 61.252 194.441 61.252 194.441L37.7564 194.624L38.4486 213.404L38.5974 217.528C38.5974 217.528 25.1705 223.689 23.8203 224.788C22.4702 225.886 21.4176 229.433 22.6476 229.833Z" fill="#F7A9A0"/>
<path d="M22.6476 229.833C23.8833 230.234 59.0323 229.833 60.3653 228.998C60.8745 228.672 61.1205 223.552 61.2349 217.357C61.2635 216.018 61.2864 214.634 61.2921 213.232C61.2978 211.831 61.2921 210.326 61.2921 208.891H38.2541L38.42 213.404L38.5745 217.523C38.5745 217.523 25.1705 223.689 23.8203 224.788C22.4702 225.886 21.4176 229.433 22.6476 229.833Z" fill="#EBEBEB"/>
<path d="M22.5446 229.885C23.7803 230.285 59.1582 229.913 60.4683 229.044C61.0918 228.643 61.3264 221.127 61.4008 213.187L38.4086 213.364L38.5573 217.511C38.5573 217.511 25.0846 223.707 23.7174 224.811C22.3501 225.915 21.3031 229.484 22.5446 229.885Z" fill="#FFC727"/>
<path d="M23.0368 228.466C28.9579 228.254 52.8712 227.974 58.7465 228.22C58.7923 228.22 58.7923 228.254 58.7465 228.26C52.8769 228.592 28.9636 228.678 23.0368 228.563C22.9109 228.557 22.9109 228.472 23.0368 228.466Z" fill="#1E437D"/>
<path d="M37.7049 216.201C40.0333 215.744 42.8881 216.07 44.6901 217.711C44.7588 217.774 44.6901 217.872 44.5929 217.849C42.3588 217.157 40.0575 216.704 37.7278 216.499C37.6884 216.502 37.6493 216.489 37.6193 216.463C37.5893 216.438 37.5707 216.401 37.5676 216.361C37.5646 216.322 37.5774 216.283 37.6031 216.253C37.6289 216.223 37.6655 216.204 37.7049 216.201Z" fill="#1E437D"/>
<path d="M36.0403 217.237C38.3687 216.773 41.2234 217.099 43.0198 218.747C43.0941 218.81 43.0198 218.907 42.9225 218.884C40.6828 218.196 38.3754 217.751 36.0403 217.557C35.9978 217.557 35.9571 217.54 35.927 217.51C35.897 217.48 35.8801 217.439 35.8801 217.397C35.8801 217.354 35.897 217.314 35.927 217.284C35.9571 217.254 35.9978 217.237 36.0403 217.237Z" fill="#1E437D"/>
<path d="M34.3638 218.266C36.6865 217.809 39.5412 218.135 41.3433 219.777C41.4119 219.84 41.3433 219.937 41.246 219.914C39.0121 219.22 36.7109 218.766 34.381 218.558C34.3466 218.554 34.3149 218.537 34.2913 218.512C34.2677 218.487 34.2536 218.454 34.2516 218.419C34.2496 218.385 34.2597 218.351 34.2801 218.323C34.3006 218.295 34.3302 218.275 34.3638 218.266Z" fill="#1E437D"/>
<path d="M32.6877 219.273C35.0161 218.816 37.8708 219.142 39.6729 220.784C39.7415 220.852 39.6729 220.949 39.5756 220.927C37.3424 220.23 35.0408 219.776 32.7105 219.571C32.691 219.572 32.6714 219.57 32.6528 219.564C32.6341 219.558 32.6169 219.548 32.602 219.535C32.5871 219.523 32.5749 219.507 32.5661 219.49C32.5572 219.472 32.5519 219.453 32.5504 219.433C32.5489 219.414 32.5512 219.394 32.5573 219.376C32.5634 219.357 32.5731 219.34 32.5858 219.325C32.5986 219.31 32.6141 219.298 32.6316 219.289C32.6491 219.28 32.6681 219.275 32.6877 219.273Z" fill="#1E437D"/>
<path d="M34.421 214.165C36.0858 215.429 38.2369 215.933 40.1419 216.625C40.186 216.635 40.232 216.636 40.2762 216.626C40.3204 216.615 40.3616 216.595 40.3966 216.566C40.4316 216.537 40.4594 216.501 40.4777 216.459C40.4961 216.418 40.5045 216.373 40.5023 216.327C40.5424 216.327 40.5767 216.293 40.5595 216.247C39.8286 214.189 38.57 212.358 36.9096 210.939C35.9313 210.132 34.2151 209.583 33.3112 210.859C32.4073 212.134 33.4542 213.427 34.421 214.165ZM33.8089 212.294C33.3684 209.743 36.1316 211.059 36.8295 211.682C37.2767 212.086 37.6953 212.52 38.0824 212.981C38.8657 213.959 39.5989 214.977 40.2792 216.03C39.3524 215.629 38.397 215.315 37.4531 214.954C36.3318 214.543 34.0492 213.702 33.8089 212.294Z" fill="#1E437D"/>
<path d="M48.3343 212.609C47.7622 211.162 45.9602 211.293 44.816 211.848C42.8777 212.839 41.2328 214.32 40.0448 216.144C40.0389 216.152 40.0351 216.162 40.0336 216.172C40.0322 216.182 40.0332 216.192 40.0366 216.202C40.04 216.211 40.0456 216.22 40.053 216.227C40.0604 216.234 40.0693 216.239 40.0791 216.241C40.0654 216.285 40.0623 216.331 40.07 216.376C40.0778 216.421 40.0961 216.463 40.1235 216.499C40.1509 216.536 40.1867 216.565 40.2277 216.585C40.2687 216.605 40.3139 216.614 40.3594 216.613C42.4018 216.396 44.61 216.413 46.5265 215.572C47.6249 215.08 48.8835 213.976 48.3343 212.609ZM43.3686 215.646C42.3674 215.778 41.3663 215.864 40.3709 216.03C41.3091 215.194 42.2015 214.314 43.2313 213.581C43.7155 213.217 44.2239 212.887 44.7531 212.592C45.5826 212.151 48.5746 211.522 47.5506 213.902C46.9785 215.212 44.5643 215.492 43.3686 215.646Z" fill="#1E437D"/>
<path d="M68.323 93.8071C68.323 93.8071 61.458 151.549 61.3207 152.327C61.3207 152.43 63.2658 214.039 63.2658 214.039H37.6248C37.6248 214.039 36.9326 160.05 37.8823 150.92C39.0951 139.273 46.7382 93.8071 46.7382 93.8071H68.323Z" fill="#6AA6DA"/>
<path d="M61.7839 208.765C57.8423 208.685 58.975 208.65 55.0333 208.616C53.1054 208.616 40.4336 208.485 38.6373 208.782C38.5972 208.782 38.5972 208.856 38.6373 208.862C40.4336 209.165 53.1054 209.051 55.0333 209.034C58.975 208.994 57.8423 208.965 61.7839 208.879C61.7991 208.879 61.8137 208.873 61.8244 208.863C61.8351 208.852 61.8412 208.837 61.8412 208.822C61.8412 208.807 61.8351 208.792 61.8244 208.782C61.8137 208.771 61.7991 208.765 61.7839 208.765Z" fill="#1E437D"/>
<path d="M57.9341 147.596C58.2946 144.336 58.7637 141.081 59.187 137.826C60.049 131.278 60.9204 124.724 61.8015 118.165C62.8026 110.728 63.8667 103.32 64.9193 95.9007C64.9193 95.8092 65.0738 95.8149 65.0624 95.9007C64.2691 102.525 63.4662 109.147 62.6539 115.768C61.8415 122.323 60.9776 128.879 60.1195 135.429C59.2614 141.979 58.1515 148.443 58.1801 155.01C58.1801 158.316 58.3403 161.617 58.4319 164.923C58.5234 168.23 58.6207 171.531 58.7065 174.837C58.9067 182.319 59.1927 198.325 59.1184 205.813C59.1184 205.833 59.1105 205.852 59.0966 205.866C59.0826 205.88 59.0637 205.887 59.044 205.887C59.0243 205.887 59.0054 205.88 58.9914 205.866C58.9775 205.852 58.9696 205.833 58.9696 205.813C58.512 199.143 58.3689 183.938 58.1515 177.257C57.9341 170.575 57.6996 164.037 57.5795 157.424C57.483 154.144 57.6015 150.861 57.9341 147.596Z" fill="#1E437D"/>
<path d="M84.3589 228.649C85.6003 228.289 114.496 208.267 115.114 206.808C115.355 206.236 112.683 201.877 109.308 196.678C108.575 195.533 107.82 194.389 107.019 193.245C101.973 185.654 96.4471 177.714 96.4471 177.714L77.0762 191.054L88.1804 206.214L90.6175 209.543C90.6175 209.543 82.9801 222.128 82.4767 223.844C81.9732 225.56 83.1117 228.998 84.3589 228.649Z" fill="#F7A9A0"/>
<path d="M84.3585 228.649C85.6 228.289 114.496 208.267 115.114 206.814C115.354 206.242 112.688 201.877 109.302 196.683C108.581 195.539 107.82 194.395 107.013 193.251C106.207 192.107 105.4 190.831 104.605 189.641L85.5141 202.575L88.1801 206.213L90.6172 209.543C90.6172 209.543 83.0027 222.133 82.4935 223.85C81.9844 225.566 83.1171 228.998 84.3585 228.649Z" fill="#EBEBEB"/>
<path d="M84.2956 228.752C85.5485 228.391 114.616 208.256 115.228 206.791C115.514 206.11 111.493 199.755 107.105 193.136L88.1686 206.179L90.6172 209.548C90.6172 209.548 82.9512 222.213 82.4249 223.895C81.8985 225.577 83.0484 229.118 84.2956 228.752Z" fill="#FFC727"/>
<path d="M83.9066 227.282C88.6949 223.787 108.34 210.12 113.335 207.054C113.381 207.026 113.398 207.054 113.335 207.083C108.667 210.652 88.9123 224.136 83.9409 227.362C83.8608 227.453 83.8093 227.379 83.9066 227.282Z" fill="#263238"/>
<path d="M89.1814 208.925C90.8461 207.209 93.3977 205.905 95.8061 206.259C95.8977 206.259 95.8805 206.402 95.8061 206.425C93.5637 207.104 91.4003 208.02 89.353 209.159C89.322 209.173 89.2872 209.176 89.2544 209.167C89.2216 209.158 89.1928 209.139 89.1727 209.111C89.1527 209.084 89.1426 209.05 89.1442 209.017C89.1458 208.983 89.1589 208.95 89.1814 208.925Z" fill="#263238"/>
<path d="M88.3746 210.692C90.0394 208.976 92.5909 207.678 94.9994 208.027C95.0966 208.027 95.0738 208.175 94.9994 208.198C92.758 208.877 90.5948 209.792 88.5462 210.927C88.5152 210.941 88.4804 210.943 88.4476 210.935C88.4148 210.926 88.386 210.906 88.366 210.879C88.3459 210.851 88.3359 210.818 88.3374 210.784C88.339 210.75 88.3521 210.718 88.3746 210.692Z" fill="#263238"/>
<path d="M87.5679 212.506C89.2384 210.824 91.7841 209.491 94.1926 209.84C94.2899 209.84 94.267 209.989 94.1926 210.012C91.9501 210.69 89.7868 211.607 87.7395 212.746C87.7076 212.763 87.6704 212.768 87.6351 212.76C87.5997 212.752 87.5685 212.731 87.5474 212.702C87.5263 212.672 87.5167 212.636 87.5205 212.6C87.5242 212.564 87.5411 212.53 87.5679 212.506Z" fill="#263238"/>
<path d="M86.7613 214.302C88.4318 212.615 90.9776 211.282 93.3918 211.636C93.4833 211.636 93.4604 211.779 93.3918 211.802C91.1546 212.48 88.9969 213.397 86.9558 214.537C86.9247 214.562 86.8846 214.575 86.8444 214.571C86.8041 214.567 86.767 214.548 86.7413 214.517C86.7155 214.486 86.7031 214.445 86.7068 214.405C86.7106 214.365 86.7302 214.328 86.7613 214.302Z" fill="#263238"/>
<path d="M85.3199 209.079C87.4023 209.194 89.4675 208.399 91.4584 207.89C91.5013 207.875 91.5401 207.85 91.5715 207.817C91.6029 207.784 91.626 207.744 91.6388 207.7C91.6517 207.657 91.654 207.611 91.6455 207.566C91.637 207.521 91.6179 207.479 91.5899 207.443C91.5982 207.438 91.605 207.43 91.6096 207.421C91.6143 207.412 91.6167 207.402 91.6167 207.392C91.6167 207.382 91.6143 207.372 91.6096 207.363C91.605 207.354 91.5982 207.346 91.5899 207.34C89.8295 206.05 87.763 205.242 85.5945 204.995C84.3301 204.881 82.6024 205.384 82.5681 206.946C82.5338 208.404 84.0956 209.011 85.3199 209.079ZM83.7638 207.872C81.9674 206.008 84.9881 205.544 85.9206 205.67C86.5199 205.762 87.1124 205.893 87.694 206.065C88.8931 206.432 90.0715 206.863 91.2238 207.358C90.2341 207.546 89.2673 207.821 88.2833 208.05C87.1105 208.319 84.7535 208.902 83.7638 207.872Z" fill="#263238"/>
<path d="M95.9604 199.99C94.6732 199.114 93.2602 200.23 92.6251 201.328C91.5674 203.238 91.0307 205.392 91.0691 207.575C91.0687 207.585 91.0707 207.595 91.0748 207.604C91.079 207.613 91.0853 207.621 91.0931 207.627C91.1009 207.633 91.11 207.637 91.1198 207.639C91.1295 207.641 91.1396 207.641 91.1492 207.638C91.1635 207.681 91.1874 207.719 91.2192 207.751C91.2511 207.783 91.2898 207.807 91.3325 207.822C91.3751 207.836 91.4206 207.84 91.4652 207.834C91.5098 207.828 91.5524 207.812 91.5897 207.787C93.1572 206.459 95.0222 205.235 96.1149 203.468C96.7613 202.432 97.1847 200.813 95.9604 199.99ZM93.5576 205.287C92.8025 205.962 92.0187 206.591 91.2693 207.289C91.5782 206.07 91.8414 204.846 92.259 203.662C92.4575 203.088 92.6945 202.528 92.9684 201.986C93.4032 201.157 95.5256 198.954 96.0119 201.5C96.2979 202.901 94.4558 204.486 93.5576 205.287Z" fill="#263238"/>
<path d="M46.7381 93.8071C46.7381 93.8071 50.7427 106.112 55.245 112.318C55.245 112.318 56.4235 157.819 58.2599 163.047C61.3092 171.702 85.005 206.705 85.005 206.705L106.716 191.707C106.716 191.707 84.0096 158.843 82.8197 155.696C82.0359 153.608 79.7361 117.541 80.0679 116.637C84.0725 105.723 78.0485 93.8071 78.0485 93.8071H46.7381Z" fill="#6AA6DA"/>
<path d="M102.088 187.136C98.7983 189.304 99.7079 188.635 96.447 190.843C94.8452 191.918 84.3531 199.023 83.043 200.293C83.0372 200.3 83.0339 200.308 83.0335 200.317C83.0332 200.326 83.0359 200.335 83.0412 200.342C83.0464 200.349 83.054 200.355 83.0626 200.357C83.0713 200.36 83.0805 200.359 83.0888 200.356C84.7421 199.583 95.1026 192.296 96.6816 191.203C99.9024 188.915 98.9699 189.55 102.151 187.244C102.208 187.187 102.145 187.096 102.088 187.136Z" fill="#263238"/>
<path d="M77.3219 115.322C77.648 113.903 78.0027 112.49 78.2201 111.048C78.4324 109.592 78.4938 108.118 78.4032 106.649C78.1712 103.675 77.6325 100.732 76.7956 97.8685C76.6011 97.1535 76.3952 96.4384 76.1835 95.7233C76.1434 95.5975 76.3494 95.546 76.3837 95.6719C77.3351 98.4727 78.0751 101.341 78.5977 104.252C79.0273 107.065 78.9518 109.932 78.3746 112.719C77.8025 115.579 76.9444 118.393 77.0588 121.362C77.116 122.901 78.9467 151.486 78.9467 152.973C78.8746 154.43 79.0685 155.888 79.5188 157.275C80.07 158.584 80.7463 159.837 81.5382 161.016C82.322 162.298 83.1115 163.568 83.9067 164.838C87.036 169.837 94.2043 179.957 97.5338 184.819L98.8096 186.667C98.8553 186.73 98.7523 186.787 98.7066 186.724C95.1997 181.89 87.8369 171.851 84.6332 166.805C83.0485 164.346 81.4295 161.88 79.9879 159.329C79.2821 158.147 78.8119 156.84 78.6034 155.479C78.4203 154.1 76.4867 120.996 76.6011 119.509C76.7368 118.097 76.9778 116.697 77.3219 115.322Z" fill="#263238"/>
<path d="M67.4136 98.0001C67.9571 100.214 67.877 102.983 69.4502 104.807C70.2712 105.655 71.3453 106.213 72.5109 106.398C73.8296 106.652 75.1769 106.725 76.5155 106.615C76.5256 106.619 76.5343 106.625 76.5405 106.634C76.5467 106.643 76.5501 106.653 76.5501 106.664C76.5501 106.674 76.5467 106.685 76.5405 106.694C76.5343 106.702 76.5256 106.709 76.5155 106.712C74.1356 107.473 70.8347 107.347 69.0326 105.385C68.2569 104.455 67.7786 103.313 67.6596 102.107C67.4575 100.749 67.3466 99.3789 67.3278 98.0058C67.332 97.9984 67.3379 97.9922 67.3452 97.9876C67.3524 97.9831 67.3606 97.9804 67.3691 97.9799C67.3776 97.9793 67.3861 97.9808 67.3939 97.9844C67.4017 97.9879 67.4084 97.9933 67.4136 98.0001Z" fill="#263238"/>
<path d="M55.0851 112.399C55.0925 112.358 55.1141 112.321 55.146 112.294C55.1778 112.268 55.2181 112.253 55.2596 112.253C55.3011 112.253 55.3413 112.268 55.3732 112.294C55.4051 112.321 55.4267 112.358 55.4341 112.399C55.5256 113.405 55.5085 114.418 55.5428 115.425C55.5771 116.431 55.5885 117.335 55.6172 118.285C55.6686 120.253 55.7087 122.215 55.7545 124.183C55.846 128.113 55.9604 132.037 56.1263 135.967C56.2922 139.897 56.4638 143.815 56.6641 147.739C56.767 149.701 56.8815 151.664 56.9959 153.62C57.0607 155.513 57.2518 157.399 57.568 159.266C58.3422 163.109 59.7827 166.788 61.8243 170.135C61.8758 170.209 61.7557 170.272 61.6984 170.198C59.5936 167.392 58.0831 164.186 57.259 160.776C56.3723 157.104 56.2751 153.3 56.0634 149.547C55.6172 141.618 55.3254 133.69 55.1252 125.756C55.0737 123.525 55.0222 121.294 55.0165 119.063C55.0165 117.976 55.0165 116.889 55.0165 115.802C55.0165 114.715 54.9936 113.537 55.0851 112.399Z" fill="#1E437D"/>
<path d="M51.0805 110.476C53.6834 111.38 56.2057 112.502 58.6206 113.829C58.6304 113.833 58.6391 113.839 58.6464 113.847C58.6537 113.855 58.6594 113.865 58.6631 113.875C58.6668 113.885 58.6685 113.895 58.6681 113.906C58.6677 113.917 58.6651 113.928 58.6606 113.937C58.6561 113.947 58.6497 113.956 58.6418 113.963C58.6339 113.97 58.6247 113.976 58.6146 113.98C58.6045 113.984 58.5938 113.985 58.583 113.985C58.5723 113.984 58.5617 113.982 58.5519 113.977C56.0119 112.936 53.4031 111.941 50.9432 110.768C50.7487 110.677 50.8802 110.413 51.0805 110.476Z" fill="#1E437D"/>
<path d="M50.3423 93.8756C50.3423 93.7955 50.5025 93.7726 50.5025 93.8756C50.5006 96.5813 50.6439 99.2852 50.9316 101.976C51.046 103.223 52.0758 110.122 54.3641 109.618C54.7417 109.538 54.9362 109.178 54.9991 108.634C54.9886 107.919 54.8867 107.207 54.6959 106.518C54.4442 105.07 54.244 103.623 54.1238 102.164C53.8596 99.4481 53.8903 96.7111 54.2154 94.0014C54.2154 93.9817 54.2232 93.9628 54.2371 93.9488C54.2511 93.9349 54.27 93.927 54.2897 93.927C54.3095 93.927 54.3284 93.9349 54.3423 93.9488C54.3563 93.9628 54.3641 93.9817 54.3641 94.0014C54.2942 97.7684 54.5257 101.535 55.0563 105.265C55.3367 107.061 56.2863 109.761 54.3183 110.036C52.3504 110.31 51.0174 105.791 50.7714 104.556C50.1456 101.031 50.0013 97.4386 50.3423 93.8756Z" fill="#1E437D"/>
<path d="M54.2783 109.795C54.4812 110.26 54.6532 110.738 54.7932 111.226C54.9353 111.59 55.0071 111.978 55.0048 112.37C55.0048 112.45 54.8904 112.455 54.8447 112.404C54.6111 112.052 54.4336 111.666 54.3183 111.26C54.1467 110.819 53.9636 110.379 53.8035 109.933C53.7005 109.664 54.1524 109.509 54.2783 109.795Z" fill="#1E437D"/>
<path d="M43.2435 73.7733C42.7027 77.4381 39.294 95.3743 33.9281 97.7056C27.4267 100.528 18.4019 101.715 14.098 101.074C11.6844 100.713 13.7374 88.8559 15.9488 88.9054C19.4307 88.9884 26.9177 87.9258 28.1609 87.6322C29.4042 87.3385 34.627 77.3362 38.2424 72.312C41.5023 67.8004 43.6254 71.1907 43.2435 73.7733Z" fill="#FFAE9D"/>
<path d="M7.97642 100.715C10.4179 101.505 16.047 101.176 17.3733 100.573C18.6996 99.9709 18.4429 90.3765 17.2362 89.4937C16.0294 88.6108 7.59759 86.5773 5.14639 87.5031C2.69518 88.4289 5.44418 99.8932 7.97642 100.715Z" fill="#FFAE9D"/>
<path d="M15.8596 88.8931C15.8596 88.8931 13.2631 86.789 11.7154 84.2851C10.4233 82.1735 8.7426 78.8936 7.58301 79.546C5.19916 80.8846 9.39448 89.0635 9.39448 89.0635C9.39448 89.0635 11.8231 92.379 14.3012 91.2605C14.7549 91.0493 15.1409 90.7161 15.4161 90.2981C15.6913 89.88 15.8449 89.3936 15.8596 88.8931Z" fill="#FFAE9D"/>
<path d="M9.21125 86.8305C10.1006 87.8602 8.37938 88.3184 8.37938 88.3184C8.37938 88.3184 11.0181 88.2565 11.5265 89.6689C12.0349 91.0812 9.91532 91.5201 9.76396 91.5565C9.90499 91.5528 12.3285 91.5562 12.6932 93.0334C13.0731 94.5673 10.8827 94.6889 10.7409 94.6973C10.8728 94.734 12.6148 95.2845 12.6386 96.4685C12.6749 98.5022 8.17873 97.2209 6.77536 98.0817C6.77536 98.0817 7.95789 100.619 7.9848 100.709C7.9848 100.709 3.67261 99.5669 2.62443 97.619C2.4656 97.3367 2.4082 97.0086 2.46179 96.6894C2.51537 96.3701 2.67671 96.079 2.91893 95.8645C2.91893 95.8645 1.4963 95.6479 1.16851 94.4996C1.00258 93.9078 1.80558 93.1173 1.80558 93.1173C1.80558 93.1173 0.66901 92.899 0.444056 91.8589C0.266961 91.0214 1.09253 90.3628 1.09253 90.3628C1.09253 90.3628 0.0994172 89.6484 0.187891 88.7392C0.359624 86.9077 7.29253 84.6345 9.21125 86.8305Z" fill="#FFAE9D"/>
<path d="M1.20099 90.2426C1.19924 90.2455 1.19677 90.248 1.19383 90.2498C1.19089 90.2515 1.18757 90.2525 1.18415 90.2526C1.18073 90.2528 1.17732 90.2521 1.17424 90.2506C1.17117 90.2491 1.16851 90.2468 1.16652 90.244C1.16453 90.2412 1.16325 90.238 1.16282 90.2346C1.16239 90.2312 1.16282 90.2278 1.16405 90.2246C1.16529 90.2214 1.16729 90.2185 1.1699 90.2163C1.1725 90.2141 1.17562 90.2126 1.17897 90.2119C3.35332 88.8474 5.89206 88.1777 8.4576 88.2918C8.53992 88.3005 8.5617 88.4372 8.47422 88.4448C5.97507 88.6877 3.52496 89.2933 1.20099 90.2426Z" fill="#1E437D"/>
<path d="M1.75798 93.1217C1.73563 93.1377 1.71198 93.087 1.72795 93.0798C3.89646 91.7473 6.96032 90.9455 9.80134 91.4789C9.89925 91.4976 9.96695 91.6099 9.85307 91.5984C7.95862 91.3897 3.92593 92.1957 1.75798 93.1217Z" fill="#1E437D"/>
<path d="M10.9172 94.808C8.17945 94.3952 5.58537 94.9031 3.0051 95.8197C2.97717 95.8397 2.9571 95.7822 2.97307 95.775C4.11846 94.9846 5.82617 94.5784 7.18423 94.3802C8.44089 94.1674 9.73171 94.2892 10.9271 94.7333C10.9774 94.7268 10.9747 94.8175 10.9172 94.808Z" fill="#1E437D"/>
<path d="M8.40144 88.29C8.49894 88.2963 8.38049 88.4318 8.4772 88.443C8.88677 88.4839 11.3237 88.9428 11.4302 89.8351C11.5112 90.5384 10.6148 91.1336 10.1803 91.2289L9.08399 91.4681L10.1909 91.6273C10.6828 91.6916 11.1607 91.8368 11.6055 92.0569C11.8175 92.1474 12.008 92.2816 12.1648 92.4507C12.3215 92.6198 12.4409 92.82 12.5151 93.0382C12.5808 93.2415 12.5749 93.461 12.4986 93.6603C12.4222 93.8596 12.2799 94.0267 12.0953 94.1338C11.6774 94.3655 11.2072 94.4867 10.7291 94.4859L9.40678 94.5274L10.6527 94.9044C11.0032 95.0115 11.3383 95.164 11.6494 95.3581C11.9525 95.5289 12.1982 95.7858 12.3553 96.0962C12.424 96.2386 12.451 96.3975 12.4334 96.5545C12.4158 96.7116 12.3541 96.8604 12.2556 96.9838C11.9946 97.2256 11.6685 97.3856 11.3174 97.444C10.566 97.5868 9.80441 97.6696 9.03977 97.6915C8.65627 97.7165 8.26798 97.7407 7.88131 97.7849C7.4906 97.8074 7.10908 97.9119 6.76154 98.0916C7.12056 97.9534 7.50311 97.8864 7.88787 97.8943C8.27179 97.8817 8.65812 97.8843 9.05368 97.9056C9.83605 97.934 10.6193 97.8901 11.3935 97.7744C11.8146 97.7186 12.2099 97.54 12.5301 97.261C12.6872 97.0903 12.7914 96.8777 12.83 96.6488C12.8687 96.42 12.8401 96.1848 12.7478 95.9717C12.5648 95.5806 12.2687 95.2533 11.8978 95.0323C11.5546 94.8115 11.1846 94.6358 10.7967 94.5094L10.7322 94.9447C11.2987 94.9544 11.8576 94.8153 12.3533 94.5413C12.6221 94.3809 12.8281 94.1335 12.9371 93.84C13.0332 93.5473 13.0388 93.2323 12.9532 92.9361C12.86 92.6598 12.7092 92.4064 12.511 92.1926C12.3127 91.9788 12.0715 91.8094 11.8031 91.6955C11.3103 91.4598 10.7817 91.3079 10.2391 91.2461L10.266 91.6497C10.8108 91.5135 11.883 90.9574 11.9017 89.8444C11.6952 88.364 8.912 88.2713 8.40144 88.29Z" fill="#1E437D"/>
<path d="M28.9922 85.5411L42.379 82.2404C43.2856 77.2545 43.8969 72.2194 44.2097 67.1614C44.6388 59.4331 41.8527 60.3941 36.6467 68.6201C33.3798 73.9087 30.8072 79.5958 28.9922 85.5411Z" fill="#A788CE"/>
<path d="M33.8603 78.2934C33.6666 78.7803 33.5452 79.2929 33.4999 79.815C33.8074 79.3932 34.0557 78.9312 34.2379 78.4421C34.4308 77.9589 34.5522 77.4501 34.5983 76.9319C34.2917 77.3502 34.0434 77.8082 33.8603 78.2934ZM41.2459 62.6651C41.1173 63.0347 41.0365 63.4192 41.0057 63.8092C41.3162 63.3884 41.5665 62.9263 41.7494 62.4363C41.7738 62.3746 41.7948 62.3116 41.8123 62.2476C41.6156 62.3756 41.4265 62.5151 41.2459 62.6651ZM40.6167 70.8625C40.1467 71.077 39.7079 71.3541 39.3123 71.6863C40.3457 71.5185 41.3176 71.0848 42.1327 70.4278C41.6097 70.502 41.0995 70.6483 40.6167 70.8625Z" fill="white"/>
<path d="M41.8184 79.7576C38.2296 80.8679 34.5816 81.7769 30.8915 82.4805C30.8457 82.4805 30.84 82.4176 30.8915 82.4061C31.7839 82.2345 37.705 80.507 41.8298 79.6775C41.8641 79.6947 41.8641 79.7404 41.8184 79.7576Z" fill="#1E437D"/>
<path opacity="0.1" d="M44.2095 67.1614C43.8967 72.2194 43.2854 77.2545 42.3788 82.2404L36.3147 83.7335L43.3457 62.0359C44.0493 62.5336 44.3697 64.2497 44.2095 67.1614Z" fill="black"/>
<path d="M44.7015 100.672L79.3471 93.8071C79.3471 93.8071 67.9454 70.3534 51.2004 61.275C47.3274 59.1699 41.3376 60.703 40.7369 64.3927C38.6831 77.1035 44.7015 100.672 44.7015 100.672Z" fill="#A788CE"/>
<path d="M50.1537 69.8841C49.9562 70.3682 49.8328 70.8792 49.7875 71.4C50.1002 70.9826 50.3507 70.5221 50.5313 70.0328C50.7247 69.5475 50.848 69.0371 50.8974 68.5169C50.5884 68.9367 50.3381 69.3966 50.1537 69.8841ZM47.0129 90.695C46.8182 91.1783 46.693 91.6868 46.6411 92.2052C46.9559 91.7871 47.2065 91.3244 47.3848 90.8323C47.5763 90.3484 47.6996 89.8401 47.7509 89.3221C47.44 89.7418 47.1914 90.2042 47.0129 90.695ZM58.8037 88.5384C58.6114 89.0242 58.4882 89.5344 58.4375 90.0543C58.7477 89.6344 58.9997 89.1745 59.187 88.6872C59.3793 88.2038 59.5007 87.6951 59.5474 87.177C59.2379 87.5944 58.9877 88.0525 58.8037 88.5384ZM41.0689 63.3685C41.0689 63.5116 41.0232 63.6488 41.0117 63.7976C41.3223 63.3768 41.5726 62.9147 41.7554 62.4247C41.7579 62.3961 41.7579 62.3674 41.7554 62.3389C41.4721 62.6458 41.2385 62.9951 41.0632 63.3743L41.0689 63.3685ZM65.3197 73.0361C65.1767 72.9617 65.0337 72.9045 64.8907 72.8416C64.4072 72.6493 63.8985 72.5279 63.3804 72.4812C63.7951 72.7948 64.2539 73.0454 64.7419 73.2248C65.0646 73.3435 65.3954 73.439 65.7316 73.5109C65.5943 73.3564 65.457 73.1962 65.314 73.0418L65.3197 73.0361ZM67.139 92.3311C66.6559 92.1375 66.1471 92.0161 65.6287 91.9707C66.4703 92.5795 67.4563 92.9581 68.4891 93.069C68.0717 92.7657 67.6158 92.5195 67.1333 92.3368L67.139 92.3311ZM46.4122 78.1845C45.9292 77.9879 45.4207 77.8608 44.9019 77.8069C45.3198 78.1202 45.7802 78.3726 46.2692 78.5563C46.7544 78.7492 47.2651 78.8706 47.7852 78.9167C47.3633 78.6091 46.8988 78.3643 46.4065 78.1902L46.4122 78.1845ZM74.4445 86.9596C74.237 86.4815 73.9635 86.0348 73.6322 85.6325C73.7976 86.6654 74.2294 87.6374 74.885 88.4526C74.8148 87.94 74.6742 87.4396 74.4674 86.9653L74.4445 86.9596ZM57.9398 76.0908C57.7312 75.6115 57.4579 75.163 57.1274 74.7579C57.201 75.2769 57.3514 75.782 57.5737 76.2567C57.7784 76.735 58.05 77.1818 58.3803 77.5838C58.307 77.0792 58.1665 76.5867 57.9627 76.1194L57.9398 76.0908ZM66.1435 82.4118C65.6638 82.6139 65.2166 82.8857 64.8163 83.2184C65.3316 83.1448 65.833 82.9944 66.3037 82.7722C66.7844 82.572 67.2319 82.3001 67.631 81.9657C67.122 82.0505 66.6284 82.2106 66.1664 82.4405L66.1435 82.4118ZM53.4489 95.7118C52.969 95.9159 52.5217 96.1896 52.1217 96.5241C52.6364 96.4478 53.1374 96.2976 53.6091 96.0779C54.0879 95.8717 54.5348 95.5982 54.9363 95.2657C54.4216 95.342 53.9206 95.4922 53.4489 95.7118ZM40.617 70.8623L40.2909 71.0282V71.4172C40.4589 71.3653 40.6233 71.3022 40.7829 71.2284C41.2614 71.0217 41.7083 70.7482 42.1101 70.4161C41.5944 70.496 41.092 70.6462 40.617 70.8623ZM52.3105 83.8477C51.8294 84.0496 51.3819 84.3235 50.9832 84.66C51.4985 84.5864 51.9999 84.436 52.4706 84.2138C52.9517 84.0118 53.3992 83.7379 53.7979 83.4015C53.2918 83.4833 52.7991 83.6334 52.3333 83.8477H52.3105ZM56.275 64.5698C56.2384 64.5913 56.204 64.6162 56.172 64.6442C56.2263 64.6402 56.28 64.6307 56.3322 64.6156L56.275 64.5698Z" fill="white"/>
<path d="M50.9142 63.1053C57.9681 60.8744 76.3035 55.9033 79.2554 50.3774C83.1342 43.1239 80.3081 26.8779 78.3516 24.1492C77.276 22.6448 67.0299 26.7349 65.9544 28.3938C64.8789 30.0527 66.8297 42.6548 66.4407 44.0849C66.0517 45.515 53.3799 53.3806 47.8135 57.9226C40.794 63.6774 45.3764 64.8558 50.9142 63.1053Z" fill="#FFAE9D"/>
<path d="M69.5417 57.5681L58.0484 49.9485C58.0484 49.9485 53.8264 52.9631 47.8481 57.8827C41.8698 62.8023 42.2416 65.8913 51.8527 64.1752C61.4638 62.4591 69.5417 57.5681 69.5417 57.5681Z" fill="#A788CE"/>
<path d="M60.5825 56.4585C60.0991 56.2662 59.5904 56.1448 59.0722 56.0981C59.4904 56.4064 59.9484 56.6566 60.4338 56.8418C60.9192 57.0341 61.4297 57.1555 61.9498 57.2022C61.5309 56.8917 61.0707 56.6414 60.5825 56.4585ZM50.5252 59.6219C50.3198 59.1427 50.0461 58.6957 49.7128 58.2948C49.788 58.8109 49.9363 59.3136 50.1533 59.7878C50.3588 60.267 50.6324 60.714 50.9657 61.115C50.8914 60.5987 50.743 60.0959 50.5252 59.6219Z" fill="white"/>
<path d="M56.5951 52.0537C59.8468 53.944 62.9905 56.0142 66.0117 58.2546C66.046 58.2546 66.0117 58.3347 65.9602 58.3061C65.2279 57.7341 59.9475 54.5821 56.5436 52.1109C56.5036 52.0823 56.555 52.0251 56.5951 52.0537Z" fill="#1E437D"/>
<path d="M51.824 64.1638C52.3042 63.9844 52.7977 63.8429 53.3 63.7405C53.8016 63.6208 54.3127 63.5442 54.8274 63.5117C54.3623 63.7404 53.8703 63.9095 53.3629 64.0151C52.8589 64.1333 52.3413 64.1834 51.824 64.1638Z" fill="#1E437D"/>
<path d="M52.5908 64.4669C52.9555 64.213 53.3378 63.9855 53.7349 63.7861C53.6001 63.9712 53.4238 64.122 53.2201 64.2266C53.0236 64.3379 52.8114 64.4189 52.5908 64.4669Z" fill="#1E437D"/>
<path d="M43.0196 67.573C44.9247 67.6131 47.3275 63.8891 48.0712 61.3835C48.1227 61.2119 47.6478 59.9248 47.03 57.9513C46.6581 56.7729 46.2691 55.4515 46.0059 54.2159C45.9544 53.9642 38.6775 57.7568 38.6775 57.7568C39.4506 59.2047 40.0442 60.7415 40.4452 62.3331C40.4775 62.5049 40.4967 62.679 40.5025 62.8537C40.5 62.8822 40.5 62.911 40.5025 62.9395C40.5597 63.9577 41.189 67.533 43.0196 67.573Z" fill="#FFAE9D"/>
<path d="M41.3089 62.8308C41.046 62.8965 40.7781 62.9405 40.508 62.9624C40.5055 62.9339 40.5055 62.9052 40.508 62.8766C40.5022 62.7019 40.4831 62.5279 40.4508 62.3561C40.0505 60.765 39.4588 59.2284 38.6887 57.7797C38.6887 57.7797 44.5869 54.7021 45.7998 54.2788C45.857 55.7604 45.8455 61.7497 41.3089 62.8308Z" fill="#1D293F"/>
<path d="M43.2257 44.9374C45.0678 47.2255 46.7326 55.2799 45.5598 57.6996C43.8436 61.212 39.5643 63.2141 36.2005 60.823C32.9396 58.5348 30.9601 47.9635 32.4132 45.6066C34.5471 42.1401 40.5026 41.568 43.2257 44.9374Z" fill="#FFAE9D"/>
<path d="M38.9633 52.2368C38.9633 52.2368 39.0091 52.2368 39.0148 52.2769C39.1121 52.8203 39.318 53.4209 39.8443 53.5068V53.5411C39.2322 53.5926 38.969 52.8089 38.9633 52.2368Z" fill="#1D293F"/>
<path d="M39.3297 51.5788C40.1878 51.3271 40.6283 53.0661 39.8274 53.2949C39.0265 53.5237 38.6088 51.7904 39.3297 51.5788Z" fill="#1D293F"/>
<path d="M35.7426 52.9802C35.7426 52.9802 35.7082 53.0203 35.7426 53.0374C35.897 53.5751 35.9771 54.1815 35.5366 54.5076C35.5366 54.5076 35.5366 54.5476 35.5366 54.5419C36.0915 54.3074 35.9714 53.4607 35.7426 52.9802Z" fill="#1D293F"/>
<path d="M35.1191 52.5399C34.2381 52.6944 34.6099 54.4448 35.428 54.3018C36.2461 54.1588 35.8628 52.4141 35.1191 52.5399Z" fill="#1D293F"/>
<path d="M39.7988 50.3775C39.5558 50.4069 39.3113 50.4221 39.0665 50.4233C38.8097 50.4775 38.5422 50.4453 38.3056 50.3318C38.2388 50.2813 38.1903 50.2104 38.1676 50.1299C38.1449 50.0493 38.1491 49.9635 38.1798 49.8856C38.2659 49.7421 38.3887 49.6241 38.5355 49.5437C38.6822 49.4633 38.8477 49.4233 39.015 49.4279C39.3535 49.3829 39.6965 49.4666 39.9761 49.6625C40.0388 49.7097 40.0862 49.7744 40.1125 49.8484C40.1387 49.9223 40.1426 50.0024 40.1237 50.0786C40.1048 50.1548 40.064 50.2237 40.0062 50.2769C39.9484 50.33 39.8763 50.365 39.7988 50.3775Z" fill="#1D293F"/>
<path d="M34.2325 51.8362C34.4533 51.7315 34.6673 51.613 34.8732 51.4816C35.1104 51.3866 35.3109 51.2182 35.4453 51.001C35.4764 50.9227 35.4803 50.8361 35.4564 50.7553C35.4326 50.6744 35.3824 50.6039 35.3138 50.5549C35.1646 50.4795 34.998 50.445 34.8312 50.4551C34.6643 50.4651 34.5031 50.5193 34.3641 50.6121C34.0525 50.7571 33.8072 51.0145 33.6776 51.3328C33.6477 51.4085 33.6416 51.4915 33.6601 51.5707C33.6786 51.6499 33.7208 51.7217 33.781 51.7763C33.8413 51.831 33.9168 51.866 33.9974 51.8767C34.0781 51.8874 34.1601 51.8733 34.2325 51.8362Z" fill="#1D293F"/>
<path d="M39.8211 57.6661C39.7239 57.8263 39.6438 58.0322 39.4493 58.0951C39.2475 58.1381 39.0389 58.1381 38.8372 58.0951C38.8372 58.0951 38.8372 58.0951 38.8372 58.1294C38.9412 58.2165 39.067 58.2736 39.201 58.2947C39.335 58.3159 39.4722 58.3003 39.598 58.2496C39.7004 58.196 39.7842 58.1127 39.8384 58.0106C39.8925 57.9085 39.9144 57.7923 39.9012 57.6775C39.8841 57.6432 39.8383 57.6432 39.8211 57.6661Z" fill="#1D293F"/>
<path d="M37.3457 55.5833C37.2141 55.6977 36.4463 56.2469 36.4005 56.0295C35.9797 54.1506 35.7497 52.2341 35.714 50.3091C35.714 50.2954 35.7194 50.2823 35.7291 50.2727C35.7387 50.263 35.7518 50.2576 35.7655 50.2576C35.7791 50.2576 35.7922 50.263 35.8019 50.2727C35.8115 50.2823 35.817 50.2954 35.817 50.3091C36.2174 52.0252 36.309 53.8386 36.6865 55.5833C36.9283 55.3874 37.3457 55.207 37.9028 54.7377C38.5002 54.2345 37.9028 55.087 37.3457 55.5833Z" fill="#1D293F"/>
<path d="M37.4297 57.2541C37.7238 57.4699 38.0687 57.6059 38.4309 57.6488C38.63 57.667 38.8299 57.623 39.003 57.5229C39.3748 57.2998 39.2776 56.9223 39.1117 56.6306C39.0211 56.4729 38.9116 56.3269 38.7856 56.1958C38.4605 56.6863 37.9846 57.0578 37.4297 57.2541Z" fill="#1D293F"/>
<path d="M38.4308 57.6489C38.63 57.6671 38.8298 57.6231 39.0029 57.523C39.3748 57.2999 39.2775 56.9224 39.1116 56.6306C38.8997 56.6984 38.7171 56.836 38.5935 57.0209C38.4698 57.2058 38.4125 57.4272 38.4308 57.6489Z" fill="#EE684E"/>
<path d="M46.4577 50.7779C44.4268 51.6818 42.4531 49.5881 42.2014 47.4143C42.2014 47.4143 36.9267 50.1544 35.0503 45.8012C34.8816 46.5441 34.5323 47.2339 34.0334 47.8096C33.5345 48.3854 32.9013 48.8292 32.1899 49.1018V50.9667C31.5606 51.0067 30.3706 49.611 31.3031 47.8433C30.9075 46.4459 31.0674 44.9497 31.7493 43.6674C32.0525 43.1254 32.506 42.6825 33.0551 42.3922C33.6043 42.102 34.2256 41.9767 34.8443 42.0314C35.5556 40.9828 36.6472 40.2524 37.8878 39.9949C38.5384 39.8721 39.2088 39.9061 39.8436 40.0941C40.4783 40.2822 41.0591 40.6188 41.5378 41.0761C41.5378 41.0761 44.4726 40.607 45.6454 42.3861C45.9855 42.8819 46.2182 43.4434 46.3286 44.0345C46.4389 44.6255 46.4245 45.2332 46.2861 45.8183C46.2861 45.8183 47.2529 46.3332 47.5046 48.1065C47.6191 49.2963 47.0641 50.5205 46.4577 50.7779Z" fill="#1D293F"/>
<path d="M35.0277 45.3723C35.1167 45.749 35.2451 46.1152 35.411 46.4649C35.5623 46.8125 35.7543 47.1408 35.9831 47.4431C36.4396 48.0445 37.1051 48.4528 37.8481 48.5872C38.5976 48.6881 39.3603 48.6097 40.0735 48.3584C40.4339 48.2211 40.8001 48.101 41.149 47.9408C41.498 47.7806 41.8413 47.5976 42.196 47.4374C41.8756 47.649 41.5381 47.8493 41.2063 48.0609C40.8744 48.2726 40.5026 48.3927 40.1422 48.5586C39.3994 48.852 38.5949 48.9543 37.8023 48.8561C36.9999 48.705 36.2879 48.2475 35.8172 47.5804C35.3738 46.9218 35.1023 46.1627 35.0277 45.3723Z" fill="#1D293F"/>
<path d="M41.4919 41.0761C42.1983 40.8285 42.9477 40.7273 43.6945 40.7786C44.4673 40.8182 45.201 41.1303 45.7654 41.6596C46.0295 41.9389 46.246 42.2597 46.4062 42.6091C46.579 42.9474 46.6913 43.3133 46.738 43.6903C46.8466 44.4443 46.6691 45.2116 46.2403 45.8412C46.5646 45.186 46.667 44.4431 46.532 43.7246C46.3993 43.0213 46.0654 42.3715 45.5709 41.854C45.3195 41.6133 45.0269 41.4195 44.7071 41.282C44.374 41.1499 44.0264 41.0577 43.6716 41.0074C42.9459 40.9163 42.2104 40.9394 41.4919 41.0761Z" fill="#1D293F"/>
<path d="M34.7989 42.0314C34.2157 42.0298 33.6361 42.1225 33.0826 42.306C32.5342 42.4817 32.0399 42.7948 31.6467 43.2155C31.2697 43.6547 31.0099 44.1821 30.8915 44.7486C30.7691 45.3274 30.7325 45.921 30.7828 46.5105C30.6275 45.9228 30.5944 45.3095 30.6856 44.7086C30.7595 44.0864 31.024 43.5023 31.4429 43.0363C31.8618 42.5704 32.4146 42.2453 33.0254 42.1058C33.6044 41.954 34.2092 41.9287 34.7989 42.0314Z" fill="#1D293F"/>
<path d="M33.1052 48.9704C33.6348 48.542 34.0908 48.0299 34.4554 47.4545C34.6299 47.1704 34.7665 46.8646 34.8615 46.545C34.9527 46.2145 35.0064 45.8749 35.0217 45.5325C35.1114 45.8781 35.127 46.2387 35.0675 46.5907C35.0081 46.9476 34.8798 47.2896 34.6899 47.5975C34.5021 47.9021 34.2686 48.1761 33.9977 48.4098C33.7321 48.6432 33.4308 48.8325 33.1052 48.9704Z" fill="#1D293F"/>
<path d="M34.8617 56.3725C33.9464 56.5613 32.9624 55.5945 32.6706 54.2159C32.3789 52.8373 32.888 51.5502 33.8148 51.3557C34.7416 51.1612 35.7141 52.1279 36.0059 53.5123C36.2977 54.8966 35.7771 56.178 34.8617 56.3725ZM33.872 51.6932C33.1397 51.8477 32.7564 52.946 33.0082 54.1415C33.2599 55.3371 34.0608 56.1895 34.7931 56.035C35.5254 55.8806 35.9373 54.7822 35.6512 53.5809C35.3652 52.3797 34.5986 51.5387 33.872 51.6932Z" fill="#1E437D"/>
<path d="M40.4796 55.1827C39.9837 55.323 39.457 55.311 38.968 55.148C38.4791 54.9851 38.0504 54.6789 37.7378 54.2692C37.4252 53.8594 37.2431 53.3651 37.2152 52.8505C37.1873 52.3359 37.3148 51.8248 37.5812 51.3837C37.8476 50.9425 38.2405 50.5917 38.709 50.3768C39.1774 50.1619 39.6997 50.0929 40.2079 50.1787C40.7161 50.2645 41.1867 50.5012 41.5586 50.858C41.9305 51.2149 42.1864 51.6753 42.2931 52.1795C42.4472 52.818 42.3432 53.4915 42.0037 54.0538C41.6641 54.6161 41.1165 55.0218 40.4796 55.1827ZM39.4727 50.5206C39.0294 50.5832 38.6152 50.7781 38.2844 51.0799C37.9536 51.3816 37.7215 51.7761 37.6185 52.2118C37.5154 52.6475 37.5462 53.1042 37.7068 53.5221C37.8674 53.94 38.1504 54.2998 38.5187 54.5544C38.8871 54.809 39.3236 54.9465 39.7714 54.9491C40.2191 54.9517 40.6573 54.8191 41.0285 54.5688C41.3997 54.3184 41.6868 53.9619 41.8522 53.5459C42.0176 53.1298 42.0536 52.6735 41.9556 52.2367C41.8512 51.6813 41.5319 51.1895 41.067 50.8682C40.6021 50.5469 40.0292 50.4219 39.4727 50.5206Z" fill="#1E437D"/>
<path d="M37.6764 52.9174C36.3263 52.7458 35.8457 53.2778 35.84 53.2835L35.5768 53.0604C35.5768 53.0318 36.1489 52.3797 37.7164 52.5799L37.6764 52.9174Z" fill="#1E437D"/>
<path d="M42.0755 51.9962L41.9439 51.6759C42.1556 51.5901 45.5195 50.1829 46.0687 50.0341C46.6179 49.8854 48.1797 50.3545 48.357 50.406L48.254 50.732C47.5899 50.4985 46.8927 50.373 46.1888 50.3602C45.7655 50.4803 43.8375 51.264 42.0755 51.9962Z" fill="#1E437D"/>
<path d="M44.261 51.6646C44.261 51.6646 45.039 48.5641 46.3834 48.7529C47.7278 48.9417 47.7908 52.9746 46.6695 53.9585C46.5348 54.0944 46.3739 54.2016 46.1967 54.2737C46.0194 54.3459 45.8294 54.3814 45.6381 54.3782C45.4468 54.375 45.2581 54.3331 45.0834 54.2551C44.9086 54.1771 44.7515 54.0645 44.6214 53.9242L44.261 51.6646Z" fill="#FFAE9D"/>
<path d="M46.3722 49.9028V49.9372C45.5941 50.6522 45.4397 51.6876 45.4339 52.6944C45.4531 52.5832 45.4959 52.4773 45.5595 52.3841C45.6231 52.2908 45.7059 52.2122 45.8024 52.1536C45.8989 52.0951 46.0069 52.0579 46.119 52.0446C46.2311 52.0313 46.3447 52.0422 46.4522 52.0766C46.4866 52.0766 46.4522 52.1281 46.4522 52.1338C46.272 52.1451 46.0996 52.2116 45.9584 52.3241C45.8172 52.4367 45.714 52.5899 45.6628 52.763C45.5818 53.0525 45.5319 53.3497 45.514 53.6497C45.514 53.747 45.3367 53.7584 45.331 53.6497C44.879 52.4713 45.1937 50.5206 46.3722 49.9028Z" fill="#1D293F"/>
<path d="M40.2507 64.3066C40.6626 65.8168 41.7209 69.2891 44.1409 68.2423C45.0884 67.7593 45.8812 67.02 46.4292 66.1086C47.0028 65.2612 47.4823 64.354 47.8594 63.4028C48.313 62.3617 48.6785 61.2844 48.9521 60.1822C48.9521 60.1364 49.0322 60.1822 49.0265 60.1822C48.8685 61.305 48.5845 62.4065 48.1798 63.4657C47.8104 64.5219 47.2984 65.5227 46.6581 66.4404C46.0709 67.3829 45.2221 68.1343 44.2152 68.6027C43.7741 68.7842 43.2846 68.8117 42.8259 68.681C42.3671 68.5502 41.9658 68.2687 41.6866 67.8819C40.9295 66.8218 40.4372 65.5959 40.2507 64.3066Z" fill="#1E437D"/>
<path d="M64.3528 30.1787C64.1651 29.7333 64.1232 29.2399 64.2331 28.7693C64.3431 28.2986 64.5993 27.8748 64.965 27.5587C64.965 27.5587 62.8254 27.1297 62.4478 25.3735C62.2533 24.464 63.5405 23.3485 63.5405 23.3485C63.5405 23.3485 61.8242 22.9309 61.6068 21.3464C61.4123 20.0821 62.751 19.1497 62.751 19.1497C62.751 19.1497 61.3208 18.0056 61.5382 16.6384C61.9901 13.8984 72.6996 11.0324 75.3827 14.499C76.6298 16.1122 73.9754 16.6728 73.9754 16.6728C73.9754 16.6728 77.98 16.7815 78.6093 18.9609C79.2386 21.1404 75.7488 21.6495 75.7488 21.6495C75.7488 21.6495 79.6276 21.7926 80.0509 24.1093C80.4914 26.5233 76.9159 26.449 76.9159 26.449C76.9159 26.449 79.7191 27.41 79.6333 29.2634C79.4903 32.3239 73.7236 30.0643 71.5154 31.2484L71.5497 35.35C71.5497 35.35 65.0737 31.9921 64.3528 30.1787Z" fill="#FFAE9D"/>
<path d="M62.9282 18.9724C62.8938 18.9724 62.8709 18.9381 62.8996 18.9209C66.3215 17.0523 70.2261 16.2551 74.1067 16.6328C74.2326 16.6328 74.2555 16.8558 74.1067 16.8616C70.299 17.0287 66.5347 17.7395 62.9282 18.9724Z" fill="#1E437D"/>
<path d="M63.5004 23.3372C63.4604 23.3372 63.4375 23.2857 63.5004 23.2686C66.933 21.438 71.6355 20.4713 75.8747 21.5124C76.0177 21.5467 76.115 21.724 75.9434 21.6954C73.0314 21.2206 66.8586 22.1245 63.5004 23.3372Z" fill="#1E437D"/>
<path d="M77.1848 26.6092C73.0829 25.774 69.1069 26.3289 65.1023 27.4787C65.0508 27.4787 65.0337 27.4158 65.0737 27.3929C66.8872 26.3003 69.5131 25.8312 71.5841 25.6367C73.5088 25.4272 75.455 25.7229 77.2306 26.4948C77.2878 26.4948 77.2706 26.6264 77.1848 26.6092Z" fill="#1E437D"/>
<path d="M177.809 7.14258H79.3754C78.0554 7.15454 76.7507 7.42638 75.5358 7.94257C74.3208 8.45875 73.2195 9.20917 72.2946 10.151C71.3697 11.0928 70.6394 12.2076 70.1454 13.4316C69.6514 14.6556 69.4033 15.965 69.4154 17.2849V219.902C69.3925 222.568 70.4287 225.133 72.2963 227.035C74.1639 228.936 76.71 230.019 79.3754 230.045H177.809C180.475 230.019 183.023 228.937 184.892 227.035C186.761 225.134 187.8 222.569 187.78 219.902V17.2849C187.802 14.6182 186.763 12.052 184.894 10.1503C183.024 8.24855 180.476 7.16675 177.809 7.14258ZM181.55 213.65C181.55 218.981 177.546 223.295 172.631 223.295H84.57C79.6329 223.295 75.634 218.981 75.634 213.65V24.9674C75.634 14.0986 79.6386 13.5723 84.57 13.5723H102.207C103.237 13.5723 104.072 14.7164 104.072 16.1809V16.8044C104.072 20.1852 105.926 20.1966 108.197 20.1966H148.987C151.275 20.1966 153.123 20.1966 153.123 16.8044V16.198C153.123 14.7507 153.953 13.5895 154.994 13.5895H172.631C177.557 13.5895 181.55 15.031 181.55 24.9846V213.65Z" fill="#1D293F"/>
<path d="M181.556 25.1331V213.804C181.556 219.136 177.551 223.449 172.637 223.449H84.5758C79.6387 223.449 75.6398 219.136 75.6398 213.804V25.1331C75.6398 14.2643 79.6444 13.738 84.5758 13.738H102.219C103.243 13.738 104.078 14.8821 104.078 16.3466V16.9701C104.078 20.3509 105.932 20.3623 108.203 20.3623H148.993C151.281 20.3623 153.129 20.3623 153.129 16.9701V16.3466C153.129 14.8993 153.959 13.738 155 13.738H172.637C177.563 13.738 181.556 15.1796 181.556 25.1331Z" fill="white"/>
<path d="M181.556 25.1331V42.2487H75.6398V25.1331C75.6398 14.2643 79.6444 13.738 84.5758 13.738H102.219C103.243 13.738 104.078 14.8821 104.078 16.3466V16.9701C104.078 20.3509 105.932 20.3623 108.203 20.3623H148.993C151.281 20.3623 153.129 20.3623 153.129 16.9701V16.3466C153.129 14.905 153.959 13.738 155 13.738H172.637C177.563 13.738 181.556 15.1853 181.556 25.1331Z" fill="#6AA6DA"/>
<path d="M134.159 15.9691H123.031C122.849 15.9691 122.675 15.8968 122.546 15.768C122.417 15.6393 122.345 15.4647 122.345 15.2826C122.345 15.1006 122.417 14.926 122.546 14.7973C122.675 14.6685 122.849 14.5962 123.031 14.5962H134.159C134.341 14.5962 134.515 14.6685 134.644 14.7973C134.773 14.926 134.845 15.1006 134.845 15.2826C134.846 15.373 134.829 15.4626 134.794 15.5462C134.76 15.6299 134.71 15.7058 134.646 15.7697C134.582 15.8336 134.506 15.8842 134.422 15.9184C134.339 15.9526 134.249 15.9699 134.159 15.9691Z" fill="white"/>
<path d="M99.1639 17.8054L98.9923 17.977C98.9923 18.0113 98.9294 18.0399 98.895 18.0742C98.4595 17.639 97.8689 17.3945 97.2532 17.3945C96.6374 17.3945 96.0468 17.639 95.6113 18.0742L95.5197 17.9827L95.3538 17.8111L95.5655 17.6223C95.7195 17.4952 95.8886 17.3876 96.0689 17.302C96.2774 17.1988 96.4986 17.1238 96.7268 17.0789L97.0586 17.0388H97.3447C97.4191 17.0388 97.4992 17.0388 97.5735 17.0388C97.779 17.0606 97.9809 17.1087 98.1742 17.1818C98.3177 17.2326 98.4557 17.2977 98.5861 17.3763C98.7259 17.4533 98.858 17.5433 98.9809 17.6452L99.1582 17.8111L99.1639 17.8054Z" fill="white"/>
<path d="M96.1489 18.6119L95.88 18.343C96.1714 18.0343 96.5584 17.8327 96.9784 17.771C97.2764 17.727 97.5805 17.7532 97.8666 17.8476C98.1526 17.9419 98.4127 18.1018 98.626 18.3144C98.5345 18.4059 98.4487 18.4975 98.3571 18.5833C98.0634 18.2925 97.6664 18.13 97.253 18.1314C97.0462 18.1335 96.8419 18.1771 96.6522 18.2596C96.4625 18.3422 96.2914 18.4619 96.1489 18.6119Z" fill="white"/>
<path d="M98.0883 18.8808L97.8194 19.1439C97.7442 19.0694 97.6549 19.0107 97.5566 18.9714C97.4583 18.9321 97.3531 18.9129 97.2473 18.9151C97.1409 18.9123 97.035 18.9317 96.9365 18.9721C96.838 19.0125 96.749 19.073 96.6752 19.1496L96.4063 18.8808C96.5135 18.7646 96.6435 18.672 96.7882 18.6086C96.933 18.5452 97.0893 18.5125 97.2473 18.5125C97.4053 18.5125 97.5616 18.5452 97.7063 18.6086C97.8511 18.672 97.9811 18.7646 98.0883 18.8808Z" fill="white"/>
<path d="M97.4989 19.39C97.5001 19.4389 97.4866 19.487 97.4603 19.5282C97.434 19.5694 97.396 19.6018 97.3511 19.6213C97.3063 19.6408 97.2566 19.6465 97.2086 19.6376C97.1605 19.6288 97.1161 19.6058 97.0811 19.5717C97.0461 19.5375 97.0221 19.4937 97.0122 19.4458C97.0022 19.398 97.0067 19.3482 97.0252 19.3029C97.0436 19.2577 97.0751 19.2189 97.1157 19.1916C97.1563 19.1643 97.2041 19.1497 97.2529 19.1497C97.285 19.149 97.3168 19.1546 97.3467 19.1663C97.3765 19.1781 97.4036 19.1957 97.4266 19.218C97.4495 19.2404 97.4677 19.2672 97.4801 19.2967C97.4926 19.3262 97.4989 19.3579 97.4989 19.39Z" fill="white"/>
<path d="M82.5448 18.326C82.5436 18.1866 82.5839 18.05 82.6606 17.9336C82.7372 17.8171 82.8467 17.726 82.9752 17.6719C83.1036 17.6178 83.2453 17.603 83.3822 17.6295C83.519 17.656 83.645 17.7226 83.7439 17.8208C83.8429 17.9189 83.9105 18.0443 83.9381 18.1809C83.9658 18.3176 83.9522 18.4593 83.8991 18.5882C83.846 18.7171 83.7558 18.8274 83.64 18.9049C83.5241 18.9825 83.3879 19.0239 83.2484 19.0239C83.0628 19.0239 82.8847 18.9506 82.7529 18.8199C82.6211 18.6891 82.5463 18.5117 82.5448 18.326Z" fill="white"/>
<path d="M84.753 18.326C84.7519 18.1866 84.7922 18.05 84.8688 17.9336C84.9454 17.8171 85.0549 17.726 85.1834 17.6719C85.3119 17.6178 85.4535 17.603 85.5904 17.6295C85.7273 17.656 85.8532 17.7226 85.9522 17.8208C86.0512 17.9189 86.1188 18.0443 86.1464 18.1809C86.174 18.3176 86.1604 18.4593 86.1073 18.5882C86.0542 18.7171 85.964 18.8274 85.8482 18.9049C85.7324 18.9825 85.5961 19.0239 85.4567 19.0239C85.2711 19.0239 85.0929 18.9506 84.9611 18.8199C84.8293 18.6891 84.7545 18.5117 84.753 18.326Z" fill="white"/>
<path d="M86.9555 18.326C86.9544 18.1866 86.9947 18.05 87.0713 17.9336C87.148 17.8171 87.2575 17.726 87.3859 17.6719C87.5144 17.6178 87.6561 17.603 87.7929 17.6295C87.9298 17.656 88.0557 17.7226 88.1547 17.8208C88.2537 17.9189 88.3213 18.0443 88.3489 18.1809C88.3765 18.3176 88.3629 18.4593 88.3098 18.5882C88.2567 18.7171 88.1666 18.8274 88.0507 18.9049C87.9349 18.9825 87.7986 19.0239 87.6592 19.0239C87.4736 19.0239 87.2954 18.9506 87.1636 18.8199C87.0318 18.6891 86.957 18.5117 86.9555 18.326Z" fill="white"/>
<path d="M89.1754 18.326C89.1743 18.1866 89.2146 18.05 89.2912 17.9336C89.3679 17.8171 89.4774 17.726 89.6058 17.6719C89.7343 17.6178 89.876 17.603 90.0128 17.6295C90.1497 17.656 90.2756 17.7226 90.3746 17.8208C90.4736 17.9189 90.5412 18.0443 90.5688 18.1809C90.5964 18.3176 90.5828 18.4593 90.5297 18.5882C90.4767 18.7171 90.3865 18.8274 90.2706 18.9049C90.1548 18.9825 90.0185 19.0239 89.8791 19.0239C89.6935 19.0239 89.5153 18.9506 89.3835 18.8199C89.2517 18.6891 89.1769 18.5117 89.1754 18.326Z" fill="white"/>
<path d="M91.3892 18.3262C91.3881 18.1873 91.4281 18.0511 91.5042 17.935C91.5804 17.8188 91.6892 17.7277 91.817 17.6732C91.9448 17.6188 92.0859 17.6034 92.2224 17.629C92.359 17.6546 92.4849 17.72 92.5843 17.817C92.6837 17.914 92.7522 18.0383 92.7811 18.1742C92.81 18.3101 92.798 18.4515 92.7467 18.5805C92.6954 18.7096 92.607 18.8206 92.4926 18.8996C92.3783 18.9785 92.2432 19.0218 92.1043 19.0241C92.0114 19.0256 91.9191 19.0087 91.8328 18.9744C91.7465 18.94 91.6678 18.889 91.6013 18.8241C91.5349 18.7592 91.4819 18.6818 91.4455 18.5964C91.4091 18.5109 91.3899 18.4191 91.3892 18.3262Z" fill="white"/>
<path d="M173.604 19.8533H167.883V17.2104H173.604V19.8533ZM168.192 19.5615H173.341V17.5022H168.192V19.5615Z" fill="white"/>
<path d="M172.048 17.6567H168.364V19.4072H172.048V17.6567Z" fill="white"/>
<path d="M174.119 17.8225H173.61V19.2412H174.119V17.8225Z" fill="white"/>
<path d="M85.6741 35.6991L82.5447 32.7703L85.6741 29.8357L86.1603 30.3563L83.5802 32.7703L86.1603 35.1843L85.6741 35.6991Z" fill="white"/>
<path d="M94.3182 136.653V136.224L96.6066 136.195V136.624L94.3182 136.653ZM91.4578 136.653C90.6798 136.653 89.9189 136.653 89.1694 136.619V136.19C89.9322 136.19 90.695 136.201 91.4578 136.224V136.653ZM99.467 136.561V136.132L101.755 136.052V136.481L99.467 136.561ZM86.309 136.561C85.5367 136.527 84.7701 136.493 84.0207 136.447V136.024L86.309 136.132V136.561ZM104.616 136.378V135.949C105.365 135.909 106.126 135.869 106.904 135.818V136.247L104.616 136.378ZM81.1602 136.258C80.3879 136.201 79.627 136.132 78.8719 136.058L78.9176 135.635C79.6614 135.703 80.4165 135.772 81.206 135.829L81.1602 136.258ZM109.765 136.064L109.736 135.635L112.024 135.463L112.059 135.892L109.765 136.064ZM76.0114 135.749C75.2391 135.658 74.4782 135.555 73.7231 135.446L73.786 135.023C74.524 135.131 75.2792 135.229 76.0744 135.326L76.0114 135.749ZM114.885 135.658L114.845 135.229L117.133 135.023L117.173 135.452L114.885 135.658ZM120.034 135.177L119.994 134.748L122.282 134.508L122.328 134.937L120.034 135.177ZM70.937 134.954C70.1704 134.817 69.421 134.668 68.683 134.519L68.7688 134.096C69.5011 134.25 70.2505 134.393 71.0114 134.531L70.937 134.954ZM125.159 134.588L125.114 134.159L125.686 134.096L127.368 133.884L127.425 134.308C126.853 134.388 126.281 134.456 125.709 134.519L125.159 134.588ZM130.274 133.896L130.205 133.472C130.96 133.352 131.71 133.226 132.465 133.089L132.539 133.512C131.773 133.644 131.006 133.776 130.263 133.896H130.274ZM65.8912 133.896C65.1418 133.707 64.3981 133.507 63.6715 133.324L63.7916 132.912C64.5125 133.118 65.2505 133.318 65.9942 133.484L65.8912 133.896ZM135.354 132.986L135.268 132.563C136.018 132.408 136.761 132.248 137.505 132.082L137.597 132.5C136.842 132.654 136.092 132.815 135.343 132.969L135.354 132.986ZM60.9369 132.443C60.1989 132.191 59.4724 131.922 58.7802 131.653L58.9346 131.253C59.6268 131.522 60.3477 131.785 61.0742 132.037L60.9369 132.443ZM140.388 131.842L140.285 131.43C141.023 131.247 141.761 131.058 142.494 130.858L142.608 131.27C141.876 131.453 141.115 131.642 140.377 131.825L140.388 131.842ZM56.1371 130.521C55.4334 130.195 54.7412 129.846 54.0833 129.497L54.2893 129.113C54.9414 129.462 55.6222 129.806 56.3202 130.132L56.1371 130.521ZM145.383 130.521L145.263 130.109L147.448 129.462L147.574 129.874L145.383 130.521ZM150.308 129.016L150.177 128.604L152.345 127.889L152.482 128.295C151.733 128.513 151.029 128.759 150.28 128.993L150.308 129.016ZM51.6176 128.049C50.9712 127.638 50.3304 127.197 49.7183 126.751L49.9757 126.402C50.5478 126.848 51.2114 127.277 51.8522 127.689L51.6176 128.049ZM155.165 127.352L155.022 126.945C155.743 126.688 156.458 126.425 157.168 126.162L157.322 126.562C156.601 126.808 155.886 127.066 155.16 127.329L155.165 127.352ZM160 125.538L159.839 125.138C160.555 124.863 161.264 124.566 161.968 124.291L162.128 124.692C161.418 124.955 160.709 125.235 159.994 125.515L160 125.538ZM47.4585 124.966C46.8864 124.457 46.3144 123.925 45.7823 123.382L46.0912 123.084C46.6176 123.622 47.1725 124.142 47.7389 124.646L47.4585 124.966ZM164.759 123.576L164.593 123.176C165.297 122.878 166.001 122.604 166.693 122.278L166.865 122.667C166.178 122.975 165.475 123.273 164.759 123.576ZM169.485 121.505L169.308 121.116L171.384 120.161L171.567 120.55L169.485 121.505ZM43.8601 121.214C43.3703 120.617 42.932 119.98 42.55 119.309L42.9219 119.097C43.2952 119.749 43.7219 120.369 44.1976 120.95L43.8601 121.214ZM174.159 119.32L173.97 118.937C174.662 118.599 175.349 118.267 176.024 117.93L176.218 118.319L174.159 119.32ZM178.776 117.032L178.581 116.649C179.273 116.3 179.948 115.945 180.618 115.596L180.812 115.979C180.16 116.305 179.479 116.677 178.787 117.032H178.776ZM41.4745 116.58C41.3081 115.877 41.2236 115.157 41.2228 114.435V114.257H41.6518V114.423C41.6516 115.113 41.7323 115.8 41.8921 116.471L41.4745 116.58ZM183.352 114.635L183.146 114.257C183.833 113.891 184.502 113.525 185.16 113.165L185.366 113.537C184.714 113.903 184.044 114.269 183.358 114.635H183.352ZM187.866 112.141L187.654 111.769L189.639 110.625L189.857 110.991C189.222 111.374 188.558 111.729 187.872 112.141H187.866ZM42.1095 111.523L41.7033 111.392C41.9375 110.655 42.2381 109.94 42.6015 109.258L42.9791 109.452C42.631 110.117 42.3401 110.809 42.1095 111.523ZM192.334 109.544L192.117 109.178C192.799 108.773 193.451 108.379 194.073 107.994L194.296 108.36C193.673 108.743 193.021 109.138 192.334 109.544ZM44.5066 107.078L44.1633 106.821C44.6038 106.249 45.1073 105.643 45.6507 105.053L45.9654 105.345C45.4333 105.923 44.9414 106.506 44.5066 107.078ZM196.739 106.85L196.51 106.489C197.208 106.049 197.855 105.637 198.444 105.254L198.673 105.614C198.084 106.009 197.437 106.409 196.739 106.85ZM201.076 104.041L200.835 103.68C202.071 102.857 202.729 102.388 202.729 102.388L202.981 102.737C202.981 102.737 202.317 103.206 201.076 104.041ZM47.9906 103.354L47.7045 103.034C48.2766 102.536 48.8487 102.039 49.4608 101.547L49.7297 101.884C49.1176 102.37 48.5341 102.862 47.9906 103.354ZM51.9952 100.18L51.7435 99.8248C52.3556 99.3958 52.9963 98.9668 53.6542 98.5435L53.8888 98.9039C53.2538 99.3272 52.6302 99.7505 52.0124 100.18H51.9952ZM56.3202 97.4223L56.1085 97.0504C56.7607 96.6672 57.4357 96.2953 58.1165 95.9063L58.3168 96.2839C57.6589 96.6672 56.9895 97.0447 56.3373 97.428L56.3202 97.4223ZM60.8626 95.0082L60.6738 94.625C61.366 94.2875 62.0639 93.9614 62.7562 93.6525L62.9278 94.0472C62.2584 94.3504 61.5662 94.6765 60.8797 95.0082H60.8626ZM65.5594 92.9374L65.4049 92.5427C66.1315 92.251 66.8409 91.9707 67.5102 91.759L67.6532 92.1652C67.0068 92.394 66.3031 92.6514 65.5766 92.9374H65.5594Z" fill="#1E437D"/>
<path d="M206.463 91.536L202.482 103.424L211.299 96.1529L245.398 82.7605L206.463 91.536Z" fill="#89B8FF"/>
<path d="M212.53 98.8682L202.482 103.424L211.299 96.1528L212.53 98.8682Z" fill="#1E437D"/>
<path d="M211.299 96.1529L245.398 82.7605L231.646 96.9121L217.893 111.064L211.299 96.1529Z" fill="#C8DEFE"/>
<path d="M211.299 96.1529L245.398 82.7605L231.646 96.9121L217.893 111.064L211.299 96.1529Z" fill="white" fill-opacity="0.7"/>
<path d="M206.463 91.5358L191.906 82.6782L245.398 82.7603L206.463 91.5358Z" fill="#C8DEFE"/>
<path d="M206.463 91.5358L191.906 82.6782L245.398 82.7603L206.463 91.5358Z" fill="white" fill-opacity="0.7"/>
<path fill-rule="evenodd" clip-rule="evenodd" d="M245.561 82.6965C245.596 82.7863 245.552 82.8877 245.462 82.9229L211.532 96.2487L218.053 110.993C218.092 111.081 218.052 111.184 217.964 111.223C217.875 111.262 217.772 111.222 217.733 111.134L211.066 96.0568L245.334 82.5978C245.424 82.5626 245.525 82.6068 245.561 82.6965Z" fill="#1E437D"/>
<path fill-rule="evenodd" clip-rule="evenodd" d="M191.757 82.5875C191.807 82.5051 191.915 82.479 191.997 82.5291L206.312 91.2399C206.428 91.3105 206.567 91.3333 206.7 91.3034L245.36 82.59C245.454 82.5688 245.547 82.6279 245.568 82.722C245.59 82.8161 245.53 82.9095 245.436 82.9307L206.777 91.6441C206.556 91.6939 206.324 91.656 206.131 91.5382L191.816 82.8275C191.733 82.7774 191.707 82.6699 191.757 82.5875Z" fill="#1E437D"/>
<path d="M169.234 168.522C169.234 169.679 168.296 170.618 167.139 170.618H90.3348C89.1774 170.618 88.2391 169.679 88.2391 168.522V113.042C88.2391 112.325 88.6057 111.658 89.211 111.273L127.603 79.201C128.289 78.7654 129.165 78.7653 129.851 79.2008L168.262 111.273C168.868 111.658 169.234 112.325 169.234 113.042V168.522Z" fill="#FFC727"/>
<path d="M163.291 153.134V83.0464L146.157 65.9141H93.7892C93.0176 65.9141 92.392 66.5395 92.392 67.3111V153.134C92.392 153.906 93.0176 154.531 93.7892 154.531H161.894C162.666 154.531 163.291 153.906 163.291 153.134Z" fill="white"/>
<path fill-rule="evenodd" clip-rule="evenodd" d="M163.291 83.0464L146.157 65.9141H93.7892C93.0176 65.9141 92.392 66.5395 92.392 67.3111V153.134C92.392 153.906 93.0176 154.531 93.7892 154.531H161.894C162.666 154.531 163.291 153.906 163.291 153.134V83.0464ZM145.868 66.6126L162.593 83.3358V153.134C162.593 153.52 162.28 153.833 161.894 153.833H93.7892C93.4034 153.833 93.0906 153.52 93.0906 153.134V67.3111C93.0906 66.9253 93.4034 66.6126 93.7892 66.6126H145.868Z" fill="#1E437D"/>
<path fill-rule="evenodd" clip-rule="evenodd" d="M131.387 89.2776H101.255V90.4592H131.387V89.2776ZM101.254 94.0039H131.387V95.1854H101.254V94.0039ZM142.612 103.456H101.254V104.638H142.612V103.456ZM147.339 115.272H101.254V116.454H147.339V115.272ZM147.339 134.177H101.254V135.359H147.339V134.177ZM101.254 119.998H140.249V121.18H101.254V119.998ZM101.254 98.73H154.429V99.9116H101.254V98.73ZM154.429 124.724H101.254V125.906H154.429V124.724ZM101.254 138.903H154.429V140.085H101.254V138.903ZM148.521 129.451H101.254V130.632H148.521V129.451ZM101.254 143.629H148.521V144.811H101.254V143.629Z" fill="#CAD1DD"/>
<rect x="101.474" y="77.0903" width="26.546" height="4.19114" fill="#CAD1DD"/>
<path d="M146.157 65.9138L163.291 83.0466H146.157L146.157 65.9138Z" fill="#1E437D"/>
<path d="M99.8207 150.772H158.359V148.401H99.8207V150.772Z" fill="#DBDBDB"/>
<path d="M99.8207 156.756H158.359V154.384H99.8207V156.756Z" fill="#DBDBDB"/>
<path d="M169.236 119.258V168.522C169.236 169.679 168.298 170.618 167.14 170.618H90.356C89.1985 170.618 88.2603 169.679 88.2603 168.522V119.258C91.7434 121.242 95.2067 123.296 98.6005 125.311C101.994 127.325 105.458 129.429 108.861 131.522C112.659 133.838 116.45 136.179 120.234 138.548L120.363 138.478C120.363 138.478 120.303 138.538 120.263 138.557L128.768 143.876C131.586 142.1 134.424 140.314 137.252 138.557C137.221 138.529 137.188 138.502 137.153 138.478L137.282 138.538C141.066 136.176 144.857 133.831 148.655 131.502C152.058 129.429 155.472 127.355 158.905 125.311C162.339 123.267 165.763 121.232 169.236 119.258Z" fill="#FFE9A9"/>
<path fill-rule="evenodd" clip-rule="evenodd" d="M108.861 131.522C105.458 129.429 101.994 127.325 98.6005 125.311C95.4337 123.431 92.2063 121.517 88.9588 119.657C88.7261 119.524 88.4932 119.391 88.2603 119.258V168.522C88.2603 169.679 89.1985 170.618 90.356 170.618H167.14C168.298 170.618 169.236 169.679 169.236 168.522V119.258C169.003 119.39 168.77 119.523 168.537 119.656C165.303 121.505 162.109 123.404 158.905 125.311C155.472 127.355 152.058 129.429 148.655 131.502C145.052 133.711 141.456 135.935 137.866 138.174C137.671 138.295 137.477 138.416 137.282 138.538L137.153 138.478C137.188 138.502 137.221 138.529 137.252 138.557C137.189 138.597 137.125 138.636 137.062 138.676C137.036 138.692 137.01 138.708 136.985 138.724C136.965 138.736 136.945 138.749 136.925 138.761C134.205 140.452 131.477 142.168 128.768 143.876L120.74 138.856L120.263 138.557C120.303 138.538 120.363 138.478 120.363 138.478L120.234 138.548C120.01 138.407 119.786 138.267 119.562 138.127C116.001 135.902 112.434 133.701 108.861 131.522ZM120.215 139.351L120.207 139.355L119.863 139.14C116.081 136.773 112.293 134.433 108.498 132.119L108.495 132.117C105.094 130.025 101.634 127.923 98.2439 125.911C95.1895 124.098 92.0836 122.256 88.9588 120.462V168.522C88.9588 169.294 89.5844 169.919 90.356 169.919H167.14C167.912 169.919 168.537 169.294 168.537 168.522V120.461C165.428 122.244 162.352 124.072 159.263 125.911C155.833 127.953 152.422 130.025 149.019 132.098C145.472 134.273 141.931 136.462 138.396 138.666L138.398 138.668L137.621 139.151C134.795 140.906 131.959 142.691 129.14 144.467L128.769 144.701L120.215 139.351Z" fill="#FFC727"/>
<path d="M169.236 119.258C165.971 121.56 162.637 123.763 159.312 126.025C155.988 128.287 152.663 130.451 149.319 132.634C145.826 134.929 142.327 137.198 138.82 139.441L138.503 139.659L129.175 145.612L128.708 145.89L128.262 145.612L118.943 139.659L118.616 139.46C115.103 137.208 111.6 134.946 108.107 132.644C104.773 130.47 101.438 128.258 98.124 126.045C94.8096 123.832 91.4952 121.58 88.2006 119.278C91.6837 121.262 95.147 123.316 98.5408 125.331C101.935 127.345 105.398 129.448 108.802 131.542C112.599 133.857 116.39 136.199 120.174 138.567L128.678 143.886C131.497 142.11 134.335 140.324 137.163 138.567C140.947 136.206 144.738 133.861 148.535 131.532C151.939 129.458 155.353 127.384 158.786 125.34C162.22 123.296 165.762 121.232 169.236 119.258Z" fill="#FFC727"/>
<path d="M120.343 138.478C120.343 138.478 120.283 138.538 120.243 138.557C119.817 138.925 119.39 139.292 118.963 139.639C116.979 141.356 114.855 143.003 112.741 144.6C110.161 146.585 107.522 148.46 104.872 150.336C102.222 152.211 99.5233 153.997 96.7943 155.744C94.0653 157.49 91.2967 159.207 88.4387 160.784C90.8898 158.631 93.4005 156.617 96.0203 154.662C98.6401 152.707 101.26 150.802 103.899 148.937C106.539 147.071 109.248 145.265 111.987 143.509C114.16 142.11 116.373 140.74 118.636 139.45C119.162 139.143 119.688 138.855 120.214 138.557L120.343 138.478Z" fill="#FFC727"/>
<path d="M169.047 160.774C166.189 159.197 163.411 157.49 160.692 155.734C157.972 153.977 155.273 152.161 152.594 150.326C149.915 148.49 147.305 146.565 144.725 144.59C142.621 143.003 140.547 141.366 138.522 139.629L137.232 138.528C137.201 138.499 137.168 138.472 137.133 138.448L137.262 138.508L138.84 139.411C141.103 140.701 143.306 142.07 145.499 143.469C148.228 145.225 150.907 147.041 153.566 148.897C156.226 150.752 158.866 152.648 161.446 154.622C164.026 156.597 166.586 158.621 169.047 160.774Z" fill="#FFC727"/>
<path d="M147.374 183.964H110.761C109.104 183.964 107.761 185.308 107.761 186.964V200.523C107.761 202.18 109.104 203.523 110.761 203.523H147.374C149.031 203.523 150.374 202.18 150.374 200.523V186.964C150.374 185.308 149.031 183.964 147.374 183.964Z" fill="#00B67B"/>
<path fill-rule="evenodd" clip-rule="evenodd" d="M128.718 187.762C129.104 187.762 129.417 188.075 129.417 188.461V193.498L130.746 192.17C131.019 191.897 131.461 191.897 131.734 192.17C132.007 192.443 132.006 192.885 131.734 193.158L129.212 195.678C128.939 195.951 128.497 195.951 128.224 195.678L125.703 193.158C125.43 192.885 125.43 192.443 125.703 192.17C125.976 191.897 126.418 191.897 126.691 192.17L128.02 193.498V188.461C128.02 188.075 128.332 187.762 128.718 187.762ZM124.134 195.184C124.134 194.798 123.821 194.486 123.435 194.486C123.049 194.486 122.737 194.798 122.737 195.184V198.546C122.737 198.859 122.861 199.158 123.082 199.379C123.303 199.6 123.603 199.725 123.916 199.725H133.521C133.834 199.725 134.134 199.6 134.355 199.379C134.576 199.158 134.7 198.859 134.7 198.546V195.184C134.7 194.798 134.387 194.486 134.001 194.486C133.615 194.486 133.303 194.798 133.303 195.184V198.328H124.134V195.184Z" fill="white"/>
<ellipse cx="158.757" cy="158.818" rx="16.7659" ry="16.7646" fill="#E1EDF8"/>
<path d="M174.126 157.421C174.126 166.679 166.619 174.185 157.36 174.185C148.1 174.185 140.594 166.679 140.594 157.421C140.594 148.162 148.1 140.656 157.36 140.656C166.619 140.656 174.126 148.162 174.126 157.421Z" fill="white"/>
<path fill-rule="evenodd" clip-rule="evenodd" d="M157.36 173.487C166.234 173.487 173.427 166.294 173.427 157.421C173.427 148.548 166.234 141.355 157.36 141.355C148.486 141.355 141.293 148.548 141.293 157.421C141.293 166.294 148.486 173.487 157.36 173.487ZM157.36 174.185C166.619 174.185 174.126 166.679 174.126 157.421C174.126 148.162 166.619 140.656 157.36 140.656C148.1 140.656 140.594 148.162 140.594 157.421C140.594 166.679 148.1 174.185 157.36 174.185Z" fill="#1E437D"/>
<path d="M156.302 165.104L149.675 158.715L151.904 156.62L155.769 160.352L163.808 148.34L166.441 149.941L156.302 165.104Z" fill="#00B67A"/>
</svg>
