<svg width="26" height="30" viewBox="0 0 26 30" fill="none" xmlns="http://www.w3.org/2000/svg">
<g opacity="0.5">
<path fill-rule="evenodd" clip-rule="evenodd" d="M11.088 11.4265L12.0907 9.05148L13.0659 11.4265H11.088ZM13.3822 7.24414H10.8404L7.59595 14.5253H9.80139L10.3837 13.0897H13.7253L14.3241 14.5253H16.5853L13.3822 7.24414Z" fill="#475569"/>
<path fill-rule="evenodd" clip-rule="evenodd" d="M22.9499 7.24414L21.2931 11.7015L19.7057 7.24414H16.5859V14.5253H18.5708V9.49283L20.3961 14.5253H22.1886L24.0269 9.49283V14.5253H26.0003V7.24414H22.9499Z" fill="#475569"/>
<path fill-rule="evenodd" clip-rule="evenodd" d="M10.3953 15.5703H16.5855V17.3069H12.38V18.382H16.5053V20.0643H12.38V21.1464H16.5855V22.8518H10.3953V15.5703Z" fill="#475569"/>
<path fill-rule="evenodd" clip-rule="evenodd" d="M23.4051 15.5703L21.2931 17.9091L19.2292 15.5703H16.5859L20.0162 19.2111L16.5859 22.8518H19.1773L21.2931 20.4611L23.4051 22.8518H26.0003V22.8518L22.5701 19.2111L26.0003 15.5704V15.5703H23.4051Z" fill="#475569"/>
<path fill-rule="evenodd" clip-rule="evenodd" d="M0 2V28H26V23.8897H22.8689L21.2928 22.122L19.6446 23.8897H9.30705V15.5702H5.94132L10.1149 6.22098H14.0765L15.5519 9.42581V6.22098H20.441H22.2087H26V2H0Z" fill="#475569"/>
<path fill-rule="evenodd" clip-rule="evenodd" d="M24.0254 19.2109L26.0003 21.303V17.1328L24.0254 19.2109Z" fill="#475569"/>
</g>
</svg>
