<svg width="60" height="60" viewBox="0 0 60 60" fill="none" xmlns="http://www.w3.org/2000/svg">
<path d="M11.2002 24.3998C11.2002 23.445 11.5795 22.5294 12.2546 21.8542C12.9297 21.1791 13.8454 20.7998 14.8002 20.7998H46.0002C46.955 20.7998 47.8706 21.1791 48.5458 21.8542C49.2209 22.5294 49.6002 23.445 49.6002 24.3998V48.3998C49.6002 49.5029 49.3829 50.5952 48.9608 51.6143C48.5386 52.6335 47.9199 53.5595 47.1399 54.3395C46.3599 55.1195 45.4339 55.7383 44.4147 56.1604C43.3956 56.5825 42.3033 56.7998 41.2002 56.7998H19.6002C17.3724 56.7998 15.2358 55.9148 13.6605 54.3395C12.0852 52.7642 11.2002 50.6276 11.2002 48.3998V24.3998Z" fill="#CAAAD8"/>
<path d="M36 12C36 6.69806 31.7019 2.39999 26.4 2.39999C21.0981 2.39999 16.8 6.69806 16.8 12V20.4C16.8 25.7019 21.0981 30 26.4 30C31.7019 30 36 25.7019 36 20.4V12Z" stroke="#A788CE" stroke-width="3"/>
<path d="M7.20001 20.4C7.20001 19.4452 7.5793 18.5295 8.25443 17.8544C8.92956 17.1793 9.84523 16.8 10.8 16.8H42C42.9548 16.8 43.8705 17.1793 44.5456 17.8544C45.2207 18.5295 45.6 19.4452 45.6 20.4V44.4C45.6 45.5031 45.3827 46.5954 44.9606 47.6145C44.5385 48.6337 43.9197 49.5597 43.1397 50.3397C42.3597 51.1197 41.4337 51.7385 40.4146 52.1606C39.3954 52.5827 38.3031 52.8 37.2 52.8H15.6C13.3722 52.8 11.2356 51.915 9.66032 50.3397C8.08501 48.7644 7.20001 46.6278 7.20001 44.4V20.4Z" fill="#FFE9A9" stroke="#A788CE" stroke-width="2"/>
<path fill-rule="evenodd" clip-rule="evenodd" d="M27.5998 35.8261C29.3348 35.3099 30.6 33.7027 30.6 31.8C30.6 29.4804 28.7196 27.6 26.4 27.6C24.0804 27.6 22.2 29.4804 22.2 31.8C22.2 33.7025 23.465 35.3096 25.1998 35.826V41.9999C25.1998 42.6627 25.7371 43.1999 26.3998 43.1999C27.0626 43.1999 27.5998 42.6627 27.5998 41.9999V35.8261Z" fill="#A788CE"/>
</svg>
