<svg width="40" height="30" viewBox="0 0 40 30" fill="none" xmlns="http://www.w3.org/2000/svg">
<path fill-rule="evenodd" clip-rule="evenodd" d="M27.6343 1.01968e-05C25.2014 -0.00307204 22.8223 0.69267 20.7987 1.99901L21.094 2.23461C24.0023 4.67541 25.6727 8.21637 25.6727 11.9405C25.6727 15.6646 24.0023 19.2055 21.094 21.6463L20.7987 21.8819C25.2011 24.7205 30.984 24.5315 35.1782 21.4119C39.3723 18.2924 41.0458 12.9354 39.3392 8.09169C37.6327 3.24796 32.9254 -0.00623497 27.6343 1.01968e-05ZM3.05904 19.8344C7.13775 24.3388 14.0347 25.2265 19.1895 21.9105L18.8942 21.6678C15.9859 19.227 14.3154 15.686 14.3154 11.9619C14.3154 8.23779 15.9859 4.69683 18.8942 2.25603L19.1895 2.02043C14.0347 -1.29558 7.13775 -0.407911 3.05904 4.09651C-1.01968 8.60093 -1.01968 15.33 3.05904 19.8344ZM38.0354 25.4801V28.3359V29.9136H37.2972V29.5281C37.0501 29.8348 36.6654 30.0076 36.2637 29.9922C35.3138 29.9922 34.5437 29.2474 34.5437 28.3287C34.5437 27.41 35.3138 26.6653 36.2637 26.6653C36.6654 26.6499 37.0501 26.8226 37.2972 27.1293V25.4801H38.0354ZM17.9493 26.7509H16.783V25.7871H16.0448V26.7509H15.3804V27.3792H16.0448V28.8071C16.0448 29.521 16.3401 29.9779 17.1816 29.9779C17.497 29.9799 17.8066 29.8958 18.0748 29.7352L17.8681 29.1426C17.6777 29.252 17.462 29.3134 17.2407 29.3211C16.8863 29.3211 16.7682 29.1069 16.7682 28.7928V27.3649H17.9345L17.9493 26.7509ZM7.2899 29.9208V27.9289C7.31623 27.5891 7.18914 27.255 6.94144 27.0127C6.69373 26.7704 6.34968 26.6437 5.99807 26.6653C5.53667 26.6365 5.09554 26.8525 4.8465 27.2293C4.61927 26.8629 4.20271 26.6464 3.76137 26.6653C3.37781 26.647 3.01287 26.8262 2.80173 27.1365V26.7438H2.06354V29.9136H2.80173V28.1645C2.7583 27.9424 2.82621 27.7135 2.98482 27.5475C3.14342 27.3814 3.37396 27.2978 3.60635 27.3221C4.07879 27.3221 4.34454 27.6219 4.34454 28.1574V29.9208H5.08272V28.1645C5.0393 27.9424 5.10721 27.7135 5.26581 27.5475C5.42441 27.3814 5.65496 27.2978 5.88735 27.3221C6.37455 27.3221 6.62553 27.6219 6.62553 28.1574V29.9208H7.2899ZM23.1683 27.1365C23.3466 26.8405 23.6779 26.6625 24.032 26.6724H24.0246C24.1981 26.6732 24.3703 26.7022 24.5339 26.7581L24.3125 27.4078C24.1714 27.3544 24.021 27.3277 23.8696 27.3292C23.4045 27.3292 23.1683 27.6219 23.1683 28.1431V29.9208H22.4301V26.7509H23.1683V27.1365ZM14.8342 27.0008C14.4305 26.77 13.9667 26.656 13.498 26.6724C12.6713 26.6724 12.1324 27.0579 12.1324 27.6862C12.1324 28.2074 12.531 28.5215 13.2618 28.6214L13.6014 28.6643C13.9926 28.7142 14.1772 28.8142 14.1772 28.9927C14.1772 29.1712 13.9188 29.3782 13.439 29.3782C13.047 29.3908 12.662 29.2751 12.3465 29.0498L12.0069 29.5852C12.4215 29.8661 12.9182 30.0112 13.4242 29.9993C14.3691 29.9993 14.9006 29.571 14.9006 28.9641C14.9006 28.3573 14.4651 28.1145 13.7564 28.0146L13.4168 27.9718C13.1068 27.9289 12.8632 27.8718 12.8632 27.6576C12.8632 27.4435 13.0994 27.2864 13.4907 27.2864C13.8485 27.2922 14.1989 27.3855 14.5094 27.5577L14.8342 27.0008ZM33.0821 27.1365C33.2604 26.8405 33.5918 26.6625 33.9458 26.6724H33.9384C34.112 26.6732 34.2841 26.7022 34.4478 26.7581L34.2263 27.4078C34.0853 27.3544 33.9349 27.3277 33.7834 27.3292C33.3183 27.3292 33.0821 27.6219 33.0821 28.1431V29.9208H32.3439V26.7509H33.0821V27.1365ZM25.249 29.5366C25.5835 29.8506 26.0396 30.0135 26.5049 29.985C26.9336 30.0059 27.3549 29.8709 27.686 29.6067L27.3464 29.0498C27.099 29.2294 26.7994 29.3293 26.4901 29.3354C25.9112 29.3354 25.4419 28.8815 25.4419 28.3216C25.4419 27.7617 25.9112 27.3078 26.4901 27.3078C26.7994 27.3139 27.099 27.4138 27.3464 27.5934L27.686 27.0365C27.3553 26.7716 26.9337 26.6366 26.5049 26.6581C26.0343 26.629 25.5732 26.7957 25.2376 27.1161C24.902 27.4366 24.7239 27.8804 24.748 28.3359C24.7325 28.7865 24.9144 29.2225 25.249 29.5366ZM31.4286 26.7509V28.3359V29.9136H30.6904V29.5281C30.4433 29.8348 30.0586 30.0076 29.6569 29.9922C28.707 29.9922 27.937 29.2474 27.937 28.3287C27.937 27.41 28.707 26.6653 29.6569 26.6653C30.0586 26.6499 30.4433 26.8226 30.6904 27.1293V26.7509H31.4286ZM29.7949 27.437C30.332 27.4561 30.755 27.8865 30.7476 28.4062C30.7402 28.9259 30.3051 29.3448 29.7677 29.3496C29.4928 29.3543 29.2285 29.2472 29.0391 29.0545C28.8497 28.8618 28.7525 28.6011 28.7711 28.3359C28.8032 27.817 29.2578 27.4179 29.7949 27.437ZM18.4771 28.3537C18.4628 27.435 19.2213 26.6791 20.1712 26.6653L20.1639 26.6581C20.6052 26.6603 21.0253 26.8417 21.3215 27.158C21.6178 27.4744 21.7629 27.8966 21.7214 28.3216V28.5857H19.2854C19.3397 29.06 19.7757 29.4056 20.2672 29.3639C20.6136 29.3599 20.9486 29.2443 21.2195 29.0355L21.5664 29.5495C21.1903 29.8521 20.7118 30.0097 20.2229 29.9922C19.273 30.006 18.4914 29.2724 18.4771 28.3537ZM20.7498 27.4991C20.9048 27.6437 20.9941 27.842 20.998 28.0503H19.3002C19.3241 27.6063 19.7119 27.2631 20.1712 27.2792C20.3866 27.2754 20.5947 27.3545 20.7498 27.4991ZM36.4071 27.4226C36.9503 27.4405 37.3784 27.8761 37.3695 28.4016C37.3606 28.9272 36.9179 29.3489 36.3744 29.3496C36.0996 29.3543 35.8353 29.2472 35.6459 29.0545C35.4565 28.8618 35.3592 28.6011 35.3779 28.3359C35.4061 27.8109 35.8639 27.4047 36.4071 27.4226ZM11.2909 26.7509V28.3359V29.9136H10.5527V29.5281C10.3056 29.8348 9.92089 30.0076 9.51922 29.9922C8.56931 29.9922 7.79925 29.2474 7.79925 28.3287C7.79925 27.41 8.56931 26.6653 9.51922 26.6653C9.92089 26.6499 10.3056 26.8226 10.5527 27.1293V26.7509H11.2909ZM8.6334 28.3359C8.66551 27.817 9.12009 27.4179 9.65716 27.437C10.1942 27.4561 10.6173 27.8865 10.6099 28.4062C10.6025 28.9259 10.1674 29.3448 9.62995 29.3496C9.35892 29.3483 9.10053 29.2386 8.91599 29.0466C8.73146 28.8546 8.6372 28.5974 8.65554 28.3359H8.6334ZM15.2864 11.9369C15.2864 8.47996 16.8369 5.19299 19.5364 2.92712C19.684 2.79861 19.8391 2.67725 20.0015 2.55588L20.4665 2.92712C23.166 5.19299 24.7165 8.47996 24.7165 11.9369C24.7165 15.3939 23.166 18.6808 20.4665 20.9467L20.0015 21.3179C19.844 21.199 19.689 21.0752 19.5364 20.9467C16.8369 18.6808 15.2864 15.3939 15.2864 11.9369Z" fill="#475569"/>
</svg>
