<svg width="48" height="52" viewBox="0 0 48 52" fill="none" xmlns="http://www.w3.org/2000/svg">
<path d="M5.88788 6.50494C5.88788 5.95266 6.33559 5.50494 6.88788 5.50494H46.2167C46.769 5.50494 47.2167 5.95266 47.2167 6.50494V19.4392C47.2166 26.4361 45.2878 33.2975 41.6423 39.2696C38.0863 45.095 33.031 48.6255 27.009 51.7636C26.723 51.9126 26.3816 51.9126 26.0956 51.7636C20.0736 48.6255 15.0183 45.095 11.4623 39.2696C7.81678 33.2975 5.88798 26.4361 5.88788 19.4392V6.50494Z" fill="#CAAAD8"/>
<path d="M2.58289 0.699951C1.75446 0.699951 1.08289 1.37152 1.08289 2.19995V15.1342C1.08299 22.223 3.03713 29.1746 6.73057 35.2251C10.3556 41.1636 15.504 44.7464 21.5595 47.902C21.9904 48.1265 22.5043 48.1265 22.9351 47.902C28.9907 44.7464 34.139 41.1636 37.7641 35.2251C41.4575 29.1746 43.4116 22.223 43.4117 15.1342V2.19995C43.4117 1.37152 42.7402 0.699951 41.9117 0.699951H2.58289Z" fill="#FFE9A9" stroke="#A788CE"/>
<path d="M32.0001 10L19.6001 23.6333L16.0001 20.9H14.0001L19.6001 30L34.0001 10H32.0001Z" fill="#A788CE"/>
</svg>
