<svg width="60" height="30" viewBox="0 0 60 30" fill="none" xmlns="http://www.w3.org/2000/svg">
<g opacity="0.5">
<path d="M0.995605 29H21.116V14.8135H0.995605V29ZM8.11315 20.7962L10.0101 22.6931L14.4038 18.2994L15.8144 19.7099L10.0101 25.5142L6.70261 22.2067L8.11315 20.7962ZM6.92959 8.52287C6.92959 6.25304 8.77789 4.40475 11.0639 4.40475C13.3338 4.40475 15.1821 6.25304 15.1821 8.52287V12.7869H18.5868V8.52287C18.5706 4.37232 15.1983 1 11.0639 1C6.91338 1 3.54106 4.37232 3.54106 8.52287V12.7869H6.94581V8.52287H6.92959ZM37.6048 13.5814C37.6048 11.5385 36.405 10.3712 34.5081 9.65779L32.757 8.91199C31.3627 8.40938 30.3899 8.06891 30.3899 7.20961C30.3899 6.36653 31.1195 5.89635 32.2058 5.89635C33.6163 5.89635 34.5243 6.31789 35.5295 7.04748L37.1832 4.98842C35.87 3.75622 34.1352 3.09149 32.3841 3.09149C29.2712 3.09149 27.0987 4.98842 27.0987 7.38796C27.0987 9.49566 28.5579 10.7279 30.1792 11.3277L32.0437 12.1222C33.4218 12.6896 34.2811 12.9653 34.2811 13.9867C34.2811 14.7163 33.6325 15.2513 32.2544 15.2513C30.8601 15.2513 29.5144 14.6352 28.4281 13.7435L26.5474 15.9809C28.0877 17.359 30.0819 18.0562 32.0275 18.0562C35.5943 18.0562 37.6048 15.9647 37.6048 13.5814ZM45.5654 9.65779L43.8144 8.91199C42.42 8.40938 41.4473 8.06891 41.4473 7.20961C41.4473 6.36653 42.1768 5.89635 43.2631 5.89635C44.6737 5.89635 45.5816 6.31789 46.5868 7.04748L48.2405 4.98842C46.9273 3.75622 45.1925 3.09149 43.4415 3.09149C40.3286 3.09149 38.156 4.98842 38.156 7.38796C38.156 9.49566 39.6152 10.7279 41.2365 11.3277L43.101 12.1222C44.4791 12.6896 45.3384 12.9653 45.3384 13.9867C45.3384 14.7163 44.6899 15.2513 43.3118 15.2513C41.9174 15.2513 40.5717 14.6352 39.4855 13.7435L37.6048 15.9809C39.145 17.359 41.1392 18.0562 43.0848 18.0562C46.6679 18.0562 48.6783 15.9809 48.6783 13.5814C48.6621 11.5385 47.4785 10.3712 45.5654 9.65779Z" fill="#475569"/>
<path d="M53.153 15.0407V3.35107H49.9104V17.7807H59.5734V15.0407H53.153Z" fill="#475569"/>
<path d="M29.6118 22.9039L28.7363 22.531C28.2013 22.304 27.6176 22.0933 27.6176 21.4934C27.6176 20.9259 28.104 20.5854 28.8336 20.5854C29.4821 20.5854 29.9523 20.8124 30.3739 21.1691L30.7954 20.6503C30.3414 20.1963 29.6605 19.8721 28.866 19.8721C27.6825 19.8721 26.8232 20.5692 26.8232 21.5258C26.8232 22.4337 27.5528 22.8877 28.1689 23.1309L29.0606 23.52C29.6929 23.7956 30.1793 23.9902 30.1793 24.6549C30.1793 25.2386 29.6767 25.6439 28.8174 25.6439C28.104 25.6439 27.4555 25.3359 26.9853 24.8657L26.5151 25.4169C27.0826 25.9844 27.8608 26.3411 28.785 26.3411C30.1631 26.3411 30.9899 25.5467 30.9899 24.5577C30.9899 23.6335 30.3739 23.212 29.6118 22.9039Z" fill="#475569"/>
<path d="M33.4703 23.2928H36.0644V22.6119H33.4703V20.6501H36.5346V19.9854H32.6759V26.2274H36.6319V25.5464H33.4703V23.2928Z" fill="#475569"/>
<path d="M40.7012 25.6438C39.5015 25.6438 38.7232 24.6548 38.7232 23.0821C38.7232 21.5257 39.5015 20.5529 40.7012 20.5529C41.22 20.5529 41.6416 20.7799 41.9496 21.1203L42.4036 20.6177C42.0469 20.2124 41.447 19.8557 40.7012 19.8557C39.0799 19.8557 37.8964 21.0879 37.8964 23.0983C37.8964 25.1412 39.0799 26.3409 40.6202 26.3409C41.447 26.3409 42.0631 26.0005 42.5495 25.433L42.0956 24.9466C41.7227 25.4006 41.2849 25.6438 40.7012 25.6438ZM47.1865 23.8928C47.1865 25.1898 46.619 25.66 45.857 25.66C45.1112 25.66 44.5437 25.1898 44.5437 23.8928V19.9854H43.7493V23.8766C43.7493 25.66 44.641 26.3572 45.857 26.3572C47.073 26.3572 47.9485 25.6762 47.9485 23.8766V19.9854H47.1702V23.8928H47.1865ZM53.7852 21.7364C53.7852 20.4394 52.8773 19.9854 51.6126 19.9854H49.6671V26.2275H50.4615V23.5847H51.5802L53.088 26.2275H53.996L52.4071 23.5037C53.2177 23.2929 53.7852 22.7092 53.7852 21.7364ZM51.4829 22.9362H50.4453V20.6177H51.4829C52.4557 20.6177 52.9907 20.9096 52.9907 21.7364C52.9907 22.5471 52.4557 22.9362 51.4829 22.9362Z" fill="#475569"/>
<path d="M56.2986 23.2928H58.8927V22.6119H56.2986V20.6501H59.3628V19.9854H55.4879V26.2274H59.4601V25.5464H56.2986V23.2928Z" fill="#475569"/>
</g>
</svg>
