<svg width="50" height="30" viewBox="0 0 50 30" fill="none" xmlns="http://www.w3.org/2000/svg">
<g opacity="0.5">
<path d="M20.8231 7.10767L17.4214 23.1028H21.5447L24.8434 7.10767H20.8231Z" fill="#475569"/>
<path d="M14.8442 7.10767L10.6178 17.9465L8.86541 8.68614C8.65924 7.63383 7.83458 7.10767 7.00991 7.10767H0.103327L0.000244141 7.5286C1.44341 7.84429 2.98966 8.37044 4.02049 8.8966C4.63899 9.21229 4.74208 9.52798 4.94824 10.2646L8.14383 22.9975H12.4733L19.0707 7.00244H14.8442V7.10767Z" fill="#475569"/>
<path fill-rule="evenodd" clip-rule="evenodd" d="M43.3983 7.10767H46.9031L49.9956 23.1028H46.2846L45.7692 20.6824H40.615L39.7904 23.1028H35.564L41.6459 8.26521C41.9551 7.52859 42.5736 7.10767 43.3983 7.10767ZM44.12 11.4224L41.9553 17.4206H45.357L44.12 11.4224Z" fill="#475569"/>
<path d="M30.2034 11.5274C30.2034 11.0012 30.7188 10.3698 31.9558 10.1594C32.5743 10.0541 34.1206 10.0541 35.9761 10.896L36.6976 7.52861C35.7699 7.21292 34.4298 6.79199 32.8836 6.79199C28.8633 6.79199 26.0801 9.00184 26.0801 12.0535C26.0801 14.3686 28.1417 15.6314 29.5849 16.368C31.1311 17.1046 31.6466 17.6308 31.6466 18.3674C31.6466 19.4197 30.4096 19.9459 29.1726 19.9459C27.1109 19.9459 25.977 19.4197 25.0492 18.8935L24.3276 22.3662C25.2554 22.7871 27.0078 23.208 28.8633 23.208C33.0897 23.208 35.873 21.1034 35.873 17.736C35.873 13.7372 30.1003 13.4215 30.2034 11.5274Z" fill="#475569"/>
</g>
</svg>
