<svg width="91" height="22" viewBox="0 0 91 22" fill="none" xmlns="http://www.w3.org/2000/svg">
<mask id="mask0_1_6605" style="mask-type:alpha" maskUnits="userSpaceOnUse" x="0" y="3" width="17" height="17">
<path fill-rule="evenodd" clip-rule="evenodd" d="M12.2724 5.30273C9.65893 2.57924 5.32598 2.48981 2.60249 5.10337C-0.121004 7.7168 -0.210298 12.0498 2.40313 14.7732L4.4677 16.9247C7.08112 19.6482 11.4141 19.7376 14.1376 17.1242C16.8611 14.5106 16.9505 10.1778 14.3369 7.45417L12.2724 5.30273Z" fill="#FEEF7C"/>
</mask>
<g mask="url(#mask0_1_6605)">
<path fill-rule="evenodd" clip-rule="evenodd" d="M12.7405 6.84716C14.0616 7.91398 14.7074 9.29198 14.8275 10.9594C14.7271 14.178 13.2086 16.2466 10.6 17.1337C7.58624 18.0418 5.67652 17.3071 3.82858 15.4242L3.52063 17.3385C6.7343 19.4503 11.4016 20.5 14.3569 17.5855C17.3919 14.5923 17.4304 9.39355 13.8162 6.30762L12.7405 6.84716Z" fill="#FEEF7C"/>
</g>
<mask id="mask1_1_6605" style="mask-type:alpha" maskUnits="userSpaceOnUse" x="0" y="3" width="17" height="17">
<path fill-rule="evenodd" clip-rule="evenodd" d="M12.6453 5.67676C10.0317 2.95327 5.69892 2.86384 2.97529 5.4774C0.251799 8.09082 0.162504 12.4238 2.77593 15.1473L4.8405 17.2987C7.45392 20.0222 11.7869 20.1116 14.5104 17.4982C17.2339 14.8848 17.3233 10.5518 14.7097 7.82833L12.6453 5.67676Z" fill="#5CD3CB"/>
</mask>
<g mask="url(#mask1_1_6605)">
<path fill-rule="evenodd" clip-rule="evenodd" d="M2.97764 16.0739L3.80409 15.3521C1.9177 12.6789 1.83866 8.76533 4.42025 6.61079C6.33388 5.01374 10.1309 4.18594 13.1687 6.8606L13.6392 6.03348C11.1554 3.276 7.40475 2.92866 4.99999 3.87462C-0.90102 6.19588 0.00824934 13.969 2.97764 16.0739Z" fill="#5CD3CB"/>
</g>
<path d="M1.71826 11.3207C1.71826 15.1048 4.78639 18.1729 8.57049 18.1729C12.3553 18.1729 15.4233 15.1048 15.4233 11.3207C15.4233 7.5359 12.3553 4.46777 8.57049 4.46777C4.78639 4.46777 1.71826 7.5359 1.71826 11.3207ZM6.48771 12.56C6.55974 12.3321 6.47962 12.0836 6.28808 11.9405C5.7809 11.5617 4.78099 10.815 4.10912 10.3132C4.01214 10.2408 3.97248 10.1144 4.01066 9.99946C4.04883 9.88454 4.1562 9.80712 4.27733 9.80712H6.88144C7.12383 9.80712 7.33884 9.65173 7.41505 9.42175C7.62035 8.80167 8.02838 7.56935 8.29896 6.75248C8.337 6.63769 8.44424 6.56 8.56523 6.55986C8.68622 6.55973 8.79386 6.63702 8.83217 6.75167C9.10558 7.56922 9.51847 8.80356 9.72579 9.42336C9.80254 9.65254 10.0171 9.80712 10.2589 9.80712C10.8749 9.80712 12.0616 9.80712 12.8696 9.80712C12.9903 9.80712 13.0977 9.88427 13.136 9.99892C13.1743 10.1136 13.1352 10.2398 13.0386 10.3125C12.3688 10.8171 11.3683 11.5706 10.8622 11.9518C10.6718 12.0952 10.5926 12.3432 10.6645 12.5704C10.8602 13.1884 11.2527 14.4279 11.5179 15.2652C11.5549 15.3821 11.5117 15.5097 11.4112 15.5801C11.3107 15.6505 11.1762 15.6477 11.0788 15.573C10.4059 15.0564 9.4227 14.3017 8.90784 13.9066C8.70538 13.7512 8.42373 13.7516 8.22181 13.9078C7.71194 14.3019 6.74211 15.0519 6.07482 15.5678C5.9777 15.643 5.84295 15.6463 5.74219 15.5759C5.64143 15.5057 5.598 15.3781 5.63496 15.261C5.90014 14.4213 6.29212 13.1797 6.48771 12.56Z" fill="black"/>
<path d="M24.1291 11.0029C25.5017 11.0029 26.4962 10.2442 26.4962 8.99469V8.96495C26.4962 7.76004 25.6278 7.04602 24.1431 7.04602H21.2997V11.0029H24.1291ZM20.2632 6.58488C20.2632 6.2725 20.5013 6.01962 20.7814 6.01962H24.2271C25.3617 6.01962 26.2581 6.37663 26.8464 7.0014C27.2946 7.47741 27.5607 8.16167 27.5607 8.92032V8.95007C27.5607 10.5566 26.5382 11.4938 25.1095 11.7764L27.3927 14.9002C27.4907 15.0192 27.5607 15.1531 27.5607 15.3019C27.5607 15.5994 27.2946 15.8522 27.0285 15.8522C26.8184 15.8522 26.6643 15.7332 26.5382 15.5547L23.947 11.9846H21.2997V15.287C21.2997 15.5994 21.0616 15.8522 20.7814 15.8522C20.5013 15.8522 20.2632 15.5994 20.2632 15.287C20.2632 15.3019 20.2632 6.58488 20.2632 6.58488ZM29.6197 15.2275V6.58488C29.6197 6.2725 29.8579 6.01962 30.138 6.01962H35.8528C36.1189 6.01962 36.329 6.24275 36.329 6.52538C36.329 6.80802 36.1189 7.03115 35.8528 7.03115H30.6702V10.3632H35.2645C35.5306 10.3632 35.7407 10.6012 35.7407 10.869C35.7407 11.1516 35.5306 11.3748 35.2645 11.3748H30.6702V14.7961H35.9228C36.1889 14.7961 36.399 15.0192 36.399 15.3019C36.399 15.5845 36.1889 15.8076 35.9228 15.8076H30.138C29.8579 15.7927 29.6197 15.5399 29.6197 15.2275ZM41.2454 15.4357L37.7017 6.74851C37.6597 6.65926 37.6456 6.59976 37.6456 6.49563C37.6456 6.213 37.8838 5.94524 38.1779 5.94524C38.444 5.94524 38.6261 6.12375 38.7102 6.36175L41.8897 14.454L45.0833 6.332C45.1813 6.13862 45.3634 5.94524 45.6015 5.94524C45.8957 5.94524 46.1198 6.19813 46.1198 6.48076C46.1198 6.57001 46.1058 6.62951 46.0778 6.70389L42.52 15.4357C42.408 15.7184 42.2119 15.8969 41.9177 15.8969H41.8617C41.5535 15.8969 41.3575 15.7184 41.2454 15.4357ZM48.0247 6.51051C48.0247 6.19812 48.2628 5.94524 48.5429 5.94524C48.8371 5.94524 49.0612 6.19812 49.0612 6.51051V15.3019C49.0612 15.6142 48.8231 15.8671 48.5429 15.8671C48.2628 15.8671 48.0247 15.6142 48.0247 15.3019V6.51051ZM51.6245 15.2275V6.58488C51.6245 6.2725 51.8626 6.01962 52.1427 6.01962H57.8575C58.1236 6.01962 58.3337 6.24275 58.3337 6.52538C58.3337 6.80802 58.1236 7.03115 57.8575 7.03115H52.675V10.3632H57.2692C57.5353 10.3632 57.7454 10.6012 57.7454 10.869C57.7454 11.1516 57.5353 11.3748 57.2692 11.3748H52.675V14.7961H57.9275C58.1937 14.7961 58.4038 15.0192 58.4038 15.3019C58.4038 15.5845 58.1937 15.8076 57.9275 15.8076H52.1427C51.8626 15.7927 51.6245 15.5399 51.6245 15.2275ZM59.7344 6.76339C59.7064 6.67414 59.6784 6.59976 59.6784 6.51051C59.6784 6.213 59.9305 5.96012 60.2106 5.96012C60.4768 5.96012 60.6729 6.16838 60.7429 6.42126L63.2781 14.1713L65.6873 6.3915C65.7713 6.13862 65.9254 5.96012 66.2056 5.96012H66.2756C66.5417 5.96012 66.7098 6.13862 66.7938 6.3915L69.203 14.1713L71.7523 6.3915C71.8363 6.13862 72.0044 5.96012 72.2565 5.96012C72.5366 5.96012 72.7888 6.22788 72.7888 6.51051C72.7888 6.59976 72.7467 6.68901 72.7187 6.77826L69.7773 15.4506C69.6792 15.7332 69.4972 15.9266 69.245 15.9266H69.161C68.8949 15.9266 68.7128 15.7332 68.6287 15.4506L66.2336 7.95342L63.8524 15.4506C63.7544 15.7332 63.5723 15.9266 63.3201 15.9266H63.2361C62.97 15.9266 62.7879 15.7481 62.7038 15.4506L59.7344 6.76339ZM74.0634 14.6176C73.9513 14.5283 73.8673 14.3796 73.8673 14.2011C73.8673 13.8887 74.0914 13.6507 74.3715 13.6507C74.4976 13.6507 74.6236 13.7102 74.6797 13.7697C75.5481 14.5581 76.4165 14.93 77.5791 14.93C78.8117 14.93 79.6241 14.2308 79.6241 13.2639V13.2491C79.6241 12.3417 79.1619 11.821 77.2289 11.3896C75.1139 10.8987 74.1474 10.1699 74.1474 8.57819V8.54843C74.1474 7.01627 75.422 5.88574 77.1729 5.88574C78.3775 5.88574 79.2599 6.213 80.1003 6.85264C80.2124 6.94189 80.3244 7.09065 80.3244 7.2989C80.3244 7.59641 80.1003 7.83442 79.8202 7.83442C79.7081 7.83442 79.6101 7.80466 79.512 7.73029C78.7417 7.13527 77.9853 6.88239 77.1309 6.88239C75.9403 6.88239 75.1699 7.58153 75.1699 8.45918V8.48893C75.1699 9.41121 75.6461 9.93184 77.6631 10.393C79.7081 10.869 80.6606 11.6574 80.6606 13.1598V13.1896C80.6606 14.8556 79.3439 15.9564 77.5231 15.9564C76.1924 15.9266 75.0859 15.4804 74.0634 14.6176ZM82.2294 14.692C82.4254 14.692 82.5795 14.8407 82.5795 15.0639V15.2126C82.5795 15.4209 82.4254 15.5845 82.2294 15.5845C82.0193 15.5845 81.8792 15.4209 81.8792 15.2126V15.0639C81.8792 14.8407 82.0193 14.692 82.2294 14.692ZM83.8121 11.7764C83.8121 11.6128 83.9382 11.4789 84.0923 11.4789C84.2603 11.4789 84.3724 11.6128 84.3724 11.7764V15.2721C84.3724 15.4506 84.2603 15.5696 84.0923 15.5696C83.9242 15.5696 83.8121 15.4357 83.8121 15.2721V11.7764ZM83.7561 10.2442C83.7561 10.0508 83.9102 9.91697 84.0923 9.91697C84.2884 9.91697 84.4284 10.036 84.4284 10.2442V10.3484C84.4284 10.5417 84.2884 10.6607 84.0923 10.6607C83.9102 10.6607 83.7561 10.5269 83.7561 10.3484V10.2442ZM88.8406 13.5466V13.5317C88.8406 12.6689 88.2243 11.9549 87.4259 11.9549C86.5995 11.9549 86.0392 12.6689 86.0392 13.5168V13.5317C86.0392 14.3945 86.6415 15.0936 87.4399 15.0936C88.2663 15.0936 88.8406 14.3945 88.8406 13.5466ZM85.4509 13.5466V13.5317C85.4509 12.3863 86.2913 11.4194 87.4399 11.4194C88.5744 11.4194 89.4148 12.3714 89.4148 13.5168V13.5317C89.4148 14.6771 88.5744 15.644 87.4259 15.644C86.2913 15.644 85.4509 14.692 85.4509 13.5466Z" fill="black"/>
</svg>
