<svg width="126" height="31" viewBox="0 0 126 31" fill="none" xmlns="http://www.w3.org/2000/svg">
<path d="M33.0109 11.0001H45.7798V13.3832H40.7591V26.7796H37.9983V13.3832H32.9998V11.0001H33.0109ZM45.2343 15.3542H47.5944V17.5591H47.6389C47.7168 17.2473 47.8616 16.9467 48.0731 16.6571C48.2846 16.3676 48.5406 16.0892 48.8412 15.8554C49.1418 15.6104 49.4758 15.4211 49.8431 15.2652C50.2105 15.1204 50.589 15.0424 50.9675 15.0424C51.2569 15.0424 51.4685 15.0536 51.5798 15.0647C51.6911 15.0758 51.8024 15.0981 51.9249 15.1093V17.5369C51.7468 17.5035 51.5686 17.4812 51.3794 17.4589C51.1901 17.4366 51.012 17.4255 50.8339 17.4255C50.4109 17.4255 50.0101 17.5146 49.6316 17.6816C49.2531 17.8487 48.9303 18.1048 48.652 18.4277C48.3737 18.7618 48.151 19.1627 47.984 19.6527C47.817 20.1427 47.7391 20.6995 47.7391 21.3342V26.7685H45.2232V15.3542H45.2343ZM63.4914 26.7796H61.02V25.1872H60.9755C60.6638 25.7663 60.2074 26.2228 59.5951 26.568C58.9828 26.9133 58.3594 27.0914 57.7249 27.0914C56.222 27.0914 55.131 26.724 54.4631 25.9778C53.7951 25.2317 53.4612 24.107 53.4612 22.6037V15.3542H55.9771V22.3587C55.9771 23.3609 56.1663 24.0736 56.556 24.4856C56.9345 24.8977 57.4799 25.1093 58.1702 25.1093C58.7045 25.1093 59.1387 25.0313 59.4949 24.8643C59.8511 24.6972 60.1406 24.4856 60.3521 24.2072C60.5747 23.94 60.7306 23.6059 60.8308 23.2273C60.931 22.8487 60.9755 22.4366 60.9755 21.9912V15.3654H63.4914V26.7796ZM67.7774 23.1159C67.8553 23.8509 68.1336 24.3632 68.6123 24.6638C69.1022 24.9534 69.681 25.1093 70.3601 25.1093C70.5939 25.1093 70.8611 25.087 71.1617 25.0536C71.4622 25.0202 71.7517 24.9422 72.0077 24.842C72.2749 24.7418 72.4864 24.5859 72.6645 24.3854C72.8315 24.185 72.9094 23.9289 72.8983 23.6059C72.8872 23.283 72.7647 23.0157 72.5421 22.8153C72.3194 22.6037 72.0411 22.4478 71.696 22.3142C71.3509 22.1917 70.9613 22.0803 70.516 21.9912C70.0707 21.9021 69.6254 21.8019 69.169 21.7017C68.7014 21.6015 68.245 21.4678 67.8108 21.3231C67.3766 21.1783 66.987 20.9778 66.6419 20.7217C66.2968 20.4767 66.0185 20.1538 65.8181 19.764C65.6066 19.3743 65.5064 18.8954 65.5064 18.3164C65.5064 17.6928 65.6623 17.1805 65.9628 16.7574C66.2634 16.3342 66.653 16.0001 67.1095 15.744C67.577 15.4879 68.0891 15.3097 68.6569 15.1983C69.2246 15.0981 69.7701 15.0424 70.2822 15.0424C70.8722 15.0424 71.44 15.1093 71.9743 15.2317C72.5087 15.3542 72.9985 15.5547 73.4327 15.8442C73.8668 16.1226 74.2231 16.4901 74.5125 16.9355C74.8019 17.381 74.9801 17.9266 75.058 18.5614H72.4307C72.3083 17.96 72.0411 17.548 71.607 17.3476C71.1728 17.136 70.6718 17.0358 70.1152 17.0358C69.9371 17.0358 69.7256 17.0469 69.4807 17.0803C69.2357 17.1137 69.0131 17.1694 68.7905 17.2473C68.5789 17.3253 68.4008 17.4478 68.245 17.6037C68.1002 17.7596 68.0223 17.96 68.0223 18.2162C68.0223 18.528 68.1336 18.773 68.3452 18.9623C68.5567 19.1516 68.835 19.3075 69.1801 19.4411C69.5252 19.5636 69.9148 19.675 70.3601 19.764C70.8054 19.8531 71.2618 19.9534 71.7294 20.0536C72.1858 20.1538 72.6311 20.2874 73.0764 20.4322C73.5217 20.577 73.9114 20.7774 74.2565 21.0335C74.6016 21.2897 74.8799 21.6015 75.0914 21.9801C75.3029 22.3587 75.4142 22.8375 75.4142 23.3943C75.4142 24.0736 75.2584 24.6415 74.9467 25.1204C74.635 25.5881 74.2342 25.9778 73.7444 26.2674C73.2545 26.5569 72.6979 26.7796 72.0968 26.9133C71.4956 27.0469 70.8945 27.1137 70.3045 27.1137C69.5809 27.1137 68.9129 27.0358 68.3006 26.8687C67.6884 26.7017 67.154 26.4567 66.7087 26.1338C66.2634 25.7997 65.9072 25.3876 65.6511 24.8977C65.3951 24.4077 65.2615 23.8175 65.2392 23.1382H67.7774V23.1159ZM76.0822 15.3542H77.9858V11.9244H80.5017V15.3542H82.7727V17.2362H80.5017V23.3387C80.5017 23.6059 80.5129 23.8286 80.5351 24.0291C80.5574 24.2184 80.6131 24.3854 80.691 24.5191C80.7689 24.6527 80.8914 24.7529 81.0583 24.8197C81.2253 24.8865 81.4369 24.9199 81.7263 24.9199C81.9044 24.9199 82.0825 24.9199 82.2606 24.9088C82.4388 24.8977 82.6169 24.8754 82.795 24.8309V26.7796C82.5167 26.813 82.2384 26.8353 81.9823 26.8687C81.7152 26.9021 81.448 26.9133 81.1697 26.9133C80.5017 26.9133 79.9674 26.8464 79.5666 26.724C79.1658 26.6015 78.843 26.4121 78.6204 26.1672C78.3866 25.9222 78.2419 25.6215 78.1528 25.254C78.0749 24.8865 78.0192 24.4634 78.0081 23.9957V17.2585H76.1044V15.3542H76.0822ZM84.5539 15.3542H86.9362V16.9021H86.9808C87.337 16.234 87.8268 15.7663 88.4614 15.4767C89.0959 15.1872 89.775 15.0424 90.5209 15.0424C91.4226 15.0424 92.2019 15.1983 92.8698 15.5213C93.5378 15.8331 94.0944 16.2674 94.5397 16.8242C94.985 17.381 95.3078 18.0268 95.5305 18.7618C95.7531 19.4968 95.8644 20.2874 95.8644 21.1226C95.8644 21.891 95.7642 22.6371 95.5639 23.3498C95.3635 24.0736 95.0629 24.7084 94.6621 25.2652C94.2614 25.8219 93.7493 26.2562 93.1259 26.5903C92.5024 26.9244 91.7788 27.0914 90.9328 27.0914C90.5654 27.0914 90.198 27.058 89.8307 26.9912C89.4633 26.9244 89.1071 26.813 88.7731 26.6683C88.4391 26.5235 88.1163 26.3342 87.838 26.1003C87.5485 25.8665 87.3148 25.5992 87.1144 25.2986H87.0698V31.0001H84.5539V15.3542ZM93.3485 21.0781C93.3485 20.5658 93.2817 20.0647 93.1481 19.5747C93.0145 19.0848 92.8142 18.6616 92.547 18.283C92.2798 17.9044 91.9458 17.6037 91.5562 17.381C91.1554 17.1583 90.699 17.0358 90.1869 17.0358C89.1293 17.0358 88.3278 17.4032 87.7934 18.1382C87.2591 18.8732 86.9919 19.8531 86.9919 21.0781C86.9919 21.6571 87.0587 22.1917 87.2034 22.6816C87.3482 23.1716 87.5485 23.5948 87.838 23.9511C88.1163 24.3075 88.4503 24.5859 88.8399 24.7863C89.2295 24.9979 89.686 25.0981 90.1981 25.0981C90.7769 25.0981 91.2556 24.9756 91.6564 24.7418C92.0572 24.5079 92.38 24.1961 92.636 23.8286C92.8921 23.45 93.0813 23.0268 93.1927 22.548C93.2928 22.0692 93.3485 21.5792 93.3485 21.0781ZM97.7903 11.0001H100.306V13.3832H97.7903V11.0001ZM97.7903 15.3542H100.306V26.7796H97.7903V15.3542ZM102.555 11.0001H105.071V26.7796H102.555V11.0001ZM112.786 27.0914C111.873 27.0914 111.06 26.9355 110.348 26.6349C109.635 26.3342 109.034 25.911 108.533 25.3877C108.043 24.8531 107.665 24.2184 107.409 23.4834C107.153 22.7485 107.019 21.9355 107.019 21.0558C107.019 20.1872 107.153 19.3854 107.409 18.6505C107.665 17.9155 108.043 17.2807 108.533 16.7462C109.023 16.2117 109.635 15.7997 110.348 15.499C111.06 15.1983 111.873 15.0424 112.786 15.0424C113.699 15.0424 114.511 15.1983 115.224 15.499C115.936 15.7997 116.537 16.2228 117.038 16.7462C117.528 17.2807 117.907 17.9155 118.163 18.6505C118.419 19.3854 118.552 20.1872 118.552 21.0558C118.552 21.9355 118.419 22.7485 118.163 23.4834C117.907 24.2184 117.528 24.8531 117.038 25.3877C116.548 25.9222 115.936 26.3342 115.224 26.6349C114.511 26.9355 113.699 27.0914 112.786 27.0914ZM112.786 25.0981C113.342 25.0981 113.832 24.9756 114.244 24.7418C114.656 24.5079 114.99 24.1961 115.257 23.8175C115.524 23.4389 115.713 23.0046 115.847 22.5257C115.97 22.0469 116.036 21.5569 116.036 21.0558C116.036 20.5658 115.97 20.087 115.847 19.597C115.725 19.107 115.524 18.6839 115.257 18.3052C114.99 17.9266 114.656 17.626 114.244 17.3921C113.832 17.1583 113.342 17.0358 112.786 17.0358C112.229 17.0358 111.739 17.1583 111.327 17.3921C110.915 17.626 110.581 17.9378 110.314 18.3052C110.047 18.6839 109.858 19.107 109.724 19.597C109.602 20.087 109.535 20.5658 109.535 21.0558C109.535 21.5569 109.602 22.0469 109.724 22.5257C109.847 23.0046 110.047 23.4389 110.314 23.8175C110.581 24.1961 110.915 24.5079 111.327 24.7418C111.739 24.9868 112.229 25.0981 112.786 25.0981ZM119.287 15.3542H121.191V11.9244H123.707V15.3542H125.978V17.2362H123.707V23.3387C123.707 23.6059 123.718 23.8286 123.74 24.0291C123.762 24.2184 123.818 24.3854 123.896 24.5191C123.974 24.6527 124.096 24.7529 124.263 24.8197C124.43 24.8865 124.642 24.9199 124.931 24.9199C125.109 24.9199 125.287 24.9199 125.465 24.9088C125.644 24.8977 125.822 24.8754 126 24.8309V26.7796C125.722 26.813 125.443 26.8353 125.187 26.8687C124.92 26.9021 124.653 26.9133 124.374 26.9133C123.707 26.9133 123.172 26.8464 122.771 26.724C122.371 26.6015 122.048 26.4121 121.825 26.1672C121.591 25.9222 121.447 25.6215 121.358 25.254C121.28 24.8865 121.224 24.4634 121.213 23.9957V17.2585H119.309V15.3542H119.287Z" fill="#191919"/>
<path d="M30.1922 10.987H18.6628L15.1016 0L11.5293 10.987L0 10.9759L9.33698 17.7731L5.76467 28.7489L15.1016 21.9628L24.4275 28.7489L20.8663 17.7731L30.1922 10.987Z" fill="#00B67B"/>
<path d="M21.6677 20.2578L20.8665 17.7729L15.1018 21.9627L21.6677 20.2578Z" fill="#005128"/>
</svg>
