<svg width="18" height="18" viewBox="0 0 18 18" fill="none" xmlns="http://www.w3.org/2000/svg">
<path fill-rule="evenodd" clip-rule="evenodd" d="M17.9437 6.93251L16.7871 9.00051L17.9346 11.0776C17.9912 11.18 18.0058 11.3005 17.9753 11.4135C17.9448 11.5264 17.8716 11.6232 17.7711 11.6832L15.7335 12.8943L15.7032 15.2651C15.7017 15.3835 15.654 15.4965 15.5703 15.5802C15.4866 15.6639 15.3735 15.7116 15.2551 15.7132L12.8845 15.7435L11.6734 17.7812C11.6129 17.8811 11.5162 17.9538 11.4034 17.9843C11.2906 18.0147 11.1705 18.0006 11.0679 17.9447L9 16.7881L6.92303 17.9356C6.8206 17.9923 6.70018 18.0069 6.5872 17.9763C6.47421 17.9458 6.37751 17.8726 6.3175 17.7721L5.10643 15.7344L2.73578 15.7041C2.61742 15.7026 2.50436 15.6548 2.42066 15.5711C2.33697 15.4874 2.28925 15.3744 2.28768 15.256L2.25741 12.8852L0.219795 11.6741C0.119322 11.6141 0.0461025 11.5174 0.0155966 11.4044C-0.0149093 11.2914 -0.000313761 11.171 0.0563013 11.0685L1.21287 9.00051L0.0563013 6.92645C-0.000313761 6.82402 -0.0149093 6.70359 0.0155966 6.5906C0.0461025 6.47761 0.119322 6.3809 0.219795 6.32088L2.26649 5.10672L2.29677 2.73593C2.29834 2.61757 2.34605 2.5045 2.42974 2.4208C2.51344 2.3371 2.62651 2.28938 2.74486 2.28782L5.11552 2.25754L6.32658 0.219807C6.38659 0.119329 6.4833 0.0461051 6.59628 0.0155975C6.70927 -0.0149101 6.82969 -0.000313784 6.93211 0.0563045L9 1.21294L11.0739 0.0563045C11.1764 -0.000313784 11.2968 -0.0149101 11.4098 0.0155975C11.5228 0.0461051 11.6195 0.119329 11.6795 0.219807L12.8936 2.26662L15.2642 2.2969C15.3826 2.29847 15.4956 2.34618 15.5793 2.42988C15.663 2.51358 15.7107 2.62666 15.7123 2.74502L15.7426 5.11581L17.7802 6.32694C17.8807 6.38695 17.9539 6.48367 17.9844 6.59666C18.0149 6.70965 18.0003 6.83007 17.9437 6.93251ZM7.86266 10.0846L11.4375 6.45772C11.7428 6.14884 12.245 6.14884 12.57 6.46769C12.8753 6.77657 12.8753 7.28472 12.57 7.5936L8.43385 11.7784C8.27628 11.9279 8.06947 12.0076 7.87251 12.0076C7.66571 12.0076 7.46875 11.9378 7.31118 11.7784L5.42037 9.86535C5.11508 9.55647 5.11508 9.04832 5.42037 8.73944C5.72566 8.43056 6.2279 8.43056 6.53319 8.73944L7.86266 10.0846Z" fill="#00B67B"/>
</svg>
